<svg width="55" height="41" viewBox="0 0 55 41" fill="none" xmlns="http://www.w3.org/2000/svg">
<path d="M20.3009 39.6385C19.0065 39.6385 17.7111 39.1555 16.7177 38.1855L1.90292 23.7398C1.32029 23.1725 1 22.415 1 21.6086C1 20.8023 1.32029 20.0448 1.90394 19.4764L4.77131 16.6802C5.9569 15.5241 7.88577 15.5241 9.07034 16.6812L19.5017 26.8523C19.9033 27.2437 20.5775 27.2387 20.972 26.8401L45.7219 1.90205C46.8882 0.726629 48.817 0.696126 50.0209 1.83291L52.9361 4.58335C53.5279 5.14259 53.8614 5.89502 53.8746 6.70134C53.8878 7.50767 53.5787 8.26925 53.0062 8.84577L23.9441 38.1276C22.9466 39.1342 21.6237 39.6385 20.3009 39.6385L20.3009 39.6385ZM6.9198 17.8424C6.65544 17.8424 6.39107 17.941 6.19076 18.1373L3.32338 20.9335C3.13629 21.1155 3.0336 21.3544 3.0336 21.6086C3.0336 21.8628 3.13731 22.1018 3.32338 22.2838L18.1371 36.7305C19.3471 37.913 21.3055 37.8978 22.5002 36.6959L51.5614 7.41412C51.7454 7.22907 51.843 6.9891 51.839 6.7349C51.8349 6.4807 51.7281 6.24175 51.538 6.0628L48.6228 3.31235C48.2151 2.92495 47.5582 2.93715 47.1637 3.33472L22.4148 28.2738C21.2292 29.4665 19.2841 29.4827 18.0802 28.3083L7.64987 18.1363C7.44956 17.94 7.18519 17.8424 6.91981 17.8424L6.9198 17.8424Z" fill="url(#paint0_linear)" stroke="#57ACFF" stroke-width="2"/>
<defs>
<linearGradient id="paint0_linear" x1="27.4368" y1="0.6585" x2="27.4368" y2="41.0844" gradientUnits="userSpaceOnUse">
<stop stop-color="#00C6FF"/>
<stop offset="1" stop-color="#0072FF"/>
</linearGradient>
</defs>
</svg>
