<svg width="375" height="939" viewBox="0 0 375 939" fill="none" xmlns="http://www.w3.org/2000/svg">
<path opacity="0.8" d="M-57.8927 161.492C-15.2457 332.778 131.856 625.635 477.112 597.748C469.222 617.881 461.328 637.974 453.439 658.107C443.736 682.869 434.032 707.631 424.341 732.362C59.3103 597.985 -57.2003 310.62 -73.7508 153.515C-68.472 156.158 -63.1885 158.84 -57.8927 161.492Z" fill="url(#paint0_linear)"/>
<path opacity="0.4" d="M-75.7157 148.175C-59.306 156.384 -42.8796 164.601 -26.4458 172.749C50.7146 439.797 292.78 544.528 383.178 559.199C299.806 570.903 60.099 489.496 -97.4245 203.345C-90.1962 184.975 -82.9559 166.575 -75.7157 148.175Z" fill="url(#paint1_linear)"/>
<path opacity="0.6" d="M459.899 643.509C457.135 650.58 454.383 657.62 451.618 664.692C434.745 707.801 417.919 750.896 401.063 794.013C74.903 633.917 -51.8197 355.109 -98.6684 171.339C-97.6164 168.649 -96.5645 165.958 -95.5003 163.235C-37.0787 348.929 122.414 626.931 459.899 643.509Z" fill="url(#paint2_linear)"/>
<path opacity="0.6" d="M481.626 563.253C470.144 592.072 458.678 620.899 447.2 649.755C447.104 649.996 447.009 650.236 446.913 650.477C135.313 582.308 2.64844 349.489 -46.6836 247.571C1.15563 346.772 192.338 583.266 481.626 563.253Z" fill="url(#paint3_linear)"/>
<defs>
<linearGradient id="paint0_linear" x1="118.181" y1="588.678" x2="285.077" y2="245.763" gradientUnits="userSpaceOnUse">
<stop stop-color="#00B8FF"/>
<stop offset="0.1844" stop-color="#00B2FF" stop-opacity="0.8138"/>
<stop offset="0.4223" stop-color="#00A2FF" stop-opacity="0.5735"/>
<stop offset="0.6896" stop-color="#0088FF" stop-opacity="0.3036"/>
<stop offset="0.9766" stop-color="#0063FF" stop-opacity="0.0138"/>
<stop offset="0.9902" stop-color="#0061FF" stop-opacity="0"/>
</linearGradient>
<linearGradient id="paint1_linear" x1="399.941" y1="519.285" x2="-521.838" y2="132.19" gradientUnits="userSpaceOnUse">
<stop stop-color="#00B8FF"/>
<stop offset="0.188" stop-color="#00AFFF" stop-opacity="0.8481"/>
<stop offset="0.5476" stop-color="#00A5FF" stop-opacity="0.5576"/>
<stop offset="0.9902" stop-color="#00A2FF" stop-opacity="0.2"/>
</linearGradient>
<linearGradient id="paint2_linear" x1="78.9143" y1="713.346" x2="245.841" y2="153.854" gradientUnits="userSpaceOnUse">
<stop stop-color="#00B8FF"/>
<stop offset="0.0638" stop-color="#00AFFF" stop-opacity="0.9356"/>
<stop offset="0.324" stop-color="#008DFF" stop-opacity="0.6728"/>
<stop offset="0.5719" stop-color="#0075FF" stop-opacity="0.4225"/>
<stop offset="0.8002" stop-color="#0066FF" stop-opacity="0.1919"/>
<stop offset="0.9902" stop-color="#0061FF" stop-opacity="0"/>
</linearGradient>
<linearGradient id="paint3_linear" x1="170.536" y1="891.932" x2="-46.4455" y2="247.47" gradientUnits="userSpaceOnUse">
<stop stop-color="#00B8FF"/>
<stop offset="0.0638" stop-color="#00AFFF" stop-opacity="0.9356"/>
<stop offset="0.324" stop-color="#008DFF" stop-opacity="0.6728"/>
<stop offset="0.5719" stop-color="#0075FF" stop-opacity="0.4225"/>
<stop offset="0.8002" stop-color="#0066FF" stop-opacity="0.1919"/>
<stop offset="0.9902" stop-color="#0061FF" stop-opacity="0"/>
</linearGradient>
</defs>
</svg>
