<svg version="1.1" xmlns="http://www.w3.org/2000/svg" xmlns:xlink="http://www.w3.org/1999/xlink" viewBox="0 0 226 226"><g fill="none" fill-rule="nonzero" stroke="none" stroke-width="1" stroke-linecap="butt" stroke-linejoin="miter" stroke-miterlimit="10" stroke-dasharray="" stroke-dashoffset="0" font-family="none" font-weight="none" font-size="none" text-anchor="none" style="mix-blend-mode: normal"><path d="M0,226v-226h226v226z" fill="none"></path><g><path d="M29.38,61.02c-2.4973,0 -4.52,2.0227 -4.52,4.52c0,2.4973 2.0227,4.52 4.52,4.52c2.4973,0 4.52,-2.0227 4.52,-4.52c0,-2.4973 -2.0227,-4.52 -4.52,-4.52z" fill="#ee3e54"></path><path d="M174.02,27.12c-1.24526,0 -2.26,1.01474 -2.26,2.26c0,1.24526 1.01474,2.26 2.26,2.26c1.24526,0 2.26,-1.01474 2.26,-2.26c0,-1.24526 -1.01474,-2.26 -2.26,-2.26z" fill="#f1bc19"></path><path d="M113,29.38c-46.18084,0 -83.62,37.43916 -83.62,83.62c0,46.18084 37.43916,83.62 83.62,83.62c46.18084,0 83.62,-37.43916 83.62,-83.62c0,-46.18084 -37.43916,-83.62 -83.62,-83.62z" fill="#fce0a2"></path><path d="M187.58,24.86c-4.99686,0 -9.04,4.04314 -9.04,9.04c0,4.99686 4.04314,9.04 9.04,9.04c4.99686,0 9.04,-4.04314 9.04,-9.04c0,-4.99686 -4.04314,-9.04 -9.04,-9.04z" fill="#f1bc19"></path><path d="M196.62,49.72c-2.4973,0 -4.52,2.0227 -4.52,4.52c0,2.4973 2.0227,4.52 4.52,4.52c2.4973,0 4.52,-2.0227 4.52,-4.52c0,-2.4973 -2.0227,-4.52 -4.52,-4.52z" fill="#ee3e54"></path><path d="M183.06,167.24c-2.4973,0 -4.52,2.0227 -4.52,4.52c0,2.4973 2.0227,4.52 4.52,4.52c2.4973,0 4.52,-2.0227 4.52,-4.52c0,-2.4973 -2.0227,-4.52 -4.52,-4.52zM33.9,133.34c-4.99686,0 -9.04,4.04314 -9.04,9.04c0,4.99686 4.04314,9.04 9.04,9.04c4.99686,0 9.04,-4.04314 9.04,-9.04c0,-4.99686 -4.04314,-9.04 -9.04,-9.04z" fill="#fbcd59"></path><path d="M56.5,192.1c-2.4973,0 -4.52,2.0227 -4.52,4.52c0,2.4973 2.0227,4.52 4.52,4.52c2.4973,0 4.52,-2.0227 4.52,-4.52c0,-2.4973 -2.0227,-4.52 -4.52,-4.52z" fill="#ee3e54"></path><path d="M41.81,115.26c-3.11654,0 -5.65,2.53346 -5.65,5.65c0,3.11654 2.53346,5.65 5.65,5.65c3.11654,0 5.65,-2.53346 5.65,-5.65c0,-3.11654 -2.53346,-5.65 -5.65,-5.65z" fill="#ffffff"></path><path d="M47.46,149.16c-1.24526,0 -2.26,1.01474 -2.26,2.26c0,1.24526 1.01474,2.26 2.26,2.26c1.24526,0 2.26,-1.01474 2.26,-2.26c0,-1.24526 -1.01474,-2.26 -2.26,-2.26z" fill="#f1bc19"></path><path d="M180.8,74.58c-1.24526,0 -2.26,1.01474 -2.26,2.26c0,1.24526 1.01474,2.26 2.26,2.26c1.24526,0 2.26,-1.01474 2.26,-2.26c0,-1.24526 -1.01474,-2.26 -2.26,-2.26z" fill="#ffffff"></path><path d="M114.13,157.75026c-3.1866,0 -6.23308,-1.19102 -8.58122,-3.36288c-1.63398,-1.50968 -3.64538,-2.3391 -5.67712,-2.3391h-36.6007c-2.86116,0 -5.19122,-2.33006 -5.19122,-5.19122v-66.90052c0,-2.8702 2.33006,-5.19122 5.19122,-5.19122h101.71808c2.86116,0 5.19122,2.32102 5.19122,5.19122v66.89826c0,2.86116 -2.33006,5.19122 -5.19122,5.19122h-36.6007c-2.02948,0 -4.04314,0.82942 -5.67712,2.3391c-2.34814,2.16508 -5.39462,3.36514 -8.58122,3.36514z" fill="#ea5167"></path><path d="M164.98904,76.34506c1.98654,0 3.61148,1.6159 3.61148,3.61148v66.89826c0,1.98654 -1.62494,3.60244 -3.61148,3.60244h-36.6007c-2.42724,0 -4.82962,0.98988 -6.75288,2.76398c-2.0566,1.8984 -4.71436,2.9493 -7.5032,2.9493c-2.78884,0 -5.4466,-1.0509 -7.5032,-2.9493c-1.9323,-1.7741 -4.32564,-2.76398 -6.75288,-2.76398h-36.60522c-1.98654,0 -3.61148,-1.6159 -3.61148,-3.60244v-66.89826c0,-1.99558 1.62494,-3.61148 3.61148,-3.61148h101.71808M164.98904,73.18558h-101.71808c-3.73352,0 -6.77096,3.0284 -6.77096,6.77096v66.89826c0,3.73352 3.03744,6.77096 6.77096,6.77096h36.6007c1.73116,0 3.33802,0.75032 4.60814,1.91648c2.53346,2.34814 5.92346,3.78776 9.6502,3.78776c3.72674,0 7.11448,-1.43962 9.6502,-3.78776c1.27238,-1.16616 2.87698,-1.91648 4.60814,-1.91648h36.6007c3.73352,0 6.77096,-3.03744 6.77096,-6.77096v-66.89826c0,-3.74256 -3.03744,-6.77096 -6.77096,-6.77096z" fill="#472b29"></path><path d="M114.13,136.50852c-4.7234,0 -8.5541,3.8307 -8.5541,8.56314c0,4.7234 3.8307,8.5541 8.5541,8.5541c4.7234,0 8.5541,-3.8307 8.5541,-8.5541c0,-4.73018 -3.8307,-8.56314 -8.5541,-8.56314z" fill="#472b29"></path><path d="M66.88244,143.48288c-1.11192,0 -2.0227,-0.89948 -2.0227,-2.0227v-62.27204l3.96404,-9.99372c0.73224,-1.8532 2.50634,-3.05552 4.51096,-3.05552c17.21442,0.01808 30.13936,3.08038 39.41666,8.41398l0.37064,0.21244h1.9775l0.33448,-0.17628c9.91462,-5.06692 23.11302,-8.21962 39.09122,-8.41398c2.28712,0 4.2375,1.31532 5.0398,3.3448l3.8307,9.65698v62.28334c0,1.12096 -0.90852,2.0227 -2.02948,2.0227z" fill="#fffef4"></path><path d="M73.34378,67.7209c16.68558,0.01808 29.7077,3.08038 38.6234,8.20154l0.73224,0.42488h2.7798l0.67122,-0.34352c9.70218,-4.96974 22.6452,-8.05238 38.43808,-8.24448c1.56166,0 2.94026,0.91756 3.50526,2.34814l3.7177,9.38352v61.97372c0,0.24634 -0.19436,0.4407 -0.4407,0.4407h-94.48834c-0.24634,0 -0.4407,-0.19436 -0.4407,-0.4407v-61.97598l3.84878,-9.71122c0.49494,-1.2543 1.695,-2.0566 3.04648,-2.0566h0.00678M73.33474,64.55916c-2.63968,0 -5.01494,1.59782 -5.98448,4.05218l-4.07026,10.27622v62.57488c0,1.99558 1.6159,3.61148 3.60244,3.61148h94.49738c1.98654,0 3.60244,-1.6159 3.60244,-3.61148v-62.57488l-3.93692,-9.94852c-1.0509,-2.63968 -3.61148,-4.34372 -6.44552,-4.34372c-0.02712,0 -0.06102,0 -0.08814,0c-14.7691,0.18532 -28.7698,2.9493 -39.7873,8.59026h-1.1752c-10.59488,-6.0907 -24.9843,-8.61738 -40.20314,-8.62416c-0.00226,-0.00226 -0.00226,-0.00226 -0.0113,-0.00226z" fill="#472b29"></path><path d="M156.87564,133.57052l-42.67558,2.2148l-42.8157,-2.2148l-4.71436,8.15634h94.92z" fill="#bebacb"></path><path d="M114.13,137.63852c-0.26442,0 -0.5198,-0.08814 -0.73224,-0.26442c-0.25764,-0.21244 -0.39776,-0.52884 -0.39776,-0.86558v-26.89852c0,-0.62602 0.50398,-1.13 1.13,-1.13c0.62602,0 1.13,0.50398 1.13,1.13v25.57416c12.88878,-2.02948 26.12334,-2.9832 40.68,-2.63064v-65.88352c0,-0.62602 0.50398,-1.13 1.13,-1.13c0.62602,0 1.13,0.50398 1.13,1.13v67.04968c0,0.30058 -0.1243,0.60116 -0.34352,0.8023c-0.22148,0.21244 -0.51302,0.33448 -0.82038,0.3277c-15.23692,-0.45878 -29.37096,0.565 -42.71852,2.7798c-0.06328,0.00904 -0.12656,0.00904 -0.18758,0.00904z" fill="#472b29"></path><path d="M114.13,138.12442c-0.06102,0 -0.1243,-0.00904 -0.18532,-0.01808c-13.33852,-2.24192 -27.46352,-3.27474 -42.71852,-2.81596c-0.30962,-0.00904 -0.60116,-0.10622 -0.82038,-0.31866c-0.21922,-0.21244 -0.34578,-0.51076 -0.34578,-0.81134v-67.49038c0,-0.62602 0.50398,-1.13 1.13,-1.13c0.62602,0 1.13,0.50398 1.13,1.13v66.33552c14.55666,-0.35256 27.80026,0.60116 40.68,2.65776v-35.09328c0,-0.62602 0.50398,-1.13 1.13,-1.13c0.62602,0 1.13,0.50398 1.13,1.13v36.42442c0,0.33448 -0.14916,0.6441 -0.39776,0.86558c-0.21244,0.16724 -0.46782,0.26442 -0.73224,0.26442z" fill="#472b29"></path><path d="M113,74.58v19.21c0,0.62602 0.50398,1.13 1.13,1.13c0.62602,0 1.13,-0.50398 1.13,-1.13v-19.21z" fill="#472b29"></path><g fill="#472b29"><path d="M107.35,80.795c-0.08588,0 -0.17176,-0.02034 -0.25312,-0.05876c-6.32122,-3.15948 -11.29548,-4.80928 -17.16922,-5.69294c-0.30962,-0.04746 -0.5198,-0.33222 -0.4746,-0.64184c0.0452,-0.31188 0.339,-0.52432 0.64184,-0.4746c6.0003,0.89948 11.07174,2.58318 17.50822,5.7969c0.28024,0.14012 0.39098,0.47912 0.25312,0.7571c-0.09944,0.19888 -0.30058,0.31414 -0.50624,0.31414z"></path></g><g fill="#472b29"><path d="M107.35,130.515c-0.04068,0 -0.08136,-0.00452 -0.1243,-0.01356c-10.02084,-2.24644 -16.85282,-2.24644 -29.2557,-2.24644c-0.31188,0 -0.565,-0.25312 -0.565,-0.565c0,-0.31188 0.25312,-0.565 0.565,-0.565c12.48198,0 19.35916,0 29.5043,2.27356c0.3051,0.0678 0.49494,0.37064 0.42714,0.67574c-0.05876,0.26216 -0.29154,0.4407 -0.55144,0.4407z"></path></g><g fill="#472b29"><path d="M77.97,83.055c-0.31188,0 -0.565,-0.25312 -0.565,-0.565v-9.04c0,-0.31188 0.25312,-0.565 0.565,-0.565c0.0339,0 3.34932,0.00678 8.11566,0.52206c0.30962,0.03616 0.53562,0.31414 0.50172,0.62376c-0.0339,0.30962 -0.32996,0.52432 -0.6215,0.50172c-3.56628,-0.38872 -6.30088,-0.4859 -7.43088,-0.51076v8.46822c0,0.31188 -0.25312,0.565 -0.565,0.565z"></path></g><g fill="#472b29"><path d="M77.97,114.695c-0.31188,0 -0.565,-0.25312 -0.565,-0.565v-27.12c0,-0.31188 0.25312,-0.565 0.565,-0.565c0.31188,0 0.565,0.25312 0.565,0.565v27.12c0,0.31188 -0.25312,0.565 -0.565,0.565z"></path></g><g fill="#472b29"><path d="M77.97,128.255c-0.31188,0 -0.565,-0.25312 -0.565,-0.565v-6.78c0,-0.31188 0.25312,-0.565 0.565,-0.565c0.31188,0 0.565,0.25312 0.565,0.565v6.78c0,0.31188 -0.25312,0.565 -0.565,0.565z"></path></g><g fill="#472b29"><path d="M120.91,80.795c-0.20566,0 -0.4068,-0.11526 -0.50624,-0.31414c-0.14012,-0.27798 -0.02712,-0.61698 0.25312,-0.7571c6.43422,-3.21598 11.50566,-4.89742 17.50822,-5.7969c0.30962,-0.02938 0.59664,0.16498 0.64184,0.4746c0.04746,0.30962 -0.16498,0.59664 -0.4746,0.64184c-5.876,0.88366 -10.848,2.5312 -17.16922,5.69294c-0.08136,0.03842 -0.16724,0.05876 -0.25312,0.05876z"></path></g><g fill="#472b29"><path d="M150.29,83.055c-0.31188,0 -0.565,-0.25312 -0.565,-0.565v-8.46596c-1.13,0.02486 -3.8646,0.12204 -7.43088,0.51076c-0.28928,0.02938 -0.5876,-0.1921 -0.6215,-0.50172c-0.0339,-0.31188 0.18984,-0.58986 0.50172,-0.62376c4.76634,-0.51754 8.08402,-0.52206 8.11566,-0.52206c0.31188,0 0.565,0.25312 0.565,0.565v9.04c0,0.30962 -0.25312,0.56274 -0.565,0.56274z"></path></g><g fill="#472b29"><path d="M150.29,125.995c-0.31188,0 -0.565,-0.25312 -0.565,-0.565v-36.16c0,-0.31188 0.25312,-0.565 0.565,-0.565c0.31188,0 0.565,0.25312 0.565,0.565v36.16c0,0.31188 -0.25312,0.565 -0.565,0.565z"></path></g><g><path d="M157.73896,170.4944c-2.37978,0 -4.53808,-1.3108 -5.62966,-3.42616l-1.34922,-2.6103l11.24576,-5.80594l1.34922,2.6103c1.60008,3.10072 0.37968,6.92464 -2.71878,8.52472c-0.90852,0.47234 -1.88258,0.70738 -2.89732,0.70738z" fill="#f4989e"></path><path d="M161.32558,160.78318l0.6215,1.20684c1.20006,2.32554 0.28702,5.19348 -2.03852,6.39354c-0.68252,0.35256 -1.4125,0.5311 -2.17186,0.5311c-1.7854,0 -3.40582,-0.98536 -4.22394,-2.56962l-0.6215,-1.20458l8.43432,-4.35728M162.6861,156.52082l-14.05494,7.25912l2.07468,4.01602c1.40572,2.72104 4.1697,4.2827 7.03538,4.2827c1.22266,0 2.4634,-0.2825 3.62278,-0.88366v0c3.88042,-2.00462 5.40366,-6.77774 3.39904,-10.65816l-2.07694,-4.01602z" fill="#472b29"></path><rect x="25.8813" y="70.76678" transform="rotate(-27.311) scale(2.26,2.26)" width="5.6" height="22.599" fill="#88ae45"></rect><path d="M135.91866,111.5875l21.98528,42.56936l-8.43432,4.35502l-21.98528,-42.56936l8.43432,-4.35502M137.27692,107.32514l-14.05494,7.25912l24.88938,48.19224l14.05494,-7.25912l-24.88938,-48.19224z" fill="#472b29"></path><rect x="25.88241" y="91.26741" transform="rotate(-27.311) scale(2.26,2.26)" width="5.6" height="4.1" fill="#cbc9bc"></rect><path d="M157.17848,152.75114l2.80014,5.42174l-8.43432,4.35502l-2.80014,-5.42174l8.43432,-4.35502M158.53674,148.48878l-14.05494,7.25912l5.70424,11.04462l14.05494,-7.25912l-5.70424,-11.04462z" fill="#472b29"></path><path d="M149.43572,148.66732c-0.2034,0 -0.40228,-0.11074 -0.50172,-0.30736l-3.11202,-6.02516c-0.14238,-0.27572 -0.0339,-0.61698 0.24182,-0.75936c0.27346,-0.1469 0.61698,-0.04068 0.76162,0.24182l3.11202,6.02516c0.14238,0.27572 0.0339,0.61698 -0.24182,0.75936c-0.08362,0.0452 -0.17176,0.06554 -0.2599,0.06554z" fill="#472b29"></path><path d="M144.25128,138.6284c-0.2034,0 -0.40228,-0.11074 -0.50172,-0.30736l-9.3338,-18.07322c-0.14238,-0.27572 -0.0339,-0.61698 0.24182,-0.75936c0.27572,-0.14464 0.61698,-0.03842 0.76162,0.24182l9.3338,18.07322c0.14238,0.27572 0.0339,0.61698 -0.24182,0.75936c-0.08362,0.0452 -0.17176,0.06554 -0.2599,0.06554z" fill="#472b29"></path><g fill="#f6cca4"><path d="M122.18916,98.56312l1.03282,16.02114l6.96532,-3.59792l7.08962,-3.6612l-12.46616,-10.11576c-1.08932,-0.88366 -2.712,-0.04746 -2.6216,1.35374z"></path></g><g fill="#472b29"><path d="M123.18808,114.51646l-1.10288,-17.11498c-0.02938,-0.44748 0.21018,-0.87236 0.6102,-1.07802c0.39776,-0.2034 0.88366,-0.15142 1.22944,0.12656l13.31818,10.80732l-1.4238,1.75602l-11.3113,-9.18238l0.9379,14.53858z"></path></g><g fill="#472b29"><path d="M128.6279,102.88876l-4.01602,2.07468l-0.68026,-6.9608z"></path></g></g></g></g></svg>