<svg version="1.1" xmlns="http://www.w3.org/2000/svg" xmlns:xlink="http://www.w3.org/1999/xlink" viewBox="0 0 226 226"><g fill="none" fill-rule="nonzero" stroke="none" stroke-width="1" stroke-linecap="butt" stroke-linejoin="miter" stroke-miterlimit="10" stroke-dasharray="" stroke-dashoffset="0" font-family="none" font-weight="none" font-size="none" text-anchor="none" style="mix-blend-mode: normal"><path d="M0,226v-226h226v226z" fill="none"></path><g><path d="M29.38,61.02c-2.49633,0 -4.52,2.02367 -4.52,4.52c0,2.49633 2.02367,4.52 4.52,4.52c2.49633,0 4.52,-2.02367 4.52,-4.52c0,-2.49633 -2.02367,-4.52 -4.52,-4.52z" fill="#ee3e54"></path><path d="M174.02,27.12c-1.24816,0 -2.26,1.01184 -2.26,2.26c0,1.24816 1.01184,2.26 2.26,2.26c1.24816,0 2.26,-1.01184 2.26,-2.26c0,-1.24816 -1.01184,-2.26 -2.26,-2.26z" fill="#f1bc19"></path><path d="M113,29.38c-46.18205,0 -83.62,37.43795 -83.62,83.62c0,46.18205 37.43795,83.62 83.62,83.62c46.18205,0 83.62,-37.43795 83.62,-83.62c0,-46.18205 -37.43795,-83.62 -83.62,-83.62z" fill="#fce0a2"></path><path d="M187.58,24.86c-4.99265,0 -9.04,4.04735 -9.04,9.04c0,4.99265 4.04735,9.04 9.04,9.04c4.99265,0 9.04,-4.04735 9.04,-9.04c0,-4.99265 -4.04735,-9.04 -9.04,-9.04z" fill="#f1bc19"></path><path d="M196.62,49.72c-2.49633,0 -4.52,2.02367 -4.52,4.52c0,2.49633 2.02367,4.52 4.52,4.52c2.49633,0 4.52,-2.02367 4.52,-4.52c0,-2.49633 -2.02367,-4.52 -4.52,-4.52z" fill="#ee3e54"></path><path d="M183.06,167.24c-2.49633,0 -4.52,2.02367 -4.52,4.52c0,2.49633 2.02367,4.52 4.52,4.52c2.49633,0 4.52,-2.02367 4.52,-4.52c0,-2.49633 -2.02367,-4.52 -4.52,-4.52zM33.9,133.34c-4.99265,0 -9.04,4.04735 -9.04,9.04c0,4.99265 4.04735,9.04 9.04,9.04c4.99265,0 9.04,-4.04735 9.04,-9.04c0,-4.99265 -4.04735,-9.04 -9.04,-9.04z" fill="#fbcd59"></path><path d="M56.5,192.1c-2.49633,0 -4.52,2.02367 -4.52,4.52c0,2.49633 2.02367,4.52 4.52,4.52c2.49633,0 4.52,-2.02367 4.52,-4.52c0,-2.49633 -2.02367,-4.52 -4.52,-4.52z" fill="#ee3e54"></path><path d="M41.81,115.26c-3.12041,0 -5.65,2.52959 -5.65,5.65c0,3.12041 2.52959,5.65 5.65,5.65c3.12041,0 5.65,-2.52959 5.65,-5.65c0,-3.12041 -2.52959,-5.65 -5.65,-5.65z" fill="#ffffff"></path><path d="M47.46,149.16c-1.24816,0 -2.26,1.01184 -2.26,2.26c0,1.24816 1.01184,2.26 2.26,2.26c1.24816,0 2.26,-1.01184 2.26,-2.26c0,-1.24816 -1.01184,-2.26 -2.26,-2.26z" fill="#f1bc19"></path><path d="M180.8,74.58c-1.24816,0 -2.26,1.01184 -2.26,2.26c0,1.24816 1.01184,2.26 2.26,2.26c1.24816,0 2.26,-1.01184 2.26,-2.26c0,-1.24816 -1.01184,-2.26 -2.26,-2.26z" fill="#ffffff"></path><g><path d="M89.96608,168.3361c-0.08588,0 -0.37742,-0.02486 -0.54014,-0.32318l-8.86824,-16.47088c-0.23956,-0.44522 -0.68026,-0.75032 -1.18198,-0.81586c-1.45318,-0.19662 -2.87472,-0.9266 -4.00698,-2.06112c-1.13226,-1.13226 -1.8645,-2.55606 -2.05886,-4.00698c-0.0678,-0.50172 -0.3729,-0.94016 -0.81812,-1.17972l-16.47314,-8.8705c-0.23504,-0.12656 -0.29832,-0.33448 -0.31414,-0.44748c-0.01582,-0.113 -0.01582,-0.32996 0.17176,-0.51754l5.03076,-5.03302c0.113,-0.113 0.2712,-0.17854 0.43166,-0.17854l17.96474,4.47254c0.12882,0.0339 0.25538,0.04746 0.3842,0.04746c0.4859,0 0.95372,-0.226 1.25882,-0.6215l13.71594,-17.98508c0.51302,-0.67348 1.08932,-1.28594 1.66788,-1.90518c0.32092,-0.34126 0.47234,-0.80908 0.41584,-1.27464c-0.05876,-0.46556 -0.32092,-0.88366 -0.71416,-1.13678l-39.01438,-25.08148l-0.03842,-0.35256l5.6839,-5.6839l53.21396,12.83002c0.1243,0.03164 0.2486,0.04746 0.3729,0.04746c0.41584,0 0.81812,-0.16272 1.1187,-0.4633l23.92662,-23.92662c3.83296,-3.83296 9.40838,-4.63752 13.41084,-4.63752c2.0905,0 3.52108,0.23278 3.53238,0.23504c1.43284,0.23956 2.87472,1.71308 3.08716,3.15044c0.01582,0.1017 1.43736,10.46832 -4.54938,16.4528l-24.06448,24.06448c-0.39098,0.39098 -0.54918,0.95598 -0.4181,1.4916l12.89104,52.99926c0.01808,0.07684 -0.00678,0.16046 -0.06328,0.21922l-5.68164,5.68164l-0.35256,-0.04068l-25.07922,-39.0076c-0.25312,-0.3955 -0.67122,-0.65766 -1.13678,-0.7119c-0.06328,-0.00904 -0.12882,-0.01356 -0.1921,-0.01356c-0.40002,0 -0.791,0.15142 -1.0848,0.4294c-0.63054,0.59438 -1.26334,1.18424 -1.95264,1.71082l-17.93536,13.673c-0.50398,0.3842 -0.72998,1.0283 -0.5763,1.64302l4.45446,17.81332c0.05198,0.20566 -0.00904,0.42714 -0.16046,0.57856l-5.03076,5.03076c-0.1469,0.1469 -0.31414,0.17628 -0.42714,0.17628z" fill="#88cdd7"></path><path d="M154.7083,64.33994c1.93908,0 3.2657,0.21244 3.27022,0.21244c0.75484,0.12656 1.6724,1.0622 1.7854,1.8193c0.01356,0.09492 1.2656,9.73834 -4.1019,15.10584l-24.069,24.069c-0.7797,0.7797 -1.09836,1.91196 -0.8362,2.98546l12.7125,52.26024l-3.95726,3.95726l-24.17296,-37.59962c-0.5085,-0.791 -1.3447,-1.31532 -2.27808,-1.43058c-0.12882,-0.01582 -0.25538,-0.0226 -0.3842,-0.0226c-0.8023,0 -1.582,0.3051 -2.17186,0.86332c-0.6102,0.5763 -1.20684,1.13 -1.82382,1.60008l-17.93536,13.673c-1.0057,0.76614 -1.4577,2.0566 -1.15034,3.28378l4.31886,17.27996l-3.71544,3.7177l-8.249,-15.32054c-0.48138,-0.8927 -1.36052,-1.50064 -2.36396,-1.63624c-1.10966,-0.14916 -2.21028,-0.72094 -3.09846,-1.60912c-0.88818,-0.88818 -1.45996,-1.99106 -1.60912,-3.10072c-0.1356,-1.00344 -0.74354,-1.88258 -1.63624,-2.36396l-15.32054,-8.25126l3.71544,-3.7177l17.28448,4.32112c0.25538,0.06328 0.51302,0.09492 0.7684,0.09492c0.9718,0 1.9097,-0.44974 2.51538,-1.24526l13.71594,-17.98282c0.43166,-0.56726 0.94242,-1.1187 1.56392,-1.78088c0.6441,-0.68478 0.9492,-1.62042 0.83394,-2.5538c-0.11526,-0.93338 -0.63958,-1.76506 -1.42832,-2.27356l-37.60414,-24.1707l3.95726,-3.95726l52.26024,12.7125c0.2486,0.06102 0.49946,0.0904 0.74806,0.0904c0.82942,0 1.63624,-0.32544 2.2374,-0.9266l23.92662,-23.92662c3.63182,-3.63408 9.25922,-4.17648 12.29214,-4.17648M154.7083,61.17594c-3.96856,0 -10.21294,0.78422 -14.52954,5.10082l-23.92888,23.92888l-52.99926,-12.89104c-0.14238,-0.0339 -0.28476,-0.05198 -0.42714,-0.05198c-0.4746,0 -0.93564,0.18758 -1.27916,0.5311l-5.6839,5.6839c-0.81586,0.81586 -0.66896,2.17864 0.30058,2.8024l39.01212,25.07922c-0.61472,0.6554 -1.22718,1.31306 -1.77184,2.02722l-13.71594,17.98508l-17.81784,-4.45446c-0.17628,-0.0452 -0.35482,-0.06554 -0.5311,-0.06554c-0.57404,0 -1.13452,0.226 -1.55036,0.64184l-5.03076,5.03076c-1.03734,1.03734 -0.78196,2.78206 0.51076,3.47814l16.47314,8.8705c0.23278,1.72438 1.08028,3.48718 2.5086,4.9155c1.42832,1.42832 3.19112,2.27582 4.9155,2.5086l8.8705,16.47088c0.40454,0.75258 1.1639,1.1526 1.9323,1.1526c0.5537,0 1.11192,-0.20792 1.54584,-0.64184l5.03076,-5.03076c0.54466,-0.5424 0.76162,-1.3334 0.5763,-2.08146l-4.45446,-17.81558l17.93536,-13.673c0.73224,-0.55822 1.40798,-1.18424 2.07694,-1.81478l25.07696,39.00986c0.3503,0.54692 0.93564,0.83168 1.5255,0.83168c0.45878,0 0.91982,-0.17402 1.2769,-0.5311l5.6839,-5.6839c0.44748,-0.44748 0.62828,-1.09384 0.47912,-1.70856l-12.89104,-52.99926l24.069,-24.069c6.64214,-6.64214 4.9946,-17.80428 4.9946,-17.80428c-0.31188,-2.11084 -2.28712,-4.1245 -4.39118,-4.47932c0,0.00226 -1.5255,-0.25312 -3.79228,-0.25312z" fill="#472b29"></path><path d="M75.04782,150.56798c-0.40454,0 -0.80908,-0.15368 -1.1187,-0.4633c-0.61698,-0.61698 -0.61698,-1.62042 0,-2.2374l14.38264,-14.38264c0.61698,-0.61698 1.62042,-0.61698 2.2374,0c0.61698,0.61698 0.61698,1.62042 0,2.2374l-14.38264,14.38264c-0.30962,0.30962 -0.71416,0.4633 -1.1187,0.4633zM95.82174,113.35934c-0.28928,0 -0.57856,-0.11074 -0.80004,-0.32996c-0.4407,-0.4407 -0.4407,-1.15712 0,-1.59782l6.39354,-6.39128c0.4407,-0.4407 1.15712,-0.4407 1.59782,0c0.4407,0.4407 0.4407,1.15712 0,1.59782l-6.39354,6.39128c-0.21922,0.21922 -0.5085,0.32996 -0.79778,0.32996zM105.41092,103.77242c-0.28928,0 -0.57856,-0.11074 -0.80004,-0.32996c-0.4407,-0.4407 -0.4407,-1.15712 0,-1.59782l6.39354,-6.39354c0.4407,-0.4407 1.15712,-0.4407 1.59782,0c0.4407,0.4407 0.4407,1.15712 0,1.59782l-6.39354,6.39354c-0.21922,0.21922 -0.5085,0.32996 -0.79778,0.32996zM111.80446,129.3398c-0.28928,0 -0.57856,-0.11074 -0.80004,-0.32996c-0.4407,-0.4407 -0.4407,-1.15712 0,-1.59782l11.18474,-11.187c0.4407,-0.4407 1.15712,-0.4407 1.59782,0c0.4407,0.4407 0.4407,1.15712 0,1.59782l-11.18474,11.187c-0.21922,0.22148 -0.5085,0.32996 -0.79778,0.32996zM127.78492,113.35934c-0.28928,0 -0.57856,-0.11074 -0.80004,-0.32996c-0.4407,-0.4407 -0.4407,-1.15712 0,-1.59782l4.79346,-4.79346c0.4407,-0.4407 1.15712,-0.4407 1.59782,0c0.4407,0.4407 0.4407,1.15712 0,1.59782l-4.79346,4.79346c-0.21922,0.21922 -0.5085,0.32996 -0.79778,0.32996zM153.3523,79.80286c-0.62376,0 -1.13,-0.50624 -1.13,-1.13c0,-4.1697 -2.69166,-6.86136 -6.86136,-6.86136c-0.62376,0 -1.13,-0.50624 -1.13,-1.13c0,-0.62376 0.50624,-1.13 1.13,-1.13c5.45564,0 9.12136,3.66572 9.12136,9.12136c0,0.62376 -0.50398,1.13 -1.13,1.13zM143.76312,163.93362c-0.18984,0 -0.37516,-0.09492 -0.48138,-0.26894l-10.1813,-16.54546c-0.16272,-0.26442 -0.08136,-0.61246 0.18532,-0.77744c0.26668,-0.16046 0.61246,-0.0791 0.77744,0.18532l10.1813,16.54546c0.16272,0.26442 0.08136,0.61246 -0.18532,0.77744c-0.09266,0.0565 -0.19436,0.08362 -0.29606,0.08362zM131.0687,143.30208c-0.18984,0 -0.37516,-0.09492 -0.48138,-0.26894l-4.09512,-6.65118c-0.16272,-0.26442 -0.08136,-0.61246 0.18532,-0.77744c0.26668,-0.16498 0.61472,-0.08136 0.77744,0.18532l4.09512,6.65118c0.16272,0.26442 0.08136,0.61246 -0.18532,0.77744c-0.09266,0.0565 -0.19436,0.08362 -0.29606,0.08362z" fill="#472b29"></path><path d="M124.53504,132.68234c-0.18984,0 -0.37516,-0.09492 -0.48138,-0.26894l-6.3393,-10.29882c-0.16272,-0.26442 -0.08136,-0.61246 0.18532,-0.77744c0.26894,-0.16046 0.61472,-0.0791 0.77744,0.18532l6.3393,10.29882c0.16272,0.26442 0.08136,0.61246 -0.18532,0.77744c-0.09492,0.0565 -0.19662,0.08362 -0.29606,0.08362zM80.682,93.15268c-0.1017,0 -0.2034,-0.02712 -0.29606,-0.08362l-20.01682,-12.317c-0.26668,-0.16272 -0.34804,-0.51302 -0.18532,-0.77744c0.16272,-0.26894 0.51754,-0.34804 0.77744,-0.18532l20.01682,12.317c0.26668,0.16272 0.34804,0.51302 0.18532,0.77744c-0.10622,0.17402 -0.29154,0.26894 -0.48138,0.26894z" fill="#472b29"></path><g fill="#472b29"><path d="M102.21528,106.40306c-0.1017,0 -0.2034,-0.02712 -0.29606,-0.08362l-16.2494,-10.0005c-0.26668,-0.16272 -0.34804,-0.51302 -0.18532,-0.77744c0.16272,-0.26442 0.51076,-0.3503 0.77744,-0.18532l16.2494,10.0005c0.26668,0.16272 0.34804,0.51302 0.18532,0.77744c-0.10622,0.17402 -0.29154,0.26894 -0.48138,0.26894z"></path></g></g></g></g></svg>