<svg version="1.1" xmlns="http://www.w3.org/2000/svg" xmlns:xlink="http://www.w3.org/1999/xlink" viewBox="0 0 226 226"><g fill="none" fill-rule="nonzero" stroke="none" stroke-width="1" stroke-linecap="butt" stroke-linejoin="miter" stroke-miterlimit="10" stroke-dasharray="" stroke-dashoffset="0" font-family="none" font-weight="none" font-size="none" text-anchor="none" style="mix-blend-mode: normal"><path d="M0,226v-226h226v226z" fill="none"></path><g><circle cx="13" cy="29" transform="scale(2.26,2.26)" r="2" fill="#ee3e54"></circle><circle cx="77" cy="13" transform="scale(2.26,2.26)" r="1" fill="#f1bc19"></circle><circle cx="50" cy="50" transform="scale(2.26,2.26)" r="37" fill="#fce0a2"></circle><circle cx="83" cy="15" transform="scale(2.26,2.26)" r="4" fill="#f1bc19"></circle><circle cx="87" cy="24" transform="scale(2.26,2.26)" r="2" fill="#ee3e54"></circle><circle cx="81" cy="76" transform="scale(2.26,2.26)" r="2" fill="#fbcd59"></circle><circle cx="15" cy="63" transform="scale(2.26,2.26)" r="4" fill="#fbcd59"></circle><circle cx="25" cy="87" transform="scale(2.26,2.26)" r="2" fill="#ee3e54"></circle><circle cx="18.5" cy="53.5" transform="scale(2.26,2.26)" r="2.5" fill="#ffffff"></circle><circle cx="21" cy="67" transform="scale(2.26,2.26)" r="1" fill="#f1bc19"></circle><circle cx="80" cy="34" transform="scale(2.26,2.26)" r="1" fill="#ffffff"></circle><g><rect x="43.7" y="59.7" transform="scale(2.26,2.26)" width="8.6" height="8.6" fill="#ceccbe"></rect><path d="M116.616,136.504v16.272h-16.272v-16.272h16.272M119.78,133.34h-22.6v22.6h22.6v-22.6z" fill="#472b29"></path><path d="M83.03918,161.138c0.65992,-4.59458 4.61944,-8.136 9.39256,-8.136h32.09652c4.77312,0 8.7349,3.54142 9.39482,8.136z" fill="#ceccbe"></path><path d="M124.52826,154.584c3.32446,0 6.17432,2.06112 7.34274,4.972h-46.782c1.16842,-2.91088 4.01828,-4.972 7.34274,-4.972h32.09652M124.52826,151.42h-32.09652c-6.11556,0 -11.07174,4.95618 -11.07174,11.07174v0.22826h54.24v-0.22826c0,-6.11556 -4.95618,-11.07174 -11.07174,-11.07174z" fill="#472b29"></path><path d="M59.74536,140.798c-4.6556,0 -8.44336,-3.78776 -8.44336,-8.44336v-56.78928c0,-4.6556 3.78776,-8.44336 8.44336,-8.44336h97.46702c4.65786,0 8.44336,3.78776 8.44336,8.44336v56.78702c0,4.6556 -3.78776,8.44336 -8.44336,8.44336h-97.46702z" fill="#ceccbe"></path><path d="M157.21464,68.704c3.78324,0 6.86136,3.07812 6.86136,6.86136v56.78928c0,3.78324 -3.07812,6.86136 -6.86136,6.86136h-97.46928c-3.78324,0 -6.86136,-3.07812 -6.86136,-6.86136v-56.78928c0,-3.78324 3.07812,-6.86136 6.86136,-6.86136h97.46928M157.21464,65.54h-97.46928c-5.5144,0 -10.02536,4.51096 -10.02536,10.02536v56.78928c0,5.5144 4.51096,10.02536 10.02536,10.02536h97.46928c5.5144,0 10.02536,-4.51096 10.02536,-10.02536v-56.78928c0,-5.5144 -4.51096,-10.02536 -10.02536,-10.02536z" fill="#472b29"></path><rect x="23.514" y="34" transform="scale(2.26,2.26)" width="49.152" height="24" fill="#78cdd4"></rect><path d="M125.43,76.84h-72.32c-0.62376,0 -1.13,-0.50624 -1.13,-1.13c0,-0.62376 0.50624,-1.13 1.13,-1.13h72.32c0.62376,0 1.13,0.50624 1.13,1.13c0,0.62376 -0.50624,1.13 -1.13,1.13z" fill="#472b29"></path><path d="M141.25,76.84h-9.04c-0.62376,0 -1.13,-0.50624 -1.13,-1.13c0,-0.62376 0.50624,-1.13 1.13,-1.13h9.04c0.62376,0 1.13,0.50624 1.13,1.13c0,0.62376 -0.50624,1.13 -1.13,1.13z" fill="#472b29"></path><path d="M71.19,133.34h-13.56c-0.62376,0 -1.13,-0.50624 -1.13,-1.13c0,-0.62376 0.50624,-1.13 1.13,-1.13h13.56c0.62376,0 1.13,0.50624 1.13,1.13c0,0.62376 -0.50624,1.13 -1.13,1.13z" fill="#472b29"></path><path d="M134.47,133.34h-54.24c-0.62376,0 -1.13,-0.50624 -1.13,-1.13c0,-0.62376 0.50624,-1.13 1.13,-1.13h54.24c0.62376,0 1.13,0.50624 1.13,1.13c0,0.62376 -0.50624,1.13 -1.13,1.13z" fill="#472b29"></path><path d="M80.23,133.34h-4.52c-0.62376,0 -1.13,-0.50624 -1.13,-1.13c0,-0.62376 0.50624,-1.13 1.13,-1.13h4.52c0.62376,0 1.13,0.50624 1.13,1.13c0,0.62376 -0.50624,1.13 -1.13,1.13z" fill="#472b29"></path><path d="M163.85,76.84h-15.82c-0.62376,0 -1.13,-0.50624 -1.13,-1.13c0,-0.62376 0.50624,-1.13 1.13,-1.13h15.82c0.62376,0 1.13,0.50624 1.13,1.13c0,0.62376 -0.50624,1.13 -1.13,1.13z" fill="#472b29"></path><path d="M172.89,162.72h-106.22c-0.62376,0 -1.13,-0.50624 -1.13,-1.13c0,-0.62376 0.50624,-1.13 1.13,-1.13h106.22c0.62376,0 1.13,0.50624 1.13,1.13c0,0.62376 -0.50624,1.13 -1.13,1.13z" fill="#472b29"></path><path d="M154.81,89.27c0,0 13.56,11.3 7.21166,41.13652l-9.08068,0.5763c0,0 -11.69098,-25.89282 1.86902,-41.71282z" fill="#6f913d"></path><path d="M152.94098,132.11508c-0.4407,0 -0.84524,-0.25764 -1.03056,-0.66444c-0.48816,-1.0848 -11.82432,-26.7358 2.04078,-42.91514c0.40228,-0.47008 1.10514,-0.52658 1.582,-0.13334c0.57404,0.47912 14.00974,12.08196 7.5936,42.2394c-0.10622,0.49494 -0.52658,0.86106 -1.03508,0.8927l-9.08294,0.5763c-0.02034,0.00226 -0.04294,0.00452 -0.0678,0.00452zM154.89362,90.95822c-10.57906,13.71142 -2.89054,34.7249 -1.22266,38.84714l7.41958,-0.47234c4.8251,-23.83848 -3.48718,-35.36222 -6.19692,-38.3748z" fill="#472b29"></path><path d="M138.99,99.44c0,0 -6.78,20.71742 11.3,37.29h11.3c0,0 2.26,-26.93242 -22.6,-37.29z" fill="#88ae45"></path><path d="M161.59,137.86h-11.3c-0.2825,0 -0.55596,-0.10622 -0.76388,-0.29606c-18.40544,-16.8709 -11.67968,-38.25954 -11.61188,-38.47424c0.09944,-0.30058 0.31866,-0.54466 0.60568,-0.67574c0.2825,-0.13334 0.61246,-0.13786 0.904,-0.01582c25.32782,10.55194 23.31416,38.1488 23.29156,38.42678c-0.04746,0.58534 -0.53788,1.03508 -1.12548,1.03508zM150.73296,135.6h9.78128c0.13334,-4.90872 -0.56952,-25.41822 -20.76488,-34.59834c-1.04186,4.5539 -3.51204,21.0406 10.9836,34.59834z" fill="#472b29"></path><g><path d="M150.29,138.99c0,-9.04 1.97976,-24.31308 24.86,-33.9c0,13.56 -6.78,27.12 -15.82,33.9c-7.67044,5.75396 -9.04,0 -9.04,0z" fill="#88ae45"></path><path d="M153.56926,142.67606c-0.56048,0 -1.08706,-0.08814 -1.57974,-0.26668c-2.2148,-0.80004 -2.77754,-3.0623 -2.79788,-3.15722c-0.02034,-0.08588 -0.03164,-0.17402 -0.03164,-0.26216c0,-5.99352 0,-24.23398 25.55382,-34.94186c0.34804,-0.14464 0.7458,-0.10848 1.06446,0.1017c0.31188,0.20792 0.50172,0.56274 0.50172,0.94016c0,13.51706 -6.54044,27.5042 -16.272,34.804c-2.47018,1.85094 -4.62622,2.78206 -6.43874,2.78206zM151.42,138.82502c0.10396,0.3051 0.46782,1.1526 1.35826,1.46448c1.28594,0.44974 3.37418,-0.32996 5.876,-2.20576c8.6332,-6.47716 14.78492,-19.12864 15.32732,-31.2558c-20.06654,9.03548 -22.5322,22.49604 -22.56158,31.99708zM150.29,138.99h0.0226z" fill="#472b29"></path></g><g><path d="M172.89,128.82h-33.9l4.52,32.77h24.86z" fill="#9f8066"></path><path d="M168.37,162.72h-24.86c-0.565,0 -1.04186,-0.41584 -1.1187,-0.97632l-4.52,-32.77c-0.0452,-0.32318 0.05198,-0.65088 0.26668,-0.89722c0.2147,-0.24634 0.52432,-0.38646 0.85202,-0.38646h33.9c0.3277,0 0.63732,0.14238 0.85202,0.38646c0.2147,0.24634 0.31188,0.57404 0.26668,0.89722l-4.52,32.77c-0.07684,0.56048 -0.5537,0.97632 -1.1187,0.97632zM144.49536,160.46h22.89154l4.20812,-30.51h-31.31004z" fill="#472b29"></path></g><g><path d="M119.68056,106.83246l-20.1592,-15.99854l3.56402,25.48828l5.28162,-6.16528l5.1528,9.00836l3.31768,-1.8984l-5.15054,-9.00836z" fill="#8889b9"></path><path d="M113.51754,119.73028c-0.04972,0 -0.09944,-0.00678 -0.14916,-0.02034c-0.14464,-0.03842 -0.26668,-0.1356 -0.34126,-0.26442l-4.75504,-8.31228l-4.75956,5.55734c-0.14464,0.1695 -0.3729,0.2373 -0.5876,0.17402c-0.21244,-0.06328 -0.37064,-0.24408 -0.40002,-0.4633l-3.56402,-25.48828c-0.03164,-0.22826 0.0791,-0.45426 0.28024,-0.56952c0.20114,-0.11526 0.44974,-0.09492 0.63054,0.04746l20.1592,15.99854c0.17402,0.13786 0.25086,0.36612 0.19662,0.58082c-0.05198,0.21696 -0.22826,0.37968 -0.44748,0.4181l-7.20488,1.28368l4.75278,8.31228c0.07458,0.12882 0.09492,0.28476 0.05424,0.4294c-0.04068,0.14464 -0.1356,0.26668 -0.26442,0.34126l-3.31994,1.8984c-0.08588,0.05198 -0.18306,0.07684 -0.28024,0.07684zM108.367,109.58966c0.01808,0 0.03616,0 0.05198,0.00226c0.18306,0.01808 0.34578,0.12204 0.43618,0.2825l4.8703,8.51794l2.3391,-1.33792l-4.8703,-8.51794c-0.09266,-0.16046 -0.09944,-0.35256 -0.0226,-0.5198c0.0791,-0.16498 0.23278,-0.28476 0.41358,-0.3164l6.75966,-1.20458l-18.07096,-14.34196l3.19564,22.8486l4.46802,-5.21382c0.10848,-0.12656 0.26442,-0.19888 0.4294,-0.19888z" fill="#472b29"></path></g><g fill="#472b29"><path d="M166.75636,138.58094c-0.0226,0 -0.0452,0 -0.0678,-0.00452c-0.30962,-0.03842 -0.52884,-0.31866 -0.49268,-0.62828l0.67574,-5.55282c0.03842,-0.30736 0.28702,-0.52658 0.62828,-0.49268c0.30962,0.03842 0.52884,0.31866 0.49268,0.63054l-0.67574,5.55282c-0.0339,0.28476 -0.27798,0.49494 -0.56048,0.49494z"></path></g><g fill="#472b29"><path d="M164.43986,157.58754c-0.0226,0 -0.0452,0 -0.0678,-0.00452c-0.30962,-0.03842 -0.52884,-0.31866 -0.49268,-0.62828l1.83512,-15.05612c0.03842,-0.30736 0.28928,-0.53562 0.62828,-0.49268c0.30962,0.03842 0.52884,0.31866 0.49268,0.62828l-1.83512,15.05612c-0.03616,0.28702 -0.27798,0.4972 -0.56048,0.4972z"></path></g></g></g></g></svg>