<svg version="1.1" xmlns="http://www.w3.org/2000/svg" xmlns:xlink="http://www.w3.org/1999/xlink" viewBox="0 0 226 226"><g fill="none" fill-rule="nonzero" stroke="none" stroke-width="1" stroke-linecap="butt" stroke-linejoin="miter" stroke-miterlimit="10" stroke-dasharray="" stroke-dashoffset="0" font-family="none" font-weight="none" font-size="none" text-anchor="none" style="mix-blend-mode: normal"><path d="M0,226v-226h226v226z" fill="none"></path><g><path d="M174.02,27.12c-1.24816,0 -2.26,1.01184 -2.26,2.26c0,1.24816 1.01184,2.26 2.26,2.26c1.24816,0 2.26,-1.01184 2.26,-2.26c0,-1.24816 -1.01184,-2.26 -2.26,-2.26z" fill="#f1bc19"></path><path d="M113,29.38c-46.18205,0 -83.62,37.43795 -83.62,83.62c0,46.18205 37.43795,83.62 83.62,83.62c46.18205,0 83.62,-37.43795 83.62,-83.62c0,-46.18205 -37.43795,-83.62 -83.62,-83.62z" fill="#e6edb7"></path><path d="M187.58,24.86c-4.99265,0 -9.04,4.04735 -9.04,9.04c0,4.99265 4.04735,9.04 9.04,9.04c4.99265,0 9.04,-4.04735 9.04,-9.04c0,-4.99265 -4.04735,-9.04 -9.04,-9.04z" fill="#f1bc19"></path><path d="M196.62,49.72c-2.49633,0 -4.52,2.02367 -4.52,4.52c0,2.49633 2.02367,4.52 4.52,4.52c2.49633,0 4.52,-2.02367 4.52,-4.52c0,-2.49633 -2.02367,-4.52 -4.52,-4.52z" fill="#88ae45"></path><path d="M183.06,167.24c-2.49633,0 -4.52,2.02367 -4.52,4.52c0,2.49633 2.02367,4.52 4.52,4.52c2.49633,0 4.52,-2.02367 4.52,-4.52c0,-2.49633 -2.02367,-4.52 -4.52,-4.52zM33.9,133.34c-4.99265,0 -9.04,4.04735 -9.04,9.04c0,4.99265 4.04735,9.04 9.04,9.04c4.99265,0 9.04,-4.04735 9.04,-9.04c0,-4.99265 -4.04735,-9.04 -9.04,-9.04z" fill="#fbcd59"></path><path d="M56.5,192.1c-2.49633,0 -4.52,2.02367 -4.52,4.52c0,2.49633 2.02367,4.52 4.52,4.52c2.49633,0 4.52,-2.02367 4.52,-4.52c0,-2.49633 -2.02367,-4.52 -4.52,-4.52z" fill="#88ae45"></path><path d="M41.81,110.74c-3.12041,0 -5.65,2.52959 -5.65,5.65c0,3.12041 2.52959,5.65 5.65,5.65c3.12041,0 5.65,-2.52959 5.65,-5.65c0,-3.12041 -2.52959,-5.65 -5.65,-5.65zM179.67,72.32c-1.87225,0 -3.39,1.51775 -3.39,3.39c0,1.87225 1.51775,3.39 3.39,3.39c1.87225,0 3.39,-1.51775 3.39,-3.39c0,-1.87225 -1.51775,-3.39 -3.39,-3.39z" fill="#ffffff"></path><path d="M74.93256,165.658c-0.56952,0 -1.03056,-0.46104 -1.03056,-1.03056v-21.89488c0,-0.56952 0.46104,-1.03056 1.03056,-1.03056h10.59488c0.56952,0 1.03056,0.46104 1.03056,1.03056v21.89488c0,0.56952 -0.46104,1.03056 -1.03056,1.03056z" fill="#d38b5d"></path><path d="M84.976,143.284v20.792h-9.492v-20.792h9.492M85.52744,140.12h-10.59488c-1.44188,0 -2.61256,1.17068 -2.61256,2.61256v21.89488c0,1.44188 1.17068,2.61256 2.61256,2.61256h10.59488c1.44188,0 2.61256,-1.17068 2.61256,-2.61256v-21.89488c0,-1.44188 -1.17068,-2.61256 -2.61256,-2.61256z" fill="#472b29"></path><path d="M142.45006,165.658c-0.41358,0 -0.74806,-0.33448 -0.74806,-0.74806v-22.45988c0,-0.41358 0.33448,-0.74806 0.74806,-0.74806h11.15988c0.41358,0 0.74806,0.33448 0.74806,0.74806v22.45988c0,0.41358 -0.33448,0.74806 -0.74806,0.74806z" fill="#d38b5d"></path><path d="M152.776,143.284v20.792h-9.492v-20.792h9.492M153.60994,140.12h-11.15988c-1.28594,0 -2.33006,1.04412 -2.33006,2.33006v22.45988c0,1.28594 1.04412,2.33006 2.33006,2.33006h11.15988c1.28594,0 2.33006,-1.04412 2.33006,-2.33006v-22.45988c0,-1.28594 -1.04412,-2.33006 -2.33006,-2.33006z" fill="#472b29"></path><path d="M78.44008,129.36014c-0.09266,0 -0.1808,-0.0226 -0.26442,-0.06554l-12.12942,-6.5653c-0.17854,-0.09718 -0.24408,-0.25086 -0.2712,-0.33222c-0.02486,-0.08362 -0.04972,-0.25086 0.04746,-0.4294l27.00248,-49.89176c0.11978,-0.21696 0.33222,-0.2938 0.4972,-0.2938c0.09266,0 0.1808,0.0226 0.26442,0.06554l12.12942,6.5653c0.27346,0.1469 0.3729,0.49042 0.226,0.76388l-27.00474,49.8895c-0.11978,0.21696 -0.33448,0.2938 -0.4972,0.2938z" fill="#f9e65c"></path><path d="M93.72898,73.72346l10.33498,5.5935l-26.03294,48.09958l-10.33498,-5.5935l26.03294,-48.09958M93.31992,70.19786c-0.76162,0 -1.49838,0.4068 -1.8871,1.12322l-27.00474,49.89176c-0.56274,1.0396 -0.17628,2.34362 0.86558,2.90636l12.12942,6.5653c0.32544,0.17628 0.67348,0.2599 1.01926,0.2599c0.76162,0 1.49838,-0.4068 1.8871,-1.12322l27.00474,-49.89402c0.56274,-1.0396 0.17628,-2.34362 -0.86558,-2.90636l-12.12942,-6.5653c-0.32544,-0.17402 -0.67574,-0.25764 -1.01926,-0.25764z" fill="#472b29"></path><path d="M108.44158,129.498c-0.35256,0 -0.63958,-0.28702 -0.63958,-0.63958v-61.09684c0,-0.35256 0.28702,-0.63958 0.63958,-0.63958h13.63458c0.35256,0 0.63958,0.28702 0.63958,0.63958v61.09458c0,0.35256 -0.28702,0.63958 -0.63958,0.63958h-13.63458z" fill="#78cdd4"></path><path d="M121.136,68.704v59.212h-11.752v-59.212h11.752M122.07842,65.54h-13.63684c-1.22718,0 -2.22158,0.9944 -2.22158,2.22158v61.09458c0,1.22944 0.9944,2.22384 2.22158,2.22384h13.63684c1.22718,0 2.22158,-0.9944 2.22158,-2.22158v-61.09684c0,-1.22718 -0.9944,-2.22158 -2.22158,-2.22158z" fill="#472b29"></path><path d="M141.94382,129.498c-0.13334,0 -0.23956,-0.10848 -0.23956,-0.23956v-55.11462c0,-0.13334 0.10848,-0.23956 0.23956,-0.23956h9.91462c0.13334,0 0.23956,0.10848 0.23956,0.23956v55.11462c0,0.13334 -0.10848,0.23956 -0.23956,0.23956z" fill="#afabd4"></path><path d="M150.516,75.484v52.432h-7.232v-52.432h7.232M151.85844,72.32h-9.91688c-1.0057,0 -1.82156,0.81586 -1.82156,1.82156v55.11688c0,1.0057 0.81586,1.82156 1.82156,1.82156h9.91688c1.0057,0 1.82156,-0.81586 1.82156,-1.82156v-55.11688c0,-1.0057 -0.81586,-1.82156 -1.82156,-1.82156z" fill="#472b29"></path><path d="M124.59154,129.498c-0.53336,0 -0.96954,-0.43392 -0.96954,-0.96954v-71.73692c0,-0.53336 0.43392,-0.96954 0.96954,-0.96954h15.23692c0.53336,0 0.96954,0.43392 0.96954,0.96954v71.73692c0,0.53336 -0.43392,0.96954 -0.96954,0.96954z" fill="#ea5167"></path><path d="M139.216,57.404v70.512h-14.012v-70.512h14.012M139.82846,54.24h-15.23692c-1.40798,0 -2.55154,1.1413 -2.55154,2.55154v71.73466c0,1.4125 1.14356,2.5538 2.55154,2.5538h15.23692c1.40798,0 2.55154,-1.1413 2.55154,-2.55154v-71.73692c0,-1.41024 -1.14356,-2.55154 -2.55154,-2.55154z" fill="#472b29"></path><g><path d="M61.28442,143.058c-0.5198,0 -0.94242,-0.42262 -0.94242,-0.94242v-10.77116c0,-0.5198 0.42262,-0.94242 0.94242,-0.94242h103.43116c0.5198,0 0.94242,0.42262 0.94242,0.94242v10.77116c0,0.5198 -0.42262,0.94242 -0.94242,0.94242z" fill="#d38b5d"></path><path d="M164.076,131.984v9.492h-102.152v-9.492h102.152M164.71558,128.82h-103.43116c-1.39442,0 -2.52442,1.13 -2.52442,2.52442v10.77116c0,1.39442 1.13,2.52442 2.52442,2.52442h103.4289c1.39668,0 2.52668,-1.13 2.52668,-2.52442v-10.77116c0,-1.39442 -1.13,-2.52442 -2.52442,-2.52442z" fill="#472b29"></path></g><g fill="#472b29"><path d="M127.69,65.54h-4.52c-0.62376,0 -1.13,-0.50624 -1.13,-1.13c0,-0.62376 0.50624,-1.13 1.13,-1.13h4.52c0.62376,0 1.13,0.50624 1.13,1.13c0,0.62376 -0.50624,1.13 -1.13,1.13z"></path></g><g fill="#472b29"><path d="M141.25,65.54h-9.04c-0.62376,0 -1.13,-0.50624 -1.13,-1.13c0,-0.62376 0.50624,-1.13 1.13,-1.13h9.04c0.62376,0 1.13,0.50624 1.13,1.13c0,0.62376 -0.50624,1.13 -1.13,1.13z"></path></g><g fill="#472b29"><path d="M73.45,137.86h-13.56c-0.62376,0 -1.13,-0.50624 -1.13,-1.13c0,-0.62376 0.50624,-1.13 1.13,-1.13h13.56c0.62376,0 1.13,0.50624 1.13,1.13c0,0.62376 -0.50624,1.13 -1.13,1.13z"></path></g><g fill="#472b29"><path d="M84.75,137.86h-4.52c-0.62376,0 -1.13,-0.50624 -1.13,-1.13c0,-0.62376 0.50624,-1.13 1.13,-1.13h4.52c0.62376,0 1.13,0.50624 1.13,1.13c0,0.62376 -0.50624,1.13 -1.13,1.13z"></path></g><g fill="#472b29"><path d="M157.07,137.86h-65.54c-0.62376,0 -1.13,-0.50624 -1.13,-1.13c0,-0.62376 0.50624,-1.13 1.13,-1.13h65.54c0.62376,0 1.13,0.50624 1.13,1.13c0,0.62376 -0.50624,1.13 -1.13,1.13z"></path></g><g fill="#472b29"><path d="M127.69,122.04h-4.52c-0.62376,0 -1.13,-0.50624 -1.13,-1.13c0,-0.62376 0.50624,-1.13 1.13,-1.13h4.52c0.62376,0 1.13,0.50624 1.13,1.13c0,0.62376 -0.50624,1.13 -1.13,1.13z"></path></g><g fill="#472b29"><path d="M141.25,122.04h-9.04c-0.62376,0 -1.13,-0.50624 -1.13,-1.13c0,-0.62376 0.50624,-1.13 1.13,-1.13h9.04c0.62376,0 1.13,0.50624 1.13,1.13c0,0.62376 -0.50624,1.13 -1.13,1.13z"></path></g><g fill="#472b29"><path d="M123.17,74.58h-9.04c-0.62376,0 -1.13,-0.50624 -1.13,-1.13c0,-0.62376 0.50624,-1.13 1.13,-1.13h9.04c0.62376,0 1.13,0.50624 1.13,1.13c0,0.62376 -0.50624,1.13 -1.13,1.13z"></path></g><g fill="#472b29"><path d="M97.632,82.36118c-0.18306,0 -0.36612,-0.0452 -0.53788,-0.13786l-7.95294,-4.30304c-0.54692,-0.29606 -0.75258,-0.9831 -0.45426,-1.53228c0.29606,-0.54918 0.98536,-0.75258 1.53228,-0.45426l7.95294,4.30304c0.54692,0.29606 0.75258,0.9831 0.45426,1.53228c-0.2034,0.37968 -0.59438,0.59212 -0.9944,0.59212z"></path></g><g fill="#472b29"><path d="M76.1168,122.11232c-0.18306,0 -0.36612,-0.0452 -0.53788,-0.13786l-7.95068,-4.30078c-0.54692,-0.29606 -0.75258,-0.9831 -0.45426,-1.53228c0.29606,-0.54918 0.9831,-0.75032 1.53228,-0.45426l7.95068,4.30078c0.54692,0.29606 0.75258,0.9831 0.45426,1.53228c-0.20566,0.37968 -0.59664,0.59212 -0.9944,0.59212z"></path></g><g fill="#472b29"><path d="M152.55,81.36h-6.78c-0.62376,0 -1.13,-0.50624 -1.13,-1.13c0,-0.62376 0.50624,-1.13 1.13,-1.13h6.78c0.62376,0 1.13,0.50624 1.13,1.13c0,0.62376 -0.50624,1.13 -1.13,1.13z"></path></g><g fill="#472b29"><path d="M152.55,124.3h-6.78c-0.62376,0 -1.13,-0.50624 -1.13,-1.13c0,-0.62376 0.50624,-1.13 1.13,-1.13h6.78c0.62376,0 1.13,0.50624 1.13,1.13c0,0.62376 -0.50624,1.13 -1.13,1.13z"></path></g><g fill="#472b29"><path d="M123.17,124.3h-9.04c-0.62376,0 -1.13,-0.50624 -1.13,-1.13c0,-0.62376 0.50624,-1.13 1.13,-1.13h9.04c0.62376,0 1.13,0.50624 1.13,1.13c0,0.62376 -0.50624,1.13 -1.13,1.13z"></path></g></g></g></svg>