<svg version="1.1" xmlns="http://www.w3.org/2000/svg" xmlns:xlink="http://www.w3.org/1999/xlink" viewBox="0 0 226 226"><g fill="none" fill-rule="nonzero" stroke="none" stroke-width="1" stroke-linecap="butt" stroke-linejoin="miter" stroke-miterlimit="10" stroke-dasharray="" stroke-dashoffset="0" font-family="none" font-weight="none" font-size="none" text-anchor="none" style="mix-blend-mode: normal"><path d="M0,226v-226h226v226z" fill="none"></path><g><circle cx="77" cy="13" transform="scale(2.26,2.26)" r="1" fill="#f1bc19"></circle><circle cx="50" cy="50" transform="scale(2.26,2.26)" r="37" fill="#e6edb7"></circle><circle cx="83" cy="15" transform="scale(2.26,2.26)" r="4" fill="#f1bc19"></circle><circle cx="87" cy="24" transform="scale(2.26,2.26)" r="2" fill="#9f8066"></circle><circle cx="81" cy="76" transform="scale(2.26,2.26)" r="2" fill="#fbcd59"></circle><circle cx="15" cy="63" transform="scale(2.26,2.26)" r="4" fill="#fbcd59"></circle><circle cx="25" cy="87" transform="scale(2.26,2.26)" r="2" fill="#9f8066"></circle><circle cx="19.5" cy="43.5" transform="scale(2.26,2.26)" r="2.5" fill="#ffffff"></circle><circle cx="79.5" cy="33.5" transform="scale(2.26,2.26)" r="1.5" fill="#ffffff"></circle><path d="M97.18,85.88v20.34h31.64c0,0 -2.26,-22.6 -31.64,-20.34z" fill="#8889b9"></path><path d="M128.82,107.35h-31.64c-0.62376,0 -1.13,-0.50624 -1.13,-1.13v-20.34c0,-0.58986 0.45426,-1.08254 1.04412,-1.12774c30.08964,-2.30972 32.8265,21.11744 32.8491,21.35474c0.0339,0.31866 -0.07006,0.63506 -0.28476,0.8701c-0.2147,0.2373 -0.51754,0.3729 -0.83846,0.3729zM98.31,105.09h29.18112c-0.9379,-4.52678 -5.86018,-19.50606 -29.18112,-18.15458z" fill="#472b29"></path><path d="M136.73,118.65l-44.72992,35.3125" fill="#ee3e54"></path><path d="M92.00008,155.0925c-0.33222,0 -0.66444,-0.1469 -0.88818,-0.4294c-0.38646,-0.49042 -0.30284,-1.20006 0.18758,-1.58878l44.72992,-35.3125c0.48816,-0.38646 1.1978,-0.3051 1.58652,0.18758c0.38646,0.49042 0.30284,1.20006 -0.18758,1.58878l-44.72766,35.3125c-0.20792,0.16272 -0.45652,0.24182 -0.7006,0.24182z" fill="#472b29"></path><path d="M92.00008,118.65l44.72992,35.3125" fill="#ee3e54"></path><path d="M136.73,155.0925c-0.24408,0 -0.49268,-0.0791 -0.7006,-0.24182l-44.72992,-35.3125c-0.49042,-0.38646 -0.57404,-1.09836 -0.18758,-1.58878c0.38872,-0.48816 1.09836,-0.57178 1.58652,-0.18758l44.73218,35.3125c0.49042,0.38646 0.57404,1.09836 0.18758,1.58878c-0.22374,0.2825 -0.55596,0.4294 -0.88818,0.4294z" fill="#472b29"></path><path d="M140.12,160.46h-49.72c-1.24978,0 -2.26,-1.01248 -2.26,-2.26c0,-1.24752 1.01022,-2.26 2.26,-2.26h49.72c1.24978,0 2.26,1.01248 2.26,2.26c0,1.24752 -1.01022,2.26 -2.26,2.26z" fill="#472b29"></path><path d="M76.55524,122.718c-1.58426,0 -2.96286,-1.85546 -3.13914,-4.22394l-1.6498,-21.99206h91.37858l-3.37644,22.48474c-0.32092,2.12666 -1.64528,3.729 -3.08264,3.729h-80.13056z" fill="#ee3e54"></path><path d="M161.30524,98.084l-3.10298,20.66996c-0.2373,1.58652 -1.10288,2.38204 -1.51872,2.38204h-80.1283c-0.47234,0 -1.42606,-0.9492 -1.56166,-2.75946l-1.52324,-20.29254h87.8349M163.98786,94.92h-93.01256c-0.49268,0 -0.8814,0.45652 -0.84298,0.98988l1.70404,22.70396c0.24408,3.22728 2.2826,5.68616 4.71888,5.68616h80.13056c2.26,0 4.20586,-2.1244 4.64882,-5.07822l3.48718,-23.23958c0.08136,-0.55596 -0.31414,-1.0622 -0.83394,-1.0622z" fill="#472b29"></path><g><path d="M115.26,49.72v46.47238h48.44988c-4.00246,-7.45348 -5.5709,-15.19398 -4.61492,-23.23506c-8.1925,-4.78442 -14.36682,-10.96552 -18.45742,-18.5885c-8.71004,0.565 -17.16244,-1.04638 -25.37754,-4.64882z" fill="#ee3e54"></path><path d="M163.70988,97.32238h-48.44988c-0.62376,0 -1.13,-0.50624 -1.13,-1.13v-46.47238c0,-0.38194 0.1921,-0.73676 0.51302,-0.94468c0.31866,-0.21018 0.72094,-0.24408 1.0735,-0.0904c8.12922,3.56628 16.49348,5.10082 24.85096,4.5539c0.44748,-0.02034 0.86106,0.2034 1.06898,0.59438c3.94822,7.36082 10.01632,13.46734 18.03028,18.1478c0.38872,0.226 0.60568,0.66218 0.55144,1.10966c-0.9153,7.7179 0.59438,15.3115 4.48836,22.56836c0.18758,0.3503 0.17854,0.77292 -0.02712,1.11418c-0.20566,0.339 -0.57404,0.54918 -0.96954,0.54918zM116.39,95.06238h45.4712c-3.37192,-6.93594 -4.70532,-14.1589 -3.97082,-21.5039c-7.83994,-4.70758 -13.85606,-10.76438 -17.90146,-18.02124c-7.94164,0.40906 -15.86746,-0.97406 -23.59892,-4.1132z" fill="#472b29"></path></g><g><path d="M130.88112,70.87134l-14.9612,24.61366" fill="#ee3e54"></path><path d="M115.91992,96.615c-0.20114,0 -0.40454,-0.05198 -0.5876,-0.16498c-0.53336,-0.32544 -0.70286,-1.01926 -0.37968,-1.55262l14.9612,-24.61366c0.3277,-0.53562 1.02604,-0.7006 1.55488,-0.37742c0.53336,0.32544 0.70286,1.01926 0.37968,1.55262l-14.9612,24.61366c-0.2147,0.3503 -0.5876,0.5424 -0.96728,0.5424z" fill="#472b29"></path></g><g><path d="M140.59008,54.89992l-5.89634,9.70218" fill="#ee3e54"></path><path d="M134.69374,65.72984c-0.20114,0 -0.40454,-0.05198 -0.5876,-0.16498c-0.53336,-0.32544 -0.70286,-1.01926 -0.37968,-1.55262l5.89634,-9.70218c0.3277,-0.53562 1.02378,-0.7006 1.55488,-0.37742c0.53336,0.32544 0.70286,1.01926 0.37968,1.55262l-5.89634,9.70218c-0.2147,0.3503 -0.5876,0.5424 -0.96728,0.5424z" fill="#472b29"></path></g><g><path d="M129.23132,88.6824l-12.37124,6.5201" fill="#ee3e54"></path><path d="M116.86008,96.3325c-0.40454,0 -0.79778,-0.21922 -0.99892,-0.60342c-0.29154,-0.55144 -0.0791,-1.23396 0.47234,-1.5255l12.3735,-6.5201c0.54466,-0.28702 1.23396,-0.08136 1.52776,0.47234c0.29154,0.55144 0.0791,1.23396 -0.47234,1.5255l-12.3735,6.5201c-0.1695,0.08814 -0.3503,0.13108 -0.52884,0.13108z" fill="#472b29"></path></g><g><path d="M158.67008,73.1675l-23.46106,12.36446" fill="#ee3e54"></path><path d="M135.20902,86.66196c-0.40454,0 -0.79778,-0.21922 -0.99892,-0.60342c-0.29154,-0.55144 -0.0791,-1.23396 0.47234,-1.5255l23.46106,-12.36446c0.54692,-0.28702 1.23396,-0.08136 1.52776,0.47234c0.29154,0.55144 0.0791,1.23396 -0.47234,1.5255l-23.46106,12.36446c-0.1695,0.0904 -0.3503,0.13108 -0.52884,0.13108z" fill="#472b29"></path></g><g fill="#472b29"><path d="M71.19,97.18c-0.2486,0 -0.4972,-0.08136 -0.70738,-0.24634l-11.3,-9.04c-0.48816,-0.39098 -0.565,-1.10062 -0.17628,-1.58878c0.39098,-0.4859 1.10288,-0.565 1.58878,-0.17628l11.3,9.04c0.48816,0.39098 0.565,1.10062 0.17628,1.58878c-0.22148,0.27798 -0.55144,0.42262 -0.8814,0.42262z"></path></g><g><circle cx="43" cy="35" transform="scale(2.26,2.26)" r="4.5" fill="#f6cca4"></circle><path d="M97.18,90.4c-6.23082,0 -11.3,-5.06918 -11.3,-11.3c0,-6.23082 5.06918,-11.3 11.3,-11.3c6.23082,0 11.3,5.06918 11.3,11.3c0,6.23082 -5.06918,11.3 -11.3,11.3zM97.18,70.06c-4.98556,0 -9.04,4.05444 -9.04,9.04c0,4.98556 4.05444,9.04 9.04,9.04c4.98556,0 9.04,-4.05444 9.04,-9.04c0,-4.98556 -4.05444,-9.04 -9.04,-9.04z" fill="#472b29"></path></g><g><circle cx="39" cy="69" transform="scale(2.26,2.26)" r="5.5" fill="#fbcd59"></circle><path d="M88.14,169.5c-7.47834,0 -13.56,-6.08166 -13.56,-13.56c0,-7.47834 6.08166,-13.56 13.56,-13.56c7.47834,0 13.56,6.08166 13.56,13.56c0,7.47834 -6.08166,13.56 -13.56,13.56zM88.14,144.64c-6.23082,0 -11.3,5.06918 -11.3,11.3c0,6.23082 5.06918,11.3 11.3,11.3c6.23082,0 11.3,-5.06918 11.3,-11.3c0,-6.23082 -5.06918,-11.3 -11.3,-11.3z" fill="#472b29"></path><circle cx="39" cy="69" transform="scale(2.26,2.26)" r="3" fill="#ee3e54"></circle><path d="M81.36,156.505c-0.31188,0 -0.565,-0.25312 -0.565,-0.565c0,-2.44532 1.2091,-4.72114 3.23858,-6.0907c0.25538,-0.17628 0.61246,-0.10848 0.78422,0.15142c0.17402,0.2599 0.10622,0.6102 -0.15142,0.78422c-1.7176,1.15938 -2.74138,3.08716 -2.74138,5.15506c0,0.31188 -0.25312,0.565 -0.565,0.565z" fill="#472b29"></path><g fill="#472b29"><path d="M88.14,163.285c-2.40238,0 -4.66012,-1.17746 -6.03194,-3.15496c-0.17854,-0.25538 -0.11526,-0.60794 0.14238,-0.78648c0.2486,-0.17628 0.60568,-0.11526 0.78648,0.14238c1.1639,1.67014 3.07134,2.66906 5.10534,2.66906c3.42842,0 6.215,-2.78658 6.215,-6.215c0,-3.42842 -2.78658,-6.215 -6.215,-6.215c-0.31188,0 -0.565,-0.25312 -0.565,-0.565c0,-0.31188 0.25312,-0.565 0.565,-0.565c4.04992,0 7.345,3.29508 7.345,7.345c0,4.04992 -3.29734,7.345 -7.34726,7.345z"></path></g></g><g><circle cx="63" cy="69" transform="scale(2.26,2.26)" r="5.5" fill="#fbcd59"></circle><path d="M142.38,169.5c-7.47834,0 -13.56,-6.08166 -13.56,-13.56c0,-7.47834 6.08166,-13.56 13.56,-13.56c7.47834,0 13.56,6.08166 13.56,13.56c0,7.47834 -6.08166,13.56 -13.56,13.56zM142.38,144.64c-6.23082,0 -11.3,5.06918 -11.3,11.3c0,6.23082 5.06918,11.3 11.3,11.3c6.23082,0 11.3,-5.06918 11.3,-11.3c0,-6.23082 -5.06918,-11.3 -11.3,-11.3z" fill="#472b29"></path><circle cx="63" cy="69" transform="scale(2.26,2.26)" r="3" fill="#ee3e54"></circle><path d="M142.38,163.285c-4.04992,0 -7.345,-3.29508 -7.345,-7.345c0,-0.31188 0.25312,-0.565 0.565,-0.565c0.31188,0 0.565,0.25312 0.565,0.565c0,3.42842 2.78658,6.215 6.215,6.215c2.2713,0 4.3618,-1.23848 5.45564,-3.23406c0.1469,-0.27572 0.4972,-0.3729 0.76614,-0.22374c0.27346,0.14916 0.3729,0.49268 0.22374,0.76614c-1.29272,2.35718 -3.76064,3.82166 -6.44552,3.82166z" fill="#472b29"></path><g fill="#472b29"><path d="M149.16,156.505c-0.31188,0 -0.565,-0.25312 -0.565,-0.565c0,-3.42842 -2.78658,-6.215 -6.215,-6.215c-2.33458,0 -4.4522,1.29046 -5.5257,3.3674c-0.14238,0.28024 -0.48138,0.3842 -0.76162,0.24182c-0.27572,-0.14238 -0.3842,-0.48364 -0.23956,-0.76162c1.26786,-2.45436 3.76968,-3.9776 6.52914,-3.9776c4.04992,0 7.345,3.29508 7.345,7.345c-0.00226,0.31188 -0.25538,0.565 -0.56726,0.565z"></path></g></g><g fill="#472b29"><path d="M98.31,103.395h-24.86c-0.31188,0 -0.565,-0.25312 -0.565,-0.565c0,-0.31188 0.25312,-0.565 0.565,-0.565h24.86c0.31188,0 0.565,0.25312 0.565,0.565c0,0.31188 -0.25312,0.565 -0.565,0.565z"></path></g><g fill="#472b29"><path d="M114.13,103.395h-11.3c-0.31188,0 -0.565,-0.25312 -0.565,-0.565c0,-0.31188 0.25312,-0.565 0.565,-0.565h11.3c0.31188,0 0.565,0.25312 0.565,0.565c0,0.31188 -0.25312,0.565 -0.565,0.565z"></path></g><g fill="#472b29"><path d="M161.59,103.395h-42.94c-0.31188,0 -0.565,-0.25312 -0.565,-0.565c0,-0.31188 0.25312,-0.565 0.565,-0.565h42.94c0.31188,0 0.565,0.25312 0.565,0.565c0,0.31188 -0.25312,0.565 -0.565,0.565z"></path></g></g></g></svg>