<?xml version="1.0" encoding="utf-8"?>
<!-- Generator: Adobe Illustrator 24.1.3, SVG Export Plug-In . SVG Version: 6.00 Build 0)  -->
<svg version="1.1" id="Слой_1" xmlns="http://www.w3.org/2000/svg" xmlns:xlink="http://www.w3.org/1999/xlink" x="0px" y="0px"
	 viewBox="0 0 750 500" style="enable-background:new 0 0 750 500;" xml:space="preserve">
<style type="text/css">
	.st0{clip-path:url(#SVGID_2_);}
	.st1{opacity:0.32;}
	.st2{clip-path:url(#SVGID_4_);fill:#F2F2F2;}
	.st3{clip-path:url(#SVGID_4_);fill:#FFE6D6;}
	.st4{opacity:0.4;clip-path:url(#SVGID_4_);fill:#2B2B2B;}
	.st5{clip-path:url(#SVGID_4_);fill:#5F70D6;}
	.st6{clip-path:url(#SVGID_6_);}
	.st7{clip-path:url(#SVGID_8_);}
	.st8{fill:#FFE6D6;}
	.st9{clip-path:url(#SVGID_10_);}
	.st10{fill:#F2F2F2;}
	.st11{clip-path:url(#SVGID_12_);fill:#FFE6D6;}
	.st12{opacity:0.39;fill:#353535;}
	.st13{fill:#CEF2F4;}
</style>
<g>
	<defs>
		<rect id="SVGID_1_" x="0.7" width="750" height="500"/>
	</defs>
	<clipPath id="SVGID_2_">
		<use xlink:href="#SVGID_1_"  style="overflow:visible;"/>
	</clipPath>
	<g id="OBJECTS" class="st0">
		<g class="st1">
			<g>
				<defs>
					<rect id="SVGID_3_" x="0.7" y="0.5" width="750" height="500"/>
				</defs>
				<clipPath id="SVGID_4_">
					<use xlink:href="#SVGID_3_"  style="overflow:visible;"/>
				</clipPath>
				<rect x="0.7" y="0.5" class="st2" width="750" height="500"/>
				<path class="st3" d="M957.7,90c-155.3-52.1-357.5,78-353.3,154.7c2.4,43.7,71.4,63.7,64,98.7c-10.4,49.6-153.1,28.1-182.7,90.7
					c-24.9,52.7,39.9,144.9,105.3,194.7c133.3,101.4,409.9,134.2,526.7-44C1230.7,412.1,1125.3,146.2,957.7,90z"/>
				<path class="st4" d="M208.6-115c37,48.7,34.6,151.6,23.1,211.6c-6.9,35.7-15,45.9-23.1,51.6c-47,33-131.5-56.1-174.2-28.4
					C3,140,1.6,218.5,30.8,274.3c41.3,78.9,125.1,77,160,168.9c8,21.2,14.1,37.2,8.9,55.1C177.7,573.5-23.3,612-163,557
					c-177.3-69.9-316.6-314.4-234.7-512C-290.9-212.5,123.6-226.7,208.6-115z"/>
				<path class="st5" d="M204.3-123.3c37,48.7,34.6,151.6,23.1,211.6c-6.9,35.7-15,45.9-23.1,51.6c-47,33-131.5-56.1-174.2-28.4
					C-1.3,131.7-2.7,210.2,26.6,266c41.3,78.9,125.1,77,160,168.9c8,21.2,14.1,37.2,8.9,55.1c-22,75.2-223,113.7-362.7,58.7
					c-177.3-69.9-316.6-314.4-234.7-512C-295.1-220.8,119.4-235,204.3-123.3z"/>
			</g>
			<g>
				<defs>
					<rect id="SVGID_5_" x="0.7" y="0.5" width="750" height="500"/>
				</defs>
				<clipPath id="SVGID_6_">
					<use xlink:href="#SVGID_5_"  style="overflow:visible;"/>
				</clipPath>
				<g class="st6">
				</g>
			</g>
			<g>
				<defs>
					<rect id="SVGID_7_" x="0.7" y="0.5" width="750" height="500"/>
				</defs>
				<clipPath id="SVGID_8_">
					<use xlink:href="#SVGID_7_"  style="overflow:visible;"/>
				</clipPath>
				<g class="st7">
					<rect x="635.9" y="202.9" class="st8" width="11" height="3.8"/>
					<rect x="639.4" y="199.3" class="st8" width="3.8" height="11"/>
				</g>
			</g>
			<g>
				<defs>
					<rect id="SVGID_9_" x="0.7" y="0.5" width="750" height="500"/>
				</defs>
				<clipPath id="SVGID_10_">
					<use xlink:href="#SVGID_9_"  style="overflow:visible;"/>
				</clipPath>
				<g class="st9">
					<rect x="498.1" y="450.2" class="st10" width="11" height="3.8"/>
					<rect x="501.8" y="446.6" class="st10" width="3.8" height="11"/>
				</g>
			</g>
			<g>
				<defs>
					<rect id="SVGID_11_" x="0.7" y="0.5" width="750" height="500"/>
				</defs>
				<clipPath id="SVGID_12_">
					<use xlink:href="#SVGID_11_"  style="overflow:visible;"/>
				</clipPath>
				
					<ellipse transform="matrix(4.531434e-02 -0.999 0.999 4.531434e-02 -372.4192 623.3046)" class="st11" cx="139.9" cy="506.5" rx="14.6" ry="14.6"/>
			</g>
		</g>
		<g class="st1">
			<circle class="st12" cx="466.5" cy="5.6" r="100.4"/>
			<circle class="st13" cx="457.6" cy="3.1" r="100.4"/>
		</g>
	</g>
</g>
</svg>
