<?xml version="1.0" encoding="utf-8"?>
<!-- Generator: Adobe Illustrator 24.1.3, SVG Export Plug-In . SVG Version: 6.00 Build 0)  -->
<svg version="1.1" id="Слой_1" xmlns="http://www.w3.org/2000/svg" xmlns:xlink="http://www.w3.org/1999/xlink" x="0px" y="0px"
	 viewBox="0 0 986 329" style="enable-background:new 0 0 986 329;" xml:space="preserve">
<style type="text/css">
	.st0{opacity:0.8;fill:url(#SVGID_1_);enable-background:new    ;}
	.st1{opacity:0.4;fill:url(#SVGID_2_);enable-background:new    ;}
	.st2{opacity:0.6;fill:url(#SVGID_3_);enable-background:new    ;}
	.st3{opacity:0.6;fill:url(#SVGID_4_);enable-background:new    ;}
</style>
<linearGradient id="SVGID_1_" gradientUnits="userSpaceOnUse" x1="539.8538" y1="56.3504" x2="476.8416" y2="398.4713" gradientTransform="matrix(1 0 0 -1 0 330)">
	<stop  offset="0" style="stop-color:#8533BB"/>
	<stop  offset="0.1844" style="stop-color:#00B2FF;stop-opacity:0.8138"/>
	<stop  offset="0.4223" style="stop-color:#00A2FF;stop-opacity:0.5735"/>
	<stop  offset="0.6896" style="stop-color:#0088FF;stop-opacity:0.3036"/>
	<stop  offset="1" style="stop-color:#0063FF;stop-opacity:1.380000e-02"/>
</linearGradient>
<path class="st0" d="M44.9,0.4C191.2,123.9,540.3,305.3,986,144.6c0,19.7,0,39.3,0,59c0,24.2,0,48.4,0,72.5
	C429.2,311.6,123.7,122.4,19.6,0.2C28,0.2,36.4,0.3,44.9,0.4z"/>
<linearGradient id="SVGID_2_" gradientUnits="userSpaceOnUse" x1="838.0242" y1="216.7529" x2="-605.8778" y2="265.9331" gradientTransform="matrix(1 0 0 -1 0 330)">
	<stop  offset="0" style="stop-color:#00B8FF"/>
	<stop  offset="0.188" style="stop-color:#00AFFF;stop-opacity:0.8481"/>
	<stop  offset="0.5476" style="stop-color:#00A5FF;stop-opacity:0.5576"/>
	<stop  offset="0.9902" style="stop-color:#00A2FF;stop-opacity:0.2"/>
</linearGradient>
<path class="st1" d="M0,0c26.5,0.2,53,0.5,79.4,0.7c245.8,191.7,627.5,181.7,757.1,157.5C730.4,201.5,364.3,230.1,0.1,54.8
	C0.1,36.5,0,18.3,0,0z"/>
<linearGradient id="SVGID_3_" gradientUnits="userSpaceOnUse" x1="2.697750e-02" y1="170.8869" x2="985.973" y2="170.8869">
	<stop  offset="5.586592e-03" style="stop-color:#57ACFF"/>
	<stop  offset="0.2854" style="stop-color:#58A9FE"/>
	<stop  offset="0.4579" style="stop-color:#5BA1F9"/>
	<stop  offset="0.6016" style="stop-color:#6192F1"/>
	<stop  offset="0.7292" style="stop-color:#697EE5"/>
	<stop  offset="0.8462" style="stop-color:#7363D6"/>
	<stop  offset="0.954" style="stop-color:#7F43C4"/>
	<stop  offset="1" style="stop-color:#8533BB"/>
</linearGradient>
<path class="st2" d="M986,183.1c0,6.9,0,13.7,0,20.5c0,41.8,0,83.6,0,125.4C470.2,328.3,157.5,151.6,0,20.6c0-2.6,0-5.2,0-7.9
	C173.8,140.8,529.6,303.7,986,183.1z"/>
<linearGradient id="SVGID_4_" gradientUnits="userSpaceOnUse" x1="781.3553" y1="-167.4288" x2="416.2203" y2="454.4343" gradientTransform="matrix(1 0 0 -1 0 330)">
	<stop  offset="0" style="stop-color:#00B8FF"/>
	<stop  offset="6.380000e-02" style="stop-color:#00AFFF;stop-opacity:0.9356"/>
	<stop  offset="0.324" style="stop-color:#008DFF;stop-opacity:0.6728"/>
	<stop  offset="0.5719" style="stop-color:#0075FF;stop-opacity:0.4225"/>
	<stop  offset="0.8002" style="stop-color:#0066FF;stop-opacity:0.1919"/>
	<stop  offset="0.9902" style="stop-color:#0061FF;stop-opacity:0"/>
</linearGradient>
<path class="st3" d="M986,116.3c0,29.1,0,58.2,0,87.3c0,0.2,0,0.5,0,0.7C525.8,272.8,219.7,129.1,97.6,62.7
	C216.2,127.4,603.8,250.5,986,116.3z"/>
</svg>
