<svg width="550" height="288" viewBox="0 0 550 288" fill="none" xmlns="http://www.w3.org/2000/svg">
<g opacity="0.7">
<path d="M-24 0C190.649 42.6199 363.974 115.843 459.082 207.2C348.213 133.167 177.304 79.715 -23.812 54.3601C-23.8657 36.2269 -23.9463 18.1135 -24 0Z" fill="url(#paint0_linear)"/>
<path d="M1.85785 286.954C-6.65405 286.954 -15.1659 286.954 -23.7046 286.954C-23.6777 269.591 -23.6777 252.247 -23.6509 234.883C-23.624 179.122 -23.6509 123.341 -23.7852 67.5605C219.138 95.0662 425.276 176.656 550 288C367.277 287.092 184.554 287.014 1.85785 286.954Z" fill="url(#paint1_linear)"/>
<path d="M1.85773 286.954C-6.65411 286.954 -15.166 286.954 -23.7047 286.954C-23.6778 269.591 -23.6779 252.247 -23.651 234.883C-23.6241 210.002 -23.6241 185.101 -23.651 160.219C196.476 156.312 394.075 204.003 521.618 287.862C348.374 287.092 175.102 287.013 1.85773 286.954Z" fill="url(#paint2_linear)"/>
<path opacity="0.6" d="M502.232 287.783C389.483 234.192 190.273 168.822 -23.6508 182.496C-23.6508 166.277 -23.6777 150.058 -23.6777 133.838C236.028 150.038 430.915 228.214 523.364 287.882C516.328 287.842 509.267 287.823 502.232 287.783Z" fill="url(#paint3_linear)"/>
</g>
<defs>
<linearGradient id="paint0_linear" x1="334.641" y1="-73.5666" x2="112.182" y2="549.732" gradientUnits="userSpaceOnUse">
<stop stop-color="#00B8FF"/>
<stop offset="0.1622" stop-color="#009CFF" stop-opacity="0.8362"/>
<stop offset="0.3558" stop-color="#0082FF" stop-opacity="0.6407"/>
<stop offset="0.5555" stop-color="#0070FF" stop-opacity="0.439"/>
<stop offset="0.7629" stop-color="#0065FF" stop-opacity="0.2296"/>
<stop offset="0.9902" stop-color="#0061FF" stop-opacity="0"/>
</linearGradient>
<linearGradient id="paint1_linear" x1="369.619" y1="-39.8548" x2="183.915" y2="662.839" gradientUnits="userSpaceOnUse">
<stop offset="0.1814" stop-color="#00B8FF"/>
<stop offset="0.3175" stop-color="#009BFF" stop-opacity="0.8317"/>
<stop offset="0.4721" stop-color="#0082FF" stop-opacity="0.6406"/>
<stop offset="0.6325" stop-color="#006FFF" stop-opacity="0.4422"/>
<stop offset="0.8009" stop-color="#0065FF" stop-opacity="0.234"/>
<stop offset="0.9902" stop-color="#0061FF" stop-opacity="0"/>
</linearGradient>
<linearGradient id="paint2_linear" x1="287.816" y1="21.2888" x2="224.353" y2="635.032" gradientUnits="userSpaceOnUse">
<stop offset="0.1814" stop-color="#00B8FF"/>
<stop offset="0.3175" stop-color="#009BFF" stop-opacity="0.8317"/>
<stop offset="0.4721" stop-color="#0082FF" stop-opacity="0.6406"/>
<stop offset="0.6325" stop-color="#006FFF" stop-opacity="0.4422"/>
<stop offset="0.8009" stop-color="#0065FF" stop-opacity="0.234"/>
<stop offset="0.9902" stop-color="#0061FF" stop-opacity="0"/>
</linearGradient>
<linearGradient id="paint3_linear" x1="272.398" y1="355.073" x2="245.038" y2="85.4692" gradientUnits="userSpaceOnUse">
<stop offset="0.009804" stop-color="#0061FF" stop-opacity="0"/>
<stop offset="0.4581" stop-color="#0086FF" stop-opacity="0.4527"/>
<stop offset="1" stop-color="#00B8FF"/>
</linearGradient>
</defs>
</svg>
