<?xml version="1.0" encoding="utf-8"?>
<!-- Generator: Adobe Illustrator 24.1.3, SVG Export Plug-In . SVG Version: 6.00 Build 0)  -->
<svg version="1.1" id="Слой_1" xmlns="http://www.w3.org/2000/svg" xmlns:xlink="http://www.w3.org/1999/xlink" x="0px" y="0px"
	 viewBox="0 0 1920 1080" style="enable-background:new 0 0 1920 1080;" xml:space="preserve">
<style type="text/css">
	.st0{opacity:0.37;}
	.st1{clip-path:url(#SVGID_2_);fill:url(#SVGID_3_);}
	.st2{clip-path:url(#SVGID_2_);}
	.st3{opacity:0.27;fill:url(#SVGID_4_);}
	.st4{opacity:0.27;fill:url(#SVGID_5_);}
	.st5{opacity:0.27;fill:url(#SVGID_6_);}
	.st6{opacity:0.27;fill:url(#SVGID_7_);}
	.st7{opacity:0.27;fill:url(#SVGID_8_);}
	.st8{opacity:0.27;fill:url(#SVGID_9_);}
	.st9{opacity:0.27;fill:url(#SVGID_10_);}
	.st10{opacity:0.27;fill:url(#SVGID_11_);}
	.st11{opacity:0.27;fill:url(#SVGID_12_);}
	.st12{opacity:0.27;fill:url(#SVGID_13_);}
	.st13{opacity:0.27;fill:url(#SVGID_14_);}
	.st14{opacity:0.39;clip-path:url(#SVGID_2_);}
	.st15{opacity:0.27;fill:url(#SVGID_15_);}
	.st16{opacity:0.27;fill:url(#SVGID_16_);}
</style>
<g class="st0">
	<g>
		<defs>
			<rect id="SVGID_1_" x="2" y="0.4" width="1918" height="1079.6"/>
		</defs>
		<clipPath id="SVGID_2_">
			<use xlink:href="#SVGID_1_"  style="overflow:visible;"/>
		</clipPath>
		
			<radialGradient id="SVGID_3_" cx="886.6426" cy="411.9044" r="678.9281" gradientTransform="matrix(1.1144 0 0 1.5916 -34.0261 -124.5166)" gradientUnits="userSpaceOnUse">
			<stop  offset="3.333330e-02" style="stop-color:#FFFFFF"/>
			<stop  offset="1" style="stop-color:#E6E6E6"/>
		</radialGradient>
		<rect x="-35" y="-52.1" class="st1" width="1978" height="1166.5"/>
		<g class="st2">
			
				<linearGradient id="SVGID_4_" gradientUnits="userSpaceOnUse" x1="-84.9011" y1="867.4529" x2="1992.9132" y2="867.4529" gradientTransform="matrix(-1 0 0 -1 1933 1022)">
				<stop  offset="0" style="stop-color:#57ACFF"/>
				<stop  offset="0.9625" style="stop-color:#E676FF"/>
			</linearGradient>
			<path class="st3" d="M2017.9-45.3c0,0-301,489.3-922.4,261.9C474.1-10.8,80.9,209.7-59.9,492.2v-675.3L2017.9-45.3z"/>
		</g>
		<g class="st2">
			
				<linearGradient id="SVGID_5_" gradientUnits="userSpaceOnUse" x1="-54.4827" y1="865.3265" x2="1981.2139" y2="865.3265" gradientTransform="matrix(-1 0 0 -1 1933 1022)">
				<stop  offset="0" style="stop-color:#57ACFF"/>
				<stop  offset="0.9625" style="stop-color:#E676FF"/>
			</linearGradient>
			<path class="st4" d="M1987.5,280.4c0,0-229.3,196.5-486.7,122.8S1276.2,102.4,972,71.7S667.8,311.1,443.2,329.5
				C218.5,347.9,124.9,41-48.2,41v-147.3h2035.7V280.4z"/>
		</g>
		<g class="st2">
			
				<linearGradient id="SVGID_6_" gradientUnits="userSpaceOnUse" x1="-143.3982" y1="936.7145" x2="2051.4104" y2="936.7145" gradientTransform="matrix(-1 0 0 -1 1933 1022)">
				<stop  offset="0" style="stop-color:#57ACFF"/>
				<stop  offset="0.9625" style="stop-color:#E676FF"/>
			</linearGradient>
			<path class="st5" d="M2053,53.2c0,0-313.5-98.2-528.8,110.5s-384.2,244.3-646.1,30C616.3-20.4,471.2-112.5,302.8-20.4
				S31.3,255.8-99.7,225.1c0,0-42.1-313.1,0-368.4s2176.1,0,2176.1,0L2053,53.2z"/>
		</g>
		<g class="st2">
			<g>
				
					<linearGradient id="SVGID_7_" gradientUnits="userSpaceOnUse" x1="-666.6492" y1="651.9415" x2="2418.4385" y2="651.9415" gradientTransform="matrix(-0.8635 -0.3019 0.5312 -1.5193 1660.5007 1527.4355)">
					<stop  offset="0" style="stop-color:#57ACFF"/>
					<stop  offset="0.9625" style="stop-color:#E676FF"/>
				</linearGradient>
				<path class="st6" d="M2642.9,565.3c0,0-652.3,888.9-1285.3,46.3S113.9,24.4-222.1,556.3L167.3-904.9L2642.9,565.3z"/>
			</g>
			<g>
				<linearGradient id="SVGID_8_" gradientUnits="userSpaceOnUse" x1="52.4867" y1="324.7349" x2="2640.7395" y2="324.7349">
					<stop  offset="0" style="stop-color:#57ACFF"/>
					<stop  offset="0.9625" style="stop-color:#E676FF"/>
				</linearGradient>
				<path class="st7" d="M2417.7,1252.8c0,0-395.3,295.7-669.3-8.8s-102.8-777.6-459.1-1015.6C933-9.6,777.2,574.9,490.3,488.1
					C203.5,401.2,265.4-315.7,52.5-413.4l85-318.8L2640.7,416L2417.7,1252.8z"/>
			</g>
			<g>
				
					<linearGradient id="SVGID_9_" gradientUnits="userSpaceOnUse" x1="-736.6201" y1="689.7437" x2="2482.5527" y2="689.7437" gradientTransform="matrix(-0.8635 -0.3019 0.5312 -1.5193 1660.5007 1527.4355)">
					<stop  offset="0" style="stop-color:#57ACFF"/>
					<stop  offset="0.9625" style="stop-color:#E676FF"/>
				</linearGradient>
				<path class="st8" d="M2629.3,798.3c0,0-328.9-389.4-714-59.2c-385.1,330.2-613.4,311.8-811.8-299.4
					c-198.4-611.2-323.7-892.3-584-788S26.4,96.4-117-43.9c0,0,128.8-701.2,212.4-797S2771.3,386.4,2771.3,386.4L2629.3,798.3z"/>
			</g>
		</g>
		<g class="st2">
			<linearGradient id="SVGID_10_" gradientUnits="userSpaceOnUse" x1="-547.3105" y1="2245.0347" x2="-547.3105" y2="2245.0347">
				<stop  offset="0" style="stop-color:#57ACFF"/>
				<stop  offset="0.9625" style="stop-color:#E676FF"/>
			</linearGradient>
			<path class="st9" d="M-547.3,2245"/>
		</g>
		<g class="st2">
			<linearGradient id="SVGID_11_" gradientUnits="userSpaceOnUse" x1="-59.9133" y1="544.0526" x2="1924.6803" y2="544.0526">
				<stop  offset="0" style="stop-color:#57ACFF"/>
				<stop  offset="0.9625" style="stop-color:#E676FF"/>
			</linearGradient>
			<path class="st10" d="M6.7-18c0,1277.9,1918,1277.9,1918,0l0,1124.2H-59.9L6.7-18z"/>
		</g>
		<g class="st2">
			<linearGradient id="SVGID_12_" gradientUnits="userSpaceOnUse" x1="-106.7109" y1="577.8187" x2="1395.4928" y2="577.8187">
				<stop  offset="0" style="stop-color:#57ACFF"/>
				<stop  offset="0.9625" style="stop-color:#E676FF"/>
			</linearGradient>
			<path class="st11" d="M6.7-18c0,0-202.3,1001.4,1388.8,1191.7H-106.7L6.7-18z"/>
		</g>
		<g class="st2">
			<linearGradient id="SVGID_13_" gradientUnits="userSpaceOnUse" x1="-25.3273" y1="620.7938" x2="922.8368" y2="620.7938">
				<stop  offset="0" style="stop-color:#57ACFF"/>
				<stop  offset="0.9625" style="stop-color:#E676FF"/>
			</linearGradient>
			<path class="st12" d="M922.8,1106.1c0,0-1064.8,17.1-916.2-1124.2c0,0-192.9,878.6,368.6,1277.7L922.8,1106.1z"/>
		</g>
		<g class="st2">
			<linearGradient id="SVGID_14_" gradientUnits="userSpaceOnUse" x1="-8.4359" y1="761.9976" x2="1931.8619" y2="761.9976">
				<stop  offset="0" style="stop-color:#57ACFF"/>
				<stop  offset="0.9625" style="stop-color:#E676FF"/>
			</linearGradient>
			<path class="st13" d="M-8.4,1069.3c0,0,1868,410,1933.1-1087.3c0,0,116.6,964.6-590,1560.1H29L-8.4,1069.3z"/>
		</g>
		<g class="st14">
			<linearGradient id="SVGID_15_" gradientUnits="userSpaceOnUse" x1="876.0392" y1="688.326" x2="2205.0916" y2="688.326">
				<stop  offset="0" style="stop-color:#57ACFF"/>
				<stop  offset="0.9625" style="stop-color:#E676FF"/>
			</linearGradient>
			<path class="st15" d="M1924.7-18c0,0,163.4,1093.5-1048.6,1412.7h1329.1L1924.7-18z"/>
		</g>
		<g class="st2">
			<linearGradient id="SVGID_16_" gradientUnits="userSpaceOnUse" x1="-64.593" y1="943.4473" x2="1924.6798" y2="943.4473">
				<stop  offset="0" style="stop-color:#57ACFF"/>
				<stop  offset="0.9625" style="stop-color:#E676FF"/>
			</linearGradient>
			<path class="st16" d="M1924.7,1061.6c0,0-117.4-225.6-561.9-145.8S220.9,1228.9-64.6,651.8v583.2L1924.7,1061.6z"/>
		</g>
	</g>
</g>
</svg>
