<?xml version="1.0" encoding="utf-8"?>
<!-- Generator: Adobe Illustrator 24.1.3, SVG Export Plug-In . SVG Version: 6.00 Build 0)  -->
<svg version="1.1" id="Слой_1" xmlns="http://www.w3.org/2000/svg" xmlns:xlink="http://www.w3.org/1999/xlink" x="0px" y="0px"
	 viewBox="0 0 1800 600" style="enable-background:new 0 0 1800 600;" xml:space="preserve">
<style type="text/css">
.st0{opacity:0.5;fill:url(#SVGID_1_);enable-background:new; animation: raot 20s linear infinite;}
	.st1{fill:url(#SVGID_2_); animation: raot 24s linear infinite;}
	.st2{opacity:0.76;fill:url(#SVGID_3_);enable-background:new    ; animation: raot 28s linear infinite;}
	.st3{opacity:0.76;fill:url(#SVGID_4_);enable-background:new    ;animation: raot 29s linear infinite; }
	.st4{opacity:0.5;enable-background:new;  animation: raot2 22s linear infinite;}
	.st5{fill:url(#SVGID_5_);  animation: updown 26s linear infinite;}
	.st6{opacity:0.5;fill:url(#SVGID_6_);enable-background:new; animation: updown 15s linear infinite;}
	.st7{opacity:0.5;fill:url(#SVGID_7_);enable-background:new    ; animation: downup 26s linear infinite;}
	.st8{opacity:0.76;fill:url(#SVGID_8_);enable-background:new    ;}
	.st9{fill:url(#SVGID_9_);}
	.st10{fill:url(#SVGID_10_);}
	.st11{fill:url(#SVGID_11_);}
	.st12{fill:none;stroke:url(#SVGID_12_);stroke-miterlimit:10;}
	.st13{fill:none;stroke:url(#SVGID_13_);stroke-miterlimit:10;}
	.st14{fill:none;stroke:url(#SVGID_14_);stroke-miterlimit:10;}
	.st15{fill:none;stroke:url(#SVGID_15_);stroke-miterlimit:10;}
	.st16{fill:none;stroke:url(#SVGID_16_);stroke-miterlimit:10;}
	.st17{fill:none;stroke:url(#SVGID_17_);stroke-miterlimit:10;}
	.st18{fill:url(#SVGID_18_);}

	@keyframes updown {
		0% {
			transform: translate(0px, -20px);
		}
		50% {
			transform: translate(0px, 20px);
		}

		100% {
			transform: translate(0px, -20px);
		}

	}
	@keyframes downup {
	0% {
		transform: translate(0px, 20px);
	}
	50% {
		transform: translate(0px, -20px);
	}

	100% {
		transform: translate(0px, 20px);
	}

}
	@keyframes raot {
		0% {
			transform: translate(0px, 30px);
		}
		8% {
			transform: translate(-15px, 25px) ;
		}	
		16% {
			transform: translate(-25px, 15px);
		}
		24% {
			transform: translate(-30px, 0px);
		}
		32% {
			transform: translate(-25px, -15px);
		}	
		40% {
			transform: translate(-15px, -25px);
		}
		48% {
			transform: translate(0px, -30px);
		}
		56% {
			transform: translate(15px, -25px );
		}	
		64% {
			transform: translate(20px, -10px);
		}
		72% {
			transform: translate(30px, 0);
		}
		80% {
			transform: translate(25px, 15px);
		}
		88% {
			transform: translate(15px, 25px);
		}		
		100% {
			transform: translate(0px, 30px);
		}
	}
		@keyframes raot2 {
		0% {
			transform: translate(0px, 15px);
		}
		8% {
			transform: translate(-5px, 10px) ;
		}	
		16% {
			transform: translate(-10px, 5px);
		}
		24% {
			transform: translate(-15px, 0px);
		}
		32% {
			transform: translate(-10px, -5px);
		}	
		40% {
			transform: translate(-5px, -10px);
		}
		48% {
			transform: translate(0px, -15px);
		}
		56% {
			transform: translate(5px, -10px );
		}	
		64% {
			transform: translate(10px, -5px);
		}
		72% {
			transform: translate(15px, 0);
		}
		80% {
			transform: translate(10px, 5px);
		}
		88% {
			transform: translate(5px, 10px);
		}		
		100% {
			transform: translate(0px, 15px);
		}
	}
</style>
<g>
	
		<linearGradient id="SVGID_1_" gradientUnits="userSpaceOnUse" x1="133.9653" y1="348.0571" x2="504.7436" y2="348.0571" gradientTransform="matrix(-0.9638 -0.2622 0.2565 -0.9615 1501.5793 759.7679)">
		<stop  offset="3.229439e-02" style="stop-color:#ED41FF"/>
		<stop  offset="0.2055" style="stop-color:#BF39F6"/>
		<stop  offset="0.5975" style="stop-color:#5D29E3"/>
		<stop  offset="0.8709" style="stop-color:#1F1ED8"/>
		<stop  offset="1" style="stop-color:#071AD3"/>
	</linearGradient>
	<path class="st0" d="M1451.7,379.1c14.9-18.5,27.4-40.5,27.9-64.3c1.1-51.3-51.5-87.4-97.4-65.5c-15.5,7.4-30.8,17.2-48,17.4
		c-16.9,0.2-32.3-8.8-47.3-16.7c-25.4-13.4-52.9-24.3-81.6-25.6c-63.4-2.9-115.1,49-102.8,113.3c7.1,37.1,34.1,67,62.6,90.2
		c39.1,31.9,88,47.1,138.1,40.8C1361.3,461.5,1415.7,423.9,1451.7,379.1z"/>
	
		<linearGradient id="SVGID_2_" gradientUnits="userSpaceOnUse" x1="122.6828" y1="330.1588" x2="493.461" y2="330.1588" gradientTransform="matrix(-0.9638 -0.2622 0.2565 -0.9615 1501.5793 759.7679)">
		<stop  offset="0" style="stop-color:#57ACFF"/>
		<stop  offset="1" style="stop-color:#071AD3"/>
	</linearGradient>
	<path class="st1" d="M1458,399.2c14.9-18.5,27.4-40.5,27.9-64.3c1.1-51.3-51.5-87.4-97.4-65.5c-15.5,7.4-30.8,17.2-48,17.4
		c-16.9,0.2-32.3-8.8-47.3-16.7c-25.4-13.4-52.9-24.3-81.6-25.6c-63.4-2.9-115.1,49-102.8,113.3c7.1,37.1,34.1,67,62.6,90.2
		c39.1,31.9,88,47.1,138.1,40.8C1367.6,481.7,1422,444,1458,399.2z"/>
	
		<linearGradient id="SVGID_3_" gradientUnits="userSpaceOnUse" x1="118.2852" y1="332.899" x2="489.0635" y2="332.899" gradientTransform="matrix(-0.9638 -0.2622 0.2565 -0.9615 1501.5793 759.7679)">
		<stop  offset="0" style="stop-color:#57ACFF"/>
		<stop  offset="1" style="stop-color:#ED41FF"/>
	</linearGradient>
	<path class="st2" d="M1462.9,397.8c14.9-18.5,27.4-40.5,27.9-64.3c1.1-51.3-51.5-87.4-97.4-65.5c-15.5,7.4-30.8,17.2-48,17.4
		c-16.9,0.2-32.3-8.8-47.3-16.7c-25.4-13.4-52.9-24.3-81.6-25.6c-63.4-2.9-115.1,49-102.8,113.3c7.1,37.1,34.1,67,62.6,90.2
		c39.1,31.9,88,47.1,138.1,40.8C1372.5,480.2,1426.9,442.6,1462.9,397.8z"/>
	<linearGradient id="SVGID_4_" gradientUnits="userSpaceOnUse" x1="1106.7833" y1="331.3893" x2="1485.7124" y2="331.3893">
		<stop  offset="0" style="stop-color:#57ACFF"/>
		<stop  offset="1" style="stop-color:#ED41FF"/>
	</linearGradient>
	<path class="st3" d="M1457.8,363.3c14.9-18.5,27.4-40.5,27.9-64.3c1.1-51.3-51.5-87.4-97.4-65.5c-15.5,7.4-30.8,17.2-48,17.4
		c-16.9,0.2-32.3-8.8-47.3-16.7c-25.4-13.4-52.9-24.3-81.6-25.6c-63.4-2.9-115.1,49-102.8,113.3c7.1,37.1,34.1,67,62.6,90.2
		c39.1,31.9,88,47.1,138.1,40.8C1367.3,445.7,1421.8,408.1,1457.8,363.3z"/>
	<g class="st4">
		
			<linearGradient id="SVGID_5_" gradientUnits="userSpaceOnUse" x1="1429.1521" y1="459.3925" x2="1212.9629" y2="256.2452" gradientTransform="matrix(0.9643 -0.2648 0.2648 0.9643 -55.7845 376.8971)">
			<stop  offset="3.229439e-02" style="stop-color:#ED41FF"/>
			<stop  offset="0.2055" style="stop-color:#BF39F6"/>
			<stop  offset="0.5975" style="stop-color:#5D29E3"/>
			<stop  offset="0.8709" style="stop-color:#1F1ED8"/>
			<stop  offset="1" style="stop-color:#071AD3"/>
		</linearGradient>
		<path class="st5" d="M1351.8,434c16.7-24.6,23.2-62.5,55.2-73.5c30.6-10.5,78.1,7.9,95.1-29.2c10.1-22.2-2.6-44.6-20.2-58.1
			c-14.7-11.2-32.9-15.3-50.5-19.4c-18.8-4.3-36.4-11.8-52.3-22.7c-15-10.3-29.9-22.7-48.4-25.8c-17.1-2.8-34.4,4-46.6,16.6
			c-35,36.2-17.4,113.6-66.6,137c-22.3,10.6-51.2,2.2-70.9,17.6c-12.5,9.7-18.6,27.9-17,45.6c2.4,26.7,21.8,53.6,45.3,66.2
			c39.8,21.3,88.4,13.5,126.3-8c19-10.8,36-26.3,49.1-44.2C1350.7,435.5,1351.3,434.8,1351.8,434z"/>
	</g>
	
		<linearGradient id="SVGID_6_" gradientUnits="userSpaceOnUse" x1="1281.8491" y1="270.1125" x2="1330.4602" y2="270.1125" gradientTransform="matrix(0.8829 -0.4695 0.4695 0.8829 -29.6822 563.6583)">
		<stop  offset="3.229439e-02" style="stop-color:#ED41FF"/>
		<stop  offset="0.2055" style="stop-color:#BF39F6"/>
		<stop  offset="0.5975" style="stop-color:#5D29E3"/>
		<stop  offset="0.8709" style="stop-color:#1F1ED8"/>
		<stop  offset="1" style="stop-color:#071AD3"/>
	</linearGradient>
	<path class="st6" d="M1240.5,211.3c9.8,4.7,22.3,3.3,29.4-5.7c9.1-11.5,5.3-29.5-6.4-37.7c-25.4-17.8-50.5,18-30.1,38.4
		C1235.5,208.4,1237.9,210,1240.5,211.3z"/>
	
		<linearGradient id="SVGID_7_" gradientUnits="userSpaceOnUse" x1="1074.9116" y1="511.5303" x2="1123.5227" y2="511.5303" gradientTransform="matrix(0.8829 -0.4695 0.4695 0.8829 -29.6822 563.6583)">
		<stop  offset="0" style="stop-color:#57ACFF"/>
		<stop  offset="1" style="stop-color:#071AD3"/>
	</linearGradient>
	<path class="st7" d="M1171.1,521.6c9.8,4.7,22.3,3.3,29.4-5.7c9.1-11.5,5.3-29.5-6.4-37.7c-25.4-17.8-50.5,18-30.1,38.4
		C1166.2,518.7,1168.6,520.4,1171.1,521.6z"/>
	
		<linearGradient id="SVGID_8_" gradientUnits="userSpaceOnUse" x1="1144.0074" y1="385.9013" x2="1271.2277" y2="385.9013" gradientTransform="matrix(0.8829 -0.4695 0.4695 0.8829 -29.6822 563.6583)">
		<stop  offset="0" style="stop-color:#57ACFF"/>
		<stop  offset="1" style="stop-color:#ED41FF"/>
	</linearGradient>
	<path class="st8" d="M1191.9,395.9c25.6,12.2,58.4,8.6,77-14.9c23.9-30.2,13.9-77.1-16.8-98.6c-66.4-46.5-132.2,47.2-78.7,100.6
		C1178.9,388.4,1185.1,392.7,1191.9,395.9z"/>
	
		<linearGradient id="SVGID_9_" gradientUnits="userSpaceOnUse" x1="1225.5945" y1="487.5624" x2="1271.1432" y2="487.5624" gradientTransform="matrix(0.648 -0.7616 0.7616 0.648 119.2607 845.0099)">
		<stop  offset="0" style="stop-color:#57ACFF"/>
		<stop  offset="1" style="stop-color:#071AD3"/>
	</linearGradient>
	<path class="st9" d="M1287.9,237.5c5.9,1,11.5-1.4,12.6-6.9c1.5-7-4.8-15.5-12.5-18.1c-16.6-5.4-19.6,16-4.7,23.4
		C1284.8,236.7,1286.4,237.2,1287.9,237.5z"/>
	
		<linearGradient id="SVGID_10_" gradientUnits="userSpaceOnUse" x1="1055.7617" y1="385.5031" x2="1077.0706" y2="385.5031" gradientTransform="matrix(0.8829 -0.4695 0.4695 0.8829 -29.6822 563.6583)">
		<stop  offset="0" style="stop-color:#57ACFF"/>
		<stop  offset="1" style="stop-color:#071AD3"/>
	</linearGradient>
	<path class="st10" d="M1089,414.1c4.6,2.6,10.2,2.2,13.2-2c3.8-5.4,1.6-14.3-4-18.7c-12-9.4-22.4,7.4-12.5,18
		C1086.7,412.5,1087.8,413.4,1089,414.1z"/>
	
		<linearGradient id="SVGID_11_" gradientUnits="userSpaceOnUse" x1="1384.6461" y1="390.9633" x2="1402.6815" y2="390.9633" gradientTransform="matrix(0.8829 -0.4695 0.4695 0.8829 -29.6822 563.6583)">
		<stop  offset="0" style="stop-color:#57ACFF"/>
		<stop  offset="1" style="stop-color:#071AD3"/>
	</linearGradient>
	<path class="st11" d="M1380.7,262.8c3.6,1.7,8.3,1.2,10.9-2.1c3.4-4.3,2-10.9-2.4-14c-9.4-6.6-18.7,6.7-11.2,14.3
		C1378.9,261.8,1379.8,262.4,1380.7,262.8z"/>
	
		<linearGradient id="SVGID_12_" gradientUnits="userSpaceOnUse" x1="1084.4662" y1="397.8006" x2="1093.1245" y2="397.8006" gradientTransform="matrix(0.8829 -0.4695 0.4695 0.8829 -29.6822 563.6583)">
		<stop  offset="0" style="stop-color:#57ACFF"/>
		<stop  offset="1" style="stop-color:#071AD3"/>
	</linearGradient>
	<path class="st12" d="M1116.9,407.2c1.5,0.7,3.5,0.5,4.6-0.9c1.4-1.8,0.8-4.6-1-5.9c-4-2.8-8,2.8-4.7,6.1
		C1116.1,406.8,1116.5,407,1116.9,407.2z"/>
	
		<linearGradient id="SVGID_13_" gradientUnits="userSpaceOnUse" x1="1064.424" y1="338.1179" x2="1084.8879" y2="338.0665" gradientTransform="matrix(0.8829 -0.4695 0.4695 0.8829 -29.6822 563.6583)">
		<stop  offset="0" style="stop-color:#57ACFF"/>
		<stop  offset="1" style="stop-color:#071AD3"/>
	</linearGradient>
	<path class="st13" d="M1074,366.6c3.9,1.9,8.9,1.3,11.8-2.3c3.6-4.6,2.1-11.8-2.6-15.1c-10.2-7.1-20.2,7.3-12,15.4
		C1072,365.4,1072.9,366.1,1074,366.6z"/>
	
		<linearGradient id="SVGID_14_" gradientUnits="userSpaceOnUse" x1="1347.6837" y1="523.6122" x2="1367.0664" y2="523.6122" gradientTransform="matrix(0.8829 -0.4695 0.4695 0.8829 -29.6822 563.6583)">
		<stop  offset="0" style="stop-color:#57ACFF"/>
		<stop  offset="1" style="stop-color:#071AD3"/>
	</linearGradient>
	<path class="st14" d="M1410.9,397.2c3.7,1.8,8.4,1.2,11.1-2.2c3.5-4.4,2-11.1-2.4-14.3c-9.6-6.7-19.1,6.8-11.4,14.5
		C1409,396.1,1409.9,396.7,1410.9,397.2z"/>
	
		<linearGradient id="SVGID_15_" gradientUnits="userSpaceOnUse" x1="1336.3274" y1="287.5916" x2="1344.9857" y2="287.5916" gradientTransform="matrix(0.8829 -0.4695 0.4695 0.8829 -29.6822 563.6583)">
		<stop  offset="0" style="stop-color:#57ACFF"/>
		<stop  offset="1" style="stop-color:#071AD3"/>
	</linearGradient>
	<path class="st15" d="M1287.5,191.7c1.5,0.7,3.5,0.5,4.6-0.9c1.4-1.8,0.8-4.6-1-5.9c-4-2.8-8,2.8-4.7,6.1
		C1286.7,191.2,1287.1,191.5,1287.5,191.7z"/>
	
		<linearGradient id="SVGID_16_" gradientUnits="userSpaceOnUse" x1="1185.7617" y1="575.306" x2="1194.4202" y2="575.306" gradientTransform="matrix(0.8829 -0.4695 0.4695 0.8829 -29.6822 563.6583)">
		<stop  offset="0" style="stop-color:#57ACFF"/>
		<stop  offset="1" style="stop-color:#071AD3"/>
	</linearGradient>
	<path class="st16" d="M1289.6,516.4c1.5,0.7,3.5,0.5,4.6-0.9c1.4-1.8,0.8-4.6-1-5.9c-4-2.8-8,2.8-4.7,6.1
		C1288.9,515.9,1289.2,516.2,1289.6,516.4z"/>
	
		<linearGradient id="SVGID_17_" gradientUnits="userSpaceOnUse" x1="1426.8644" y1="364.9293" x2="1435.5226" y2="364.9293" gradientTransform="matrix(0.8829 -0.4695 0.4695 0.8829 -29.6822 563.6583)">
		<stop  offset="0" style="stop-color:#57ACFF"/>
		<stop  offset="1" style="stop-color:#071AD3"/>
	</linearGradient>
	<path class="st17" d="M1403.7,217.5c1.5,0.7,3.5,0.5,4.6-0.9c1.4-1.8,0.8-4.6-1-5.9c-4-2.8-8,2.8-4.7,6.1
		C1403,217,1403.3,217.3,1403.7,217.5z"/>
	
		<linearGradient id="SVGID_18_" gradientUnits="userSpaceOnUse" x1="1264.2646" y1="256.6379" x2="1274.6028" y2="256.6379" gradientTransform="matrix(0.8829 -0.4695 0.4695 0.8829 -29.6822 563.6583)">
		<stop  offset="0" style="stop-color:#57ACFF"/>
		<stop  offset="1" style="stop-color:#071AD3"/>
	</linearGradient>
	<path class="st18" d="M1209.7,199.3c2.2,1.1,4.9,0.9,6.3-1.1c1.9-2.6,0.9-6.7-1.7-8.6c-5.6-4.2-10.8,3.7-6.2,8.5
		C1208.6,198.6,1209.1,199,1209.7,199.3z"/>
</g>
</svg>
