<?xml version="1.0" encoding="utf-8"?>
<!-- Generator: Adobe Illustrator 24.1.3, SVG Export Plug-In . SVG Version: 6.00 Build 0)  -->
<svg version="1.1" id="Слой_1" xmlns="http://www.w3.org/2000/svg" xmlns:xlink="http://www.w3.org/1999/xlink" x="0px" y="0px"
	 viewBox="0 0 1699 1402" style="enable-background:new 0 0 1699 1402;" xml:space="preserve">
<style type="text/css">
	.st0{opacity:0.76;fill:url(#SVGID_1_);enable-background:new    ;}
	.st1{fill:url(#SVGID_2_);}
	.st2{fill:none;stroke:url(#SVGID_3_);stroke-miterlimit:10;}
	.st3{opacity:0.5;}
	.st4{opacity:0.5;fill:url(#SVGID_4_);enable-background:new    ;}
	.st5{fill:url(#SVGID_5_);}
	.st6{fill:url(#SVGID_6_);}
	.st7{fill:url(#SVGID_7_);}
	.st8{fill:url(#SVGID_8_);}
	.st9{fill:url(#SVGID_9_);}
	.st10{fill:none;stroke:url(#SVGID_10_);stroke-miterlimit:10;}
	.st11{fill:none;stroke:url(#SVGID_11_);stroke-miterlimit:10;}
	.st12{fill:none;stroke:url(#SVGID_12_);stroke-miterlimit:10;}
	.st13{fill:none;stroke:url(#SVGID_13_);stroke-miterlimit:10;}
	.st14{fill:none;stroke:url(#SVGID_14_);stroke-miterlimit:10;}
	.st15{fill:none;stroke:url(#SVGID_15_);stroke-miterlimit:10;}
	.st16{opacity:0.5;fill:url(#SVGID_16_);enable-background:new    ;}
</style>
<g>
	<g>
		
			<linearGradient id="SVGID_1_" gradientUnits="userSpaceOnUse" x1="865.9435" y1="613.5602" x2="1412.0406" y2="1209.5883" gradientTransform="matrix(-0.9909 0.1346 0.1346 0.9909 2128.7126 -600.2418)">
			<stop  offset="0" style="stop-color:#57ACFF"/>
			<stop  offset="1" style="stop-color:#ED41FF"/>
		</linearGradient>
		<path class="st0" d="M1350.6,152.1c50.9,9.6,102.7,28.2,137.5,67c74.7,83.4,39.3,217.8-67.4,246.8c-36,9.8-75.2,15.2-103.9,39.3
			c-28.1,23.5-40.7,60.4-54.2,94.7c-22.9,58.3-52.7,115.3-98.1,158.1c-100.3,94.7-259.4,82.1-330.5-41.8
			c-41.1-71.6-39-159.5-25.2-238.3c19-108.4,78.1-202.9,169.5-263.6C1084.4,143.8,1227.6,128.9,1350.6,152.1z"/>
		
			<linearGradient id="SVGID_2_" gradientUnits="userSpaceOnUse" x1="-312082.75" y1="-117996.2031" x2="-744192.8125" y2="-281998.1563" gradientTransform="matrix(-0.9909 0.1346 0.1346 0.9909 2128.7126 -600.2418)">
			<stop  offset="0" style="stop-color:#57ACFF"/>
			<stop  offset="1" style="stop-color:#071AD3"/>
		</linearGradient>
		<path class="st1" d="M1393.7,189.1l3.2-2c14-8.5,28.8-16.7,45-18.9c66.1-9.2,83.5,86,75.5,133.5c-9.5,56-49.9,102.4-104.9,117.3
			c-36.1,9.8-75.2,15.2-103.9,39.3c-28.1,23.5-40.7,60.4-54.2,94.7c-22.9,58.3-52.7,115.3-98.1,158.2
			c-100.3,94.7-259.4,82.1-330.5-41.8c-41.1-71.6-39-159.5-25.2-238.3c10.7-61.1,49.7-198.8,127.1-204.1
			c26.6-1.8,52.3,9.5,75.7,22.5c33.6,18.6,64.9,41.4,100,57.1c35.1,15.7,75.5,23.9,111.8,11.8c32.2-10.7,57.1-35.8,82.5-58.2
			C1327.7,233.6,1359.8,209.9,1393.7,189.1z"/>
		
			<linearGradient id="SVGID_3_" gradientUnits="userSpaceOnUse" x1="-320247.9063" y1="-121030.0703" x2="-760811.9375" y2="-288241.0313" gradientTransform="matrix(-0.9909 0.1346 0.1346 0.9909 2128.7126 -600.2418)">
			<stop  offset="0" style="stop-color:#57ACFF"/>
			<stop  offset="1" style="stop-color:#071AD3"/>
		</linearGradient>
		<path class="st2" d="M1388.9,163.3c51.4,9.7,103.7,28.5,138.8,67.7c75.4,84.2,39.7,220-68.1,249.2c-36.4,9.9-76,15.4-104.9,39.7
			c-28.4,23.8-41.1,61-54.7,95.6c-23.2,58.8-53.2,116.5-99,159.7c-101.3,95.7-262,82.9-333.8-42.2c-41.5-72.3-39.4-161.1-25.4-240.7
			c19.2-109.5,78.9-204.9,171.2-266.2C1120,155,1264.7,139.9,1388.9,163.3z"/>
		<g class="st3">
			
				<linearGradient id="SVGID_4_" gradientUnits="userSpaceOnUse" x1="1440.0594" y1="959.2018" x2="1117.8008" y2="452.9375" gradientTransform="matrix(-0.9909 0.1346 -0.1346 -0.9909 2317.4558 788.9955)">
				<stop  offset="3.229439e-02" style="stop-color:#ED41FF"/>
				<stop  offset="0.2055" style="stop-color:#BF39F6"/>
				<stop  offset="0.5975" style="stop-color:#5D29E3"/>
				<stop  offset="0.8709" style="stop-color:#1F1ED8"/>
				<stop  offset="1" style="stop-color:#071AD3"/>
			</linearGradient>
			<path class="st4" d="M1054.5,198.1c62.5,17,127.1,70.7,195.4,43.5c65.2-26.1,117.6-123.9,198.2-86.5
				c48.2,22.4,59.2,77.6,49.3,125c-8.2,39.4-32.4,72-55.7,103.7c-24.8,33.5-43.1,71.4-53.9,111.7c-8.3,31.2-15.6,109.4-60.4,108.8
				c-15.7-0.2-30-9-42.1-19c-25.9-21.5-45.5-49.7-71.7-70.7c-26.3-20.9-63.8-33.7-93.2-17.8c-23.5,12.6-35.1,39.3-45.8,63.7
				c-24.7,56.2-53.5,110.5-86.1,162.5c-18.1,28.9-39.6,58.8-71.9,69.5c-47.9,15.8-131.7-11.4-152.1-59.4
				c-8.1-19.1-8.8-40.6-6.3-61.2c6.4-52.5,32.4-101.5,34.7-154.3c3.3-76.9-44.2-153.2-25.3-227.8c17.1-68,75.5-84.8,137.6-96.9
				c46.5-9.1,96.6-7.5,143.7,3.6C1050.6,197.1,1052.5,197.6,1054.5,198.1z"/>
		</g>
		
			<linearGradient id="SVGID_5_" gradientUnits="userSpaceOnUse" x1="-75166.8125" y1="-5466.7339" x2="-82894.0156" y2="-6142.8325" gradientTransform="matrix(-0.9909 0.1346 0.1346 0.9909 2128.7126 -600.2418)">
			<stop  offset="0" style="stop-color:#57ACFF"/>
			<stop  offset="1" style="stop-color:#071AD3"/>
		</linearGradient>
		<path class="st5" d="M1186.6,712.6c9.5-21.7,32.1-37.1,56.6-32.3c31.5,6.1,50.7,41.3,43,71.6c-16.6,65.5-108.9,41.8-104.2-21
			C1182.5,724.5,1184,718.3,1186.6,712.6z"/>
		
			<linearGradient id="SVGID_6_" gradientUnits="userSpaceOnUse" x1="-41408.1211" y1="-3120.1848" x2="-48790.7188" y2="-3784.3843" gradientTransform="matrix(-0.9909 0.1346 0.1346 0.9909 2128.7126 -600.2418)">
			<stop  offset="0" style="stop-color:#57ACFF"/>
			<stop  offset="1" style="stop-color:#071AD3"/>
		</linearGradient>
		<path class="st6" d="M688,313.5c9.2-21.5,31.1-36.9,55.1-32c30.7,6.3,49.6,41.5,42.3,71.8c-15.8,65.3-106.1,41.1-101.8-21.6
			C684,325.4,685.5,319.2,688,313.5z"/>
		
			<linearGradient id="SVGID_7_" gradientUnits="userSpaceOnUse" x1="-62946.7891" y1="20382.2773" x2="-68498.6875" y2="22055.0371" gradientTransform="matrix(-0.9909 0.1346 0.1346 0.9909 2128.7126 -600.2418)">
			<stop  offset="0" style="stop-color:#57ACFF"/>
			<stop  offset="1" style="stop-color:#071AD3"/>
		</linearGradient>
		<path class="st7" d="M1283.6,619.4c10.2-9.6,26.5-13.1,39.5-5.1c16.6,10.3,19.9,33.5,8.7,48.3c-23.9,31.9-71.4-1.3-54.9-34.4
			C1278.6,625,1280.9,622,1283.6,619.4z"/>
		
			<linearGradient id="SVGID_8_" gradientUnits="userSpaceOnUse" x1="463.5511" y1="1731.6315" x2="-2542.1499" y2="3683.6316" gradientTransform="matrix(-0.9909 0.1346 0.1346 0.9909 2128.7126 -600.2418)">
			<stop  offset="0" style="stop-color:#57ACFF"/>
			<stop  offset="1" style="stop-color:#071AD3"/>
		</linearGradient>
		<path class="st8" d="M698.8,609.7c4.5-10.9,15.4-18.6,27.4-16.1c15.3,3.2,24.8,21,21.2,36.4c-7.8,33-52.8,20.6-50.8-11.1
			C696.9,615.7,697.6,612.6,698.8,609.7z"/>
		
			<linearGradient id="SVGID_9_" gradientUnits="userSpaceOnUse" x1="-33992.2148" y1="-2099.9207" x2="-35056.1172" y2="-2193.0203" gradientTransform="matrix(-0.9909 0.1346 0.1346 0.9909 2128.7126 -600.2418)">
			<stop  offset="0" style="stop-color:#57ACFF"/>
			<stop  offset="1" style="stop-color:#071AD3"/>
		</linearGradient>
		<path class="st9" d="M1398.9,445.5c3.5-8,11.9-13.8,21-12c11.7,2.3,18.8,15.3,16,26.5c-6.1,24.3-40.4,15.5-38.7-7.8
			C1397.3,449.9,1397.9,447.6,1398.9,445.5z"/>
		
			<linearGradient id="SVGID_10_" gradientUnits="userSpaceOnUse" x1="-4673.229" y1="-1356.4376" x2="-4869.5591" y2="-1430.958" gradientTransform="matrix(-0.9909 0.1346 0.1346 0.9909 2128.7126 -600.2418)">
			<stop  offset="0" style="stop-color:#57ACFF"/>
			<stop  offset="1" style="stop-color:#071AD3"/>
		</linearGradient>
		<path class="st10" d="M758.7,580.5c0.7-1.7,1.9-3.2,3.6-4.1c1.6-0.9,3.5-1.3,5.3-1c1.2,0.3,2.3,0.8,3.3,1.5c1,0.7,1.8,1.6,2.4,2.7
			c0.6,1,1,2.2,1.2,3.4c0.2,1.2,0.1,2.4-0.2,3.6c-2.6,10.3-17.2,6.6-16.4-3.3C758.1,582.4,758.3,581.4,758.7,580.5L758.7,580.5z"/>
		
			<linearGradient id="SVGID_11_" gradientUnits="userSpaceOnUse" x1="-12024.3779" y1="-4021.4255" x2="-13229.6777" y2="-4478.9258" gradientTransform="matrix(-0.9909 0.1346 0.1346 0.9909 2128.7126 -600.2418)">
			<stop  offset="0" style="stop-color:#57ACFF"/>
			<stop  offset="1" style="stop-color:#071AD3"/>
		</linearGradient>
		<path class="st11" d="M745.8,708.8c3.8-8.7,12.9-14.8,22.7-12.9c12.6,2.5,20.2,16.6,17.1,28.7c-6.7,26.2-43.6,16.6-41.7-8.5
			C744.2,713.5,744.8,711.1,745.8,708.8L745.8,708.8z"/>
		
			<linearGradient id="SVGID_12_" gradientUnits="userSpaceOnUse" x1="-12088.3359" y1="-4284.9048" x2="-12284.2461" y2="-4359.3042" gradientTransform="matrix(-0.9909 0.1346 0.1346 0.9909 2128.7126 -600.2418)">
			<stop  offset="0" style="stop-color:#57ACFF"/>
			<stop  offset="1" style="stop-color:#071AD3"/>
		</linearGradient>
		<path class="st12" d="M1268.2,185.1c0.7-1.7,1.9-3.2,3.6-4.1c1.6-0.9,3.5-1.3,5.3-1c2.4,0.6,4.4,2.1,5.7,4.2
			c1.3,2.1,1.6,4.6,1.1,7c-2.6,10.3-17.2,6.6-16.4-3.3C1267.6,187,1267.8,186,1268.2,185.1L1268.2,185.1z"/>
		
			<linearGradient id="SVGID_13_" gradientUnits="userSpaceOnUse" x1="-17218.541" y1="-5708.5913" x2="-17726.8418" y2="-5901.4917" gradientTransform="matrix(-0.9909 0.1346 0.1346 0.9909 2128.7126 -600.2418)">
			<stop  offset="0" style="stop-color:#57ACFF"/>
			<stop  offset="1" style="stop-color:#071AD3"/>
		</linearGradient>
		<path class="st13" d="M1341.6,693.4c2.4-5.6,8.3-9.6,14.6-8.3c8.1,1.6,13,10.6,11.1,18.4c-4.3,16.9-28.1,10.8-26.8-5.4
			C1340.5,696.4,1340.9,694.8,1341.6,693.4L1341.6,693.4z"/>
		
			<linearGradient id="SVGID_14_" gradientUnits="userSpaceOnUse" x1="-8288.2588" y1="-3062.7632" x2="-8484.5381" y2="-3137.2632" gradientTransform="matrix(-0.9909 0.1346 0.1346 0.9909 2128.7126 -600.2418)">
			<stop  offset="0" style="stop-color:#57ACFF"/>
			<stop  offset="1" style="stop-color:#071AD3"/>
		</linearGradient>
		<path class="st14" d="M888.3,154.5c0.7-1.7,1.9-3.2,3.6-4.1c1.6-0.9,3.5-1.3,5.3-1c1.2,0.3,2.3,0.8,3.3,1.5c1,0.7,1.8,1.6,2.4,2.7
			c0.6,1,1,2.2,1.2,3.4c0.2,1.2,0.1,2.4-0.2,3.6c-2.6,10.3-17.1,6.6-16.4-3.3C887.6,156.3,887.9,155.4,888.3,154.5L888.3,154.5z"/>
		
			<linearGradient id="SVGID_15_" gradientUnits="userSpaceOnUse" x1="-12941.7266" y1="-4203.083" x2="-13137.8271" y2="-4277.5234" gradientTransform="matrix(-0.9909 0.1346 0.1346 0.9909 2128.7126 -600.2418)">
			<stop  offset="0" style="stop-color:#57ACFF"/>
			<stop  offset="1" style="stop-color:#071AD3"/>
		</linearGradient>
		<path class="st15" d="M1501.4,488c0.7-1.7,2-3.2,3.6-4.1c1.6-0.9,3.5-1.3,5.4-1c4.9,1,8,6.5,6.7,11.2c-2.6,10.3-17.2,6.6-16.4-3.3
			C1500.7,489.8,1501,488.9,1501.4,488L1501.4,488z"/>
		
			<linearGradient id="SVGID_16_" gradientUnits="userSpaceOnUse" x1="262720.9063" y1="388.555" x2="324589.0625" y2="246.5546" gradientTransform="matrix(-0.9909 0.1346 0.1346 0.9909 2128.7126 -600.2418)">
			<stop  offset="0" style="stop-color:#57ACFF"/>
			<stop  offset="1" style="stop-color:#071AD3"/>
		</linearGradient>
		<path class="st16" d="M1245.1,612.2c-32.2,58.4-99.6,96-167.3,76.4C991,663.4,945.9,559.9,975.1,476.7
			c63.1-179.7,316.6-89.7,287.4,85.7C1259.6,579.9,1253.7,596.7,1245.1,612.2z"/>
	</g>
</g>
</svg>
