<svg version="1.1" id="Слой_1" xmlns="http://www.w3.org/2000/svg" x="0" y="0" viewBox="0 0 1699 1402" xml:space="preserve"><linearGradient id="SVGID_1_" gradientUnits="userSpaceOnUse" x1="865.943" y1="613.56" x2="1412.041" y2="1209.588" gradientTransform="scale(-1 1) rotate(7.735 3374.802 -16043.263)"><stop offset="0" stop-color="#57acff"/><stop offset="1" stop-color="#ed41ff"/></linearGradient><path d="M1350.6 152.1c50.9 9.6 102.7 28.2 137.5 67 74.7 83.4 39.3 217.8-67.4 246.8-36 9.8-75.2 15.2-103.9 39.3-28.1 23.5-40.7 60.4-54.2 94.7-22.9 58.3-52.7 115.3-98.1 158.1-100.3 94.7-259.4 82.1-330.5-41.8-41.1-71.6-39-159.5-25.2-238.3 19-108.4 78.1-202.9 169.5-263.6 106.1-70.5 249.3-85.4 372.3-62.2z" opacity=".76" fill="url(#SVGID_1_)"/><linearGradient id="SVGID_2_" gradientUnits="userSpaceOnUse" x1="-312082.75" y1="-117996.203" x2="-744192.813" y2="-281998.156" gradientTransform="scale(-1 1) rotate(7.735 3374.802 -16043.263)"><stop offset="0" stop-color="#57acff"/><stop offset="1" stop-color="#071ad3"/></linearGradient><path d="M1393.7 189.1l3.2-2c14-8.5 28.8-16.7 45-18.9 66.1-9.2 83.5 86 75.5 133.5-9.5 56-49.9 102.4-104.9 117.3-36.1 9.8-75.2 15.2-103.9 39.3-28.1 23.5-40.7 60.4-54.2 94.7-22.9 58.3-52.7 115.3-98.1 158.2-100.3 94.7-259.4 82.1-330.5-41.8-41.1-71.6-39-159.5-25.2-238.3C811.3 370 850.3 232.3 927.7 227c26.6-1.8 52.3 9.5 75.7 22.5 33.6 18.6 64.9 41.4 100 57.1 35.1 15.7 75.5 23.9 111.8 11.8 32.2-10.7 57.1-35.8 82.5-58.2 30-26.6 62.1-50.3 96-71.1z" fill="url(#SVGID_2_)"/><linearGradient id="SVGID_3_" gradientUnits="userSpaceOnUse" x1="-320247.906" y1="-121030.07" x2="-760811.938" y2="-288241.031" gradientTransform="scale(-1 1) rotate(7.735 3374.802 -16043.263)"><stop offset="0" stop-color="#57acff"/><stop offset="1" stop-color="#071ad3"/></linearGradient><path d="M1388.9 163.3c51.4 9.7 103.7 28.5 138.8 67.7 75.4 84.2 39.7 220-68.1 249.2-36.4 9.9-76 15.4-104.9 39.7-28.4 23.8-41.1 61-54.7 95.6-23.2 58.8-53.2 116.5-99 159.7-101.3 95.7-262 82.9-333.8-42.2-41.5-72.3-39.4-161.1-25.4-240.7C861 382.8 920.7 287.4 1013 226.1c107-71.1 251.7-86.2 375.9-62.8z" fill="none" stroke="url(#SVGID_3_)" stroke-miterlimit="10"/><g opacity=".5"><linearGradient id="SVGID_4_" gradientUnits="userSpaceOnUse" x1="1440.059" y1="959.202" x2="1117.801" y2="452.938" gradientTransform="rotate(172.265 1132.057 472.837)"><stop offset=".032" stop-color="#ed41ff"/><stop offset=".205" stop-color="#bf39f6"/><stop offset=".598" stop-color="#5d29e3"/><stop offset=".871" stop-color="#1f1ed8"/><stop offset="1" stop-color="#071ad3"/></linearGradient><path d="M1054.5 198.1c62.5 17 127.1 70.7 195.4 43.5 65.2-26.1 117.6-123.9 198.2-86.5 48.2 22.4 59.2 77.6 49.3 125-8.2 39.4-32.4 72-55.7 103.7-24.8 33.5-43.1 71.4-53.9 111.7-8.3 31.2-15.6 109.4-60.4 108.8-15.7-.2-30-9-42.1-19-25.9-21.5-45.5-49.7-71.7-70.7-26.3-20.9-63.8-33.7-93.2-17.8-23.5 12.6-35.1 39.3-45.8 63.7-24.7 56.2-53.5 110.5-86.1 162.5-18.1 28.9-39.6 58.8-71.9 69.5-47.9 15.8-131.7-11.4-152.1-59.4-8.1-19.1-8.8-40.6-6.3-61.2 6.4-52.5 32.4-101.5 34.7-154.3 3.3-76.9-44.2-153.2-25.3-227.8 17.1-68 75.5-84.8 137.6-96.9 46.5-9.1 96.6-7.5 143.7 3.6 1.7.6 3.6 1.1 5.6 1.6z" opacity=".5" fill="url(#SVGID_4_)"/></g><linearGradient id="SVGID_5_" gradientUnits="userSpaceOnUse" x1="-75166.813" y1="-5466.734" x2="-82894.016" y2="-6142.833" gradientTransform="scale(-1 1) rotate(7.735 3374.802 -16043.263)"><stop offset="0" stop-color="#57acff"/><stop offset="1" stop-color="#071ad3"/></linearGradient><path d="M1186.6 712.6c9.5-21.7 32.1-37.1 56.6-32.3 31.5 6.1 50.7 41.3 43 71.6-16.6 65.5-108.9 41.8-104.2-21 .5-6.4 2-12.6 4.6-18.3z" fill="url(#SVGID_5_)"/><linearGradient id="SVGID_6_" gradientUnits="userSpaceOnUse" x1="-41408.121" y1="-3120.185" x2="-48790.719" y2="-3784.384" gradientTransform="scale(-1 1) rotate(7.735 3374.802 -16043.263)"><stop offset="0" stop-color="#57acff"/><stop offset="1" stop-color="#071ad3"/></linearGradient><path d="M688 313.5c9.2-21.5 31.1-36.9 55.1-32 30.7 6.3 49.6 41.5 42.3 71.8-15.8 65.3-106.1 41.1-101.8-21.6.4-6.3 1.9-12.5 4.4-18.2z" fill="url(#SVGID_6_)"/><linearGradient id="SVGID_7_" gradientUnits="userSpaceOnUse" x1="-62946.789" y1="20382.277" x2="-68498.688" y2="22055.037" gradientTransform="scale(-1 1) rotate(7.735 3374.802 -16043.263)"><stop offset="0" stop-color="#57acff"/><stop offset="1" stop-color="#071ad3"/></linearGradient><path d="M1283.6 619.4c10.2-9.6 26.5-13.1 39.5-5.1 16.6 10.3 19.9 33.5 8.7 48.3-23.9 31.9-71.4-1.3-54.9-34.4 1.7-3.2 4-6.2 6.7-8.8z" fill="url(#SVGID_7_)"/><linearGradient id="SVGID_8_" gradientUnits="userSpaceOnUse" x1="463.551" y1="1731.631" x2="-2542.15" y2="3683.632" gradientTransform="scale(-1 1) rotate(7.735 3374.802 -16043.263)"><stop offset="0" stop-color="#57acff"/><stop offset="1" stop-color="#071ad3"/></linearGradient><path d="M698.8 609.7c4.5-10.9 15.4-18.6 27.4-16.1 15.3 3.2 24.8 21 21.2 36.4-7.8 33-52.8 20.6-50.8-11.1.3-3.2 1-6.3 2.2-9.2z" fill="url(#SVGID_8_)"/><linearGradient id="SVGID_9_" gradientUnits="userSpaceOnUse" x1="-33992.215" y1="-2099.921" x2="-35056.117" y2="-2193.02" gradientTransform="scale(-1 1) rotate(7.735 3374.802 -16043.263)"><stop offset="0" stop-color="#57acff"/><stop offset="1" stop-color="#071ad3"/></linearGradient><path d="M1398.9 445.5c3.5-8 11.9-13.8 21-12 11.7 2.3 18.8 15.3 16 26.5-6.1 24.3-40.4 15.5-38.7-7.8.1-2.3.7-4.6 1.7-6.7z" fill="url(#SVGID_9_)"/><linearGradient id="SVGID_10_" gradientUnits="userSpaceOnUse" x1="-4673.229" y1="-1356.438" x2="-4869.559" y2="-1430.958" gradientTransform="scale(-1 1) rotate(7.735 3374.802 -16043.263)"><stop offset="0" stop-color="#57acff"/><stop offset="1" stop-color="#071ad3"/></linearGradient><path d="M758.7 580.5c.7-1.7 1.9-3.2 3.6-4.1 1.6-.9 3.5-1.3 5.3-1 1.2.3 2.3.8 3.3 1.5s1.8 1.6 2.4 2.7c.6 1 1 2.2 1.2 3.4.2 1.2.1 2.4-.2 3.6-2.6 10.3-17.2 6.6-16.4-3.3.2-.9.4-1.9.8-2.8h0z" fill="none" stroke="url(#SVGID_10_)" stroke-miterlimit="10"/><linearGradient id="SVGID_11_" gradientUnits="userSpaceOnUse" x1="-12024.378" y1="-4021.425" x2="-13229.678" y2="-4478.926" gradientTransform="scale(-1 1) rotate(7.735 3374.802 -16043.263)"><stop offset="0" stop-color="#57acff"/><stop offset="1" stop-color="#071ad3"/></linearGradient><path d="M745.8 708.8c3.8-8.7 12.9-14.8 22.7-12.9 12.6 2.5 20.2 16.6 17.1 28.7-6.7 26.2-43.6 16.6-41.7-8.5.3-2.6.9-5 1.9-7.3h0z" fill="none" stroke="url(#SVGID_11_)" stroke-miterlimit="10"/><linearGradient id="SVGID_12_" gradientUnits="userSpaceOnUse" x1="-12088.336" y1="-4284.905" x2="-12284.246" y2="-4359.304" gradientTransform="scale(-1 1) rotate(7.735 3374.802 -16043.263)"><stop offset="0" stop-color="#57acff"/><stop offset="1" stop-color="#071ad3"/></linearGradient><path d="M1268.2 185.1c.7-1.7 1.9-3.2 3.6-4.1 1.6-.9 3.5-1.3 5.3-1 2.4.6 4.4 2.1 5.7 4.2 1.3 2.1 1.6 4.6 1.1 7-2.6 10.3-17.2 6.6-16.4-3.3.1-.9.3-1.9.7-2.8h0z" fill="none" stroke="url(#SVGID_12_)" stroke-miterlimit="10"/><linearGradient id="SVGID_13_" gradientUnits="userSpaceOnUse" x1="-17218.541" y1="-5708.591" x2="-17726.842" y2="-5901.492" gradientTransform="scale(-1 1) rotate(7.735 3374.802 -16043.263)"><stop offset="0" stop-color="#57acff"/><stop offset="1" stop-color="#071ad3"/></linearGradient><path d="M1341.6 693.4c2.4-5.6 8.3-9.6 14.6-8.3 8.1 1.6 13 10.6 11.1 18.4-4.3 16.9-28.1 10.8-26.8-5.4 0-1.7.4-3.3 1.1-4.7h0z" fill="none" stroke="url(#SVGID_13_)" stroke-miterlimit="10"/><linearGradient id="SVGID_14_" gradientUnits="userSpaceOnUse" x1="-8288.259" y1="-3062.763" x2="-8484.538" y2="-3137.263" gradientTransform="scale(-1 1) rotate(7.735 3374.802 -16043.263)"><stop offset="0" stop-color="#57acff"/><stop offset="1" stop-color="#071ad3"/></linearGradient><path d="M888.3 154.5c.7-1.7 1.9-3.2 3.6-4.1 1.6-.9 3.5-1.3 5.3-1 1.2.3 2.3.8 3.3 1.5s1.8 1.6 2.4 2.7c.6 1 1 2.2 1.2 3.4.2 1.2.1 2.4-.2 3.6-2.6 10.3-17.1 6.6-16.4-3.3.1-1 .4-1.9.8-2.8h0z" fill="none" stroke="url(#SVGID_14_)" stroke-miterlimit="10"/><linearGradient id="SVGID_15_" gradientUnits="userSpaceOnUse" x1="-12941.727" y1="-4203.083" x2="-13137.827" y2="-4277.523" gradientTransform="scale(-1 1) rotate(7.735 3374.802 -16043.263)"><stop offset="0" stop-color="#57acff"/><stop offset="1" stop-color="#071ad3"/></linearGradient><path d="M1501.4 488c.7-1.7 2-3.2 3.6-4.1 1.6-.9 3.5-1.3 5.4-1 4.9 1 8 6.5 6.7 11.2-2.6 10.3-17.2 6.6-16.4-3.3 0-1 .3-1.9.7-2.8h0z" fill="none" stroke="url(#SVGID_15_)" stroke-miterlimit="10"/><linearGradient id="SVGID_16_" gradientUnits="userSpaceOnUse" x1="262720.906" y1="388.555" x2="324589.063" y2="246.555" gradientTransform="scale(-1 1) rotate(7.735 3374.802 -16043.263)"><stop offset="0" stop-color="#57acff"/><stop offset="1" stop-color="#071ad3"/></linearGradient><path d="M1245.1 612.2c-32.2 58.4-99.6 96-167.3 76.4-86.8-25.2-131.9-128.7-102.7-211.9 63.1-179.7 316.6-89.7 287.4 85.7-2.9 17.5-8.8 34.3-17.4 49.8z" opacity=".5" fill="url(#SVGID_16_)"/></svg>