<?xml version="1.0" encoding="utf-8"?>
<!-- Generator: Adobe Illustrator 24.1.3, SVG Export Plug-In . SVG Version: 6.00 Build 0)  -->
<svg version="1.1" id="Слой_1" xmlns="http://www.w3.org/2000/svg" xmlns:xlink="http://www.w3.org/1999/xlink" x="0px" y="0px"
	 viewBox="0 0 1800 600" style="enable-background:new 0 0 1800 600;" xml:space="preserve">
<style type="text/css">
	.st0{opacity:0.21;fill:url(#SVGID_1_);enable-background:new; animation: raot 26s linear infinite;}
	.st1{fill:url(#SVGID_2_); animation: raot 28s linear infinite;}
	.st2{fill:none;stroke:url(#SVGID_3_);stroke-miterlimit:10; animation: raot 28s linear infinite;}
	.st3{opacity:0.68; animation: raot 27s linear infinite;}
	.st4{opacity:0.68;fill:url(#SVGID_4_);enable-background:new;  animation: raot2 30s linear infinite; }
	.st5{fill:url(#SVGID_5_); animation: updown 10s linear infinite;}
	.st6{fill:url(#SVGID_6_); animation: updown 12s linear infinite;}
	.st7{fill:url(#SVGID_7_); animation: downup 12s linear infinite;}
	.st8{fill:url(#SVGID_8_);}
	.st9{fill:url(#SVGID_9_);}
	.st10{fill:none;stroke:url(#SVGID_10_);stroke-miterlimit:10;}
	.st11{fill:none;stroke:url(#SVGID_11_);stroke-miterlimit:10;}
	.st12{fill:none;stroke:url(#SVGID_12_);stroke-miterlimit:10;}
	.st13{fill:none;stroke:url(#SVGID_13_);stroke-miterlimit:10;}
	.st14{fill:none;stroke:url(#SVGID_14_);stroke-miterlimit:10;}
	.st15{fill:none;stroke:url(#SVGID_15_);stroke-miterlimit:10;}
	.st16{opacity:0.45;fill:url(#SVGID_16_);enable-background:new;}
	@keyframes updown {
		0% {
			transform: translate(0px, 0px);
		}
		25% {
			transform: translate(0px, 20px);
		}

		50% {
			transform: translate(0px, 0px);
		}
		75% {
			transform: translate(0px, -20px);
		}
		100% {
			transform: translate(0px, 0px);
		}

	}
	@keyframes downup {
		0% {
			transform: translate(0px, 0px);
		}
		25% {
			transform: translate(0px, 20px);
		}

		50% {
			transform: translate(0px, 0px);
		}
		75% {
			transform: translate(0px, -20px);
		}
		100% {
			transform: translate(0px, 0px);
		}

}
	@keyframes raot {
		0% {
			transform: translate(0px, 0px);
		}
		8% {
			transform: translate(-15px, 25px) ;
		}	
		16% {
			transform: translate(-25px, 15px);
		}
		24% {
			transform: translate(-30px, 0px);
		}
		32% {
			transform: translate(-25px, -15px);
		}	
		40% {
			transform: translate(-15px, -25px);
		}
		48% {
			transform: translate(0px, -30px);
		}
		56% {
			transform: translate(15px, -25px );
		}	
		64% {
			transform: translate(20px, -10px);
		}
		72% {
			transform: translate(30px, 0);
		}
		80% {
			transform: translate(25px, 15px);
		}
		88% {
			transform: translate(15px, 25px);
		}		
		100% {
			transform: translate(0px, 0px);
		}
	}
		@keyframes raot2 {
		0% {
			transform: translate(0px, 0px);
		}
		8% {
			transform: translate(-5px, 10px) ;
		}	
		16% {
			transform: translate(-10px, 5px);
		}
		24% {
			transform: translate(-15px, 0px);
		}
		32% {
			transform: translate(-10px, -5px);
		}	
		40% {
			transform: translate(-5px, -10px);
		}
		48% {
			transform: translate(0px, -15px);
		}
		56% {
			transform: translate(5px, -10px );
		}	
		64% {
			transform: translate(10px, -5px);
		}
		72% {
			transform: translate(15px, 0);
		}
		80% {
			transform: translate(10px, 5px);
		}
		88% {
			transform: translate(5px, 10px);
		}		
		100% {
			transform: translate(0px, 0px);
		}
	}
</style>
<g>
	
		<linearGradient id="SVGID_1_" gradientUnits="userSpaceOnUse" x1="1335.1998" y1="448.7888" x2="1076.3529" y2="110.8858" gradientTransform="matrix(1 0 0 -1 1.195916e-05 602)">
		<stop  offset="0" style="stop-color:#57ACFF"/>
		<stop  offset="1" style="stop-color:#071AD3"/>
	</linearGradient>
	<path class="st0" d="M1354.5,197.7c1.7-1.2,3.4-2.3,5.2-3.4c4.2-2.3,8.8-4,13.6-4.1c14.2-0.2,31.5,16.3,38.5,27.6
		c9,14.5,12.7,32.3,11.2,49.3c-3.1,33.9-27.3,62.9-60.8,70.2c-19.4,4.2-40.4,6-56.3,18c-15.6,11.7-23.4,30.9-31.5,48.7
		c-13.9,30.3-31.4,59.7-56.7,81.1c-56.1,47.4-140.2,36.4-174.4-31.1c-19.7-39.1-16.1-85.6-6.4-127c13.9-59.7,71.5-158.9,146.2-133.6
		c15.6,5.3,29.3,15.2,40.6,27.1c8.2,8.6,15.2,18.2,24.2,25.9c9,7.7,20.5,13.5,32.2,12.3c7.5-0.8,14.4-4.3,20.7-8.4
		c8.9-5.7,16.9-12.6,24-20.4C1334.6,219.1,1342.8,206.2,1354.5,197.7z"/>
	
		<linearGradient id="SVGID_2_" gradientUnits="userSpaceOnUse" x1="974.1625" y1="68.365" x2="1404.4236" y2="430.1191" gradientTransform="matrix(1 0 0 -1 1.195916e-05 602)">
		<stop  offset="0" style="stop-color:#ED41FF"/>
		<stop  offset="0.9776" style="stop-color:#57ACFF"/>
	</linearGradient>
	<path class="st1" d="M1341.6,218.4c33.5-6,75.4,12,83.8,46c10.4,42.4-17.9,88.9-60.2,98c-19.4,4.2-40.4,6-56.3,18
		c-15.6,11.7-23.4,30.9-31.5,48.7c-13.9,30.3-31.3,59.7-56.7,81.1c-56,47.4-140.2,36.4-174.4-31.1c-19.8-39-16.1-85.5-6.4-127
		c17.8-76.5,103.9-188.9,192.1-132.2c14.8,9.5,28.3,23.7,45.9,24.2c17.8,0.5,32.3-13.3,48.4-20.9
		C1331.2,220.9,1336.3,219.3,1341.6,218.4z"/>
	
		<linearGradient id="SVGID_3_" gradientUnits="userSpaceOnUse" x1="127130.7109" y1="74816.9609" x2="396628.6563" y2="234437.625" gradientTransform="matrix(1 0 0 -1 1.195916e-05 602)">
		<stop  offset="0" style="stop-color:#57ACFF"/>
		<stop  offset="1" style="stop-color:#071AD3"/>
	</linearGradient>
	<path class="st2" d="M1353.9,204.4c26.8,6.5,53.7,17.7,71.1,39.3c37.2,46.2,14.6,116.5-43,128.9c-19.4,4.2-40.4,6-56.3,18
		c-15.6,11.7-23.4,30.9-31.5,48.7c-13.8,30.3-31.3,59.7-56.7,81.1c-56,47.4-140.2,36.4-174.4-31.1c-19.8-39-16.1-85.5-6.5-127
		c13.3-56.9,47.4-105.4,97.7-135.1C1212.7,192.8,1289.2,188.8,1353.9,204.4z"/>
	<g class="st3">
		
			<linearGradient id="SVGID_4_" gradientUnits="userSpaceOnUse" x1="25175.7109" y1="180338.75" x2="-635.1896" y2="-13801.835" gradientTransform="matrix(1 0 0 -1 1.195916e-05 602)">
			<stop  offset="0" style="stop-color:#57ACFF"/>
			<stop  offset="1" style="stop-color:#071AD3"/>
		</linearGradient>
		<path class="st4" d="M1218.8,311.1c30.4-7.8,39.7-32.5,60.7-52.3c3.9-3.7,8.6-7.4,14-7.1c7.5,0.4,10.7,7.7,16.1,11.5
			c5.8,4,14.4,7.3,21.4,8.1c14.8,1.6,28.2-7.6,41.3-14.5c13.1-6.9,30.5-11.4,41.8-1.8c10.1,8.6,9.9,25.1,3.1,36.5
			c-6.8,11.4-18.6,18.8-30,25.7c-11.4,6.8-23.4,13.7-31,24.6c-18.2,25.7-7.5,65.6-29.4,88.1c-8.1,8.3-19.3,12.7-30.1,16.8
			c-22.4,8.5-43.9,12.1-66.4,18.9c-20.7,6.3-41.6,17.6-54.7,35.4c-13.3,18-19.2,42.7-38.4,54.1c-15.1,9-35.6,6.3-49.3-4.7
			c-13.6-11.1-20.4-29.4-19.3-46.9c1.1-16.4,8.4-31.9,8.7-48.3c0.4-19.5-9.2-37.6-16.4-55.7c-7.2-18.1-12.2-39.3-3.1-56.6
			c14-26.7,49.6-41.5,77.4-35.5c22.2,4.8,48.4,8.4,71.1,6C1210.5,312.9,1214.7,312.2,1218.8,311.1z"/>
	</g>
	
		<linearGradient id="SVGID_5_" gradientUnits="userSpaceOnUse" x1="41935.1563" y1="7209.4565" x2="47045.2539" y2="8062.4653" gradientTransform="matrix(1 0 0 -1 1.195916e-05 602)">
		<stop  offset="0" style="stop-color:#57ACFF"/>
		<stop  offset="1" style="stop-color:#071AD3"/>
	</linearGradient>
	<path class="st5" d="M1228.6,169.9c5.7-11.2,18.1-18.8,31-15.6c16.5,4.1,25.7,23.2,20.8,39.1c-10.7,34.2-59.1,19.2-54.7-14
		C1226.1,176.1,1227.1,172.9,1228.6,169.9z"/>
	
		<linearGradient id="SVGID_6_" gradientUnits="userSpaceOnUse" x1="46818.5977" y1="-9482.8682" x2="53215.9414" y2="-10836.0156" gradientTransform="matrix(1 0 0 -1 1.195916e-05 602)">
		<stop  offset="0" style="stop-color:#57ACFF"/>
		<stop  offset="1" style="stop-color:#071AD3"/>
	</linearGradient>
	<path class="st6" d="M1282.4,439.6c7.4-6.2,18.8-8,27.5-2c11.1,7.6,12.4,23.7,4.2,33.4c-17.7,21-49.3-3.5-36.6-25.5
		C1278.7,443.3,1280.4,441.3,1282.4,439.6z"/>
	
		<linearGradient id="SVGID_7_" gradientUnits="userSpaceOnUse" x1="14431.3389" y1="3003.0879" x2="17583.8672" y2="3674.447" gradientTransform="matrix(1 0 0 -1 1.195916e-05 602)">
		<stop  offset="0" style="stop-color:#57ACFF"/>
		<stop  offset="1" style="stop-color:#071AD3"/>
	</linearGradient>
	<path class="st7" d="M1032.9,439.9c2.6-7.6,9.1-12.7,16.4-10.5c9.3,2.8,15.3,15.9,13.3,26.6c-4.3,23.2-31.7,12.9-30.9-9.7
		C1031.7,444.2,1032.1,442,1032.9,439.9z"/>
	
		<linearGradient id="SVGID_8_" gradientUnits="userSpaceOnUse" x1="16886.1777" y1="-3194.3289" x2="17896.5176" y2="-3408.0247" gradientTransform="matrix(1 0 0 -1 1.195916e-05 602)">
		<stop  offset="0" style="stop-color:#57ACFF"/>
		<stop  offset="1" style="stop-color:#071AD3"/>
	</linearGradient>
	<path class="st8" d="M1262.3,485.2c2.9-3.2,7.2-4.3,10.3-1.6c4,3.4,4.1,11.1,0.8,15.9c-7.1,10.5-18.4-0.5-13.1-11.4
		C1260.9,487,1261.5,486.1,1262.3,485.2z"/>
	
		<linearGradient id="SVGID_9_" gradientUnits="userSpaceOnUse" x1="19690.0566" y1="3305.2661" x2="20393.4688" y2="3422.687" gradientTransform="matrix(1 0 0 -1 1.195916e-05 602)">
		<stop  offset="0" style="stop-color:#57ACFF"/>
		<stop  offset="1" style="stop-color:#071AD3"/>
	</linearGradient>
	<path class="st9" d="M1354.2,351c2.1-4.2,6.7-7,11.5-5.8c6.1,1.5,9.5,8.6,7.7,14.5c-4,12.7-21.9,7.1-20.3-5.2
		C1353.3,353.3,1353.7,352.1,1354.2,351z"/>
	
		<linearGradient id="SVGID_10_" gradientUnits="userSpaceOnUse" x1="5730.9629" y1="2988.342" x2="6146.5054" y2="3234.468" gradientTransform="matrix(1 0 0 -1 1.195916e-05 602)">
		<stop  offset="0" style="stop-color:#57ACFF"/>
		<stop  offset="1" style="stop-color:#071AD3"/>
	</linearGradient>
	<path class="st10" d="M1006.8,403.3c1.7-3.3,5.3-5.5,9.1-4.6c4.9,1.2,7.6,6.9,6.1,11.5c-3.2,10.1-17.4,5.7-16.1-4.1
		C1006.1,405.1,1006.4,404.2,1006.8,403.3L1006.8,403.3z"/>
	
		<linearGradient id="SVGID_11_" gradientUnits="userSpaceOnUse" x1="8398.0977" y1="4596.5122" x2="8522.8154" y2="4670.3794" gradientTransform="matrix(1 0 0 -1 1.195916e-05 602)">
		<stop  offset="0" style="stop-color:#57ACFF"/>
		<stop  offset="1" style="stop-color:#071AD3"/>
	</linearGradient>
	<path class="st11" d="M1292.4,209.5c0.4-0.9,1.1-1.6,2-2.1c0.9-0.4,1.9-0.6,2.9-0.4c2.6,0.6,4,3.7,3.3,6.2c-1.7,5.4-9.3,3-8.6-2.2
		C1292,210.5,1292.2,210,1292.4,209.5L1292.4,209.5z"/>
	
		<linearGradient id="SVGID_12_" gradientUnits="userSpaceOnUse" x1="6907.1016" y1="3425.2825" x2="7031.8188" y2="3499.1558" gradientTransform="matrix(1 0 0 -1 1.195916e-05 602)">
		<stop  offset="0" style="stop-color:#57ACFF"/>
		<stop  offset="1" style="stop-color:#071AD3"/>
	</linearGradient>
	<path class="st12" d="M1319.1,482.1c0.4-0.9,1.1-1.6,2-2.1c0.9-0.4,1.9-0.6,2.9-0.4c2.6,0.6,4.1,3.7,3.3,6.2
		c-1.7,5.4-9.3,3-8.6-2.2C1318.7,483.1,1318.8,482.6,1319.1,482.1L1319.1,482.1z"/>
	
		<linearGradient id="SVGID_13_" gradientUnits="userSpaceOnUse" x1="6112.2129" y1="3388.2388" x2="6236.9302" y2="3462.1062" gradientTransform="matrix(1 0 0 -1 1.195916e-05 602)">
		<stop  offset="0" style="stop-color:#57ACFF"/>
		<stop  offset="1" style="stop-color:#071AD3"/>
	</linearGradient>
	<path class="st13" d="M1091.5,182.9c0.4-0.9,1.1-1.6,2-2.1c0.9-0.4,1.9-0.6,2.9-0.4c2.6,0.6,4.1,3.7,3.3,6.2
		c-1.7,5.4-9.3,3-8.6-2.2C1091.1,183.9,1091.2,183.4,1091.5,182.9L1091.5,182.9z"/>
	
		<linearGradient id="SVGID_14_" gradientUnits="userSpaceOnUse" x1="8695.3594" y1="4535.8413" x2="8820.0186" y2="4609.644" gradientTransform="matrix(1 0 0 -1 1.195916e-05 602)">
		<stop  offset="0" style="stop-color:#57ACFF"/>
		<stop  offset="1" style="stop-color:#071AD3"/>
	</linearGradient>
	<path class="st14" d="M1407.4,376.3c0.4-0.9,1.1-1.6,2-2.1c0.9-0.4,1.9-0.6,2.9-0.4c2.6,0.7,4.1,3.7,3.3,6.2
		c-1.7,5.4-9.3,3-8.6-2.2C1407,377.3,1407.2,376.8,1407.4,376.3z"/>
	
		<linearGradient id="SVGID_15_" gradientUnits="userSpaceOnUse" x1="8848.2041" y1="4983.3618" x2="9074.5742" y2="5117.4561" gradientTransform="matrix(1 0 0 -1 1.195916e-05 602)">
		<stop  offset="0" style="stop-color:#57ACFF"/>
		<stop  offset="1" style="stop-color:#071AD3"/>
	</linearGradient>
	<path class="st15" d="M1147.3,173.9c1.2-2.6,3.8-4.3,6.6-3.5c3.5,1,5.6,5.5,4.6,9.1c-2.2,7.9-12.5,4.2-11.7-3.4
		C1146.7,175.4,1146.9,174.6,1147.3,173.9L1147.3,173.9z"/>
	
		<linearGradient id="SVGID_16_" gradientUnits="userSpaceOnUse" x1="69120.9219" y1="40503.3164" x2="99567.0156" y2="58536.2539" gradientTransform="matrix(1 0 0 -1 1.195916e-05 602)">
		<stop  offset="0" style="stop-color:#57ACFF"/>
		<stop  offset="1" style="stop-color:#071AD3"/>
	</linearGradient>
	<path class="st16" d="M1170.4,398.3c30.3,12.8,68,6.8,88.3-21.4c26.1-36.2,12-89.9-24.7-113.2c-79.3-50.3-150.4,61.6-85.6,120.5
		C1154.8,390.2,1162.3,395,1170.4,398.3z"/>
</g>
</svg>
