<?xml version="1.0" encoding="utf-8"?>
<!-- Generator: Adobe Illustrator 24.1.3, SVG Export Plug-In . SVG Version: 6.00 Build 0)  -->
<svg version="1.1" id="Слой_1" xmlns="http://www.w3.org/2000/svg" xmlns:xlink="http://www.w3.org/1999/xlink" x="0px" y="0px"
	 viewBox="0 0 1800 600" style="enable-background:new 0 0 1800 600;" xml:space="preserve">
<style type="text/css">
	.st0{opacity:0.76;fill:url(#SVGID_1_);enable-background:new    ;}
	.st1{fill:url(#SVGID_2_);}
	.st2{fill:none;stroke:url(#SVGID_3_);stroke-miterlimit:10;}
	.st3{opacity:0.5;}
	.st4{opacity:0.5;fill:url(#SVGID_4_);enable-background:new    ;}
	.st5{fill:url(#SVGID_5_);}
	.st6{fill:url(#SVGID_6_);}
	.st7{fill:url(#SVGID_7_);}
	.st8{fill:url(#SVGID_8_);}
	.st9{fill:url(#SVGID_9_);}
	.st10{fill:none;stroke:url(#SVGID_10_);stroke-miterlimit:10;}
	.st11{fill:none;stroke:url(#SVGID_11_);stroke-miterlimit:10;}
	.st12{fill:none;stroke:url(#SVGID_12_);stroke-miterlimit:10;}
	.st13{fill:none;stroke:url(#SVGID_13_);stroke-miterlimit:10;}
	.st14{fill:none;stroke:url(#SVGID_14_);stroke-miterlimit:10;}
	.st15{fill:none;stroke:url(#SVGID_15_);stroke-miterlimit:10;}
	.st16{opacity:0.5;fill:url(#SVGID_16_);enable-background:new    ;}
</style>
<g>
	<g>
		
			<linearGradient id="SVGID_1_" gradientUnits="userSpaceOnUse" x1="1028.7301" y1="636.3431" x2="1319.6963" y2="953.913" gradientTransform="matrix(-0.9909 0.1346 0.1346 0.9909 2283.2373 -610.6907)">
			<stop  offset="0" style="stop-color:#57ACFF"/>
			<stop  offset="1" style="stop-color:#ED41FF"/>
		</linearGradient>
		<path class="st0" d="M1348.1,173.2c27.1,5.1,54.7,15,73.2,35.7c39.8,44.4,21,116.1-35.9,131.5c-19.2,5.2-40.1,8.1-55.4,20.9
			c-15,12.5-21.7,32.2-28.9,50.5c-12.2,31-28.1,61.4-52.2,84.2c-53.4,50.5-138.2,43.7-176.1-22.3c-21.9-38.2-20.8-85-13.4-127
			c10.1-57.8,41.6-108.1,90.3-140.5C1206.3,168.7,1282.6,160.8,1348.1,173.2z"/>
		
			<linearGradient id="SVGID_2_" gradientUnits="userSpaceOnUse" x1="-165713.5781" y1="-62560.1719" x2="-395946.3125" y2="-149942.1094" gradientTransform="matrix(-0.9909 0.1346 0.1346 0.9909 2283.2373 -610.6907)">
			<stop  offset="0" style="stop-color:#57ACFF"/>
			<stop  offset="1" style="stop-color:#071AD3"/>
		</linearGradient>
		<path class="st1" d="M1371.1,192.8l1.7-1.1c7.5-4.5,15.3-8.9,24-10.1c35.2-4.9,44.5,45.8,40.2,71.1c-5.1,29.8-26.6,54.6-55.9,62.5
			c-19.2,5.2-40.1,8.1-55.4,20.9c-15,12.5-21.7,32.2-28.9,50.5c-12.2,31.1-28.1,61.4-52.2,84.3c-53.4,50.5-138.2,43.7-176.1-22.3
			c-21.9-38.1-20.8-85-13.4-127c5.7-32.6,26.5-105.9,67.7-108.8c14.2-1,27.9,5,40.3,12c17.9,9.9,34.6,22.1,53.3,30.4
			c18.7,8.3,40.2,12.7,59.6,6.3c17.1-5.7,30.4-19,43.9-31C1335.9,216.6,1353,203.9,1371.1,192.8z"/>
		
			<linearGradient id="SVGID_3_" gradientUnits="userSpaceOnUse" x1="-170245.9375" y1="-64245.6719" x2="-405232.375" y2="-153432.0469" gradientTransform="matrix(-0.9909 0.1346 0.1346 0.9909 2283.2373 -610.6907)">
			<stop  offset="0" style="stop-color:#57ACFF"/>
			<stop  offset="1" style="stop-color:#071AD3"/>
		</linearGradient>
		<path class="st2" d="M1368.5,179.1c27.4,5.2,55.3,15.2,73.9,36.1c40.2,44.9,21.2,117.2-36.3,132.8c-19.4,5.3-40.5,8.2-55.9,21.1
			c-15.1,12.7-21.9,32.5-29.2,51c-12.3,31.4-28.4,62.1-52.8,85.1c-54,51-139.6,44.2-177.9-22.5c-22.1-38.5-21-85.8-13.5-128.2
			c10.2-58.4,42-109.2,91.2-141.9C1225.3,174.7,1302.3,166.7,1368.5,179.1z"/>
		<g class="st3">
			
				<linearGradient id="SVGID_4_" gradientUnits="userSpaceOnUse" x1="1334.6249" y1="54.6408" x2="1162.9221" y2="-215.1021" gradientTransform="matrix(-0.9909 0.1346 -0.1346 -0.9909 2364.0117 -16.1527)">
				<stop  offset="3.229439e-02" style="stop-color:#ED41FF"/>
				<stop  offset="0.2055" style="stop-color:#BF39F6"/>
				<stop  offset="0.5975" style="stop-color:#5D29E3"/>
				<stop  offset="0.8709" style="stop-color:#1F1ED8"/>
				<stop  offset="1" style="stop-color:#071AD3"/>
			</linearGradient>
			<path class="st4" d="M1190.3,197.7c33.3,9,67.7,37.7,104.1,23.2c34.8-13.9,62.7-66,105.6-46.1c25.7,11.9,31.5,41.3,26.3,66.6
				c-4.4,21-17.3,38.3-29.7,55.3c-13.2,17.9-22.9,38-28.7,59.5c-4.4,16.6-8.3,58.3-32.2,58c-8.4-0.1-16-4.8-22.5-10.1
				c-13.8-11.4-24.2-26.5-38.2-37.7c-14-11.2-34-17.9-49.7-9.5c-12.5,6.7-18.7,20.9-24.4,33.9c-13.2,29.9-28.5,58.9-45.9,86.6
				c-9.6,15.4-21.1,31.3-38.3,37c-25.5,8.4-70.2-6.1-81-31.7c-4.3-10.2-4.7-21.6-3.4-32.6c3.4-28,17.3-54.1,18.5-82.2
				c1.7-41-23.5-81.6-13.5-121.4c9.1-36.2,40.2-45.2,73.3-51.6c24.8-4.8,51.5-4,76.6,1.9C1188.3,197.1,1189.3,197.4,1190.3,197.7z"
				/>
		</g>
		
			<linearGradient id="SVGID_5_" gradientUnits="userSpaceOnUse" x1="-39482.3125" y1="-2603.3008" x2="-43599.4492" y2="-2963.5332" gradientTransform="matrix(-0.9909 0.1346 0.1346 0.9909 2283.2373 -610.6907)">
			<stop  offset="0" style="stop-color:#57ACFF"/>
			<stop  offset="1" style="stop-color:#071AD3"/>
		</linearGradient>
		<path class="st5" d="M1260.7,471.8c5.1-11.5,17.1-19.8,30.2-17.2c16.8,3.3,27,22,22.9,38.1c-8.8,34.9-58,22.3-55.5-11.2
			C1258.6,478.1,1259.4,474.8,1260.7,471.8z"/>
		
			<linearGradient id="SVGID_6_" gradientUnits="userSpaceOnUse" x1="-21495.3301" y1="-1353.035" x2="-25428.8555" y2="-1706.9275" gradientTransform="matrix(-0.9909 0.1346 0.1346 0.9909 2283.2373 -610.6907)">
			<stop  offset="0" style="stop-color:#57ACFF"/>
			<stop  offset="1" style="stop-color:#071AD3"/>
		</linearGradient>
		<path class="st6" d="M995.1,259.1c4.9-11.5,16.6-19.6,29.4-17c16.4,3.4,26.5,22.1,22.5,38.2c-8.4,34.8-56.5,21.9-54.2-11.5
			C993,265.5,993.8,262.2,995.1,259.1z"/>
		
			<linearGradient id="SVGID_7_" gradientUnits="userSpaceOnUse" x1="-32971.3555" y1="11169.3203" x2="-35929.4648" y2="12060.585" gradientTransform="matrix(-0.9909 0.1346 0.1346 0.9909 2283.2373 -610.6907)">
			<stop  offset="0" style="stop-color:#57ACFF"/>
			<stop  offset="1" style="stop-color:#071AD3"/>
		</linearGradient>
		<path class="st7" d="M1312.4,422.2c5.4-5.1,14.1-7,21-2.7c8.9,5.5,10.6,17.9,4.7,25.7c-12.8,17-38.1-0.7-29.2-18.3
			C1309.8,425.1,1311,423.5,1312.4,422.2z"/>
		
			<linearGradient id="SVGID_8_" gradientUnits="userSpaceOnUse" x1="814.3312" y1="1232.063" x2="-787.1376" y2="2272.1091" gradientTransform="matrix(-0.9909 0.1346 0.1346 0.9909 2283.2373 -610.6907)">
			<stop  offset="0" style="stop-color:#57ACFF"/>
			<stop  offset="1" style="stop-color:#071AD3"/>
		</linearGradient>
		<path class="st8" d="M1000.9,417c2.4-5.8,8.2-9.9,14.6-8.6c8.2,1.7,13.2,11.2,11.3,19.4c-4.1,17.6-28.1,11-27-5.9
			C999.8,420.2,1000.2,418.5,1000.9,417z"/>
		
			<linearGradient id="SVGID_9_" gradientUnits="userSpaceOnUse" x1="-17544.0586" y1="-809.4277" x2="-18110.918" y2="-859.0322" gradientTransform="matrix(-0.9909 0.1346 0.1346 0.9909 2283.2373 -610.6907)">
			<stop  offset="0" style="stop-color:#57ACFF"/>
			<stop  offset="1" style="stop-color:#071AD3"/>
		</linearGradient>
		<path class="st9" d="M1373.8,329.5c1.9-4.3,6.3-7.3,11.2-6.4c6.2,1.2,10,8.2,8.5,14.1c-3.3,13-21.5,8.3-20.6-4.2
			C1373,331.8,1373.3,330.6,1373.8,329.5z"/>
		
			<linearGradient id="SVGID_10_" gradientUnits="userSpaceOnUse" x1="-2085.5955" y1="-475.1605" x2="-2195.3782" y2="-516.8304" gradientTransform="matrix(-0.9909 0.1346 0.1346 0.9909 2283.2373 -610.6907)">
			<stop  offset="0" style="stop-color:#57ACFF"/>
			<stop  offset="1" style="stop-color:#071AD3"/>
		</linearGradient>
		<path class="st10" d="M1032.8,401.4c0.4-0.9,1-1.7,1.9-2.2c0.9-0.5,1.9-0.7,2.8-0.5c0.6,0.2,1.2,0.4,1.7,0.8
			c0.5,0.4,1,0.9,1.3,1.4c0.3,0.6,0.6,1.2,0.7,1.8c0.1,0.6,0.1,1.3-0.1,1.9c-1.4,5.5-9.1,3.5-8.7-1.8
			C1032.4,402.4,1032.6,401.9,1032.8,401.4L1032.8,401.4z"/>
		
			<linearGradient id="SVGID_11_" gradientUnits="userSpaceOnUse" x1="-5985.1436" y1="-1888.5583" x2="-6640.3037" y2="-2137.24" gradientTransform="matrix(-0.9909 0.1346 0.1346 0.9909 2283.2373 -610.6907)">
			<stop  offset="0" style="stop-color:#57ACFF"/>
			<stop  offset="1" style="stop-color:#071AD3"/>
		</linearGradient>
		<path class="st11" d="M1025.9,469.8c2-4.6,6.9-7.9,12.1-6.9c6.7,1.3,10.8,8.8,9.1,15.3c-3.6,14-23.2,8.8-22.2-4.6
			C1025,472.3,1025.3,471,1025.9,469.8L1025.9,469.8z"/>
		
			<linearGradient id="SVGID_12_" gradientUnits="userSpaceOnUse" x1="-6217.9312" y1="-2104.4331" x2="-6327.4897" y2="-2146.0396" gradientTransform="matrix(-0.9909 0.1346 0.1346 0.9909 2283.2373 -610.6907)">
			<stop  offset="0" style="stop-color:#57ACFF"/>
			<stop  offset="1" style="stop-color:#071AD3"/>
		</linearGradient>
		<path class="st12" d="M1304.2,190.8c0.4-0.9,1-1.7,1.9-2.2c0.9-0.5,1.9-0.7,2.8-0.5c1.3,0.3,2.3,1.1,3,2.2
			c0.7,1.1,0.9,2.5,0.6,3.7c-1.4,5.5-9.1,3.5-8.7-1.8C1303.9,191.7,1304,191.2,1304.2,190.8L1304.2,190.8z"/>
		
			<linearGradient id="SVGID_13_" gradientUnits="userSpaceOnUse" x1="-8906.4912" y1="-2845.8711" x2="-9185.7051" y2="-2951.8328" gradientTransform="matrix(-0.9909 0.1346 0.1346 0.9909 2283.2373 -610.6907)">
			<stop  offset="0" style="stop-color:#57ACFF"/>
			<stop  offset="1" style="stop-color:#071AD3"/>
		</linearGradient>
		<path class="st13" d="M1343.3,461.5c1.3-3,4.4-5.1,7.8-4.4c4.3,0.8,6.9,5.7,5.9,9.8c-2.3,9-15,5.7-14.3-2.9
			C1342.8,463.2,1343,462.3,1343.3,461.5L1343.3,461.5z"/>
		
			<linearGradient id="SVGID_14_" gradientUnits="userSpaceOnUse" x1="-4102.2827" y1="-1418.681" x2="-4212.0405" y2="-1460.3406" gradientTransform="matrix(-0.9909 0.1346 0.1346 0.9909 2283.2373 -610.6907)">
			<stop  offset="0" style="stop-color:#57ACFF"/>
			<stop  offset="1" style="stop-color:#071AD3"/>
		</linearGradient>
		<path class="st14" d="M1101.8,174.4c0.4-0.9,1-1.7,1.9-2.2c0.9-0.5,1.9-0.7,2.8-0.5c0.6,0.2,1.2,0.4,1.7,0.8
			c0.5,0.4,1,0.9,1.3,1.4c0.3,0.6,0.6,1.2,0.7,1.8c0.1,0.6,0.1,1.3-0.1,1.9c-1.4,5.5-9.1,3.5-8.7-1.8
			C1101.5,175.4,1101.6,174.9,1101.8,174.4L1101.8,174.4z"/>
		
			<linearGradient id="SVGID_15_" gradientUnits="userSpaceOnUse" x1="-6689.8047" y1="-2067.3035" x2="-6799.4648" y2="-2108.9309" gradientTransform="matrix(-0.9909 0.1346 0.1346 0.9909 2283.2373 -610.6907)">
			<stop  offset="0" style="stop-color:#57ACFF"/>
			<stop  offset="1" style="stop-color:#071AD3"/>
		</linearGradient>
		<path class="st15" d="M1428.5,352.1c0.4-0.9,1-1.7,1.9-2.2c0.9-0.5,1.9-0.7,2.9-0.5c2.6,0.5,4.2,3.5,3.6,6
			c-1.4,5.5-9.1,3.5-8.7-1.8C1428.1,353.1,1428.2,352.6,1428.5,352.1L1428.5,352.1z"/>
		
			<linearGradient id="SVGID_16_" gradientUnits="userSpaceOnUse" x1="140547.7656" y1="516.4579" x2="173511.7656" y2="440.7987" gradientTransform="matrix(-0.9909 0.1346 0.1346 0.9909 2283.2373 -610.6907)">
			<stop  offset="0" style="stop-color:#57ACFF"/>
			<stop  offset="1" style="stop-color:#071AD3"/>
		</linearGradient>
		<path class="st16" d="M1291.9,418.3c-17.1,31.1-53.1,51.2-89.1,40.7c-46.3-13.4-70.3-68.6-54.7-112.9
			c33.6-95.7,168.7-47.8,153.2,45.6C1299.6,401.1,1296.5,410.1,1291.9,418.3z"/>
	</g>
</g>
</svg>
