<?xml version="1.0" encoding="utf-8"?>
<!-- Generator: Adobe Illustrator 24.1.3, SVG Export Plug-In . SVG Version: 6.00 Build 0)  -->
<svg version="1.1" id="Слой_1" xmlns="http://www.w3.org/2000/svg" xmlns:xlink="http://www.w3.org/1999/xlink" x="0px" y="0px"
	 viewBox="0 0 1699 1402" style="enable-background:new 0 0 1699 1402;" xml:space="preserve">
<style type="text/css">
	.st0{opacity:0.21;fill:url(#SVGID_1_);enable-background:new; animation: raot 26s linear infinite;}
	.st1{fill:url(#SVGID_2_); animation: raot 28s linear infinite;}
	.st2{fill:none;stroke:url(#SVGID_3_);stroke-miterlimit:10; animation: raot 28s linear infinite;}
	.st3{opacity:0.68; animation: raot 27s linear infinite;}
	.st4{opacity:0.68;fill:url(#SVGID_4_);enable-background:new;  animation: raot2 30s linear infinite; }
	.st5{fill:url(#SVGID_5_); animation: updown 10s linear infinite;}
	.st6{fill:url(#SVGID_6_); animation: updown 12s linear infinite;}
	.st7{fill:url(#SVGID_7_); animation: downup 12s linear infinite;}
	.st8{fill:url(#SVGID_8_);}
	.st9{fill:url(#SVGID_9_);}
	.st10{fill:none;stroke:url(#SVGID_10_);stroke-miterlimit:10;}
	.st11{fill:none;stroke:url(#SVGID_11_);stroke-miterlimit:10;}
	.st12{fill:none;stroke:url(#SVGID_12_);stroke-miterlimit:10;}
	.st13{fill:none;stroke:url(#SVGID_13_);stroke-miterlimit:10;}
	.st14{fill:none;stroke:url(#SVGID_14_);stroke-miterlimit:10;}
	.st15{fill:none;stroke:url(#SVGID_15_);stroke-miterlimit:10;}
	.st16{opacity:0.45;fill:url(#SVGID_16_);enable-background:new;}
	@keyframes updown {
		0% {
			transform: translate(0px, -20px);
		}
		50% {
			transform: translate(0px, 20px);
		}

		100% {
			transform: translate(0px, -20px);
		}

	}
	@keyframes downup {
	0% {
		transform: translate(0px, 20px);
	}
	50% {
		transform: translate(0px, -20px);
	}

	100% {
		transform: translate(0px, 20px);
	}

}
	@keyframes raot {
		0% {
			transform: translate(0px, 30px);
		}
		8% {
			transform: translate(-15px, 25px) ;
		}	
		16% {
			transform: translate(-25px, 15px);
		}
		24% {
			transform: translate(-30px, 0px);
		}
		32% {
			transform: translate(-25px, -15px);
		}	
		40% {
			transform: translate(-15px, -25px);
		}
		48% {
			transform: translate(0px, -30px);
		}
		56% {
			transform: translate(15px, -25px );
		}	
		64% {
			transform: translate(20px, -10px);
		}
		72% {
			transform: translate(30px, 0);
		}
		80% {
			transform: translate(25px, 15px);
		}
		88% {
			transform: translate(15px, 25px);
		}		
		100% {
			transform: translate(0px, 30px);
		}
	}
		@keyframes raot2 {
		0% {
			transform: translate(0px, 15px);
		}
		8% {
			transform: translate(-5px, 10px) ;
		}	
		16% {
			transform: translate(-10px, 5px);
		}
		24% {
			transform: translate(-15px, 0px);
		}
		32% {
			transform: translate(-10px, -5px);
		}	
		40% {
			transform: translate(-5px, -10px);
		}
		48% {
			transform: translate(0px, -15px);
		}
		56% {
			transform: translate(5px, -10px );
		}	
		64% {
			transform: translate(10px, -5px);
		}
		72% {
			transform: translate(15px, 0);
		}
		80% {
			transform: translate(10px, 5px);
		}
		88% {
			transform: translate(5px, 10px);
		}		
		100% {
			transform: translate(0px, 15px);
		}
	}
</style>
<g>
	
		<linearGradient id="SVGID_1_" gradientUnits="userSpaceOnUse" x1="1397.2913" y1="1210.0172" x2="942.0533" y2="615.7422" gradientTransform="matrix(1 0 0 -1 1.195916e-05 1402)">
		<stop  offset="0" style="stop-color:#57ACFF"/>
		<stop  offset="1" style="stop-color:#071AD3"/>
	</linearGradient>
	<path class="st0" d="M1431.2,270.2c2.9-2.1,6-4.1,9.2-5.9c7.4-4.1,15.5-7,23.9-7.1c24.9-0.3,55.4,28.7,67.8,48.6
		c15.9,25.5,22.4,56.9,19.8,86.6c-5.4,59.6-48.1,110.7-107,123.4c-34.2,7.4-71,10.6-99.1,31.6c-27.5,20.6-41.1,54.4-55.5,85.7
		c-24.4,53.2-55.1,105-99.8,142.7c-98.6,83.4-246.6,64.1-306.7-54.8c-34.7-68.7-28.3-150.5-11.3-223.3
		c24.5-105.1,125.7-279.4,257.1-235c27.4,9.3,51.5,26.7,71.4,47.7c14.3,15.1,26.7,32,42.5,45.6c15.7,13.6,36,23.8,56.6,21.6
		c13.1-1.4,25.3-7.6,36.4-14.8c15.6-10.1,29.8-22.1,42.3-35.9C1396.3,307.9,1410.7,285.1,1431.2,270.2z"/>
	
		<linearGradient id="SVGID_2_" gradientUnits="userSpaceOnUse" x1="762.3293" y1="540.9601" x2="1519.036" y2="1177.1826" gradientTransform="matrix(1 0 0 -1 1.195916e-05 1402)">
		<stop  offset="0" style="stop-color:#ED41FF"/>
		<stop  offset="0.9776" style="stop-color:#57ACFF"/>
	</linearGradient>
	<path class="st1" d="M1408.6,306.6c58.9-10.6,132.6,21.1,147.3,80.9c18.3,74.5-31.5,156.3-105.8,172.3c-34.2,7.4-71,10.6-99.1,31.6
		c-27.5,20.6-41.1,54.4-55.5,85.7c-24.4,53.2-55.1,104.9-99.7,142.7c-98.6,83.4-246.6,64.1-306.6-54.8
		c-34.8-68.6-28.3-150.4-11.3-223.3c31.4-134.6,182.7-332.3,337.9-232.5c26,16.7,49.8,41.6,80.7,42.5c31.3,0.9,56.8-23.4,85.2-36.8
		C1390.2,311.1,1399.3,308.2,1408.6,306.6z"/>
	
		<linearGradient id="SVGID_3_" gradientUnits="userSpaceOnUse" x1="222418" y1="131873.4688" x2="695922" y2="412324.6563" gradientTransform="matrix(1 0 0 -1 1.195916e-05 1402)">
		<stop  offset="0" style="stop-color:#57ACFF"/>
		<stop  offset="1" style="stop-color:#071AD3"/>
	</linearGradient>
	<path class="st2" d="M1430.1,282.1c47.1,11.4,94.5,31.2,125,69c65.5,81.3,25.6,204.9-75.6,226.7c-34.2,7.4-71,10.6-99.1,31.6
		c-27.5,20.6-41.1,54.4-55.5,85.7c-24.4,53.3-55.1,104.9-99.7,142.7c-98.6,83.4-246.6,64.1-306.6-54.8
		c-34.8-68.6-28.3-150.4-11.3-223.3c23.3-100.1,83.3-185.3,171.9-237.5C1181.8,261.6,1316.4,254.6,1430.1,282.1z"/>
	<g class="st3">
		
			<linearGradient id="SVGID_4_" gradientUnits="userSpaceOnUse" x1="43325.9609" y1="317585.2188" x2="-2068.0627" y2="-23852.7715" gradientTransform="matrix(1 0 0 -1 1.195916e-05 1402)">
			<stop  offset="0" style="stop-color:#57ACFF"/>
			<stop  offset="1" style="stop-color:#071AD3"/>
		</linearGradient>
		<path class="st4" d="M1192.5,469.7c53.5-13.7,69.8-57.1,106.7-91.9c6.9-6.5,15.2-13,24.7-12.5c13.3,0.7,18.8,13.5,28.4,20.2
			c10.2,7,25.3,12.9,37.6,14.2c26,2.8,49.6-13.3,72.6-25.5c23-12.2,53.7-20,73.6-3.1c17.8,15.1,17.5,44.2,5.5,64.3
			c-12,20.1-32.7,33.1-52.8,45.1c-20.1,12-41.1,24.1-54.6,43.2c-31.9,45.1-13.3,115.3-51.7,155c-14.2,14.7-33.9,22.3-53,29.5
			c-39.4,15-77.2,21.2-116.8,33.3c-36.5,11.1-73.2,31-96.2,62.2c-23.4,31.6-33.7,75.1-67.5,95.1c-26.6,15.7-62.7,11.1-86.7-8.3
			c-24-19.5-35.9-51.7-33.9-82.5c1.9-28.8,14.8-56.2,15.3-85c0.6-34.3-16.1-66.1-28.8-98c-12.7-31.9-21.4-69.1-5.4-99.5
			c24.7-47,87.2-73,136.1-62.5c39,8.4,85.2,14.9,125.1,10.5C1177.9,472.9,1185.3,471.6,1192.5,469.7z"/>
	</g>
	
		<linearGradient id="SVGID_5_" gradientUnits="userSpaceOnUse" x1="72801.0469" y1="13100.1064" x2="81788.2578" y2="14600.3057" gradientTransform="matrix(1 0 0 -1 1.195916e-05 1402)">
		<stop  offset="0" style="stop-color:#57ACFF"/>
		<stop  offset="1" style="stop-color:#071AD3"/>
	</linearGradient>
	<path class="st5" d="M1209.8,221.3c10-19.7,31.9-33,54.6-27.4c29.1,7.2,45.2,40.9,36.5,68.8c-18.8,60.2-103.9,33.7-96.3-24.6
		C1205.4,232.2,1207.2,226.5,1209.8,221.3z"/>
	
		<linearGradient id="SVGID_6_" gradientUnits="userSpaceOnUse" x1="81389.6328" y1="-16256.9385" x2="92640.7344" y2="-18636.7383" gradientTransform="matrix(1 0 0 -1 1.195916e-05 1402)">
		<stop  offset="0" style="stop-color:#57ACFF"/>
		<stop  offset="1" style="stop-color:#071AD3"/>
	</linearGradient>
	<path class="st6" d="M1304.4,695.7c13-11,33-14,48.3-3.6c19.5,13.4,21.9,41.7,7.5,58.7c-31.1,36.9-86.7-6.1-64.4-44.9
		C1298,702.1,1300.9,698.6,1304.4,695.7z"/>
	
		<linearGradient id="SVGID_7_" gradientUnits="userSpaceOnUse" x1="24429.6699" y1="5702.3018" x2="29974.0703" y2="6883.0313" gradientTransform="matrix(1 0 0 -1 1.195916e-05 1402)">
		<stop  offset="0" style="stop-color:#57ACFF"/>
		<stop  offset="1" style="stop-color:#071AD3"/>
	</linearGradient>
	<path class="st7" d="M865.6,696.3c4.6-13.4,16.1-22.4,28.8-18.5c16.4,5,26.9,27.9,23.4,46.8c-7.6,40.8-55.8,22.7-54.3-17
		C863.6,703.7,864.3,699.9,865.6,696.3z"/>
	
		<linearGradient id="SVGID_8_" gradientUnits="userSpaceOnUse" x1="28747.0313" y1="-5197.189" x2="30523.9316" y2="-5573.019" gradientTransform="matrix(1 0 0 -1 1.195916e-05 1402)">
		<stop  offset="0" style="stop-color:#57ACFF"/>
		<stop  offset="1" style="stop-color:#071AD3"/>
	</linearGradient>
	<path class="st8" d="M1269.2,775.9c5.2-5.6,12.7-7.5,18.2-2.9c7,6,7.2,19.5,1.4,28c-12.5,18.4-32.3-0.9-23.1-20.1
		C1266.6,779.1,1267.7,777.4,1269.2,775.9z"/>
	
		<linearGradient id="SVGID_9_" gradientUnits="userSpaceOnUse" x1="33678.2539" y1="6233.7471" x2="34915.3555" y2="6440.2573" gradientTransform="matrix(1 0 0 -1 1.195916e-05 1402)">
		<stop  offset="0" style="stop-color:#57ACFF"/>
		<stop  offset="1" style="stop-color:#071AD3"/>
	</linearGradient>
	<path class="st9" d="M1430.7,539.8c3.7-7.3,11.8-12.3,20.3-10.2c10.8,2.7,16.8,15.1,13.5,25.5c-7,22.3-38.5,12.5-35.7-9.1
		C1429.1,543.9,1429.8,541.8,1430.7,539.8z"/>
	
		<linearGradient id="SVGID_10_" gradientUnits="userSpaceOnUse" x1="8925.9033" y1="5556.5557" x2="9638.9033" y2="5978.8657" gradientTransform="matrix(1 0 0 -1 1.195916e-05 1402)">
		<stop  offset="0" style="stop-color:#57ACFF"/>
		<stop  offset="1" style="stop-color:#071AD3"/>
	</linearGradient>
	<path class="st10" d="M819.8,631.8c2.9-5.8,9.4-9.7,16.1-8.1c8.6,2.1,13.3,12.1,10.8,20.3c-5.5,17.8-30.6,10-28.4-7.3
		C818.5,635,819,633.4,819.8,631.8L819.8,631.8z"/>
	
		<linearGradient id="SVGID_11_" gradientUnits="userSpaceOnUse" x1="13275.5264" y1="8182.8423" x2="13485.3262" y2="8307.1025" gradientTransform="matrix(1 0 0 -1 1.195916e-05 1402)">
		<stop  offset="0" style="stop-color:#57ACFF"/>
		<stop  offset="1" style="stop-color:#071AD3"/>
	</linearGradient>
	<path class="st11" d="M1322,291c0.7-1.6,2-2.9,3.5-3.7c1.6-0.8,3.3-1,5.1-0.7c4.6,1.1,7.1,6.4,5.7,10.8c-3,9.5-16.4,5.3-15.2-3.9
		C1321.3,292.7,1321.6,291.8,1322,291L1322,291z"/>
	
		<linearGradient id="SVGID_12_" gradientUnits="userSpaceOnUse" x1="10769.4336" y1="6191.7524" x2="10979.2334" y2="6316.0225" gradientTransform="matrix(1 0 0 -1 1.195916e-05 1402)">
		<stop  offset="0" style="stop-color:#57ACFF"/>
		<stop  offset="1" style="stop-color:#071AD3"/>
	</linearGradient>
	<path class="st12" d="M1368.9,770.5c0.7-1.6,2-2.9,3.5-3.7c1.6-0.8,3.3-1,5-0.7c4.6,1.1,7.1,6.4,5.8,10.8c-3,9.5-16.4,5.3-15.2-3.9
		C1368.2,772.2,1368.5,771.3,1368.9,770.5L1368.9,770.5z"/>
	
		<linearGradient id="SVGID_13_" gradientUnits="userSpaceOnUse" x1="9414.8457" y1="6152.3262" x2="9624.6455" y2="6276.5859" gradientTransform="matrix(1 0 0 -1 1.195916e-05 1402)">
		<stop  offset="0" style="stop-color:#57ACFF"/>
		<stop  offset="1" style="stop-color:#071AD3"/>
	</linearGradient>
	<path class="st13" d="M968.6,244.2c0.7-1.6,2-2.9,3.5-3.7c1.6-0.8,3.3-1,5-0.7c4.6,1.1,7.1,6.4,5.8,10.8c-3,9.5-16.4,5.3-15.2-3.9
		C967.9,246,968.2,245.1,968.6,244.2L968.6,244.2z"/>
	
		<linearGradient id="SVGID_14_" gradientUnits="userSpaceOnUse" x1="13784.2695" y1="8067.9521" x2="13993.9707" y2="8192.1025" gradientTransform="matrix(1 0 0 -1 1.195916e-05 1402)">
		<stop  offset="0" style="stop-color:#57ACFF"/>
		<stop  offset="1" style="stop-color:#071AD3"/>
	</linearGradient>
	<path class="st14" d="M1524.3,584.4c0.7-1.6,2-2.9,3.5-3.7c1.6-0.8,3.3-1,5.1-0.7c4.6,1.1,7.1,6.4,5.7,10.8
		c-3,9.5-16.4,5.3-15.2-3.9C1523.6,586.1,1523.9,585.2,1524.3,584.4z"/>
	
		<linearGradient id="SVGID_15_" gradientUnits="userSpaceOnUse" x1="14167.8711" y1="8922.8262" x2="14552.9707" y2="9150.9463" gradientTransform="matrix(1 0 0 -1 1.195916e-05 1402)">
		<stop  offset="0" style="stop-color:#57ACFF"/>
		<stop  offset="1" style="stop-color:#071AD3"/>
	</linearGradient>
	<path class="st15" d="M1066.7,228.4c2.1-4.5,6.7-7.5,11.5-6.2c6.2,1.8,9.8,9.6,8,16c-3.8,13.9-22.1,7.5-20.6-6
		C1065.8,231,1066.2,229.7,1066.7,228.4L1066.7,228.4z"/>
	
		<linearGradient id="SVGID_16_" gradientUnits="userSpaceOnUse" x1="120613.0703" y1="71654.5234" x2="174159.0781" y2="103369.3203" gradientTransform="matrix(1 0 0 -1 1.195916e-05 1402)">
		<stop  offset="0" style="stop-color:#57ACFF"/>
		<stop  offset="1" style="stop-color:#071AD3"/>
	</linearGradient>
	<path class="st16" d="M1107.4,623.1c53.3,22.5,119.6,12,155.3-37.6c45.8-63.6,21.1-158.1-43.4-199
		c-139.5-88.4-264.6,108.4-150.6,212C1080.1,608.8,1093.2,617.2,1107.4,623.1z"/>
</g>
</svg>
