<?xml version="1.0" encoding="utf-8"?>
<!-- Generator: Adobe Illustrator 24.1.3, SVG Export Plug-In . SVG Version: 6.00 Build 0)  -->
<svg version="1.1" xmlns="http://www.w3.org/2000/svg" xmlns:xlink="http://www.w3.org/1999/xlink" x="0px" y="0px"
	 viewBox="0 0 1699 1402" style="enable-background:new 0 0 1699 1402;" xml:space="preserve">
<style type="text/css">
	.st0{opacity:0.5;fill:url(#SVGID_1_);enable-background:new; animation: raot 20s linear infinite;}
	.st1{fill:url(#SVGID_2_); animation: raot 24s linear infinite;}
	.st2{opacity:0.76;fill:url(#SVGID_3_);enable-background:new    ; animation: raot 28s linear infinite;}
	.st3{opacity:0.76;fill:url(#SVGID_4_);enable-background:new    ;animation: raot 29s linear infinite; }
	.st4{opacity:0.5;enable-background:new;  animation: raot2 22s linear infinite;}
	.st5{fill:url(#SVGID_5_);  animation: updown 26s linear infinite;}
	.st6{opacity:0.5;fill:url(#SVGID_6_);enable-background:new; animation: updown 15s linear infinite;}
	.st7{opacity:0.5;fill:url(#SVGID_7_);enable-background:new    ; animation: downup 26s linear infinite;}
	.st8{opacity:0.76;fill:url(#SVGID_8_);enable-background:new    ;}
	.st9{fill:url(#SVGID_9_);}
	.st10{fill:url(#SVGID_10_);}
	.st11{fill:url(#SVGID_11_);}
	.st12{fill:none;stroke:url(#SVGID_12_);stroke-miterlimit:10;}
	.st13{fill:none;stroke:url(#SVGID_13_);stroke-miterlimit:10;}
	.st14{fill:none;stroke:url(#SVGID_14_);stroke-miterlimit:10;}
	.st15{fill:none;stroke:url(#SVGID_15_);stroke-miterlimit:10;}
	.st16{fill:none;stroke:url(#SVGID_16_);stroke-miterlimit:10;}
	.st17{fill:none;stroke:url(#SVGID_17_);stroke-miterlimit:10;}
	.st18{fill:url(#SVGID_18_);}

	@keyframes updown {
		0% {
			transform: translate(0px, -20px);
		}
		50% {
			transform: translate(0px, 20px);
		}

		100% {
			transform: translate(0px, -20px);
		}

	}
	@keyframes downup {
	0% {
		transform: translate(0px, 20px);
	}
	50% {
		transform: translate(0px, -20px);
	}

	100% {
		transform: translate(0px, 20px);
	}

}
	@keyframes raot {
		0% {
			transform: translate(0px, 30px);
		}
		8% {
			transform: translate(-15px, 25px) ;
		}	
		16% {
			transform: translate(-25px, 15px);
		}
		24% {
			transform: translate(-30px, 0px);
		}
		32% {
			transform: translate(-25px, -15px);
		}	
		40% {
			transform: translate(-15px, -25px);
		}
		48% {
			transform: translate(0px, -30px);
		}
		56% {
			transform: translate(15px, -25px );
		}	
		64% {
			transform: translate(20px, -10px);
		}
		72% {
			transform: translate(30px, 0);
		}
		80% {
			transform: translate(25px, 15px);
		}
		88% {
			transform: translate(15px, 25px);
		}		
		100% {
			transform: translate(0px, 30px);
		}
	}
		@keyframes raot2 {
		0% {
			transform: translate(0px, 15px);
		}
		8% {
			transform: translate(-5px, 10px) ;
		}	
		16% {
			transform: translate(-10px, 5px);
		}
		24% {
			transform: translate(-15px, 0px);
		}
		32% {
			transform: translate(-10px, -5px);
		}	
		40% {
			transform: translate(-5px, -10px);
		}
		48% {
			transform: translate(0px, -15px);
		}
		56% {
			transform: translate(5px, -10px );
		}	
		64% {
			transform: translate(10px, -5px);
		}
		72% {
			transform: translate(15px, 0);
		}
		80% {
			transform: translate(10px, 5px);
		}
		88% {
			transform: translate(5px, 10px);
		}		
		100% {
			transform: translate(0px, 15px);
		}
	}

</style>
<g id="Слой_1">
</g>
<g id="Слой_2">
	<g>
		
			<linearGradient id="SVGID_1_" gradientUnits="userSpaceOnUse" x1="42.938" y1="947.2826" x2="853.08" y2="947.2826" gradientTransform="matrix(-0.9831 0.1768 -0.1809 -0.9785 1732.2135 1347.6893)">
			<stop  offset="3.229439e-02" style="stop-color:#ED41FF"/>
			<stop  offset="0.2055" style="stop-color:#BF39F6"/>
			<stop  offset="0.5975" style="stop-color:#5D29E3"/>
			<stop  offset="0.8709" style="stop-color:#1F1ED8"/>
			<stop  offset="1" style="stop-color:#071AD3"/>
		</linearGradient>
		<path class="st0" d="M1488.6,416.2c12-50.6,16.1-105.6-5.3-153.1c-45.9-102.2-183.5-124.1-253.6-38
			c-23.7,29.1-44.7,62.8-78.4,79.4c-33.1,16.3-72,12.9-108.9,11.4c-62.8-2.6-127.2,1.7-185,26c-127.8,53.7-181.2,204.7-96.8,320
			c48.8,66.6,130.2,100.3,208.1,119.4c107.1,26.4,217.8,10.4,310.8-48.9C1387.4,663.7,1459.5,538.4,1488.6,416.2z"/>
		
			<linearGradient id="SVGID_2_" gradientUnits="userSpaceOnUse" x1="18.2859" y1="908.175" x2="828.4279" y2="908.175" gradientTransform="matrix(-0.9831 0.1768 -0.1809 -0.9785 1732.2135 1347.6893)">
			<stop  offset="0" style="stop-color:#57ACFF"/>
			<stop  offset="1" style="stop-color:#071AD3"/>
		</linearGradient>
		<path class="st1" d="M1519.9,450.1c12-50.6,16.1-105.6-5.3-153.1c-45.9-102.2-183.5-124.1-253.6-38
			c-23.7,29.1-44.7,62.8-78.4,79.4c-33.1,16.3-72,12.9-108.9,11.4c-62.8-2.6-127.2,1.7-185,26c-127.8,53.7-181.2,204.7-96.8,320
			C840.7,762.4,922.1,796,1000,815.2c107.1,26.4,217.8,10.4,310.8-48.9C1418.7,697.6,1490.9,572.3,1519.9,450.1z"/>
		
			<linearGradient id="SVGID_3_" gradientUnits="userSpaceOnUse" x1="8.6773" y1="914.1624" x2="818.8194" y2="914.1624" gradientTransform="matrix(-0.9831 0.1768 -0.1809 -0.9785 1732.2135 1347.6893)">
			<stop  offset="0" style="stop-color:#57ACFF"/>
			<stop  offset="1" style="stop-color:#ED41FF"/>
		</linearGradient>
		<path class="st2" d="M1528.3,442.6c12-50.6,16.1-105.6-5.3-153.1c-45.9-102.2-183.5-124.1-253.6-38
			c-23.7,29.1-44.7,62.8-78.4,79.4c-33.1,16.3-72,12.9-108.9,11.4c-62.8-2.6-127.2,1.7-185,26c-127.8,53.7-181.2,204.7-96.8,320
			c48.8,66.6,130.2,100.3,208.1,119.4c107.1,26.4,217.8,10.4,310.8-48.9C1427.1,690,1499.2,564.7,1528.3,442.6z"/>
		
			<linearGradient id="SVGID_4_" gradientUnits="userSpaceOnUse" x1="726.8107" y1="481.1516" x2="1554.7622" y2="481.1516" gradientTransform="matrix(0.9032 -0.4292 0.4292 0.9032 -99.8493 522.8798)">
			<stop  offset="0" style="stop-color:#57ACFF"/>
			<stop  offset="1" style="stop-color:#ED41FF"/>
		</linearGradient>
		<path class="st3" d="M1485.7,379.3c12-50.6,16.1-105.6-5.3-153.1c-45.9-102.2-183.5-124.1-253.6-38
			c-23.7,29.1-44.7,62.8-78.4,79.4c-33.1,16.3-72,12.9-108.9,11.4c-62.8-2.6-127.2,1.7-185,26c-127.8,53.7-181.2,204.7-96.8,320
			c48.8,66.6,130.2,100.3,208.1,119.4c107.1,26.4,217.8,10.4,310.8-48.9C1384.5,626.8,1456.7,501.5,1485.7,379.3z"/>
		<g class="st4">
			
				<linearGradient id="SVGID_5_" gradientUnits="userSpaceOnUse" x1="1477.9525" y1="762.2296" x2="1005.584" y2="318.3573" gradientTransform="matrix(0.7573 -0.653 0.653 0.7573 -85.314 934.4246)">
				<stop  offset="3.229439e-02" style="stop-color:#ED41FF"/>
				<stop  offset="0.2055" style="stop-color:#BF39F6"/>
				<stop  offset="0.5975" style="stop-color:#5D29E3"/>
				<stop  offset="0.8709" style="stop-color:#1F1ED8"/>
				<stop  offset="1" style="stop-color:#071AD3"/>
			</linearGradient>
			<path class="st5" d="M1342.8,618.3c10-64.2-12.8-145.1,40.1-196.7c50.5-49.3,161.6-57.7,160.2-146.8
				c-0.8-53.2-46.9-85.6-94.4-95.7c-39.5-8.4-79.2,0.6-117.8,9.1c-41.1,9-82.8,10.8-124.4,4.2c-39.3-6.2-80.2-16.9-119.7-5.4
				c-36.4,10.5-64.1,40.1-76.3,76.5c-35.1,104.2,72.1,240.4-3,333c-34,41.9-98.9,52.4-123.5,101.3c-15.5,30.9-10.6,72.5,9.2,106
				c29.7,50.5,93.3,85.3,151.5,88.1c98.5,4.7,187.1-56.2,241.8-134.3c27.3-39,46.3-85.5,55.4-133.2
				C1342.2,622.3,1342.5,620.3,1342.8,618.3z"/>
		</g>
		
			<linearGradient id="SVGID_6_" gradientUnits="userSpaceOnUse" x1="1258.6903" y1="225.0865" x2="1364.9042" y2="225.0865" gradientTransform="matrix(0.596 -0.803 0.803 0.596 -49.6409 1148.9268)">
			<stop  offset="3.229439e-02" style="stop-color:#ED41FF"/>
			<stop  offset="0.2055" style="stop-color:#BF39F6"/>
			<stop  offset="0.5975" style="stop-color:#5D29E3"/>
			<stop  offset="0.8709" style="stop-color:#1F1ED8"/>
			<stop  offset="1" style="stop-color:#071AD3"/>
		</linearGradient>
		<path class="st6" d="M914.4,283.1c23.7,0,47.1-14.4,52.7-38.9c7.2-31.3-17.1-63.1-48-68.4c-66.8-11.3-82.8,83-23.3,104.1
			C901.9,282.1,908.1,283.1,914.4,283.1z"/>
		
			<linearGradient id="SVGID_7_" gradientUnits="userSpaceOnUse" x1="806.5366" y1="752.5787" x2="912.7506" y2="752.5787" gradientTransform="matrix(0.596 -0.803 0.803 0.596 -49.6409 1148.9268)">
			<stop  offset="0" style="stop-color:#57ACFF"/>
			<stop  offset="1" style="stop-color:#071AD3"/>
		</linearGradient>
		<path class="st7" d="M1068.5,960.6c23.7,0,47.1-14.4,52.7-38.9c7.2-31.3-17.1-63.1-48-68.4c-66.8-11.3-82.8,83-23.3,104.1
			C1055.9,959.5,1062.2,960.5,1068.5,960.6z"/>
		
			<linearGradient id="SVGID_8_" gradientUnits="userSpaceOnUse" x1="957.5093" y1="478.0823" x2="1235.4824" y2="478.0823" gradientTransform="matrix(0.596 -0.803 0.803 0.596 -49.6409 1148.9268)">
			<stop  offset="0" style="stop-color:#57ACFF"/>
			<stop  offset="1" style="stop-color:#ED41FF"/>
		</linearGradient>
		<path class="st8" d="M991.6,693.1c62.1,0.1,123.3-37.8,138-101.7c18.9-82-44.8-165.2-125.7-178.9
			C829.3,383,787.3,629.6,943.1,684.8C958.8,690.4,975.2,693,991.6,693.1z"/>
		
			<linearGradient id="SVGID_9_" gradientUnits="userSpaceOnUse" x1="1382.7349" y1="554.9738" x2="1482.2578" y2="554.9738" gradientTransform="matrix(0.2584 -0.966 0.966 0.2584 123.5584 1466.0017)">
			<stop  offset="0" style="stop-color:#57ACFF"/>
			<stop  offset="1" style="stop-color:#071AD3"/>
		</linearGradient>
		<path class="st9" d="M1032.6,290.3c12.5-3.5,21.3-13.6,18.4-25.5c-3.7-15.3-24.1-26.1-41.7-23.9c-37.8,4.8-23.7,50,12.7,50.7
			C1025.7,291.7,1029.3,291.2,1032.6,290.3z"/>
		
			<linearGradient id="SVGID_10_" gradientUnits="userSpaceOnUse" x1="764.6943" y1="477.2122" x2="811.2537" y2="477.2122" gradientTransform="matrix(0.596 -0.803 0.803 0.596 -49.6409 1148.9268)">
			<stop  offset="0" style="stop-color:#57ACFF"/>
			<stop  offset="1" style="stop-color:#071AD3"/>
		</linearGradient>
		<path class="st10" d="M805.6,825.3c11.4,0.8,22.2-5.2,24.2-16.3c2.5-14.3-10.3-29.7-25.3-33.1c-32.5-7.4-37.2,35.7-7.8,47.4
			C799.5,824.5,802.6,825.1,805.6,825.3z"/>
		
			<linearGradient id="SVGID_11_" gradientUnits="userSpaceOnUse" x1="1483.2994" y1="489.1428" x2="1522.7063" y2="489.1428" gradientTransform="matrix(0.596 -0.803 0.803 0.596 -49.6409 1148.9268)">
			<stop  offset="0" style="stop-color:#57ACFF"/>
			<stop  offset="1" style="stop-color:#071AD3"/>
		</linearGradient>
		<path class="st11" d="M1239.5,253.4c8.8,0,17.5-5.4,19.6-14.4c2.7-11.6-6.3-23.4-17.8-25.4c-24.8-4.2-30.7,30.8-8.6,38.6
			C1234.8,253,1237.1,253.4,1239.5,253.4z"/>
		
			<linearGradient id="SVGID_12_" gradientUnits="userSpaceOnUse" x1="828.0055" y1="504.082" x2="845.7388" y2="504.082" gradientTransform="matrix(0.596 -0.803 0.803 0.596 -49.6409 1148.9268)">
			<stop  offset="0" style="stop-color:#57ACFF"/>
			<stop  offset="1" style="stop-color:#071AD3"/>
		</linearGradient>
		<path class="st12" d="M854.1,785.8c3.7,0,7.4-2.3,8.3-6.1c1.1-4.9-2.7-9.9-7.6-10.8c-10.5-1.8-13,13.1-3.7,16.4
			C852.2,785.6,853.2,785.8,854.1,785.8z"/>
		
			<linearGradient id="SVGID_13_" gradientUnits="userSpaceOnUse" x1="784.2137" y1="373.6753" x2="827.7422" y2="373.566" gradientTransform="matrix(0.596 -0.803 0.803 0.596 -49.6409 1148.9268)">
			<stop  offset="0" style="stop-color:#57ACFF"/>
			<stop  offset="1" style="stop-color:#071AD3"/>
		</linearGradient>
		<path class="st13" d="M731.4,745.8c9.5,0,18.8-5.8,21.1-15.6c2.9-12.6-6.9-25.3-19.3-27.3c-26.7-4.4-33.1,33.3-9.2,41.7
			C726.4,745.4,728.9,745.8,731.4,745.8z"/>
		
			<linearGradient id="SVGID_14_" gradientUnits="userSpaceOnUse" x1="1403.1298" y1="778.9774" x2="1444.2954" y2="778.9774" gradientTransform="matrix(0.596 -0.803 0.803 0.596 -49.6409 1148.9268)">
			<stop  offset="0" style="stop-color:#57ACFF"/>
			<stop  offset="1" style="stop-color:#071AD3"/>
		</linearGradient>
		<path class="st14" d="M1425,490.2c9,0,17.8-5.5,19.9-14.7c2.7-11.8-6.5-23.9-18.2-25.8c-25.2-4.3-31.3,31.4-8.8,39.4
			C1420.2,489.8,1422.6,490.2,1425,490.2z"/>
		
			<linearGradient id="SVGID_15_" gradientUnits="userSpaceOnUse" x1="1378.3164" y1="263.2778" x2="1396.0498" y2="263.2778" gradientTransform="matrix(0.596 -0.803 0.803 0.596 -49.6409 1148.9268)">
			<stop  offset="0" style="stop-color:#57ACFF"/>
			<stop  offset="1" style="stop-color:#071AD3"/>
		</linearGradient>
		<path class="st15" d="M988.8,200.4c3.7,0,7.4-2.3,8.3-6.1c1.1-4.9-2.7-9.9-7.6-10.8c-10.5-1.8-13,13.1-3.7,16.4
			C986.8,200.2,987.8,200.4,988.8,200.4z"/>
		
			<linearGradient id="SVGID_16_" gradientUnits="userSpaceOnUse" x1="1049.334" y1="891.9272" x2="1067.0674" y2="891.9272" gradientTransform="matrix(0.596 -0.803 0.803 0.596 -49.6409 1148.9268)">
			<stop  offset="0" style="stop-color:#57ACFF"/>
			<stop  offset="1" style="stop-color:#071AD3"/>
		</linearGradient>
		<path class="st16" d="M1297.5,839.2c3.7,0,7.4-2.3,8.3-6.1c1.1-4.9-2.7-9.9-7.6-10.8c-10.5-1.8-13,13.1-3.7,16.4
			C1295.5,839,1296.5,839.2,1297.5,839.2z"/>
		
			<linearGradient id="SVGID_17_" gradientUnits="userSpaceOnUse" x1="1576.1377" y1="432.2589" x2="1593.8707" y2="432.2589" gradientTransform="matrix(0.596 -0.803 0.803 0.596 -49.6409 1148.9268)">
			<stop  offset="0" style="stop-color:#57ACFF"/>
			<stop  offset="1" style="stop-color:#071AD3"/>
		</linearGradient>
		<path class="st17" d="M1242.4,142.2c3.7,0,7.4-2.3,8.3-6.1c1.1-4.9-2.7-9.9-7.6-10.8c-10.5-1.8-13,13.1-3.7,16.4
			C1240.4,142.1,1241.4,142.2,1242.4,142.2z"/>
		
			<linearGradient id="SVGID_18_" gradientUnits="userSpaceOnUse" x1="1220.2686" y1="195.6448" x2="1242.8571" y2="195.6448" gradientTransform="matrix(0.596 -0.803 0.803 0.596 -49.6409 1148.9268)">
			<stop  offset="0" style="stop-color:#57ACFF"/>
			<stop  offset="1" style="stop-color:#071AD3"/>
		</linearGradient>
		<path class="st18" d="M842.3,288.3c5.3,0.2,10.5-2.7,11.5-8c1.3-6.8-4.4-14-11.4-15.4c-15.1-3.1-17.9,17.5-4.3,22.6
			C839.5,288,840.9,288.3,842.3,288.3z"/>
	</g>
</g>
</svg>
