<?xml version="1.0" encoding="utf-8"?>
<!-- Generator: Adobe Illustrator 24.1.3, SVG Export Plug-In . SVG Version: 6.00 Build 0)  -->
<svg version="1.1" id="Objects" xmlns="http://www.w3.org/2000/svg" xmlns:xlink="http://www.w3.org/1999/xlink" x="0px" y="0px"
	 viewBox="0 0 1280 760" style="enable-background:new 0 0 1280 760;" xml:space="preserve">
<style type="text/css">
	.st0{clip-path:url(#SVGID_2_);}
	.st1{opacity:0.5;fill:#5AE0FF;enable-background:new    ;}
	.st2{opacity:0.25;fill:#0D7CCE;enable-background:new    ;}
	.st3{fill:#57ACFF;}
</style>
<g>
	<defs>
		<rect id="SVGID_1_" x="354.7" width="925.3" height="760"/>
	</defs>
	<clipPath id="SVGID_2_">
		<use xlink:href="#SVGID_1_"  style="overflow:visible;"/>
	</clipPath>
	<g class="st0">
		<path class="st1" d="M757.6-39.4l-11.2,2.1c-12.7,12.6-24.5,26.3-31.8,43.4c-19,44-7.5,93.2,16.5,135
			c12.6,21.9,28.8,41.4,43.7,61.6c20.6,27.9,47.3,57,57.8,91c8.3,26.8,5.5,54.4-5.5,78.1c-12.6,27.3-33.4,55.1-34.2,87.6
			c-0.8,31.7,18.7,59.9,37.7,85.8c19,25.7,40.7,50.9,50.6,81.5c14.4,43.9,3.2,87.9,1.4,131.7c-1,23.7,5.7,44.9,20.3,64.1
			c11.5,15.4,27.4,32.2,45.4,38.6l15.3-2.9L757.6-39.4z"/>
		<path class="st2" d="M757.7-38.9l-53.3,10.4C687,12.3,685,56.2,699.2,96c18.2,51.4,61.9,94.4,78.8,146.1
			c17.7,54.1,5.9,114.1-3.1,171.1c-8.8,55.8-4.9,109,20.9,159.4c13.2,25.7,32.6,48.2,51.8,71.4c51.4,62.4,118,145.9,55.9,225.9
			l60.6-11.7L757.7-38.9z"/>
		<path class="st3" d="M757.7-38.9l-3.7,0.7c-8.9,118.6,11.4,242.9,57.8,360.2c12.3,31.1,27.4,60.5,39,92
			c15.7,42.9,11.4,85.6,5.5,128.1c-6.6,47.3-8.2,92.8,6.3,140.9c19.4,63.8,59.2,123.2,97.6,175.2l3.4-0.6L757.7-38.9z"/>
		<polygon class="st3" points="956.3,860.1 1738.7,817.3 1143.8,-283.4 746.7,-35.6 		"/>
	</g>
</g>
</svg>
