<svg id="Слой_1" data-name="Слой 1" xmlns="http://www.w3.org/2000/svg" xmlns:xlink="http://www.w3.org/1999/xlink" viewBox="0 0 263 458"><defs><linearGradient id="Безымянный_градиент" x1="-38" y1="498.56" x2="330.03" y2="61.63" gradientTransform="matrix(1, 0, 0, -1, 0, 460)" gradientUnits="userSpaceOnUse"><stop offset="0" stop-color="#3b69a5"/><stop offset="1" stop-color="#80e3fd"/></linearGradient><linearGradient id="Безымянный_градиент_9" x1="-40.77" y1="496.23" x2="327.26" y2="59.3" gradientTransform="matrix(1, 0, 0, -1, 0, 460)" gradientUnits="userSpaceOnUse"><stop offset="0" stop-color="#63aed3"/><stop offset="1" stop-color="#ed41ff"/></linearGradient><linearGradient id="Безымянный_градиент_3" x1="-49.24" y1="489.1" x2="318.79" y2="52.16" gradientTransform="matrix(1, 0, 0, -1, 0, 460)" gradientUnits="userSpaceOnUse"><stop offset="0" stop-color="#57acff"/><stop offset="1" stop-color="#80e3fd"/></linearGradient><linearGradient id="Безымянный_градиент_8" x1="336.56" y1="67.16" x2="-31.47" y2="504.09" gradientTransform="matrix(1, 0, 0, -1, 0, 460)" gradientUnits="userSpaceOnUse"><stop offset="0" stop-color="#63aed3"/><stop offset="1" stop-color="#ed41ff"/></linearGradient><linearGradient id="Безымянный_градиент_5" x1="-16.96" y1="516.29" x2="351.08" y2="79.35" xlink:href="#Безымянный_градиент_3"/></defs><path d="M262.6,333.05A467.57,467.57,0,0,1,217.5,284c-8.7-28.34-17.9-61.8-27.5-101.4C170.5,102.13,144.6,43,119.5.28H8.1A487.82,487.82,0,0,1,79.5,73c8.6,28.11,17.7,61.23,27.1,100.26C149.3,349.44,222.9,423.53,251.2,446.4c2.8,3.64,5.6,7.28,8.6,10.93l2.7-2.28v-122Z" style="fill:url(#Безымянный_градиент)"/><path d="M262.6,333.05C144.6,221.29,133.7,104.07,93.7.28H67.2c14.3,37.55,31,90.59,49,165,43.6,179.93,119.5,253.33,146.4,274.61Z" style="fill:url(#Безымянный_градиент_9)"/><path d="M262.6,349.89C132.5,232.56,124.8,108.62,81,.28H54.6c14.9,37.89,32.8,93.09,52.1,173C158.6,387.68,256.5,451,262.6,454.71Z" style="fill:url(#Безымянный_градиент_3)"/><path d="M262.6,401.33c-17.4-33.46-43.3-97.76-72.6-218.85C170.5,102.13,144.6,43,119.5.28H27.7C200.5,151.07,165.9,313.47,262.7,440v-38.7Z" style="opacity:0.18000000715255737;isolation:isolate;fill:url(#Безымянный_градиент_8)"/><path d="M262.6,277.06c-28.9-41.32-64.5-88.66-103.7-133C114.9,94.17,84.1,42.61,63.4.28H45.8C30.6.39,15.3.28,0,.28c83.1,113.58,110.3,84.9,262.6,303.41Z" style="opacity:0.47999998927116394;isolation:isolate;fill:url(#Безымянный_градиент_5)"/></svg>