<svg id="Слой_1" data-name="Слой 1" xmlns="http://www.w3.org/2000/svg" xmlns:xlink="http://www.w3.org/1999/xlink" viewBox="0 0 283 345"><defs><linearGradient id="Безымянный_градиент_9" x1="-62.45" y1="350.27" x2="265.22" y2="-26.11" gradientTransform="matrix(1, 0, 0, -1, 0, 346)" gradientUnits="userSpaceOnUse"><stop offset="0" stop-color="#ed41ff"/><stop offset="0.15" stop-color="#dd4cff"/><stop offset="0.45" stop-color="#b36aff"/><stop offset="0.86" stop-color="#709aff"/><stop offset="1" stop-color="#57acff"/></linearGradient><linearGradient id="Безымянный_градиент_2" x1="258.53" y1="-31.7" x2="-69.14" y2="344.68" gradientTransform="matrix(1, 0, 0, -1, 0, 346)" gradientUnits="userSpaceOnUse"><stop offset="0" stop-color="#57acff"/><stop offset="1" stop-color="#80e3fd"/></linearGradient><linearGradient id="Безымянный_градиент_3" x1="244.59" y1="-43.83" x2="-83.07" y2="332.54" gradientTransform="matrix(1, 0, 0, -1, 0, 346)" gradientUnits="userSpaceOnUse"><stop offset="0" stop-color="#3b69a5"/><stop offset="1" stop-color="#80e3fd"/></linearGradient></defs><path d="M180.8,344.77C142.8,215.37,66.7,175.31,0,129.68V73.23C18.6,98.61,49,125.81,97.4,152c125.5,67.83,161.3,154,171.3,192.79Z" style="fill:url(#Безымянный_градиент_9)"/><path d="M210.4,344.77C198.2,310,166.6,267.38,92,227.09c-38.5-20.94-68.5-43.47-92-65.78V.16c51.2,236,213.7,214,282.8,344.61Z" style="fill:url(#Безымянный_градиент_2)"/><path d="M180.8,344.77C142.7,215.37,66.7,175.31,0,129.68v-6c68.2,47.23,147.2,86.61,185.7,221.13Z" style="fill:url(#Безымянный_градиент_3)"/></svg>