<svg version="1.1" xmlns="http://www.w3.org/2000/svg" xmlns:xlink="http://www.w3.org/1999/xlink" viewBox="0 0 172 172"><defs><linearGradient x1="29.5625" y1="134.375" x2="29.5625" y2="150.15331" gradientUnits="userSpaceOnUse" id="color-1"><stop offset="0" stop-color="#70dfff"></stop><stop offset="1" stop-color="#70afff"></stop></linearGradient><linearGradient x1="67.1875" y1="110.63631" x2="67.1875" y2="149.02725" gradientUnits="userSpaceOnUse" id="color-2"><stop offset="0" stop-color="#70dfff"></stop><stop offset="1" stop-color="#70afff"></stop></linearGradient><linearGradient x1="104.8125" y1="129.89494" x2="104.8125" y2="148.71281" gradientUnits="userSpaceOnUse" id="color-3"><stop offset="0" stop-color="#70dfff"></stop><stop offset="1" stop-color="#70afff"></stop></linearGradient><linearGradient x1="142.4375" y1="86.44881" x2="142.4375" y2="149.6615" gradientUnits="userSpaceOnUse" id="color-4"><stop offset="0" stop-color="#70dfff"></stop><stop offset="1" stop-color="#70afff"></stop></linearGradient><linearGradient x1="67.1875" y1="42.55119" x2="67.1875" y2="53.75" gradientUnits="userSpaceOnUse" id="color-5"><stop offset="0" stop-color="#00c6ff"></stop><stop offset="1" stop-color="#0072ff"></stop></linearGradient><linearGradient x1="142.4375" y1="28.66756" x2="142.4375" y2="37.18963" gradientUnits="userSpaceOnUse" id="color-6"><stop offset="0" stop-color="#00c6ff"></stop><stop offset="1" stop-color="#0072ff"></stop></linearGradient><linearGradient x1="29.5625" y1="17.91756" x2="29.5625" y2="154.08513" gradientUnits="userSpaceOnUse" id="color-7"><stop offset="0" stop-color="#00c6ff"></stop><stop offset="1" stop-color="#0072ff"></stop></linearGradient><linearGradient x1="67.1875" y1="17.91756" x2="67.1875" y2="154.08513" gradientUnits="userSpaceOnUse" id="color-8"><stop offset="0" stop-color="#00c6ff"></stop><stop offset="1" stop-color="#0072ff"></stop></linearGradient><linearGradient x1="104.8125" y1="17.91756" x2="104.8125" y2="154.08513" gradientUnits="userSpaceOnUse" id="color-9"><stop offset="0" stop-color="#00c6ff"></stop><stop offset="1" stop-color="#0072ff"></stop></linearGradient><linearGradient x1="142.4375" y1="17.91756" x2="142.4375" y2="154.08513" gradientUnits="userSpaceOnUse" id="color-10"><stop offset="0" stop-color="#00c6ff"></stop><stop offset="1" stop-color="#0072ff"></stop></linearGradient><linearGradient x1="86" y1="17.91756" x2="86" y2="154.08513" gradientUnits="userSpaceOnUse" id="color-11"><stop offset="0" stop-color="#00c6ff"></stop><stop offset="1" stop-color="#0072ff"></stop></linearGradient></defs><g fill="none" fill-rule="nonzero" stroke="none" stroke-width="1" stroke-linecap="butt" stroke-linejoin="miter" stroke-miterlimit="10" stroke-dasharray="" stroke-dashoffset="0" font-family="none" font-weight="none" font-size="none" text-anchor="none" style="mix-blend-mode: normal"><path d="M0,172v-172h172v172z" fill="none"></path><g><path d="M26.875,137.0625h5.375v10.75h-5.375z" fill="url(#color-1)"></path><path d="M64.5,110.1875h5.375v37.625h-5.375z" fill="url(#color-2)"></path><path d="M102.125,131.6875h5.375v16.125h-5.375z" fill="url(#color-3)"></path><path d="M139.75,88.6875h5.375v59.125h-5.375z" fill="url(#color-4)"></path><path d="M67.1875,44.34375c-2.2264,0 -4.03125,1.80485 -4.03125,4.03125c0,2.2264 1.80485,4.03125 4.03125,4.03125c2.2264,0 4.03125,-1.80485 4.03125,-4.03125c0,-2.2264 -1.80485,-4.03125 -4.03125,-4.03125z" fill="url(#color-5)"></path><path d="M142.4375,28.21875c-2.2264,0 -4.03125,1.80485 -4.03125,4.03125c0,2.2264 1.80485,4.03125 4.03125,4.03125c2.2264,0 4.03125,-1.80485 4.03125,-4.03125c0,-2.2264 -1.80485,-4.03125 -4.03125,-4.03125z" fill="url(#color-6)"></path><path d="M37.625,115.5625h-16.125c-2.96431,0 -5.375,2.41069 -5.375,5.375v32.25h26.875v-32.25c0,-2.96431 -2.41069,-5.375 -5.375,-5.375zM37.625,120.9375v5.375h-16.125v-5.375zM21.5,147.8125v-16.125h16.125v16.125z" fill="url(#color-7)"></path><path d="M75.25,88.6875h-16.125c-2.96431,0 -5.375,2.41069 -5.375,5.375v59.125h26.875v-59.125c0,-2.96431 -2.41069,-5.375 -5.375,-5.375zM75.25,94.0625v5.375h-16.125v-5.375zM59.125,147.8125v-43h16.125v43z" fill="url(#color-8)"></path><path d="M112.875,110.1875h-16.125c-2.96431,0 -5.375,2.41069 -5.375,5.375v37.625h26.875v-37.625c0,-2.96431 -2.41069,-5.375 -5.375,-5.375zM112.875,115.5625v5.375h-16.125v-5.375zM96.75,147.8125v-21.5h16.125v21.5z" fill="url(#color-9)"></path><path d="M150.5,67.1875h-16.125c-2.96431,0 -5.375,2.41069 -5.375,5.375v80.625h26.875v-80.625c0,-2.96431 -2.41069,-5.375 -5.375,-5.375zM150.5,72.5625v5.375h-16.125v-5.375zM134.375,147.8125v-64.5h16.125v64.5z" fill="url(#color-10)"></path><path d="M137.1915,44.61788c1.6125,0.688 3.38625,1.06963 5.246,1.06963c7.40944,0 13.4375,-6.02806 13.4375,-13.4375c0,-7.40944 -6.02806,-13.4375 -13.4375,-13.4375c-7.40944,0 -13.4375,6.02806 -13.4375,13.4375c0,3.612 1.44856,6.88 3.77594,9.29875l-20.80931,27.74575c-2.07475,-1.31687 -4.51769,-2.107 -7.15412,-2.107c-3.21156,0 -6.12212,1.17713 -8.43606,3.06375l-17.90144,-14.64419c1.34644,-2.09356 2.15,-4.56606 2.15,-7.23206c0,-7.40944 -6.02806,-13.4375 -13.4375,-13.4375c-7.40944,0 -13.4375,6.02806 -13.4375,13.4375c0,2.28169 0.62619,4.39944 1.634,6.28606l-17.68375,15.34562c-2.26556,-1.7415 -5.06594,-2.81919 -8.13775,-2.81919c-7.40944,0 -13.4375,6.02806 -13.4375,13.4375c0,7.40944 6.02806,13.4375 13.4375,13.4375c7.40944,0 13.4375,-6.02806 13.4375,-13.4375c0,-2.39187 -0.67994,-4.60906 -1.78181,-6.5575l17.59506,-15.27037c2.30588,1.85706 5.19225,3.01537 8.37425,3.01537c2.795,0 5.39113,-0.86 7.54381,-2.32737l18.24006,14.92369c-0.98631,1.86781 -1.59638,3.96138 -1.59638,6.21619c0,7.40944 6.02806,13.4375 13.4375,13.4375c7.40944,0 13.4375,-6.02806 13.4375,-13.4375c0,-2.81919 -0.87881,-5.42875 -2.36769,-7.59219zM142.4375,24.1875c4.44512,0 8.0625,3.61737 8.0625,8.0625c0,4.44512 -3.61738,8.0625 -8.0625,8.0625c-4.44512,0 -8.0625,-3.61738 -8.0625,-8.0625c0,-4.44513 3.61737,-8.0625 8.0625,-8.0625zM29.5625,88.6875c-4.44513,0 -8.0625,-3.61737 -8.0625,-8.0625c0,-4.44513 3.61737,-8.0625 8.0625,-8.0625c4.44512,0 8.0625,3.61737 8.0625,8.0625c0,4.44513 -3.61738,8.0625 -8.0625,8.0625zM67.1875,56.4375c-4.44512,0 -8.0625,-3.61738 -8.0625,-8.0625c0,-4.44512 3.61738,-8.0625 8.0625,-8.0625c4.44513,0 8.0625,3.61738 8.0625,8.0625c0,4.44512 -3.61737,8.0625 -8.0625,8.0625zM104.8125,88.6875c-4.44512,0 -8.0625,-3.61737 -8.0625,-8.0625c0,-4.44513 3.61738,-8.0625 8.0625,-8.0625c4.44512,0 8.0625,3.61737 8.0625,8.0625c0,4.44513 -3.61737,8.0625 -8.0625,8.0625z" fill="url(#color-11)"></path></g></g></svg>