<?xml version="1.0" encoding="utf-8"?>
<!-- Generator: Adobe Illustrator 24.1.3, SVG Export Plug-In . SVG Version: 6.00 Build 0)  -->
<svg version="1.1" id="Слой_1" xmlns="http://www.w3.org/2000/svg" xmlns:xlink="http://www.w3.org/1999/xlink" x="0px" y="0px"
	 viewBox="0 0 100 100" style="enable-background:new 0 0 100 100;" xml:space="preserve">
<style type="text/css">
	.st0{fill:none;stroke:#57ACFF;stroke-width:4;stroke-miterlimit:10;}
	.st1{fill:#57ACFF;}
</style>
<circle class="st0" cx="50.1" cy="50" r="46.4"/>
<g>
	<path class="st1" d="M33.6,65.4l15.3-13.2c1.4-1.2,2.6-2.3,3.6-3.3s1.8-1.8,2.4-2.6c0.6-0.8,1.1-1.6,1.3-2.3s0.4-1.6,0.4-2.4
		c0-1.8-0.5-3.2-1.5-4.3c-1-1.1-2.5-1.7-4.4-1.7c-2.2,0-4,0.6-5.3,1.8c-1.3,1.2-1.9,3.3-1.9,6.3h-9.4c0-5,1.4-8.9,4.2-11.7
		c2.8-2.9,6.9-4.3,12.3-4.3c2.5,0,4.8,0.3,6.6,1c1.9,0.7,3.5,1.6,4.8,2.9c1.3,1.2,2.3,2.7,2.9,4.4c0.6,1.7,1,3.6,1,5.6
		c0,1.5-0.3,2.9-0.8,4.3c-0.5,1.4-1.3,2.7-2.2,3.9c-0.9,1.2-2,2.5-3.3,3.7c-1.2,1.2-2.6,2.4-4,3.5l-9,7.5h19.9v7.7H33.6V65.4z"/>
</g>
</svg>
