<?xml version="1.0" encoding="utf-8"?>
<!-- Generator: Adobe Illustrator 24.1.3, SVG Export Plug-In . SVG Version: 6.00 Build 0)  -->
<svg version="1.1" id="Слой_1" xmlns="http://www.w3.org/2000/svg" xmlns:xlink="http://www.w3.org/1999/xlink" x="0px" y="0px"
	 viewBox="0 0 100 100" style="enable-background:new 0 0 100 100;" xml:space="preserve">
<style type="text/css">
	.st0{fill:none;stroke:#57ACFF;stroke-width:4;stroke-miterlimit:10;}
	.st1{fill:#57ACFF;}
</style>
<circle class="st0" cx="50.1" cy="50" r="46.4"/>
<g>
	<path class="st1" d="M49.6,71.2c-5.3,0-9.4-1.3-12.1-3.8c-2.7-2.5-4.1-6-4.1-10.4h9.4c0,2.1,0.6,3.7,1.7,4.7c1.1,1,2.8,1.6,5.2,1.6
		c2.3,0,4-0.5,5.2-1.5c1.1-1,1.7-2.5,1.7-4.3c0-3.9-2.3-5.9-6.9-5.9h-4.1v-7.2h4.1c2,0,3.5-0.4,4.6-1.2c1.1-0.8,1.6-2.1,1.6-3.9
		c0-1.6-0.5-2.9-1.6-3.9c-1-1-2.6-1.5-4.7-1.5c-2.1,0-3.7,0.5-4.7,1.5c-1,1-1.5,2.4-1.5,4.2H34c0-4.3,1.3-7.6,3.9-10
		c2.6-2.4,6.5-3.6,11.7-3.6c2.6,0,4.9,0.3,6.9,0.9c2,0.6,3.6,1.4,4.9,2.5c1.3,1.1,2.3,2.3,2.9,3.8c0.6,1.5,1,3,1,4.7
		c0,2.4-0.7,4.5-2,6.1c-1.4,1.7-3.2,2.9-5.4,3.6c2.6,0.7,4.6,1.9,6,3.7c1.4,1.7,2.1,4.1,2.1,6.9c0,1.9-0.4,3.6-1.1,5.2
		c-0.7,1.6-1.8,2.9-3.2,4.1c-1.4,1.1-3.1,2-5.1,2.7C54.4,70.8,52.1,71.2,49.6,71.2z"/>
</g>
</svg>
