<?xml version="1.0" encoding="utf-8"?>
<!-- Generator: Adobe Illustrator 24.1.3, SVG Export Plug-In . SVG Version: 6.00 Build 0)  -->
<svg version="1.1" id="Слой_1" xmlns="http://www.w3.org/2000/svg" xmlns:xlink="http://www.w3.org/1999/xlink" x="0px" y="0px"
	 viewBox="0 0 100 100" style="enable-background:new 0 0 100 100;" xml:space="preserve">
<style type="text/css">
	.st0{fill:none;stroke:#57ACFF;stroke-width:4;stroke-miterlimit:10;}
	.st1{fill:#57ACFF;}
</style>
<circle class="st0" cx="50.1" cy="50" r="46.4"/>
<g>
	<path class="st1" d="M50.2,72.7c-2.8,0-5.2-0.4-7.1-1.1c-1.9-0.7-3.5-1.7-4.8-2.8c-1.2-1.2-2.2-2.6-2.8-4.1c-0.6-1.6-0.9-3.2-1-4.9
		h9.4c0.1,1.5,0.7,2.7,1.7,3.7c1,0.9,2.5,1.4,4.5,1.4c4.6,0,6.9-2.6,6.9-7.7c0-1.4-0.2-2.5-0.6-3.5c-0.4-1-0.9-1.7-1.5-2.3
		c-0.6-0.6-1.4-1-2.2-1.3c-0.8-0.3-1.7-0.4-2.6-0.4c-1.5,0-2.7,0.3-3.6,0.8c-1,0.5-1.7,1.3-2.3,2.2h-8.7V28.3H64V36H44.9v8
		c0.9-0.8,1.9-1.4,3.2-1.7c1.3-0.4,2.7-0.5,4.3-0.5c2.1,0,4,0.3,5.8,1c1.7,0.6,3.2,1.6,4.4,2.9c1.2,1.3,2.2,2.9,2.8,4.8
		c0.7,1.9,1,4.1,1,6.6c0,2.4-0.4,4.5-1.2,6.5c-0.8,1.9-1.9,3.6-3.3,5c-1.4,1.4-3.1,2.4-5.1,3.2C54.9,72.4,52.6,72.7,50.2,72.7z"/>
</g>
</svg>
