<?xml version="1.0" encoding="utf-8"?>
<!-- Generator: Adobe Illustrator 24.1.3, SVG Export Plug-In . SVG Version: 6.00 Build 0)  -->
<svg version="1.1" id="Слой_1" xmlns="http://www.w3.org/2000/svg" xmlns:xlink="http://www.w3.org/1999/xlink" x="0px" y="0px"
	 viewBox="0 0 187.9 287.9" style="enable-background:new 0 0 187.9 287.9;" xml:space="preserve">
<style type="text/css">
	.st0{fill:#FFFFFF;}
	.st1{fill:#182F52;}
	.st2{fill:#57ACFF;}
</style>
<rect x="-0.1" y="-0.1" class="st0" width="188" height="288"/>
<g>
	<g>
		<path class="st1" d="M175.1,59.2H12.7C6.9,59.2,2.1,64,2.1,69.8v113c0,5.8,4.8,10.6,10.6,10.6h60V204c0,1.9-1.6,3.5-3.5,3.5h-7.1
			h-3.5c-5.8,0-10.6,4.8-10.6,10.6v10.6h91.8v-10.6c0-5.8-4.8-10.6-10.6-10.6h-3.5h-7.1c-1.9,0-3.5-1.6-3.5-3.5v-10.6h60
			c5.8,0,10.6-4.8,10.6-10.6v-113C185.7,63.9,181,59.2,175.1,59.2z M12.7,66.2h162.4c1.9,0,3.5,1.6,3.5,3.5V151H9.2V69.8
			C9.2,67.8,10.8,66.2,12.7,66.2z M125.7,214.6h3.5c1.9,0,3.5,1.6,3.5,3.5v3.5H55.1v-3.5c0-1.9,1.6-3.5,3.5-3.5h3.5h7.1h49.4H125.7z
			 M108.7,207.5H79.1c0.4-1.1,0.7-2.3,0.7-3.5v-10.6h28.3V204C108.1,205.2,108.3,206.4,108.7,207.5z M175.1,186.3h-60H72.7h-60
			c-1.9,0-3.5-1.6-3.5-3.5v-24.7h169.5v24.7C178.7,184.7,177.1,186.3,175.1,186.3z"/>
		<path class="st2" d="M93.9,165.1c-3.9,0-7.1,3.2-7.1,7.1s3.2,7.1,7.1,7.1s7.1-3.2,7.1-7.1S97.8,165.1,93.9,165.1z"/>
		<path class="st2" d="M171.6,97.3V76.8c0-1.9-1.6-3.5-3.5-3.5h-20.5c-1.6,0-2.4,1.9-1.3,3l22.2,22.2
			C169.7,99.6,171.6,98.9,171.6,97.3L171.6,97.3z"/>
	</g>
</g>
</svg>
