<svg version="1.1" xmlns="http://www.w3.org/2000/svg" xmlns:xlink="http://www.w3.org/1999/xlink" viewBox="0 0 226 226"><defs><linearGradient x1="113" y1="26.48438" x2="113" y2="201.87097" gradientUnits="userSpaceOnUse" id="color-1"><stop offset="0" stop-color="#00c6ff"></stop><stop offset="1" stop-color="#0072ff"></stop></linearGradient><linearGradient x1="113" y1="26.48438" x2="113" y2="201.87097" gradientUnits="userSpaceOnUse" id="color-2"><stop offset="0" stop-color="#00c6ff"></stop><stop offset="1" stop-color="#0072ff"></stop></linearGradient><linearGradient x1="177.80903" y1="40.01966" x2="177.80903" y2="69.44909" gradientUnits="userSpaceOnUse" id="color-3"><stop offset="0" stop-color="#70dfff"></stop><stop offset="1" stop-color="#70afff"></stop></linearGradient></defs><g fill="none" fill-rule="nonzero" stroke="none" stroke-width="1" stroke-linecap="butt" stroke-linejoin="miter" stroke-miterlimit="10" stroke-dasharray="" stroke-dashoffset="0" font-family="none" font-weight="none" font-size="none" text-anchor="none" style="mix-blend-mode: normal"><path d="M0,226v-226h226v226z" fill="none"></path><g><path d="M194.21875,28.25h-162.4375c-5.84069,0 -10.59375,4.75306 -10.59375,10.59375v113c0,5.84069 4.75306,10.59375 10.59375,10.59375h60.03125v10.59375c0,1.94925 -1.58553,3.53125 -3.53125,3.53125h-7.0625h-3.53125c-5.84069,0 -10.59375,4.75306 -10.59375,10.59375v10.59375h91.8125v-10.59375c0,-5.84069 -4.75306,-10.59375 -10.59375,-10.59375h-3.53125h-7.0625c-1.94572,0 -3.53125,-1.582 -3.53125,-3.53125v-10.59375h60.03125c5.84069,0 10.59375,-4.75306 10.59375,-10.59375v-113c0,-5.84069 -4.75306,-10.59375 -10.59375,-10.59375zM31.78125,35.3125h162.4375c1.94572,0 3.53125,1.582 3.53125,3.53125v81.21875h-169.5v-81.21875c0,-1.94925 1.58553,-3.53125 3.53125,-3.53125zM144.78125,183.625h3.53125c1.94572,0 3.53125,1.582 3.53125,3.53125v3.53125h-77.6875v-3.53125c0,-1.94925 1.58553,-3.53125 3.53125,-3.53125h3.53125h7.0625h49.4375zM127.77475,176.5625h-29.55303c0.39903,-1.10881 0.65328,-2.28825 0.65328,-3.53125v-10.59375h28.25v10.59375c0,1.243 0.25425,2.42244 0.64975,3.53125zM194.21875,155.375h-60.03125h-42.375h-60.03125c-1.94572,0 -3.53125,-1.582 -3.53125,-3.53125v-24.71875h169.5v24.71875c0,1.94925 -1.58553,3.53125 -3.53125,3.53125z" fill="url(#color-1)"></path><path d="M113,134.1875c-3.90051,0 -7.0625,3.16199 -7.0625,7.0625c0,3.90051 3.16199,7.0625 7.0625,7.0625c3.90051,0 7.0625,-3.16199 7.0625,-7.0625c0,-3.90051 -3.16199,-7.0625 -7.0625,-7.0625z" fill="url(#color-2)"></path><path d="M190.6875,66.36278v-20.45653c0,-1.94925 -1.582,-3.53125 -3.53125,-3.53125h-20.45653c-1.57494,0 -2.36241,1.90334 -1.25006,3.01569l22.22216,22.22216c1.11234,1.10881 3.01569,0.32134 3.01569,-1.25006z" fill="url(#color-3)"></path></g></g></svg>