<?xml version="1.0" encoding="utf-8"?>
<!-- Generator: Adobe Illustrator 24.1.3, SVG Export Plug-In . SVG Version: 6.00 Build 0)  -->
<svg version="1.1" id="Слой_1" xmlns="http://www.w3.org/2000/svg" xmlns:xlink="http://www.w3.org/1999/xlink" x="0px" y="0px"
	 viewBox="0 0 141.7 141.7" style="enable-background:new 0 0 141.7 141.7;" xml:space="preserve">
<style type="text/css">
	.st0{fill:#57ACFF;}
	.st1{fill:#182F52;}
</style>
<g>
	<path class="st0" d="M10.9,121.1h5.4v10.8h-5.4V121.1z"/>
	<path class="st0" d="M48.5,94.2h5.4v37.6h-5.4V94.2z"/>
	<path class="st0" d="M86.1,115.7h5.4v16.1h-5.4V115.7z"/>
	<path class="st0" d="M123.7,72.7h5.4v59.1h-5.4C123.7,131.8,123.7,72.7,123.7,72.7z"/>
	<path class="st0" d="M51.2,28.3c-2.2,0-4,1.8-4,4s1.8,4,4,4s4-1.8,4-4S53.4,28.3,51.2,28.3z"/>
	<path class="st0" d="M126.4,12.2c-2.2,0-4,1.8-4,4s1.8,4,4,4c2.2,0,4-1.8,4-4S128.7,12.2,126.4,12.2z"/>
	<path class="st1" d="M21.6,99.6H5.5c-3,0-5.4,2.4-5.4,5.4v32.3H27V105C27,102,24.6,99.6,21.6,99.6z M21.6,104.9v5.4H5.5v-5.4H21.6z
		 M5.5,131.8v-16.1h16.1v16.1H5.5z"/>
	<path class="st1" d="M59.2,72.7H43.1c-3,0-5.4,2.4-5.4,5.4v59.1h26.9V78.1C64.6,75.1,62.2,72.7,59.2,72.7z M59.2,78.1v5.3H43.1V78
		L59.2,78.1L59.2,78.1z M43.1,131.8v-43h16.1v43H43.1z"/>
	<path class="st1" d="M96.9,94.2H80.7c-3,0-5.4,2.4-5.4,5.4v37.6h26.9V99.6C102.2,96.6,99.8,94.2,96.9,94.2z M96.9,99.6v5.4H80.7
		v-5.4H96.9z M80.7,131.8v-21.5h16.1v21.5H80.7z"/>
	<path class="st1" d="M134.5,51.2h-16.1c-3,0-5.4,2.4-5.4,5.4v80.6h26.9V56.6C139.9,53.6,137.5,51.2,134.5,51.2z M134.5,56.6V62
		h-16.1v-5.4H134.5z M118.4,131.8V67.3h16.1v64.5H118.4z"/>
	<path class="st1" d="M121.2,28.6c1.6,0.7,3.4,1.1,5.2,1.1c7.4,0,13.4-6,13.4-13.4s-6-13.4-13.4-13.4S113,8.9,113,16.3
		c0,3.6,1.4,6.9,3.8,9.3L96,53.3c-2.1-1.3-4.5-2.1-7.2-2.1c-3.2,0-6.1,1.2-8.4,3.1L62.5,39.6c1.3-2.1,2.1-4.6,2.1-7.2
		c0-7.4-6-13.4-13.4-13.4s-13.4,6-13.4,13.4c0,2.3,0.6,4.4,1.6,6.3L21.7,54c-2.3-1.7-5.1-2.8-8.1-2.8c-7.4,0-13.4,6-13.4,13.4
		S6.2,78,13.6,78S27,72,27,64.6c0-2.4-0.7-4.6-1.8-6.6l17.6-15.3c2.3,1.9,5.2,3,8.4,3c2.8,0,5.4-0.9,7.5-2.3l18.3,15
		c-1,1.9-1.6,4-1.6,6.2c0,7.4,6,13.4,13.4,13.4s13.4-6,13.4-13.4c0-2.8-0.9-5.4-2.4-7.6L121.2,28.6z M126.4,8.2
		c4.4,0,8.1,3.6,8.1,8.1c0,4.4-3.6,8.1-8.1,8.1c-4.5,0-8.1-3.6-8.1-8.1C118.4,11.8,122,8.2,126.4,8.2z M13.6,72.7
		c-4.4,0-8.1-3.6-8.1-8.1s3.6-8.1,8.1-8.1c4.4,0,8.1,3.6,8.1,8.1S18,72.7,13.6,72.7z M51.2,40.4c-4.4,0-8.1-3.6-8.1-8.1
		s3.6-8.1,8.1-8.1c4.4,0,8.1,3.6,8.1,8.1S55.6,40.4,51.2,40.4z M88.8,72.7c-4.4,0-8.1-3.6-8.1-8.1s3.6-8.1,8.1-8.1s8.1,3.6,8.1,8.1
		S93.3,72.7,88.8,72.7z"/>
</g>
</svg>
