<?xml version="1.0" encoding="utf-8"?>
<!-- Generator: Adobe Illustrator 24.1.3, SVG Export Plug-In . SVG Version: 6.00 Build 0)  -->
<svg version="1.1" id="Слой_1" xmlns="http://www.w3.org/2000/svg" xmlns:xlink="http://www.w3.org/1999/xlink" x="0px" y="0px"
	 viewBox="0 0 1917 433" style="enable-background:new 0 0 1917 433;" xml:space="preserve">
<style type="text/css">
	.st0{opacity:0.5;}
	.st1{fill:url(#SVGID_1_);}
	.st2{fill:url(#SVGID_2_);}
	.st3{opacity:0.65;fill:url(#SVGID_3_);enable-background:new    ;}
	.st4{opacity:0.65;fill:url(#SVGID_4_);enable-background:new    ;}
</style>
<g class="st0">
	
		<linearGradient id="SVGID_1_" gradientUnits="userSpaceOnUse" x1="-3" y1="207.0217" x2="1917" y2="207.0217" gradientTransform="matrix(1 0 0 -1 0 434)">
		<stop  offset="0" style="stop-color:#00B1D6"/>
		<stop  offset="1" style="stop-color:#8533BB;stop-opacity:0.3"/>
	</linearGradient>
	<path class="st1" d="M1917,109.8C959.4,433.5,609,2.8-3,61.4V120c0,0,172.7-51,857.9,163.1C1540.2,497.2,1917,346.8,1917,346.8
		V109.8z"/>
	
		<linearGradient id="SVGID_2_" gradientUnits="userSpaceOnUse" x1="-3" y1="172.1755" x2="1917" y2="172.1755" gradientTransform="matrix(1 0 0 -1 0 434)">
		<stop  offset="0" style="stop-color:#00B1D6"/>
		<stop  offset="1" style="stop-color:#8533BB;stop-opacity:0.3"/>
	</linearGradient>
	<path class="st2" d="M1917,144.6C959.4,468.4,609,37.6-3,96.2v58.6c0,0,172.7-51,857.9,163.1C1540.2,532.1,1917,381.7,1917,381.7
		V144.6z"/>
	
		<linearGradient id="SVGID_3_" gradientUnits="userSpaceOnUse" x1="1917" y1="254.7087" x2="-3" y2="254.7087" gradientTransform="matrix(1 0 0 -1 0 434)">
		<stop  offset="0" style="stop-color:#00B1D6"/>
		<stop  offset="1" style="stop-color:#8533BB;stop-opacity:0.3"/>
	</linearGradient>
	<path class="st3" d="M-3,296.5c957.6-323.7,1308,107,1920,48.4v-58.6c0,0-172.7,51-857.9-163.1S-3,59.4-3,59.4V296.5z"/>
	
		<linearGradient id="SVGID_4_" gradientUnits="userSpaceOnUse" x1="1916.6299" y1="172.7979" x2="-3.3701" y2="172.7979" gradientTransform="matrix(0.9999 1.040775e-02 -6.108748e-03 0.5869 0.7415 124.4097)">
		<stop  offset="0" style="stop-color:#00B1D6"/>
		<stop  offset="1" style="stop-color:#8533BB;stop-opacity:0.3"/>
	</linearGradient>
	<path class="st4" d="M-3,157c955.6,199.9,1308.6-49.2,1920.2-8.4l-0.4,34.4c0,0-172.3-31.7-858.9,86.8S-4.4,296.1-4.4,296.1L-3,157
		z"/>
</g>
</svg>
