<?xml version="1.0" encoding="utf-8"?>
<!-- Generator: Adobe Illustrator 24.1.3, SVG Export Plug-In . SVG Version: 6.00 Build 0)  -->
<svg version="1.1" id="Слой_1" xmlns="http://www.w3.org/2000/svg" xmlns:xlink="http://www.w3.org/1999/xlink" x="0px" y="0px"
	 viewBox="0 0 1173.8 500" style="enable-background:new 0 0 1173.8 500;" xml:space="preserve">
<style type="text/css">
	.st0{fill:url(#SVGID_1_);}
	.st1{clip-path:url(#SVGID_3_);fill:url(#SVGID_4_);}
	.st2{opacity:0.98;clip-path:url(#SVGID_6_);fill:url(#SVGID_7_);enable-background:new    ;}
	.st3{opacity:0.5;clip-path:url(#SVGID_9_);fill:url(#SVGID_10_);enable-background:new    ;}
	.st4{opacity:0.9;clip-path:url(#SVGID_12_);fill:url(#SVGID_13_);enable-background:new    ;}
	.st5{opacity:0.7;clip-path:url(#SVGID_15_);fill:url(#SVGID_16_);enable-background:new    ;}
	.st6{clip-path:url(#SVGID_18_);fill:url(#SVGID_19_);}
	.st7{clip-path:url(#SVGID_21_);fill:url(#SVGID_22_);}
	.st8{clip-path:url(#SVGID_24_);fill:url(#SVGID_25_);}
	.st9{clip-path:url(#SVGID_27_);fill:url(#SVGID_28_);}
</style>
<g id="BACKGROUND">
	
		<linearGradient id="SVGID_1_" gradientUnits="userSpaceOnUse" x1="416.8432" y1="576.4649" x2="756.8701" y2="-72.2993" gradientTransform="matrix(1 0 0 -1 0 502)">
		<stop  offset="0" style="stop-color:#3870FF"/>
		<stop  offset="0.531" style="stop-color:#4680FF"/>
		<stop  offset="1" style="stop-color:#3870FF"/>
	</linearGradient>
	<rect class="st0" width="1173.8" height="500"/>
</g>
<g id="OBJECTS">
	<g>
		<g>
			<defs>
				<rect id="SVGID_2_" width="1173.8" height="500"/>
			</defs>
			<clipPath id="SVGID_3_">
				<use xlink:href="#SVGID_2_"  style="overflow:visible;"/>
			</clipPath>
			
				<linearGradient id="SVGID_4_" gradientUnits="userSpaceOnUse" x1="771.6783" y1="817.6698" x2="811.1948" y2="646.4312" gradientTransform="matrix(-0.5961 -0.8029 -0.8029 0.5961 1808.5869 566.0194)">
				<stop  offset="1.191910e-02" style="stop-color:#281168;stop-opacity:0"/>
				<stop  offset="1" style="stop-color:#8F459E"/>
			</linearGradient>
			<circle class="st1" cx="745.6" cy="371" r="98.2"/>
		</g>
		<g>
			<defs>
				<rect id="SVGID_5_" width="1173.8" height="500"/>
			</defs>
			<clipPath id="SVGID_6_">
				<use xlink:href="#SVGID_5_"  style="overflow:visible;"/>
			</clipPath>
			
				<linearGradient id="SVGID_7_" gradientUnits="userSpaceOnUse" x1="637.7375" y1="-174.015" x2="560.9215" y2="177.6315" gradientTransform="matrix(1 0 0 -1 0 502)">
				<stop  offset="0" style="stop-color:#281168;stop-opacity:0"/>
				<stop  offset="1.566660e-02" style="stop-color:#2F146E;stop-opacity:1.566660e-02"/>
				<stop  offset="8.627826e-02" style="stop-color:#4A1D86;stop-opacity:8.627826e-02"/>
				<stop  offset="0.1673" style="stop-color:#60259A;stop-opacity:0.1673"/>
				<stop  offset="0.2621" style="stop-color:#712CA9;stop-opacity:0.2621"/>
				<stop  offset="0.3793" style="stop-color:#7C30B3;stop-opacity:0.3793"/>
				<stop  offset="0.5437" style="stop-color:#8332B9;stop-opacity:0.5437"/>
				<stop  offset="1" style="stop-color:#8533BB"/>
			</linearGradient>
			<path class="st2" d="M1178.4,260.2c-33.9-5.6-70.3-6.3-103.5,1.1c-54.5,12-71.2,41.9-88.2,75.6c-42.9,85.2-169,58.2-260.5,23.5
				c-57.1-21.7-107.4-43.7-175.7-38.8c-162.2,11.7-184.3,153.8-353.8,155c-25.2,0.2-50.4-2.8-75.5-1.4
				c-39.7,2.1-77.7,15.5-102.8,36.2c-25.1,20.7-36.8,48.3-31.8,74.7c99.7,1.9,197.9,3.9,297.6,4c143.3,0,738.5-25.2,894.2-25.2
				V260.2z"/>
		</g>
		<g>
			<defs>
				<rect id="SVGID_8_" width="1173.8" height="500"/>
			</defs>
			<clipPath id="SVGID_9_">
				<use xlink:href="#SVGID_8_"  style="overflow:visible;"/>
			</clipPath>
			
				<linearGradient id="SVGID_10_" gradientUnits="userSpaceOnUse" x1="486.934" y1="625.2006" x2="587.3339" y2="295.6266" gradientTransform="matrix(1 0 0 -1 0 502)">
				<stop  offset="1.191910e-02" style="stop-color:#281168;stop-opacity:0"/>
				<stop  offset="0.2783" style="stop-color:#3F1E72;stop-opacity:0.2696"/>
				<stop  offset="0.7495" style="stop-color:#643183;stop-opacity:0.7464"/>
				<stop  offset="1" style="stop-color:#723989"/>
			</linearGradient>
			<path class="st3" d="M-60.6,307.3c14.7-34,20.9-72.4,54-98.9s84.6-40.8,134.3-37.3c28.8,2,56.2,9.5,84,15.2
				c50.2,10.1,105.6,13.9,153.5-0.7c59.6-18.2,91.7-56.7,136.4-87.2C557.6,60,637.4,48,713,52.4c82,4.7,145.4,37.2,223.4,48.6
				c97.7,14.2,205.5-29.5,237.5-96.4V-96H-52L-60.6,307.3z"/>
		</g>
		<g>
			<defs>
				<rect id="SVGID_11_" width="1173.8" height="500"/>
			</defs>
			<clipPath id="SVGID_12_">
				<use xlink:href="#SVGID_11_"  style="overflow:visible;"/>
			</clipPath>
			
				<linearGradient id="SVGID_13_" gradientUnits="userSpaceOnUse" x1="425.6863" y1="724.3094" x2="502.6395" y2="390.8452" gradientTransform="matrix(1 0 0 -1 0 502)">
				<stop  offset="1.191910e-02" style="stop-color:#281168;stop-opacity:0"/>
				<stop  offset="1" style="stop-color:#8F459E"/>
			</linearGradient>
			<path class="st4" d="M-121,169c0,0,61.3,50,162.7,24.2C143.1,167.3,170.6,125,211.3,47.5S374.4-80.1,507.4-16.3
				C577.3,17.2,698,85.2,788.8,54.5c56.4-19,83.1-72.2,129.8-101.1c46.8-29.1,104.5-41,166-42.6v-38.1H-121V169z"/>
		</g>
		<g>
			<defs>
				<rect id="SVGID_14_" width="1173.8" height="500"/>
			</defs>
			<clipPath id="SVGID_15_">
				<use xlink:href="#SVGID_14_"  style="overflow:visible;"/>
			</clipPath>
			
				<linearGradient id="SVGID_16_" gradientUnits="userSpaceOnUse" x1="-3.5" y1="50.2992" x2="1225.7" y2="50.2992" gradientTransform="matrix(1 0 0 -1 0 502)">
				<stop  offset="1.191910e-02" style="stop-color:#281168;stop-opacity:0"/>
				<stop  offset="1" style="stop-color:#8533BB"/>
			</linearGradient>
			<path class="st5" d="M947.3,298.1c-53.7-2.9-109.6,6.9-153.3,28.2c-72.6,35.4-93,97.3-174.8,127.1c-141,51.4-228.9-36-405.7-13.9
				C36.8,461.8-3.5,605.8-3.5,605.8h1229.2V324.9C1129.6,339.9,1041.3,303.2,947.3,298.1z"/>
		</g>
		<g>
			<defs>
				<rect id="SVGID_17_" width="1173.8" height="500"/>
			</defs>
			<clipPath id="SVGID_18_">
				<use xlink:href="#SVGID_17_"  style="overflow:visible;"/>
			</clipPath>
			
				<linearGradient id="SVGID_19_" gradientUnits="userSpaceOnUse" x1="53.8751" y1="319.2744" x2="86.9127" y2="176.1116" gradientTransform="matrix(1 0 0 -1 0 502)">
				<stop  offset="1.191910e-02" style="stop-color:#281168;stop-opacity:0"/>
				<stop  offset="1" style="stop-color:#8F459E"/>
			</linearGradient>
			<circle class="st6" cx="69.4" cy="250" r="82.1"/>
		</g>
		<g>
			<defs>
				<rect id="SVGID_20_" width="1173.8" height="500"/>
			</defs>
			<clipPath id="SVGID_21_">
				<use xlink:href="#SVGID_20_"  style="overflow:visible;"/>
			</clipPath>
			
				<linearGradient id="SVGID_22_" gradientUnits="userSpaceOnUse" x1="766.5682" y1="392.9794" x2="790.7355" y2="288.2543" gradientTransform="matrix(-5.921948e-02 0.9982 0.9982 5.921948e-02 289.8556 -676.4884)">
				<stop  offset="1.191910e-02" style="stop-color:#281168;stop-opacity:0"/>
				<stop  offset="1" style="stop-color:#8F459E"/>
			</linearGradient>
			<circle class="st7" cx="586.9" cy="120.4" r="60"/>
		</g>
		<g>
			<defs>
				<rect id="SVGID_23_" width="1173.8" height="500"/>
			</defs>
			<clipPath id="SVGID_24_">
				<use xlink:href="#SVGID_23_"  style="overflow:visible;"/>
			</clipPath>
			
				<linearGradient id="SVGID_25_" gradientUnits="userSpaceOnUse" x1="895.16" y1="386.1364" x2="909.7887" y2="322.7454" gradientTransform="matrix(-0.9982 -5.921948e-02 -5.921948e-02 0.9982 1152.9115 91.5002)">
				<stop  offset="1.191910e-02" style="stop-color:#281168;stop-opacity:0"/>
				<stop  offset="1" style="stop-color:#8F459E"/>
			</linearGradient>
			<circle class="st8" cx="231.4" cy="393.8" r="36.3"/>
		</g>
		<g>
			<defs>
				<rect id="SVGID_26_" width="1173.8" height="500"/>
			</defs>
			<clipPath id="SVGID_27_">
				<use xlink:href="#SVGID_26_"  style="overflow:visible;"/>
			</clipPath>
			
				<linearGradient id="SVGID_28_" gradientUnits="userSpaceOnUse" x1="28.1164" y1="-125.0658" x2="45.9748" y2="-202.4524" gradientTransform="matrix(1.665335e-16 -1 -1 -1.665335e-16 988.032 197.4169)">
				<stop  offset="1.191910e-02" style="stop-color:#281168;stop-opacity:0"/>
				<stop  offset="1" style="stop-color:#8F459E"/>
			</linearGradient>
			<circle class="st9" cx="1149.5" cy="160.9" r="44.4"/>
		</g>
	</g>
</g>
</svg>
