<?xml version="1.0" encoding="utf-8"?>
<!-- Generator: Adobe Illustrator 24.1.3, SVG Export Plug-In . SVG Version: 6.00 Build 0)  -->
<svg version="1.1" id="Слой_1" xmlns="http://www.w3.org/2000/svg" xmlns:xlink="http://www.w3.org/1999/xlink" x="0px" y="0px"
	 viewBox="0 0 172 172" style="enable-background:new 0 0 172 172;" xml:space="preserve">
<style type="text/css">
	.st0{fill:#78A0CF;}
	.st1{fill:#F1BC19;}
	.st2{fill:#57ACFF;}
	.st3{fill:#FBCD59;}
	.st4{fill:#FFFFFF;}
	.st5{fill:#FDE751;}
	.st6{fill:#472B29;}
	.st7{fill:#EA5167;}
</style>
<g>
	<g>
		<path class="st0" d="M22.4,46.4c-1.9,0-3.4,1.5-3.4,3.4s1.5,3.4,3.4,3.4s3.4-1.5,3.4-3.4S24.3,46.4,22.4,46.4z"/>
		<path class="st1" d="M132.4,20.6c-0.9,0-1.7,0.8-1.7,1.7s0.8,1.7,1.7,1.7s1.7-0.8,1.7-1.7S133.4,20.6,132.4,20.6z"/>
		<path class="st2" d="M86,22.4c-35.1,0-63.6,28.5-63.6,63.6s28.5,63.6,63.6,63.6s63.6-28.5,63.6-63.6S121.1,22.4,86,22.4z"/>
		<path class="st1" d="M142.8,18.9c-3.8,0-6.9,3.1-6.9,6.9s3.1,6.9,6.9,6.9c3.8,0,6.9-3.1,6.9-6.9S146.6,18.9,142.8,18.9z"/>
		<path class="st0" d="M149.6,37.8c-1.9,0-3.4,1.5-3.4,3.4s1.5,3.4,3.4,3.4s3.4-1.5,3.4-3.4S151.5,37.8,149.6,37.8z"/>
		<path class="st3" d="M139.3,127.3c-1.9,0-3.4,1.5-3.4,3.4s1.5,3.4,3.4,3.4s3.4-1.5,3.4-3.4S141.2,127.3,139.3,127.3z M25.8,101.5
			c-3.8,0-6.9,3.1-6.9,6.9s3.1,6.9,6.9,6.9s6.9-3.1,6.9-6.9S29.6,101.5,25.8,101.5z"/>
		<path class="st0" d="M43,146.2c-1.9,0-3.4,1.5-3.4,3.4s1.5,3.4,3.4,3.4s3.4-1.5,3.4-3.4S44.9,146.2,43,146.2z"/>
		<path class="st4" d="M31.8,87.7c-2.4,0-4.3,1.9-4.3,4.3c0,2.4,1.9,4.3,4.3,4.3s4.3-1.9,4.3-4.3C36.1,89.6,34.2,87.7,31.8,87.7z"/>
		<path class="st1" d="M36.1,113.5c-0.9,0-1.7,0.8-1.7,1.7s0.8,1.7,1.7,1.7c0.9,0,1.7-0.8,1.7-1.7S37.1,113.5,36.1,113.5z"/>
		<path class="st4" d="M137.6,56.8c-0.9,0-1.7,0.8-1.7,1.7c0,0.9,0.8,1.7,1.7,1.7s1.7-0.8,1.7-1.7C139.3,57.5,138.5,56.8,137.6,56.8
			z"/>
		<path class="st5" d="M81.7,55c-1.7-9.4-18.4-15.5-21.4-4.9c-2.7,14.4,21.4,11,21.4,11V55z"/>
		<path class="st6" d="M75.8,62.6c-4.8,0-11.2-0.7-14.6-4.3c-2.1-2.1-2.8-5-2.1-8.5c1.3-4.4,4.7-6.7,9.4-6.5c6,0.3,13.2,5,14.4,11.5
			l0,0.2v7.1l-1,0.1C81.6,62.3,79.1,62.6,75.8,62.6z M67.9,45.7c-2.1,0-5.3,0.7-6.5,4.7c-0.5,2.6,0,4.7,1.5,6.3
			c4.1,4.3,14.2,3.6,17.5,3.3v-4.8c-1-5.2-7.2-9.1-12.1-9.4C68.2,45.7,68.1,45.7,67.9,45.7z"/>
		<path class="st5" d="M90.3,55c1.7-9.4,18.4-15.5,21.4-4.9c2.7,14.4-21.4,11-21.4,11V55z"/>
		<path class="st6" d="M96.2,62.6c-3.3,0-5.8-0.3-6-0.4l-1-0.1l0-7.3c1.2-6.5,8.4-11.2,14.4-11.5c4.7-0.2,8.1,2.1,9.4,6.4
			c0.7,3.6,0,6.4-2.1,8.6C107.3,61.9,100.9,62.6,96.2,62.6z M91.5,60c3.3,0.3,13.4,0.9,17.5-3.3c1.5-1.6,2-3.7,1.5-6.4
			c-1.2-4.2-4.8-4.7-6.9-4.6c-4.9,0.2-11.1,4.2-12.1,9.4L91.5,60z"/>
		<path class="st7" d="M59.9,126.1c-6.7,0-12.2-5.5-12.2-12.2V75.3c0-6.7,5.5-12.2,12.2-12.2h52.3c6.7,0,12.2,5.5,12.2,12.2v38.5
			c0,6.7-5.5,12.2-12.2,12.2H59.9z"/>
		<path class="st6" d="M112.1,64.3c6.1,0,11,4.9,11,11v38.5c0,6.1-4.9,11-11,11H59.9c-6.1,0-11-4.9-11-11V75.3c0-6.1,4.9-11,11-11
			H112.1 M112.1,61.9H59.9c-7.4,0-13.4,6-13.4,13.4v38.5c0,7.4,6,13.4,13.4,13.4h52.3c7.4,0,13.4-6,13.4-13.4V75.3
			C125.6,68,119.5,61.9,112.1,61.9z"/>
		<g>
			<path class="st5" d="M85.3,69.3c-2.7,0-4.9-2.2-4.9-4.9v-4.9c0-2.7,2.2-4.9,4.9-4.9h1.5c2.7,0,4.9,2.2,4.9,4.9v4.9
				c0,2.7-2.2,4.9-4.9,4.9L85.3,69.3z"/>
			<path class="st6" d="M86.7,55.7c2.1,0,3.7,1.7,3.7,3.7v4.9c0,2.1-1.7,3.7-3.7,3.7h-1.5c-2.1,0-3.7-1.7-3.7-3.7v-4.9
				c0-2.1,1.7-3.7,3.7-3.7L86.7,55.7 M86.7,53.3h-1.5c-3.4,0-6.1,2.8-6.1,6.1v4.9c0,3.4,2.8,6.1,6.1,6.1h1.5c3.4,0,6.1-2.8,6.1-6.1
				v-4.9C92.9,56.1,90.1,53.3,86.7,53.3z"/>
		</g>
		<g>
			<path class="st7" d="M48,83.1c-1.2,0-2.1-1-2.1-2.1v-7.5c0-6.7,5.4-12.1,12.1-12.1h56c6.7,0,12.1,5.4,12.1,12.1V81
				c0,1.2-1,2.1-2.1,2.1H48z"/>
			<path class="st6" d="M114,62.6c6,0,10.9,4.9,10.9,10.9V81c0,0.5-0.4,0.9-0.9,0.9H48c-0.5,0-0.9-0.4-0.9-0.9v-7.5
				c0-6,4.9-10.9,10.9-10.9H114 M114,60.2H58c-7.3,0-13.3,6-13.3,13.3V81c0,1.8,1.5,3.3,3.3,3.3H124c1.8,0,3.3-1.5,3.3-3.3v-7.5
				C127.3,66.2,121.3,60.2,114,60.2z"/>
		</g>
		<g>
			<path class="st5" d="M102.5,49.8c1.4-0.3,3-0.3,4.5,0.5"/>
			<path class="st6" d="M106.9,50.7c-0.1,0-0.1,0-0.2,0c-1.3-0.6-2.7-0.8-4.2-0.4c-0.2,0.1-0.5-0.1-0.5-0.3
				c-0.1-0.2,0.1-0.5,0.3-0.5c1.7-0.4,3.3-0.2,4.8,0.5c0.2,0.1,0.3,0.4,0.2,0.6C107.2,50.6,107.1,50.7,106.9,50.7z"/>
		</g>
		<g>
			<path class="st5" d="M94.6,55.3c0,0,2-2.6,4.8-4.3"/>
			<path class="st6" d="M94.6,55.8c-0.1,0-0.2,0-0.3-0.1c-0.2-0.1-0.2-0.4-0.1-0.6c0.1-0.1,2.1-2.6,4.9-4.4c0.2-0.1,0.5-0.1,0.6,0.1
				c0.1,0.2,0.1,0.5-0.1,0.6c-2.7,1.6-4.7,4.1-4.7,4.2C94.9,55.7,94.7,55.8,94.6,55.8z"/>
		</g>
		<g>
			<path class="st5" d="M65.1,49.7c0,0,7-1.6,11.7,5.7"/>
			<path class="st6" d="M76.9,55.8c-0.1,0-0.3-0.1-0.4-0.2c-4.5-7-11-5.6-11.3-5.5c-0.2,0.1-0.5-0.1-0.5-0.3s0.1-0.5,0.3-0.5
				c0.1,0,7.3-1.6,12.2,5.9c0.1,0.2,0.1,0.5-0.1,0.6C77,55.8,76.9,55.8,76.9,55.8z"/>
		</g>
		<g>
			<path class="st6" d="M109.4,120.4H85.1c-0.5,0-0.9-0.4-0.9-0.9s0.4-0.9,0.9-0.9h24.3c4.2,0,7.5-3.4,7.5-7.5v-3.6
				c0-0.5,0.4-0.9,0.9-0.9s0.9,0.4,0.9,0.9v3.6C118.7,116.3,114.5,120.4,109.4,120.4z"/>
		</g>
		<g>
			<path class="st6" d="M117.8,101.3c-0.5,0-0.9-0.4-0.9-0.9V89c0-0.5,0.4-0.9,0.9-0.9s0.9,0.4,0.9,0.9v11.5
				C118.7,101,118.3,101.3,117.8,101.3z"/>
		</g>
		<g>
			<path class="st6" d="M74.8,120.4H62.6c-5.1,0-9.3-4.1-9.3-9.3v-3.6c0-0.5,0.4-0.9,0.9-0.9s0.9,0.4,0.9,0.9v3.6
				c0,4.2,3.4,7.5,7.5,7.5h12.2c0.5,0,0.9,0.4,0.9,0.9S75.3,120.4,74.8,120.4z"/>
		</g>
		<g>
			<path class="st6" d="M54.2,103.2c-0.5,0-0.9-0.4-0.9-0.9v-6.9c0-0.5,0.4-0.9,0.9-0.9S55,95,55,95.5v6.9
				C55,102.8,54.7,103.2,54.2,103.2z"/>
		</g>
		<g>
			<path class="st6" d="M54.2,92c-0.5,0-0.9-0.4-0.9-0.9v-3.4c0-0.5,0.4-0.9,0.9-0.9s0.9,0.4,0.9,0.9v3.4C55,91.6,54.7,92,54.2,92z"
				/>
		</g>
		<g>
			<path class="st5" d="M78.6,61.4h14.8v64.7H78.6V61.4z"/>
			<path class="st6" d="M92.2,62.6v62.3H79.8V62.6H92.2 M94.6,60.2H77.4v67.1h17.2C94.6,127.3,94.6,60.2,94.6,60.2z"/>
		</g>
		<g>
			<path class="st6" d="M88.6,75.3c-0.2,0-0.4-0.2-0.4-0.4v-8.6c0-0.2,0.2-0.4,0.4-0.4S89,66,89,66.2v8.6
				C89,75.1,88.8,75.3,88.6,75.3z"/>
		</g>
		<g>
			<path class="st6" d="M88.6,120c-0.2,0-0.4-0.2-0.4-0.4V80c0-0.2,0.2-0.4,0.4-0.4S89,79.7,89,80v39.6C89,119.8,88.8,120,88.6,120z
				"/>
		</g>
	</g>
</g>
</svg>
