<?xml version="1.0" encoding="utf-8"?>
<!-- Generator: Adobe Illustrator 24.1.3, SVG Export Plug-In . SVG Version: 6.00 Build 0)  -->
<svg version="1.1" id="Слой_1" xmlns="http://www.w3.org/2000/svg" xmlns:xlink="http://www.w3.org/1999/xlink" x="0px" y="0px"
	 viewBox="0 0 90 90" style="enable-background:new 0 0 90 90;" xml:space="preserve">
<style type="text/css">
	.st0{fill:#57ACFF;}
	.st1{fill:#182F52;}
</style>
<path class="st0" d="M75.7,14.7l-5,7.3c4,4.5,6.9,10,8.1,16.1h-6.2c-1,0-1.7,0.7-1.7,1.7v10.4c0,1,0.7,1.7,1.7,1.7h6.2
	c-1.6,7.3-5.2,13.6-10.4,18.5l5.9,6.4c8.5-7.9,13.8-19.2,13.8-31.8C88.1,33.2,83.4,22.5,75.7,14.7L75.7,14.7z"/>
<path class="st0" d="M14.9,76l5.9-6.4c-4.8-4.7-8.3-10.9-9.7-17.8h6.2c1,0,1.7-0.7,1.7-1.7V39.7c0-1-0.7-1.7-1.7-1.7h-6.2
	c1.4-6.6,4.7-12.6,9.2-17.3l-6.4-4.1C5.4,24.7,1.7,32.5,1.7,44.9C1.7,57.2,6.7,68.1,14.9,76z"/>
<path class="st0" d="M44.9,50.1c2.9,0,5.2-2.3,5.2-5.2c0-2.9-2.3-5.2-5.2-5.2c-2.9,0-5.2,2.3-5.2,5.2C39.7,47.8,42,50.1,44.9,50.1z"
	/>
<path class="st1" d="M79.3,73.7C85.8,66,89.8,56,89.8,44.9c0-10.5-3.6-20.2-9.7-27.8C71.8,6.7,59.1,0,44.9,0C30.7,0,18,6.7,9.7,17.1
	c0,0,0,0.2-0.2,0.2C3.6,24.9,0,34.5,0,44.9c0,24.7,20.2,44.9,44.9,44.9C58.6,89.8,71,83.6,79.3,73.7C79.1,73.9,79.1,73.9,79.3,73.7
	C79.3,73.9,79.3,73.7,79.3,73.7z M76.7,71.5c-1,1-2.6,1-3.6,0c-0.9-0.9-1-2.4-0.2-3.5c3.6-4.5,6.4-9.8,7.6-15.9l0.3-2.1h-6.6
	c-0.9,0-1.7-0.7-1.7-1.7v-6.9c0-0.9,0.7-1.7,1.7-1.7h6.6l-0.3-2.1c-1.2-5.5-3.6-10.5-6.9-14.9c0-0.2,0-0.2-0.2-0.3
	c-0.7-1-0.5-2.6,0.5-3.3c1-0.9,2.6-0.9,3.6,0.2c5.5,7.1,8.8,15.9,8.8,25.6C86.4,54.9,82.7,64.3,76.7,71.5L76.7,71.5z M51.8,69.6
	v-9.2h1.7c5.2,0,9.3-3.8,10.2-8.6h6.7c0.9,1,2.2,1.7,3.8,1.7h2.2c-3.1,11.2-11.7,20-23,23v-4C53.5,71.3,52.9,70.1,51.8,69.6
	L51.8,69.6z M36.3,72.5v4c-11.2-3.1-20-11.7-23-23h2.2c1.6,0,2.9-0.7,3.8-1.7h6.7c0.9,4.8,5,8.6,10.2,8.6H38v9.2
	C37,70.1,36.3,71.3,36.3,72.5L36.3,72.5z M44.9,12.1c14.9,0,27.8,10,31.6,24.2h-2.2c-1.6,0-2.9,0.7-3.8,1.7h-6.7
	c-0.9-4.8-5-8.6-10.2-8.6H36.3c-5.2,0-9.3,3.8-10.2,8.6h-6.7c-0.9-1-2.2-1.7-3.8-1.7h-2.2C17.1,22.1,30.1,12.1,44.9,12.1L44.9,12.1z
	 M36.3,57c-3.8,0-6.9-3.1-6.9-6.9v-1.7h-8.6v-6.9h8.6v-1.7c0-3.8,3.1-6.9,6.9-6.9h17.3c3.8,0,6.9,3.1,6.9,6.9v1.7h8.6v6.9h-8.6v1.7
	c0,3.8-3.1,6.9-6.9,6.9h-5.2v12.1h-6.9V57H36.3z M73.9,15.4c-0.9,0.2-1.6,0.7-2.2,1.2c-0.7,0.7-1.2,1.4-1.6,2.2
	C63.6,12.4,54.6,8.6,44.9,8.6c-9.7,0-18.8,4-25.4,10.4c-0.3-0.7-0.7-1.4-1.2-1.9c-0.7-0.7-1.7-1.2-2.6-1.6
	C23.1,8.1,33.5,3.5,44.9,3.5C56.1,3.5,66.3,7.9,73.9,15.4L73.9,15.4z M12.3,19.5c1-0.9,2.6-0.9,3.6,0c0.9,0.9,1,2.4,0.2,3.5
	c0,0,0,0,0,0.2c-3.3,4.1-5.5,9.2-6.6,14.7L9,39.7h6.6c0.9,0,1.7,0.7,1.7,1.7v6.9c0,0.9-0.7,1.7-1.7,1.7H9l0.3,2.1
	c1.2,5.9,3.8,11.2,7.4,15.7v0.2c0.7,1,0.7,2.4-0.2,3.3c-1,1-2.6,1-3.6,0c0,0,0,0-0.2,0c-5.7-7.3-9.3-16.4-9.3-26.4
	C3.5,35.2,6.7,26.4,12.3,19.5L12.3,19.5z M16.6,75.1c0.9-0.3,1.7-0.7,2.4-1.4c0.7-0.7,1-1.4,1.4-2.1c4.7,4.3,10.7,7.4,17.3,8.8
	l2.1,0.3v-8.3h10.4v8.3l2.1-0.3c6.6-1.4,12.4-4.3,17.1-8.6c0.3,0.7,0.7,1.6,1.4,2.1c0.7,0.7,1.6,1.2,2.4,1.4
	c-7.4,6.9-17.3,11.1-28.2,11.1C34,86.4,24,82,16.6,75.1L16.6,75.1z"/>
</svg>
