<?xml version="1.0" encoding="utf-8"?>
<!-- Generator: Adobe Illustrator 24.1.3, SVG Export Plug-In . SVG Version: 6.00 Build 0)  -->
<svg version="1.1" id="Слой_1" xmlns="http://www.w3.org/2000/svg" xmlns:xlink="http://www.w3.org/1999/xlink" x="0px" y="0px"
	 viewBox="0 0 91 92" style="enable-background:new 0 0 91 92;" xml:space="preserve">
<style type="text/css">
	.st0{fill:#57ACFF;}
	.st1{fill:#182F52;}
</style>
<path class="st0" d="M7,80.5h3.5v7H7V80.5z"/>
<path class="st0" d="M31.5,66.5H35v21h-3.5V66.5z"/>
<path class="st0" d="M56,52.5h3.5v35H56V52.5z"/>
<path class="st0" d="M80.5,38.5H84v49h-3.5V38.5z"/>
<path class="st1" d="M17.5,66.5c0-1.9-1.6-3.5-3.5-3.5H3.5C1.6,63,0,64.6,0,66.5v21C0,89.4,1.6,91,3.5,91H14c1.9,0,3.5-1.6,3.5-3.5
	V66.5z M3.5,66.5H14V70H3.5V66.5z M14,87.5H3.5v-14H14V87.5z"/>
<path class="st1" d="M38.5,49H28c-1.9,0-3.5,1.6-3.5,3.5v7V63v24.5c0,1.9,1.6,3.5,3.5,3.5h10.5c1.9,0,3.5-1.6,3.5-3.5V63v-3.5v-7
	C42,50.6,40.4,49,38.5,49z M28,52.5h10.5V56H28V52.5z M38.5,87.5H28V63v-3.5h10.5V63V87.5z"/>
<path class="st1" d="M63,35H52.5c-1.9,0-3.5,1.6-3.5,3.5v7V49v38.5c0,1.9,1.6,3.5,3.5,3.5H63c1.9,0,3.5-1.6,3.5-3.5V49v-3.5v-7
	C66.5,36.6,64.9,35,63,35z M52.5,38.5H63V42H52.5V38.5z M63,87.5H52.5V49v-3.5H63V49V87.5z"/>
<path class="st1" d="M87.5,21H77c-1.9,0-3.5,1.6-3.5,3.5v7V35v52.5c0,1.9,1.6,3.5,3.5,3.5h10.5c1.9,0,3.5-1.6,3.5-3.5V35v-3.5v-7
	C91,22.6,89.4,21,87.5,21z M77,24.5h10.5V28H77V24.5z M87.5,87.5H77V35v-3.5h10.5V35V87.5z"/>
<path class="st1" d="M79.1,1.7c-0.7-1.2-2-1.8-3.3-1.7L64.5,1.1c-0.9,0.1-1.7,0.6-2.2,1.5c-0.4,0.8-0.4,1.7,0,2.5L64,7.9L13.4,36.8
	c-1.2-1.1-2.9-1.8-4.7-1.8c-3.9,0-7,3.1-7,7s3.1,7,7,7s7-3.1,7-7c0-0.8-0.2-1.5-0.4-2.3L65.8,11l2,3.5c0.4,0.8,1.2,1.2,2.1,1.3
	c0,0,0.1,0,0.1,0c0.9,0,1.7-0.4,2.2-1.2l6.5-9.2C79.7,4.3,79.7,2.9,79.1,1.7L79.1,1.7z M8.8,45.5c-1.9,0-3.5-1.6-3.5-3.5
	c0-1.9,1.6-3.5,3.5-3.5c1.9,0,3.5,1.6,3.5,3.5C12.3,43.9,10.7,45.5,8.8,45.5z M70.2,11.6l-4.1-7.1l9.9-1L70.2,11.6z"/>
</svg>
