<svg width="100" height="101" viewBox="0 0 100 101" fill="none" xmlns="http://www.w3.org/2000/svg">
<path d="M38.4707 96.9607C38.4707 98.5293 40.0393 99.549 41.3727 98.8431L59.3334 89.3725C62.3727 87.7646 62.3727 83.4313 59.3334 81.8235L41.3727 72.3529C40.0393 71.647 38.4707 72.6666 38.4707 74.2352V96.9607Z" fill="url(#paint0_linear)"/>
<path d="M61.5294 27.7256C61.5294 29.2942 59.9607 30.3138 58.6274 29.608L40.6666 20.1374C37.6274 18.5295 37.6274 14.1962 40.6666 12.5884L58.6274 3.11777C59.9607 2.41189 61.5294 3.43149 61.5294 5.00012V27.7256Z" fill="url(#paint1_linear)"/>
<path d="M60.2157 80.1373L42.2549 70.6667C41.0588 70.0392 39.6471 70.0785 38.4706 70.7844C37.2549 71.5098 36.5294 72.8236 36.5294 74.2745V79.8432H13.4706C12.4118 79.8432 11.549 78.9804 11.549 77.9216V24.0785C11.549 23.0196 12.4118 22.1569 13.4706 22.1569H25C27.1176 22.1569 28.8431 20.4314 28.8431 18.3138V14.4706C28.8431 12.353 27.1176 10.6275 25 10.6275H13.4706C6.03922 10.6079 0 16.6471 0 24.0785V77.9216C0 85.3334 6.03922 91.3922 13.4706 91.3922H36.549V96.9608C36.549 98.4118 37.2745 99.7059 38.4902 100.451C39.098 100.804 39.7843 101 40.4706 101C41.0784 101 41.7059 100.843 42.2745 100.549L60.2353 91.0785C62.2745 90 63.5294 87.902 63.5294 85.6079C63.5294 83.3138 62.2549 81.2157 60.2157 80.1373ZM13.4706 87.5294C8.17647 87.5294 3.86275 83.2157 3.86275 77.9216V24.0785C3.86275 18.7844 8.17647 14.4706 13.4706 14.4706H25V18.3138H13.4706C10.2941 18.3138 7.70588 20.902 7.70588 24.0785V77.9216C7.70588 81.0981 10.2941 83.6863 13.4706 83.6863H36.549V87.5294H13.4706ZM58.4314 87.6863L40.4706 97.1569C40.4706 97.1569 40.3726 97.1177 40.3726 96.9608V74.2745C40.3726 74.1177 40.451 74.0785 40.451 74.0785L58.4118 83.549C59.1961 83.9608 59.6667 84.7255 59.6667 85.6079C59.6863 86.4902 59.2157 87.2745 58.4314 87.6863Z" fill="url(#paint2_linear)"/>
<path d="M86.5295 10.6079H63.4707V5.03927C63.4707 3.58829 62.7452 2.29418 61.5295 1.54908C60.3531 0.843197 58.9413 0.803981 57.7452 1.43143L39.7844 10.902C37.7452 11.9805 36.4707 14.0785 36.4707 16.3922C36.4707 18.6863 37.7256 20.7844 39.7648 21.8628L57.7256 31.3334C58.2942 31.6275 58.9021 31.7844 59.5295 31.7844C60.2158 31.7844 60.9021 31.5883 61.5099 31.2354C62.7256 30.5099 63.4511 29.1961 63.4511 27.7452V22.1765H86.5295C87.5883 22.1765 88.4511 23.0393 88.4511 24.0981V77.9412C88.4511 79.0001 87.5883 79.8628 86.5295 79.8628H75.0001C72.8825 79.8628 71.157 81.5883 71.157 83.7059V87.5491C71.157 89.6667 72.8825 91.3922 75.0001 91.3922H86.5295C93.9413 91.3922 100 85.353 100 77.9216V24.0785C100 16.6471 93.9609 10.6079 86.5295 10.6079ZM59.608 27.7255C59.608 27.8824 59.5295 27.9216 59.5295 27.9216L41.5687 18.451C40.7844 18.0393 40.3138 17.255 40.3138 16.3726C40.3138 15.4903 40.7844 14.7255 41.5687 14.3138L59.5295 4.8432C59.5295 4.8432 59.6276 4.88241 59.6276 5.03927V27.7255H59.608ZM96.157 77.9216C96.157 83.2157 91.8432 87.5295 86.5491 87.5295H75.0197V83.6863H86.5491C89.7256 83.6863 92.3138 81.0981 92.3138 77.9216V24.0785C92.3138 20.902 89.7256 18.3138 86.5491 18.3138H63.4707V14.4706H86.5491C91.8432 14.4706 96.157 18.7844 96.157 24.0785V77.9216Z" fill="url(#paint3_linear)"/>
<defs>
<linearGradient id="paint0_linear" x1="50.0315" y1="70.7115" x2="50.0315" y2="97.1923" gradientUnits="userSpaceOnUse">
<stop stop-color="#70DFFF"/>
<stop offset="1" stop-color="#70AFFF"/>
</linearGradient>
<linearGradient id="paint1_linear" x1="49.9684" y1="-0.922625" x2="49.9684" y2="33.3331" gradientUnits="userSpaceOnUse">
<stop stop-color="#70DFFF"/>
<stop offset="1" stop-color="#70AFFF"/>
</linearGradient>
<linearGradient id="paint2_linear" x1="31.7633" y1="-1.40349" x2="31.7633" y2="100.452" gradientUnits="userSpaceOnUse">
<stop stop-color="#00C6FF"/>
<stop offset="1" stop-color="#0072FF"/>
</linearGradient>
<linearGradient id="paint3_linear" x1="68.2364" y1="-1.40347" x2="68.2364" y2="100.452" gradientUnits="userSpaceOnUse">
<stop stop-color="#00C6FF"/>
<stop offset="1" stop-color="#0072FF"/>
</linearGradient>
</defs>
</svg>
