<svg width="80" height="80" viewBox="0 0 80 80" fill="none" xmlns="http://www.w3.org/2000/svg">
<path d="M39.922 80C17.9337 80 0 62.0663 0 39.922C0 17.7778 17.9337 0 39.922 0C61.9103 0 79.8441 17.9337 79.8441 39.922C79.8441 61.9103 62.0663 80 39.922 80ZM39.922 4.05458C20.117 4.05458 4.05458 20.117 4.05458 39.922C4.05458 59.7271 20.2729 75.9454 40.078 75.9454C59.883 75.9454 76.1014 59.7271 76.1014 39.922C76.1014 20.117 59.883 4.05458 39.922 4.05458Z" fill="url(#paint0_linear)"/>
<path d="M51.6182 62.0665H35.2439C30.0977 62.0665 25.8872 58.1678 25.8872 53.3335V48.0314C25.8872 43.9768 28.8502 40.546 32.9048 39.4544L45.8482 36.8033V26.199H28.3823C27.1348 26.199 26.0432 25.2633 26.0432 24.0158V20.2731C26.0432 19.0255 27.1348 18.0898 28.3823 18.0898H44.7566C49.9028 18.0898 54.1133 22.1444 54.1133 26.9787V35.8676C54.1133 40.0781 51.1504 43.6649 46.9398 44.6006L33.9964 47.4076V53.9573H51.6182C52.8658 53.9573 53.9574 54.893 53.9574 56.2965V59.7273C53.9574 60.9748 52.8658 62.0665 51.6182 62.0665Z" fill="url(#paint1_linear)"/>
<defs>
<linearGradient id="paint0_linear" x1="39.9935" y1="-12.9979" x2="39.9935" y2="94.4867" gradientUnits="userSpaceOnUse">
<stop stop-color="#6FC4FC"/>
<stop offset="1" stop-color="#4071FA"/>
</linearGradient>
<linearGradient id="paint1_linear" x1="39.9937" y1="19.9429" x2="39.9937" y2="56.0911" gradientUnits="userSpaceOnUse">
<stop stop-color="#98DDFD"/>
<stop offset="1" stop-color="#84ACFB"/>
</linearGradient>
</defs>
</svg>
