<?xml version="1.0" encoding="utf-8"?>
<!-- Generator: Adobe Illustrator 24.1.3, SVG Export Plug-In . SVG Version: 6.00 Build 0)  -->
<svg version="1.1" id="Слой_1" xmlns="http://www.w3.org/2000/svg" xmlns:xlink="http://www.w3.org/1999/xlink" x="0px" y="0px"
	 viewBox="0 0 97 97" style="enable-background:new 0 0 97 97;" xml:space="preserve">
<style type="text/css">
	.st0{fill:#182F52;}
	.st1{fill:#57ACFF;}
</style>
<path class="st0" d="M7.1,74.2c1.9,3.1,4.2,5.9,6.7,8.5l2.7-2.6c-2.4-2.4-4.5-5-6.2-7.8L7.1,74.2z"/>
<path class="st0" d="M0,53.9c0.4,3.6,1.2,7.1,2.4,10.5l3.5-1.2c-1.1-3.1-1.8-6.4-2.2-9.7L0,53.9z"/>
<path class="st0" d="M5.9,33.8l-3.5-1.2C1.2,36,0.4,39.5,0,43.1l3.7,0.4C4.1,40.2,4.8,37,5.9,33.8z"/>
<path class="st0" d="M16.4,17l-2.7-2.6c-2.5,2.6-4.8,5.4-6.7,8.5l3.2,2C12,22,14.1,19.4,16.4,17z"/>
<path class="st0" d="M33.2,6.4l-1.3-3.5c-3.4,1.2-6.7,2.8-9.7,4.8l2,3.1C27,8.9,30.1,7.5,33.2,6.4z"/>
<path class="st0" d="M22.2,89.4c3.1,1.9,6.3,3.5,9.7,4.8l1.3-3.5c-3.1-1.1-6.2-2.6-9-4.4L22.2,89.4z"/>
<path class="st0" d="M48.3,0c-1.9,0-3.9,0.1-5.8,0.3L43,4.1c1.8-0.2,3.6-0.3,5.4-0.3c24.8,0,44.9,20.1,44.9,44.8
	c0,24.7-20.1,44.8-44.9,44.8c-1.8,0-3.6-0.1-5.4-0.3l-0.4,3.7c1.9,0.2,3.9,0.3,5.8,0.3C75.2,97,97,75.2,97,48.5S75.2,0,48.3,0z"/>
<path class="st1" d="M40.9,67c-1.9,0-3.8-0.7-5.3-2.2L21.4,50.7l5.3-5.3l14.2,14.2L70,30.5l5.3,5.3L46.2,64.9
	C44.7,66.3,42.8,67,40.9,67z"/>
</svg>
