<?xml version="1.0" encoding="utf-8"?>
<!-- Generator: Adobe Illustrator 24.1.3, SVG Export Plug-In . SVG Version: 6.00 Build 0)  -->
<svg version="1.1" id="Слой_1" xmlns="http://www.w3.org/2000/svg" xmlns:xlink="http://www.w3.org/1999/xlink" x="0px" y="0px"
	 viewBox="0 0 100 101" style="enable-background:new 0 0 100 101;" xml:space="preserve">
<style type="text/css">
	.st0{fill:#57ACFF;}
	.st1{fill:#182F52;}
</style>
<path class="st0" d="M38.5,97c0,1.6,1.6,2.6,2.9,1.9l18-9.5c3-1.6,3-5.9,0-7.5l-18-9.5c-1.3-0.7-2.9,0.3-2.9,1.9V97z"/>
<path class="st0" d="M61.5,27.7c0,1.6-1.6,2.6-2.9,1.9l-18-9.5c-3-1.6-3-5.9,0-7.5l18-9.5C60,2.4,61.5,3.4,61.5,5V27.7z"/>
<path class="st1" d="M60.2,80.1l-18-9.5c-1.2-0.6-2.6-0.6-3.8,0.1c-1.2,0.7-1.9,2-1.9,3.5v5.6H13.5c-1.1,0-1.9-0.9-1.9-1.9V24.1
	c0-1.1,0.9-1.9,1.9-1.9H25c2.1,0,3.8-1.7,3.8-3.8v-3.8c0-2.1-1.7-3.8-3.8-3.8H13.5C6,10.6,0,16.6,0,24.1v53.8
	c0,7.4,6,13.5,13.5,13.5h23.1V97c0,1.5,0.7,2.7,1.9,3.5c0.6,0.4,1.3,0.5,2,0.5c0.6,0,1.2-0.2,1.8-0.5l18-9.5c2-1.1,3.3-3.2,3.3-5.5
	C63.5,83.3,62.3,81.2,60.2,80.1z M13.5,87.5c-5.3,0-9.6-4.3-9.6-9.6V24.1c0-5.3,4.3-9.6,9.6-9.6H25v3.8H13.5c-3.2,0-5.8,2.6-5.8,5.8
	v53.8c0,3.2,2.6,5.8,5.8,5.8h23.1v3.8H13.5z M58.4,87.7l-18,9.5c0,0-0.1,0-0.1-0.2V74.3c0-0.2,0.1-0.2,0.1-0.2l18,9.5
	c0.8,0.4,1.3,1.2,1.3,2.1C59.7,86.5,59.2,87.3,58.4,87.7z"/>
<path class="st1" d="M86.5,10.6H63.5V5c0-1.5-0.7-2.7-1.9-3.5c-1.2-0.7-2.6-0.7-3.8-0.1l-18,9.5c-2,1.1-3.3,3.2-3.3,5.5
	c0,2.3,1.3,4.4,3.3,5.5l18,9.5c0.6,0.3,1.2,0.5,1.8,0.5c0.7,0,1.4-0.2,2-0.5c1.2-0.7,1.9-2,1.9-3.5v-5.6h23.1c1.1,0,1.9,0.9,1.9,1.9
	v53.8c0,1.1-0.9,1.9-1.9,1.9H75c-2.1,0-3.8,1.7-3.8,3.8v3.8c0,2.1,1.7,3.8,3.8,3.8h11.5c7.4,0,13.5-6,13.5-13.5V24.1
	C100,16.6,94,10.6,86.5,10.6z M59.6,27.7c0,0.2-0.1,0.2-0.1,0.2l-18-9.5c-0.8-0.4-1.3-1.2-1.3-2.1c0-0.9,0.5-1.6,1.3-2.1l18-9.5
	c0,0,0.1,0,0.1,0.2L59.6,27.7L59.6,27.7z M96.2,77.9c0,5.3-4.3,9.6-9.6,9.6H75v-3.8h11.5c3.2,0,5.8-2.6,5.8-5.8V24.1
	c0-3.2-2.6-5.8-5.8-5.8H63.5v-3.8h23.1c5.3,0,9.6,4.3,9.6,9.6V77.9z"/>
</svg>
