<?xml version="1.0" encoding="utf-8"?>
<!-- Generator: Adobe Illustrator 24.1.3, SVG Export Plug-In . SVG Version: 6.00 Build 0)  -->
<svg version="1.1" id="Слой_1" xmlns="http://www.w3.org/2000/svg" xmlns:xlink="http://www.w3.org/1999/xlink" x="0px" y="0px"
	 viewBox="0 0 100 100" style="enable-background:new 0 0 100 100;" xml:space="preserve">
<style type="text/css">
	.st0{fill:#182F52;}
	.st1{fill:#57ACFF;}
</style>
<g>
	<g>
		<path class="st0" d="M35.1,46.2v-9.6c0-1.1,0.9-1.9,1.9-1.9h9.6L35.1,46.2z"/>
		<path class="st0" d="M50.5,0c-27.6,0-50,22.4-50,50s22.4,50,50,50s50-22.4,50-50S78.1,0,50.5,0z M50.5,96.2
			C25.1,96.2,4.3,75.4,4.3,50S25.1,3.8,50.5,3.8S96.7,24.6,96.7,50S75.9,96.2,50.5,96.2z"/>
		<path class="st1" d="M69.7,27.3v-0.4c0-3.2-2.6-5.8-5.8-5.8H37c-3.2,0-5.8,2.6-5.8,5.8v0.4c-1.9,0.8-3.8,2.9-3.8,5.4v40.5
			c0,2.2,1.2,4.2,3.2,5.1c0.8,0.4,1.7,0.6,2.6,0.6c1.2,0,2.4-0.4,3.4-1.1l10.5-7.7c2-1.5,4.8-1.5,6.8,0l10.5,7.7
			c1.8,1.3,4.1,1.5,6,0.5c1.9-1,3.2-3,3.2-5.1V32.7C73.6,30.2,71.7,28.1,69.7,27.3L69.7,27.3z M37,25H64c1.1,0,1.9,0.9,1.9,1.9H35.1
			C35.1,25.9,36,25,37,25z M69.7,73.2c0,0.7-0.4,1.4-1.1,1.7c-0.7,0.3-1.4,0.3-2-0.2l-10.5-7.7c-3.4-2.5-7.9-2.5-11.3,0l-10.5,7.7
			c-0.6,0.4-1.3,0.5-2,0.2c-0.7-0.3-1.1-1-1.1-1.7V32.7c0-1.1,0.9-1.9,1.9-1.9h34.6c1.1,0,1.9,0.9,1.9,1.9V73.2z"/>
	</g>
</g>
</svg>
