<?xml version="1.0" encoding="utf-8"?>
<!-- Generator: Adobe Illustrator 24.1.3, SVG Export Plug-In . SVG Version: 6.00 Build 0)  -->
<svg version="1.1" id="Слой_1" xmlns="http://www.w3.org/2000/svg" xmlns:xlink="http://www.w3.org/1999/xlink" x="0px" y="0px"
	 viewBox="0 0 100 100" style="enable-background:new 0 0 100 100;" xml:space="preserve">
<style type="text/css">
	.st0{fill:#57ACFF;}
	.st1{fill:#182F52;}
</style>
<path class="st0" d="M36.5,64.8V35.2c0-3.3,3.6-5.4,6.5-3.9l25.7,14.8c3.2,1.6,3.3,6.2,0,7.8L43,68.8C40.1,70.2,36.5,68.1,36.5,64.8
	z"/>
<path class="st1" d="M69.7,44.4L43.9,29.5c-2-1-4.3-0.9-6.2,0.3c-1.9,1.2-3,3.2-3,5.3v29.7c0,2.2,1.1,4.2,3,5.4c1,0.6,2.2,1,3.4,1
	c1,0,2-0.2,3-0.7l25.7-14.8c2.1-1.1,3.5-3.2,3.5-5.6C73.1,47.6,71.7,45.5,69.7,44.4z M67.8,52.3L42.1,67c-0.8,0.4-1.7,0.3-2.5-0.1
	c-0.4-0.2-1.2-0.9-1.2-2.1V35.2c0-1.2,0.8-1.8,1.2-2.1c0.5-0.3,0.9-0.4,1.4-0.4c0.4,0,0.7,0.1,1,0.2l25.8,14.9
	c0.9,0.4,1.4,1.3,1.4,2.2C69.2,51,68.7,51.8,67.8,52.3z"/>
<path class="st1" d="M8.6,75.7c1.9,3.1,4.2,5.9,6.7,8.5l2.7-2.6c-2.4-2.4-4.5-5-6.2-7.8L8.6,75.7z"/>
<path class="st1" d="M1.5,55.4C1.9,59,2.7,62.6,3.9,66l3.5-1.2c-1.1-3.1-1.8-6.4-2.2-9.7L1.5,55.4z"/>
<path class="st1" d="M7.4,35.3l-3.5-1.2c-1.2,3.4-2,6.9-2.4,10.5L5.2,45C5.6,41.7,6.3,38.5,7.4,35.3z"/>
<path class="st1" d="M17.9,18.5l-2.7-2.6c-2.5,2.6-4.8,5.4-6.7,8.5l3.2,2C13.5,23.5,15.6,20.9,17.9,18.5z"/>
<path class="st1" d="M34.7,7.9l-1.3-3.5c-3.4,1.2-6.7,2.8-9.7,4.8l2,3.1C28.5,10.4,31.6,9,34.7,7.9z"/>
<path class="st1" d="M23.7,90.9c3.1,1.9,6.3,3.5,9.7,4.8l1.3-3.5c-3.1-1.1-6.2-2.6-9-4.4L23.7,90.9z"/>
<path class="st1" d="M49.8,1.5c-1.9,0-3.9,0.1-5.8,0.3l0.4,3.7c1.8-0.2,3.6-0.3,5.4-0.3c24.8,0,44.9,20.1,44.9,44.8
	c0,24.7-20.1,44.8-44.9,44.8c-1.8,0-3.6-0.1-5.4-0.3L44,98.2c1.9,0.2,3.9,0.3,5.8,0.3c26.8,0,48.7-21.8,48.7-48.5S76.7,1.5,49.8,1.5
	z"/>
</svg>
