<svg width="105" height="125" viewBox="0 0 105 125" fill="none" xmlns="http://www.w3.org/2000/svg">
<path d="M105 50.8333C105 47.2304 102.615 43.7745 98.4786 41.201C100.815 37.5245 101.447 33.8235 100.182 30.7598C98.8192 27.451 95.2908 25.1471 90.4971 24.3873C91.2514 20.098 90.4241 16.4216 88.1124 14.0931C85.898 11.8627 82.4426 11.0049 78.3789 11.6176C77.3082 7.94118 75.2642 5.26961 72.5388 4.11765C69.3754 2.79412 65.409 3.57843 61.5886 6.20098C59.7879 3.65196 56.4056 0 52.2202 0C48.4484 0 45.0174 3.55392 43.022 6.12745C39.956 3.87255 35.5759 2.67157 32.1205 4.11765C29.0301 5.39216 26.9618 8.60294 26.1587 13.2843C21.6813 12.3529 17.7879 13.1618 15.3789 15.5637C13.2619 17.6961 12.4102 20.8824 12.8482 24.7304C8.88181 25.7353 6.01043 27.8676 4.81808 30.7598C3.55272 33.8235 4.1854 37.5 6.54577 41.201C2.3847 43.7745 0 47.2304 0 50.8333C0 54.1422 1.99536 57.3039 5.54809 59.8039C2.70104 63.75 1.82503 67.8922 3.18772 71.201C4.45307 74.2402 7.49479 76.4216 11.7289 77.3529C10.6095 82.1078 11.3638 86.25 13.8946 88.799C16.4496 91.3726 19.0776 91.8382 23.847 91.2255V115.294C23.847 120.637 28.1541 124.975 33.4589 124.975C35.4786 124.975 37.4009 124.338 39.0556 123.162L49.6895 115.515C51.3685 114.314 53.6315 114.314 55.3105 115.515L65.92 123.162C67.5504 124.338 69.4971 124.975 71.5168 124.975C76.8215 124.975 81.1286 120.637 81.1286 115.294V92.8922C83.5133 93.1618 87.6501 92.2794 89.6211 90.2941C92.7845 87.1078 92.7115 82.0343 91.4704 77.6961C95.8262 77.1078 100.158 75.2206 101.812 71.201C103.175 67.8922 102.299 63.75 99.4519 59.8039C103.029 57.3039 105 54.1422 105 50.8333ZM71.5168 120.196C70.4948 120.196 69.5214 119.877 68.6941 119.289L58.0846 111.642C54.7509 109.24 50.2491 109.24 46.9154 111.642L36.3059 119.289C35.4786 119.877 34.5052 120.196 33.4832 120.196C30.8065 120.196 28.6408 118.015 28.6408 115.319V98.6765C28.6408 100.025 30.8552 101.103 32.4125 101.765C35.5516 103.064 39.4693 102.304 43.2654 99.7304C45.7961 103.578 49.1054 105.784 52.5122 105.784C55.9189 105.784 59.2283 103.554 61.759 99.7304C65.555 102.304 69.4728 103.088 72.6118 101.765C74.0962 101.152 76.3835 100.074 76.3835 98.6275V115.319C76.3592 118.015 74.1935 120.196 71.5168 120.196ZM94.1228 60.8333C96.9455 63.8726 98.2596 67.3039 97.4079 69.3627C96.4832 71.6176 92.6871 73.1618 88.1611 73.0882L84.365 73.0392L85.9467 76.5196C87.6257 80.1716 88.2584 84.902 86.263 86.9118C84.7543 88.4314 81.3476 88.6029 77.6002 87.2794L74.6315 86.25L74.4368 89.4118C74.1935 93.4069 72.7578 96.4951 70.7868 97.3284C68.7914 98.1618 65.6037 96.9853 62.635 94.3382L60.2746 92.2304L58.9119 95.098C57.1842 98.6765 54.6779 101.005 52.5122 101.005C50.3708 101.005 47.8644 98.6765 46.1367 95.098L44.774 92.2304L42.4137 94.3382C39.445 96.9853 36.2572 98.1618 34.2619 97.3284C31.6582 96.2255 30.4415 91.6177 30.5875 87.598L30.7335 83.7745L27.2538 85.2941C23.117 87.1078 19.0046 87.1569 17.3013 85.4167C15.6952 83.799 15.6222 80.2206 17.0823 76.25L18.2016 73.2843L15.0626 73.0147C11.2665 72.6961 8.4438 71.299 7.64079 69.3627C6.78911 67.3039 8.10313 63.8726 10.9258 60.8333L13.0915 58.5049L10.2932 57.0588C6.91078 55.3186 4.81808 52.9167 4.81808 50.8333C4.81808 48.5539 7.27578 45.9559 11.0962 44.2157L13.9676 42.8922L11.9235 40.4657C9.46582 37.549 8.4438 34.5343 9.22248 32.598C9.95249 30.8088 12.4589 29.4608 15.9143 29.0196L18.5666 28.6765L17.934 26.0539C17.1553 22.9167 17.4716 20.2696 18.7613 18.9706C20.27 17.451 23.6767 17.3039 27.4241 18.6029L30.3928 19.6324L30.5875 16.4706C30.8308 12.2304 32.0718 9.33824 33.9455 8.55392C36.0139 7.69608 39.7613 9.01961 41.5133 11.25L43.606 13.8971L45.4067 11.0294C46.9641 8.52941 50.2005 4.80392 52.1958 4.80392C54.7752 4.80392 57.8412 8.87255 58.9119 10.8578L60.3476 13.4804L62.5863 11.4951C65.5307 8.87255 68.7428 7.72059 70.7138 8.55392C72.4171 9.26471 73.7068 11.5931 74.2178 14.8039L74.6315 17.4755L77.2109 16.7647C80.5689 15.8333 83.3917 16.1029 84.7543 17.4755C86.2144 18.9461 86.409 22.1324 85.2654 25.7598L84.292 28.799L87.4554 28.8971C91.5921 29.0441 94.9258 30.5147 95.7775 32.598C96.5805 34.5343 95.5342 37.5245 93.0765 40.4657L91.0324 42.8922L93.9038 44.2157C97.7242 45.9559 100.182 48.5539 100.182 50.8333C100.182 52.9167 98.0892 55.2941 94.7068 57.0588L91.9085 58.5049L94.1228 60.8333Z" fill="url(#paint0_linear)"/>
<path d="M38.1797 74.5097C38.1797 75.8332 37.109 76.9117 35.795 76.9117H31.0256C29.7116 76.9117 28.6409 75.8332 28.6409 74.5097V50.4901C28.6409 49.1666 29.7116 48.0881 31.0256 48.0881H35.795C37.109 48.0881 38.1797 49.1666 38.1797 50.4901V74.5097Z" fill="url(#paint1_linear)"/>
<path d="M62.0508 48.0882C60.7368 48.0882 59.6661 47.0098 59.6661 45.6863V36.0784C59.6661 32.1079 56.5027 28.8971 52.5606 28.8726C51.2223 28.8726 50.1273 29.9265 50.1273 31.2745V42.2304C50.1273 44.2892 48.8132 46.1275 46.8665 46.7892L44.6035 47.549C43.6302 47.8677 42.9731 48.799 42.9731 49.8284V74.5098C42.9731 75.8333 44.0438 76.9118 45.3578 76.9118H62.0751C69.9836 76.9118 76.3833 70.4412 76.3833 62.5V52.8922C76.3833 50.2451 74.242 48.0882 71.6139 48.0882H62.0508Z" fill="url(#paint2_linear)"/>
<defs>
<linearGradient id="paint0_linear" x1="52.5046" y1="-2.00245" x2="52.5046" y2="126.654" gradientUnits="userSpaceOnUse">
<stop stop-color="#00C6FF"/>
<stop offset="1" stop-color="#0072FF"/>
</linearGradient>
<linearGradient id="paint1_linear" x1="33.4122" y1="38.8629" x2="33.4122" y2="79.6443" gradientUnits="userSpaceOnUse">
<stop stop-color="#70DFFF"/>
<stop offset="1" stop-color="#70AFFF"/>
</linearGradient>
<linearGradient id="paint2_linear" x1="59.6641" y1="38.863" x2="59.6641" y2="79.6444" gradientUnits="userSpaceOnUse">
<stop stop-color="#70DFFF"/>
<stop offset="1" stop-color="#70AFFF"/>
</linearGradient>
</defs>
</svg>
