<svg width="80" height="80" viewBox="0 0 80 80" fill="none" xmlns="http://www.w3.org/2000/svg">
<path d="M40 80C17.8824 80 0 61.9608 0 40C0 18.0392 17.8824 0 40 0C62.1176 0 80 17.8824 80 40C80 62.1176 61.9608 80 40 80ZM40 3.92157C20.0784 3.92157 3.92157 20.0784 3.92157 40C3.92157 59.9216 20.0784 75.9216 39.8431 75.9216C59.6078 75.9216 75.7647 59.7647 75.7647 40C75.7647 20.2353 59.7647 3.92157 40 3.92157Z" fill="url(#paint0_linear)"/>
<path d="M27.9214 21.9611V25.8827C27.9214 26.9807 28.8626 27.9219 29.9606 27.9219H43.9214V35.9219H29.9606C28.8626 35.9219 27.9214 36.8631 27.9214 37.9611V41.8827C27.9214 42.9807 28.8626 43.9219 29.9606 43.9219H43.9214V51.9219H29.9606C28.8626 51.9219 27.9214 52.8631 27.9214 53.9611V57.8827C27.9214 58.9807 28.8626 59.9219 29.9606 59.9219H43.9214C48.3135 59.9219 51.9214 56.314 51.9214 51.9219V27.9219C51.9214 23.5297 48.3135 19.9219 43.9214 19.9219H29.9606C28.8626 19.9219 27.9214 20.8631 27.9214 21.9611Z" fill="url(#paint1_linear)"/>
<defs>
<linearGradient id="paint0_linear" x1="39.9674" y1="-12.9893" x2="39.9674" y2="94.4248" gradientUnits="userSpaceOnUse">
<stop stop-color="#6FC4FC"/>
<stop offset="1" stop-color="#4071FA"/>
</linearGradient>
<linearGradient id="paint1_linear" x1="39.9672" y1="20.5675" x2="39.9672" y2="59.2019" gradientUnits="userSpaceOnUse">
<stop stop-color="#98DDFD"/>
<stop offset="1" stop-color="#84ACFB"/>
</linearGradient>
</defs>
</svg>
