<?xml version="1.0" encoding="utf-8"?>
<!-- Generator: Adobe Illustrator 24.1.3, SVG Export Plug-In . SVG Version: 6.00 Build 0)  -->
<svg version="1.1" id="Слой_1" xmlns="http://www.w3.org/2000/svg" xmlns:xlink="http://www.w3.org/1999/xlink" x="0px" y="0px"
	 viewBox="0 0 105 97.9" style="enable-background:new 0 0 105 97.9;" xml:space="preserve">
<style type="text/css">
	.st0{fill:#182F52;}
	.st1{fill:#57ACFF;}
</style>
<path class="st0" d="M93.6,39.8c0-2.8-1.9-5.5-5.1-7.5c1.8-2.9,2.3-5.8,1.3-8.2c-1.1-2.6-3.8-4.4-7.6-5c0.6-3.4-0.1-6.2-1.9-8.1
	c-1.7-1.7-4.4-2.4-7.6-1.9c-0.8-2.9-2.4-5-4.6-5.9c-2.5-1-5.6-0.4-8.6,1.6c-1.4-2-4.1-4.9-7.3-4.9c-3,0-5.6,2.8-7.2,4.8
	c-2.4-1.8-5.8-2.7-8.5-1.6c-2.4,1-4,3.5-4.7,7.2c-3.5-0.7-6.6-0.1-8.4,1.8c-1.7,1.7-2.3,4.2-2,7.2c-3.1,0.8-5.4,2.5-6.3,4.7
	c-1,2.4-0.5,5.3,1.4,8.2c-3.3,2-5.1,4.7-5.1,7.5c0,2.6,1.6,5.1,4.3,7c-2.2,3.1-2.9,6.3-1.8,8.9c1,2.4,3.4,4.1,6.7,4.8
	c-0.9,3.7-0.3,7,1.7,9c2,2,4.1,2.4,7.8,1.9v18.8c0,4.2,3.4,7.6,7.5,7.6c1.6,0,3.1-0.5,4.4-1.4l8.3-6c1.3-0.9,3.1-0.9,4.4,0l8.3,6
	c1.3,0.9,2.8,1.4,4.4,1.4c4.2,0,7.5-3.4,7.5-7.6V72.7c1.9,0.2,5.1-0.5,6.7-2c2.5-2.5,2.4-6.5,1.4-9.9c3.4-0.5,6.8-1.9,8.1-5.1
	c1.1-2.6,0.4-5.8-1.8-8.9C92.1,44.9,93.6,42.4,93.6,39.8z M67.4,94.1c-0.8,0-1.6-0.2-2.2-0.7l-8.3-6c-2.6-1.9-6.1-1.9-8.7,0l-8.3,6
	c-0.6,0.5-1.4,0.7-2.2,0.7c-2.1,0-3.8-1.7-3.8-3.8v-13c0,1.1,1.7,1.9,3,2.4c2.5,1,5.5,0.4,8.5-1.6c2,3,4.6,4.7,7.2,4.7
	c2.7,0,5.3-1.7,7.2-4.7c3,2,6,2.6,8.5,1.6c1.2-0.5,3-1.3,3-2.5v13.1C71.2,92.4,69.5,94.1,67.4,94.1z M85.1,47.6
	c2.2,2.4,3.2,5.1,2.6,6.7c-0.7,1.8-3.7,3-7.2,2.9l-3,0l1.2,2.7c1.3,2.9,1.8,6.6,0.2,8.1c-1.2,1.2-3.8,1.3-6.8,0.3l-2.3-0.8L69.7,70
	c-0.2,3.1-1.3,5.5-2.9,6.2c-1.6,0.7-4.1-0.3-6.4-2.3l-1.8-1.7l-1.1,2.2c-1.4,2.8-3.3,4.6-5,4.6c-1.7,0-3.6-1.8-5-4.6l-1.1-2.2
	l-1.8,1.7c-2.3,2.1-4.8,3-6.4,2.3c-2-0.9-3-4.5-2.9-7.6l0.1-3l-2.7,1.2c-3.2,1.4-6.5,1.5-7.8,0.1c-1.3-1.3-1.3-4.1-0.2-7.2l0.9-2.3
	l-2.5-0.2c-3-0.2-5.2-1.3-5.8-2.9c-0.7-1.6,0.4-4.3,2.6-6.7l1.7-1.8l-2.2-1.1c-2.6-1.4-4.3-3.2-4.3-4.9c0-1.8,1.9-3.8,4.9-5.2l2.2-1
	l-1.6-1.9c-1.9-2.3-2.7-4.6-2.1-6.2c0.6-1.4,2.5-2.5,5.2-2.8l2.1-0.3l-0.5-2.1c-0.6-2.5-0.4-4.5,0.6-5.5c1.2-1.2,3.8-1.3,6.8-0.3
	l2.3,0.8l0.2-2.5c0.2-3.3,1.2-5.6,2.6-6.2c1.6-0.7,4.6,0.4,5.9,2.1l1.6,2.1l1.4-2.2c1.2-2,3.8-4.9,5.3-4.9c2,0,4.4,3.2,5.3,4.7
	l1.1,2.1L60.4,9c2.3-2.1,4.8-3,6.4-2.3c1.3,0.6,2.3,2.4,2.7,4.9l0.3,2.1l2-0.6c2.6-0.7,4.8-0.5,5.9,0.6c1.1,1.2,1.3,3.6,0.4,6.5
	l-0.8,2.4l2.5,0.1c3.2,0.1,5.8,1.3,6.5,2.9c0.6,1.5-0.2,3.9-2.1,6.2l-1.6,1.9l2.2,1c3,1.4,4.9,3.4,4.9,5.2c0,1.6-1.6,3.5-4.3,4.9
	l-2.2,1.1L85.1,47.6z"/>
<path class="st1" d="M41.3,55.2c0,1-0.8,1.9-1.9,1.9h-3.7c-1,0-1.9-0.8-1.9-1.9V36.4c0-1,0.8-1.9,1.9-1.9h3.7c1,0,1.9,0.8,1.9,1.9
	V55.2z"/>
<path class="st1" d="M60,34.5c-1,0-1.9-0.8-1.9-1.9v-7.5c0-3.1-2.5-5.6-5.6-5.6c-1,0-1.9,0.8-1.9,1.9v8.6c0,1.6-1,3.1-2.6,3.6
	l-1.8,0.6c-0.8,0.2-1.3,1-1.3,1.8v19.3c0,1,0.8,1.9,1.9,1.9H60c6.2,0,11.2-5.1,11.2-11.3v-7.5c0-2.1-1.7-3.8-3.7-3.8H60z"/>
</svg>
