<svg width="80" height="80" viewBox="0 0 80 80" fill="none" xmlns="http://www.w3.org/2000/svg">
<path d="M40 80C17.8824 80 0 61.9608 0 40C0 18.0392 17.8824 0 40 0C62.1176 0 80 17.8824 80 40C80 62.1176 61.9608 80 40 80ZM40 3.92157C20.0784 3.92157 3.92157 20.0784 3.92157 40C3.92157 59.9216 20.0784 75.9216 39.8431 75.9216C59.6078 75.9216 75.7647 59.7647 75.7647 40C75.7647 20.2353 59.7647 3.92157 40 3.92157Z" fill="url(#paint0_linear)"/>
<path d="M43.9214 21.9611V38.7454L35.9214 36.7062V21.9611C35.9214 20.8631 34.9802 19.9219 33.8822 19.9219H29.9606C28.8626 19.9219 27.9214 20.8631 27.9214 21.9611V36.8631C27.9214 40.4709 30.4312 43.765 34.039 44.5493L43.9214 47.0591V57.8827C43.9214 58.9807 44.8626 59.9219 45.9606 59.9219H49.8822C50.9802 59.9219 51.9214 58.9807 51.9214 57.8827V21.9611C51.9214 20.8631 50.9802 19.9219 49.8822 19.9219H45.9606C44.8626 19.9219 43.9214 20.8631 43.9214 21.9611Z" fill="url(#paint1_linear)"/>
<defs>
<linearGradient id="paint0_linear" x1="39.9674" y1="-12.9893" x2="39.9674" y2="94.4248" gradientUnits="userSpaceOnUse">
<stop stop-color="#6FC4FC"/>
<stop offset="1" stop-color="#4071FA"/>
</linearGradient>
<linearGradient id="paint1_linear" x1="39.9672" y1="18.8188" x2="39.9672" y2="55.7887" gradientUnits="userSpaceOnUse">
<stop stop-color="#98DDFD"/>
<stop offset="1" stop-color="#84ACFB"/>
</linearGradient>
</defs>
</svg>
