<?xml version="1.0" encoding="utf-8"?>
<!-- Generator: Adobe Illustrator 24.1.3, SVG Export Plug-In . SVG Version: 6.00 Build 0)  -->
<svg version="1.1" id="Слой_1" xmlns="http://www.w3.org/2000/svg" xmlns:xlink="http://www.w3.org/1999/xlink" x="0px" y="0px"
	 viewBox="0 0 97 97" style="enable-background:new 0 0 97 97;" xml:space="preserve">
<style type="text/css">
	.st0{fill:#57ACFF;}
	.st1{fill:#182F52;}
</style>
<path class="st0" d="M67.8,44.8H52.4V29.3c0-1.1-0.9-1.9-1.9-1.9h-3.9c-1.1,0-1.9,0.9-1.9,1.9v15.4H29.2c-1.1,0-1.9,0.9-1.9,1.9v3.9
	c0,1.1,0.9,1.9,1.9,1.9h15.4V68c0,1.1,0.9,1.9,1.9,1.9h3.9c1.1,0,1.9-0.9,1.9-1.9V52.5h15.4c1.1,0,1.9-0.9,1.9-1.9v-3.9
	C69.8,45.6,68.9,44.8,67.8,44.8z"/>
<path class="st1" d="M72.3,97H24.7C11.1,97,0,85.9,0,72.3V24.7C0,11.1,11.1,0,24.7,0h47.5C85.9,0,97,11.1,97,24.7v47.5
	C97,85.9,85.9,97,72.3,97z M24.7,3.8c-11.5,0-20.9,9.4-20.9,20.9v47.5c0,11.5,9.4,20.9,20.9,20.9h47.5c11.5,0,20.9-9.4,20.9-20.9
	V24.7c0-11.5-9.4-20.9-20.9-20.9H24.7z"/>
</svg>
