<?xml version="1.0" encoding="utf-8"?>
<!-- Generator: Adobe Illustrator 24.1.3, SVG Export Plug-In . SVG Version: 6.00 Build 0)  -->
<svg version="1.1" id="Слой_1" xmlns="http://www.w3.org/2000/svg" xmlns:xlink="http://www.w3.org/1999/xlink" x="0px" y="0px"
	 viewBox="0 0 100 100" style="enable-background:new 0 0 100 100;" xml:space="preserve">
<style type="text/css">
	.st0{fill:#182F52;}
	.st1{fill:#57ACFF;}
</style>
<g>
	<g>
		<path class="st0" d="M50.5,69.8c10.9,0,19.8-8.9,19.8-19.8s-8.9-19.8-19.8-19.8S30.7,39.1,30.7,50S39.6,69.8,50.5,69.8z
			 M50.5,33.8c9,0,16.2,7.3,16.2,16.2s-7.3,16.2-16.2,16.2S34.3,59,34.3,50S41.5,33.8,50.5,33.8z"/>
		<g id="XMLID_1_">
			<g>
				<path class="st1" d="M52.3,17.5l0-14.4l10,5.8c0.8,0.4,0.8,1.1,0.8,1.4c0,0.3-0.1,1-0.8,1.4L52.3,17.5z"/>
				<path class="st0" d="M3.6,50c0,4,3.2,7.2,7.2,7.2c4,0,7.2-3.2,7.2-7.2s-3.2-7.2-7.2-7.2C6.8,42.8,3.6,46,3.6,50z M50.5,0
					c1.1-0.6,2.5-0.6,3.6,0l10,5.8c1.6,1,2.6,2.6,2.6,4.5s-1,3.6-2.6,4.5l-10,5.8c-0.6,0.3-1.2,0.5-1.8,0.5c-0.6,0-1.2-0.2-1.8-0.5
					c-1.1-0.6-1.8-1.8-1.8-3v-5.4C32.4,13,18.5,24,14.1,39.7c4.4,1.4,7.6,5.5,7.6,10.3s-3.2,8.9-7.6,10.3C16.4,68.6,21.6,76,28.7,81
					l-2.1,3c-8-5.6-13.6-13.8-16.2-23.1C4.7,60.6,0,55.9,0,50s4.7-10.6,10.5-10.8C15.2,21.7,30.6,9.4,48.7,8.6V3
					C48.7,1.8,49.4,0.6,50.5,0z M52.3,3.1l0,14.4l10-5.8c0.8-0.4,0.8-1.1,0.8-1.4c0-0.3-0.1-1-0.8-1.4L52.3,3.1z"/>
				<circle class="st1" cx="10.8" cy="50" r="7.2"/>
			</g>
			<g>
			</g>
		</g>
		<g id="XMLID_2_">
			<g>
				<circle class="st1" cx="90.2" cy="50" r="7.2"/>
				<path class="st0" d="M83,50c0,4,3.2,7.2,7.2,7.2c4,0,7.2-3.2,7.2-7.2s-3.2-7.2-7.2-7.2C86.2,42.8,83,46,83,50z M38.7,91.1
					l10,5.8V82.4l-10,5.9c-0.8,0.4-0.8,1.1-0.8,1.4C37.9,90,38,90.6,38.7,91.1z M72.3,19l2.1-2.9c8,5.6,13.6,13.8,16.2,23.1
					c5.8,0.2,10.5,5,10.5,10.8s-4.7,10.6-10.5,10.8c-4.7,17.5-20.1,29.8-38.2,30.6V97c0,1.3-0.7,2.4-1.8,3c-0.6,0.3-1.2,0.5-1.8,0.5
					c-0.6,0-1.3-0.2-1.8-0.5l-10-5.8c-1.6-1-2.6-2.6-2.6-4.5s1-3.6,2.6-4.5l10-5.8c1.1-0.7,2.5-0.7,3.6,0c1.1,0.6,1.8,1.8,1.8,3v5.4
					C68.6,87,82.5,76,86.9,60.3c-4.4-1.4-7.6-5.5-7.6-10.3c0-4.8,3.2-8.9,7.6-10.3C84.6,31.4,79.4,24,72.3,19z"/>
				<path class="st1" d="M38.7,88.3l10-5.9v14.5l-10-5.8c-0.8-0.4-0.8-1.1-0.8-1.4C37.9,89.4,38,88.7,38.7,88.3z"/>
			</g>
			<g>
			</g>
		</g>
		<path class="st1" d="M50.5,42.8c-4,0-7.2,3.2-7.2,7.2s3.2,7.2,7.2,7.2s7.2-3.2,7.2-7.2S54.5,42.8,50.5,42.8z"/>
	</g>
</g>
</svg>
