<svg width="145" height="97" viewBox="0 0 145 97" fill="none" xmlns="http://www.w3.org/2000/svg">
<path d="M45.3852 67.2914V51.2579L45.3088 35.0341V18.5441C45.3088 17.9165 45.347 17.2889 45.4234 16.6802C42.711 14.7022 39.3682 13.542 35.758 13.542H18.6239C9.58885 13.542 2.27295 20.8265 2.27295 29.8038V90.6855C2.27295 92.9108 4.1067 94.7367 6.34158 94.7367H14.0395C16.2744 94.7367 18.1081 92.9108 18.1081 90.6855V70.0112H36.2546V90.6665C36.2546 92.8918 38.0884 94.7177 40.3615 94.7177H48.0403C50.2752 94.7177 52.1089 92.8918 52.1089 90.6665V80.434C48.0212 77.4859 45.3852 72.712 45.3852 67.2914ZM32.1478 54.1869H22.1959C19.961 54.1869 18.1272 52.361 18.1272 50.1357V33.4175C18.1272 31.1922 19.961 29.3663 22.1959 29.3663L32.0905 29.4043C34.3636 29.4043 36.1973 31.2302 36.1973 33.4555L36.2164 50.1167C36.2164 52.361 34.3827 54.1869 32.1478 54.1869Z" fill="url(#paint0_linear)"/>
<path d="M48.0213 97.0002H40.3425C36.8278 97.0002 33.9817 94.1663 33.9817 90.6857V72.1796H20.3814V90.6666C20.3814 94.1472 17.5352 96.9812 14.0396 96.9812H6.34172C2.84613 97.0002 0 94.1663 0 90.6857V29.8039C0 19.5904 8.34738 11.2788 18.624 11.2788H35.7581C39.7695 11.2788 43.5707 12.5151 46.7797 14.8545C47.4292 15.33 47.773 16.1288 47.6966 16.9276C47.6393 17.4602 47.6011 17.5172 47.6011 18.0498V67.672C47.6011 72.1986 49.7787 75.9455 53.4653 78.6082C54.0574 79.0267 54.4013 79.7114 54.4013 80.4341V90.6666C54.3822 94.1663 51.536 97.0002 48.0213 97.0002ZM18.1083 67.767H36.2548C37.4964 67.767 38.5279 68.7751 38.5279 70.0304V90.6857C38.5279 91.6747 39.3492 92.4925 40.3616 92.4925H48.0404C49.0337 92.4925 49.8551 91.6937 49.8551 90.6857V81.5372C45.6145 78.0376 43.1313 72.7882 43.1313 67.2916L43.0358 18.5443C43.0358 18.297 43.0358 18.0498 43.0549 17.8025C40.8582 16.4712 38.3559 15.7865 35.739 15.7865H18.624C10.8497 15.7865 4.52707 22.0629 4.52707 29.8039V90.6857C4.52707 91.6747 5.34844 92.4925 6.34172 92.4925H14.0396C15.0329 92.4925 15.8543 91.2372 15.8543 90.2292V69.9353C15.8543 69.3267 16.0644 68.8512 16.5038 68.4327C16.924 67.9953 17.497 67.767 18.1083 67.767Z" fill="url(#paint1_linear)"/>
<path d="M138.582 29.4235C140.874 29.4235 142.727 27.5976 142.727 25.3533V17.6884C142.727 15.444 140.874 13.6182 138.582 13.6182H109.509C100.34 13.6182 92.8909 20.9027 92.8909 29.8799V36.0803C97.8764 38.8572 101.945 45.2097 101.945 51.315L101.869 67.2535C101.869 73.5299 98.4685 79.0076 93.3302 81.7274C95.0875 88.8597 101.658 94.7368 109.49 94.7368H138.563C140.855 94.7368 142.727 92.9109 142.727 90.6666V83.0017C142.727 80.7574 140.874 78.9315 138.582 78.9315L108.745 79.0456V29.4235H138.582Z" fill="url(#paint2_linear)"/>
<path d="M138.582 97H109.509C100.99 97 93.2921 90.8377 91.1718 82.3169C91.0763 81.9365 91.0572 81.5371 91.1718 81.1377C91.3437 80.5291 91.7449 80.0155 92.2988 79.7302C96.8259 77.3338 99.7102 72.5789 99.7102 67.2724V51.2959C99.7102 46.2747 96.3101 40.5689 91.8022 38.0392C91.0954 37.6398 90.637 36.8791 90.637 36.0802V29.8798C90.637 19.6663 99.099 11.3547 109.509 11.3547H138.582C142.116 11.3547 145 14.1887 145 17.6692V25.3341C145 28.8147 142.116 31.5536 138.582 31.5536H111.018V76.6681H138.582C142.135 76.6681 145 79.502 145 82.9826V90.6475C145 94.1661 142.116 97 138.582 97ZM96.0236 82.7543C98.1057 88.4792 103.55 92.4924 109.509 92.4924H138.582C139.632 92.4924 140.473 91.6745 140.473 90.6855V82.9636C140.473 81.9745 139.632 81.1567 138.582 81.1567L108.803 81.1757C108.21 81.1757 107.637 80.9475 107.198 80.51C106.778 80.0916 106.529 79.502 106.529 78.9124L106.491 29.4234C106.491 28.1681 107.504 27.16 108.764 27.16H138.601C139.632 27.16 140.492 26.3422 140.492 25.3532L140.53 17.7263C140.53 16.7373 139.69 15.7483 138.639 15.7483L109.452 15.7863C101.544 15.7863 95.1449 22.1579 95.1449 29.8798V34.8249C100.455 38.3816 104.199 45.0955 104.199 51.3149L104.123 67.2534C104.142 73.5869 101.066 79.3498 96.0236 82.7543Z" fill="url(#paint3_linear)"/>
<path d="M85.8998 85.7214H61.7363C51.4788 85.7214 43.1123 77.4288 43.1123 67.2153L43.0359 18.5251C43.0359 8.33059 51.3833 0.0190196 61.6599 0.0190196L76.54 0C86.8167 0 95.1641 8.29255 95.1641 18.5061V34.8059C100.551 38.3625 104.218 44.8673 104.218 51.0676L104.142 67.1963C104.142 77.581 96.1191 85.7214 85.8998 85.7214ZM76.54 4.50765H61.7363C53.962 4.50765 47.5821 10.3086 47.5821 18.0306V67.5957C47.5821 75.3176 53.9811 81.2137 61.7363 81.2137H85.8998C93.5977 81.2137 99.6147 75.0514 99.6147 67.1773L99.6911 51.0486C99.6911 46.0655 96.3675 40.5878 91.7831 38.0202C91.0763 37.6208 90.6179 36.879 90.6179 36.0612V18.5061C90.6179 10.7841 84.2953 4.50765 76.54 4.50765Z" fill="url(#paint4_linear)"/>
<path d="M81.5637 69.859H65.7094C62.0036 69.859 58.9856 66.8539 58.9856 63.1641V56.3931C58.9856 52.7033 62.0036 49.6982 65.7094 49.6982H81.5637C85.2694 49.6982 88.2874 52.7033 88.2874 56.3931V63.1641C88.2874 66.8539 85.2694 69.859 81.5637 69.859ZM65.7094 54.0728C64.4295 54.0728 63.379 55.1188 63.379 56.3931V63.1641C63.379 64.4384 64.4295 65.4845 65.7094 65.4845H81.5637C82.8435 65.4845 83.894 64.4384 83.894 63.1641V56.3931C83.894 55.1188 82.8435 54.0728 81.5637 54.0728H65.7094Z" fill="url(#paint5_linear)"/>
<path d="M31.7086 56.3362H22.6544C18.9487 56.3362 15.9307 53.3311 15.9307 49.6413V33.8551C15.9307 30.1653 18.9487 27.1602 22.6544 27.1602H31.7086C35.4143 27.1602 38.4323 30.1653 38.4323 33.8551V49.6413C38.4514 53.3311 35.4334 56.3362 31.7086 56.3362ZM22.6544 31.5156C21.3746 31.5156 20.324 32.5617 20.324 33.836V49.6223C20.324 50.8966 21.3746 51.9427 22.6544 51.9427H31.7086C32.9884 51.9427 34.0389 50.8966 34.0389 49.6223V33.836C34.0389 32.5617 32.9884 31.5156 31.7086 31.5156H22.6544Z" fill="url(#paint6_linear)"/>
<path d="M72.4904 36.0231H65.7094C62.0036 36.0231 58.9856 33.018 58.9856 29.3282V22.5572C58.9856 18.8674 62.0036 15.8623 65.7094 15.8623H72.5095C76.2152 15.8623 79.2333 18.8674 79.2333 22.5572V29.3282C79.2333 33.018 76.2152 36.0231 72.4904 36.0231ZM65.7094 20.2368C64.4296 20.2368 63.379 21.2829 63.379 22.5572V29.3282C63.379 30.6025 64.4296 31.6486 65.7094 31.6486H72.5095C73.7893 31.6486 74.8399 30.6025 74.8399 29.3282V22.5572C74.8399 21.2829 73.7893 20.2368 72.5095 20.2368H65.7094Z" fill="url(#paint7_linear)"/>
<defs>
<linearGradient id="paint0_linear" x1="27.1864" y1="1.31524" x2="27.1864" y2="96.6233" gradientUnits="userSpaceOnUse">
<stop stop-color="#70DFFF"/>
<stop offset="1" stop-color="#70AFFF"/>
</linearGradient>
<linearGradient id="paint1_linear" x1="27.1865" y1="0.94089" x2="27.1865" y2="96.813" gradientUnits="userSpaceOnUse">
<stop stop-color="#00C6FF"/>
<stop offset="1" stop-color="#0072FF"/>
</linearGradient>
<linearGradient id="paint2_linear" x1="117.808" y1="1.22061" x2="117.808" y2="96.6234" gradientUnits="userSpaceOnUse">
<stop stop-color="#70DFFF"/>
<stop offset="1" stop-color="#70AFFF"/>
</linearGradient>
<linearGradient id="paint3_linear" x1="117.808" y1="0.751305" x2="117.808" y2="96.4677" gradientUnits="userSpaceOnUse">
<stop stop-color="#00C6FF"/>
<stop offset="1" stop-color="#0072FF"/>
</linearGradient>
<linearGradient id="paint4_linear" x1="73.6299" y1="1.12577" x2="73.6299" y2="96.1675" gradientUnits="userSpaceOnUse">
<stop stop-color="#70AFFF"/>
<stop offset="1" stop-color="#70AFFF"/>
</linearGradient>
<linearGradient id="paint5_linear" x1="58.973" y1="59.7794" x2="88.2866" y2="59.7794" gradientUnits="userSpaceOnUse">
<stop stop-color="#00C6FF"/>
<stop offset="1" stop-color="#0072FF"/>
</linearGradient>
<linearGradient id="paint6_linear" x1="15.9272" y1="41.7328" x2="38.4453" y2="41.7328" gradientUnits="userSpaceOnUse">
<stop stop-color="#00C6FF"/>
<stop offset="1" stop-color="#0072FF"/>
</linearGradient>
<linearGradient id="paint7_linear" x1="58.973" y1="25.9416" x2="79.2245" y2="25.9416" gradientUnits="userSpaceOnUse">
<stop stop-color="#00C6FF"/>
<stop offset="1" stop-color="#0072FF"/>
</linearGradient>
</defs>
</svg>
