<?xml version="1.0" encoding="utf-8"?>
<!-- Generator: Adobe Illustrator 24.1.3, SVG Export Plug-In . SVG Version: 6.00 Build 0)  -->
<svg version="1.1" id="Слой_1" xmlns="http://www.w3.org/2000/svg" xmlns:xlink="http://www.w3.org/1999/xlink" x="0px" y="0px"
	 viewBox="0 0 105 83" style="enable-background:new 0 0 105 83;" xml:space="preserve">
<style type="text/css">
	.st0{fill:#182F52;}
	.st1{fill:#57ACFF;}
</style>
<path class="st0" d="M95.6,83H9.4C4.2,83,0,78.8,0,73.6V9.4C0,4.2,4.2,0,9.4,0h86.3c5.2,0,9.4,4.2,9.4,9.4v64.1
	C105,78.8,100.8,83,95.6,83z M9.4,3.8c-3.1,0-5.6,2.5-5.6,5.7v64.1c0,3.1,2.5,5.7,5.6,5.7h86.3c3.1,0,5.6-2.5,5.6-5.7V9.4
	c0-3.1-2.5-5.7-5.6-5.7H9.4z"/>
<path class="st0" d="M94.7,75.4H10.3c-1.5,0-2.8-1.3-2.8-2.8V10.4c0-1.6,1.3-2.8,2.8-2.8h84.4c1.5,0,2.8,1.3,2.8,2.8v62.3
	C97.5,74.2,96.2,75.4,94.7,75.4z M11.3,71.7h82.5V11.3H11.3V71.7z"/>
<path class="st1" d="M52.5,56.6c-1.4,0-2.7-0.5-3.8-1.4L46.1,53c-0.3-0.3-0.8-0.5-1.2-0.5l-3.3-0.3c-2.9-0.2-5.2-2.5-5.4-5.4
	l-0.3-3.4c0-0.5-0.2-0.9-0.5-1.2l-2.2-2.6c-0.9-1.1-1.4-2.5-1.4-3.8c0-1.4,0.5-2.7,1.4-3.8l2.2-2.6c0.3-0.3,0.5-0.8,0.5-1.2l0.3-3.4
	c0.2-2.9,2.5-5.2,5.4-5.4l3.3-0.3c0.4,0,0.9-0.2,1.2-0.5l2.5-2.2c1.1-0.9,2.4-1.4,3.8-1.4c1.4,0,2.7,0.5,3.8,1.4l2.5,2.2
	c0.3,0.3,0.8,0.5,1.2,0.5l3.3,0.3c2.9,0.2,5.2,2.5,5.4,5.4l0.3,3.4c0,0.5,0.2,0.9,0.5,1.2l2.2,2.6c0.9,1.1,1.4,2.5,1.4,3.8
	c0,1.4-0.5,2.7-1.4,3.8l-2.2,2.6c-0.3,0.3-0.5,0.8-0.5,1.2l-0.3,3.4c-0.2,2.9-2.5,5.2-5.4,5.4l-3.3,0.3c-0.4,0-0.9,0.2-1.2,0.5
	l-2.5,2.2C55.2,56.1,53.9,56.6,52.5,56.6z M52.5,18.9c-0.5,0-1,0.2-1.4,0.5l-2.5,2.2c-1,0.8-2.1,1.3-3.3,1.4l-3.3,0.3
	c-1,0.1-1.9,0.9-1.9,2l-0.3,3.4c-0.1,1.3-0.6,2.4-1.4,3.4l-2.2,2.6c-0.7,0.8-0.7,2,0,2.8l2.2,2.6c0.8,1,1.3,2.1,1.4,3.4l0.3,3.4
	c0.1,1.1,0.9,1.9,1.9,2l3.3,0.3c1.2,0.1,2.4,0.6,3.3,1.4l2.5,2.2c0.8,0.7,2,0.7,2.8,0l2.5-2.2c0.9-0.8,2.1-1.3,3.3-1.4l3.3-0.3
	c1-0.1,1.9-0.9,1.9-2l0.3-3.4c0.1-1.3,0.6-2.4,1.4-3.4l2.2-2.6c0.7-0.8,0.7-2,0-2.8l-2.2-2.6c-0.8-1-1.3-2.1-1.4-3.4l-0.3-3.4
	c-0.1-1.1-0.9-1.9-1.9-2L59.8,23c-1.2-0.1-2.4-0.6-3.3-1.4l-2.5-2.2C53.5,19,53,18.9,52.5,18.9z"/>
<path class="st1" d="M39.4,62.8v-3.4c0-1.6-1.3-2.8-2.8-2.8h-3.4l7.4-7.5L39.2,49l-0.3-3.6l-10,10.1c-0.5,0.5-0.8,1.3-0.8,2
	c0,1.5,1.3,2.8,2.8,2.8h4.7v4.7c0,1.5,1.3,2.8,2.8,2.8h0c0.7,0,1.4-0.3,2-0.8l12.3-12.4l-2.9-2.5L39.4,62.8z"/>
<path class="st1" d="M76,55.5L66,45.5L65.7,49l-1.4,0.1l7.4,7.5h-3.3c-1.5,0-2.8,1.3-2.8,2.8v3.4L55.1,52.3l-2.9,2.5l12.3,12.4
	c0.5,0.5,1.2,0.8,2,0.8h0c1.5,0,2.8-1.3,2.8-2.8v-4.7h4.7c1.5,0,2.8-1.3,2.8-2.8C76.9,56.8,76.6,56.1,76,55.5z"/>
<path class="st1" d="M52.5,24.5c-6.2,0-11.3,5.1-11.3,11.3c0,6.2,5,11.3,11.3,11.3s11.3-5.1,11.3-11.3
	C63.8,29.6,58.7,24.5,52.5,24.5z"/>
</svg>
