<svg width="80" height="81" viewBox="0 0 80 81" fill="none" xmlns="http://www.w3.org/2000/svg">
<path d="M40 80.1094C17.8824 80.1094 0 62.0455 0 40.0547C0 18.0639 17.8824 0 40 0C62.1176 0 80 17.9068 80 40.0547C80 62.2026 61.9608 80.1094 40 80.1094ZM40 3.92693C20.0784 3.92693 3.92157 20.1059 3.92157 40.0547C3.92157 60.0035 20.0784 76.0254 39.8431 76.0254C59.6078 76.0254 75.7647 59.8464 75.7647 40.0547C75.7647 20.263 59.7647 3.92693 40 3.92693Z" fill="url(#paint0_linear)"/>
<path d="M43.9214 51.9931V19.9488C43.9214 18.8492 42.9802 17.9067 41.8821 17.9067H31.8429C30.7449 17.9067 29.8037 18.8492 29.8037 19.9488V23.8758C29.8037 24.9753 30.7449 25.9178 31.8429 25.9178H33.8821C34.9802 25.9178 35.9214 26.8603 35.9214 27.9599V51.9931C35.9214 53.0927 34.9802 54.0352 33.8821 54.0352H31.8429C30.7449 54.0352 29.8037 54.9776 29.8037 56.0772V60.0042C29.8037 61.1038 30.7449 62.0462 31.8429 62.0462H47.8429C48.941 62.0462 49.8821 61.1038 49.8821 60.0042V56.0772C49.8821 54.9776 48.941 54.0352 47.8429 54.0352H45.8037C44.8625 54.0352 43.9214 53.0927 43.9214 51.9931Z" fill="url(#paint1_linear)"/>
<defs>
<linearGradient id="paint0_linear" x1="39.9674" y1="-13.0071" x2="39.9674" y2="94.5539" gradientUnits="userSpaceOnUse">
<stop stop-color="#6FC4FC"/>
<stop offset="1" stop-color="#4071FA"/>
</linearGradient>
<linearGradient id="paint1_linear" x1="39.9672" y1="13.5072" x2="39.9672" y2="66.039" gradientUnits="userSpaceOnUse">
<stop stop-color="#98DDFD"/>
<stop offset="1" stop-color="#84ACFB"/>
</linearGradient>
</defs>
</svg>
