<svg width="100" height="100" viewBox="0 0 100 100" fill="none" xmlns="http://www.w3.org/2000/svg">
<path d="M36.5293 64.8427V35.1565C36.5293 31.9016 40.0979 29.7839 42.9999 31.2349L68.7254 46.078C71.9411 47.6859 71.9803 52.2937 68.7646 53.9212L42.9803 68.7643C40.0979 70.2153 36.5293 68.0976 36.5293 64.8427Z" fill="url(#paint0_linear)"/>
<path d="M50 0C22.4314 0 0 22.4314 0 50C0 77.5686 22.4314 100 50 100C77.5686 100 100 77.5686 100 50C100 22.4314 77.5686 0 50 0ZM50 96.1569C24.549 96.1569 3.84314 75.451 3.84314 50C3.84314 24.549 24.549 3.84314 50 3.84314C75.451 3.84314 96.1569 24.549 96.1569 50C96.1569 75.451 75.451 96.1569 50 96.1569Z" fill="url(#paint1_linear)"/>
<path d="M69.6861 44.4119L43.8626 29.5099C41.8822 28.5099 39.5488 28.6276 37.6273 29.804C35.7449 30.9609 34.6077 32.9609 34.6077 35.1374V64.8236C34.6077 67.0001 35.7253 69.0001 37.6273 70.1766C38.6665 70.804 39.8037 71.1374 40.9802 71.1374C41.9802 71.1374 42.9802 70.9021 43.941 70.4119L69.6273 55.6276C71.7449 54.5491 73.0783 52.4119 73.0783 50.0197C73.0783 47.6079 71.7449 45.4511 69.6861 44.4119ZM67.8037 52.255L42.1175 67.0393C41.3332 67.4315 40.4116 67.3727 39.6469 66.9021C39.2939 66.6864 38.4508 66.0393 38.4508 64.8236V35.157C38.4508 33.9609 39.2743 33.3138 39.6469 33.0981C40.0979 32.8236 40.5881 32.6864 41.0586 32.6864C41.4116 32.6864 41.7449 32.7648 42.039 32.9021L67.8626 47.804C68.7253 48.2354 69.2351 49.0785 69.2351 50.0393C69.2351 50.9805 68.7253 51.7844 67.8037 52.255Z" fill="url(#paint2_linear)"/>
<defs>
<linearGradient id="paint0_linear" x1="53.8452" y1="28.192" x2="53.8452" y2="68.2073" gradientUnits="userSpaceOnUse">
<stop stop-color="#70DFFF"/>
<stop offset="1" stop-color="#70AFFF"/>
</linearGradient>
<linearGradient id="paint1_linear" x1="50" y1="0.940392" x2="50" y2="98.8961" gradientUnits="userSpaceOnUse">
<stop stop-color="#00C6FF"/>
<stop offset="1" stop-color="#0072FF"/>
</linearGradient>
<linearGradient id="paint2_linear" x1="53.8459" y1="0.940504" x2="53.8459" y2="98.8962" gradientUnits="userSpaceOnUse">
<stop stop-color="#00C6FF"/>
<stop offset="1" stop-color="#0072FF"/>
</linearGradient>
</defs>
</svg>
