<svg width="105" height="83" viewBox="0 0 105 83" fill="none" xmlns="http://www.w3.org/2000/svg">
<path d="M95.6287 83H9.37126C4.20258 83 0 78.7686 0 73.5608V9.43922C0 4.23137 4.20258 0 9.37126 0H95.6287C100.797 0 105 4.23137 105 9.43922V73.5608C105 78.7686 100.797 83 95.6287 83ZM9.37126 3.77569C6.26361 3.77569 3.75173 6.31451 3.75173 9.43922V73.5608C3.75173 76.6855 6.27971 79.2243 9.37126 79.2243H95.6287C98.7364 79.2243 101.248 76.6855 101.248 73.5608V9.43922C101.248 6.31451 98.7203 3.77569 95.6287 3.77569H9.37126Z" fill="url(#paint0_linear)"/>
<path d="M94.6948 75.4485H10.3051C8.75935 75.4485 7.4873 74.1791 7.4873 72.6168V10.383C7.4873 8.82068 8.74325 7.55127 10.3051 7.55127H94.6787C96.2245 7.55127 97.4965 8.82068 97.4965 10.383V72.633C97.4965 74.1791 96.2406 75.4485 94.6948 75.4485ZM11.2551 71.6891H93.7609V11.3107H11.2551V71.6891Z" fill="url(#paint1_linear)"/>
<path d="M52.5083 56.5863C51.1557 56.5863 49.8031 56.1143 48.6921 55.1704L46.148 52.9896C45.8099 52.6967 45.3751 52.5176 44.9404 52.4851L41.6073 52.2247C38.709 51.9969 36.4547 49.7184 36.2132 46.8053L35.9395 43.4527C35.9073 42.9971 35.7301 42.5739 35.4403 42.2321L33.2666 39.677C32.3327 38.5704 31.8496 37.2033 31.8496 35.8525C31.8496 34.4855 32.3166 33.1347 33.2666 32.0118L35.4242 29.4567C35.714 29.1149 35.8912 28.6918 35.9234 28.2361L36.1971 24.8835C36.4225 21.9704 38.6929 19.692 41.5912 19.4641L44.9243 19.2037C45.359 19.1712 45.7938 18.9921 46.1319 18.6992L48.676 16.5184C49.7709 15.5745 51.1235 15.1025 52.4921 15.1025C53.8447 15.1025 55.1973 15.5745 56.3083 16.5184L58.8524 18.6992C59.1905 18.9921 59.6253 19.1712 60.06 19.2037L63.3931 19.4641C66.2753 19.692 68.5457 21.9704 68.7872 24.8835L69.0609 28.2361C69.0931 28.6918 69.2703 29.1149 69.5601 29.4567L71.7338 32.0118C72.6677 33.1184 73.1347 34.4855 73.1347 35.8363C73.1347 37.187 72.6677 38.5541 71.7177 39.677L69.5601 42.2321C69.2703 42.5739 69.0931 42.9971 69.0609 43.4527L68.7872 46.8053C68.5618 49.7184 66.2914 51.9969 63.3931 52.2247L60.06 52.4851C59.6253 52.5176 59.1905 52.6967 58.8524 52.9896L56.3083 55.1704C55.2134 56.1143 53.8608 56.5863 52.5083 56.5863ZM52.5083 18.862C52.0252 18.862 51.526 19.041 51.1396 19.3827L48.5955 21.5635C47.6455 22.3772 46.5023 22.8492 45.2624 22.9631L41.9294 23.2235C40.8827 23.3049 40.0615 24.1349 39.981 25.1927L39.7073 28.5453C39.6107 29.7984 39.1276 30.9539 38.3225 31.9141L36.1488 34.4692C35.4725 35.2667 35.4725 36.4384 36.1488 37.2359L38.3225 39.791C39.1276 40.7512 39.6107 41.9067 39.7073 43.1435L39.981 46.4961C40.0615 47.5539 40.8827 48.3676 41.9294 48.4653L45.2624 48.7257C46.5023 48.8233 47.6616 49.3116 48.6116 50.1253L51.1557 52.3061C51.9608 52.9896 53.1201 52.9896 53.9091 52.3061L56.4532 50.1253C57.4032 49.3116 58.5464 48.8396 59.7863 48.7257L63.1194 48.4653C64.166 48.3839 64.9872 47.5539 65.0677 46.4961L65.3414 43.1435C65.438 41.8904 65.9211 40.7349 66.7262 39.7747L68.8999 37.2196C69.5762 36.4221 69.5762 35.2504 68.8999 34.4529L66.7262 31.8978C65.9211 30.9376 65.438 29.7821 65.3414 28.5453L65.0677 25.1927C64.9872 24.1349 64.166 23.3212 63.1194 23.2235L59.7863 22.9631C58.5464 22.8655 57.3871 22.3772 56.4371 21.5635L53.893 19.3827C53.4744 19.041 52.9913 18.862 52.5083 18.862Z" fill="url(#paint2_linear)"/>
<path d="M39.3691 62.8037V59.4186C39.3691 57.8563 38.1131 56.5868 36.5512 56.5868H33.1859L40.5928 49.1331L39.2241 49.0192L38.9343 45.4551L28.919 55.529C28.3876 56.0661 28.0817 56.7821 28.0978 57.547C28.1139 59.0931 29.3698 60.3625 30.9156 60.3625H35.6012V65.0821C35.6012 66.6282 36.8572 67.8976 38.4029 67.9139H38.419C39.1597 67.9139 39.8682 67.621 40.3996 67.0839L52.6853 54.7316L49.8191 52.2741L39.3691 62.8037Z" fill="url(#paint3_linear)"/>
<path d="M76.049 55.529L66.0337 45.4551L65.7438 49.0192L64.3752 49.1331L71.782 56.5868H68.4328C66.8871 56.5868 65.615 57.8563 65.615 59.4186V62.8037L55.1488 52.2741L52.2827 54.7316L64.5684 67.0839C65.0998 67.621 65.8083 67.9139 66.5489 67.9139H66.565C68.1108 67.8976 69.3668 66.6282 69.3668 65.0821V60.3625H74.0685C75.6143 60.3625 76.8702 59.0931 76.8863 57.547C76.8863 56.7821 76.5965 56.0823 76.049 55.529Z" fill="url(#paint4_linear)"/>
<path d="M52.5081 24.5254C46.3089 24.5254 41.2529 29.603 41.2529 35.8362C41.2529 42.0693 46.2928 47.147 52.5081 47.147C58.7234 47.147 63.7633 42.0693 63.7633 35.8362C63.7633 29.603 58.7073 24.5254 52.5081 24.5254Z" fill="url(#paint5_linear)"/>
<defs>
<linearGradient id="paint0_linear" x1="52.501" y1="0.590439" x2="52.501" y2="83.0378" gradientUnits="userSpaceOnUse">
<stop stop-color="#00C6FF"/>
<stop offset="1" stop-color="#0072FF"/>
</linearGradient>
<linearGradient id="paint1_linear" x1="52.5009" y1="0.590336" x2="52.5009" y2="83.0377" gradientUnits="userSpaceOnUse">
<stop stop-color="#00C6FF"/>
<stop offset="1" stop-color="#0072FF"/>
</linearGradient>
<linearGradient id="paint2_linear" x1="52.5012" y1="0.605369" x2="52.5012" y2="83.0149" gradientUnits="userSpaceOnUse">
<stop stop-color="#00C6FF"/>
<stop offset="1" stop-color="#0072FF"/>
</linearGradient>
<linearGradient id="paint3_linear" x1="40.4174" y1="0.577628" x2="40.4174" y2="83.0249" gradientUnits="userSpaceOnUse">
<stop stop-color="#00C6FF"/>
<stop offset="1" stop-color="#0072FF"/>
</linearGradient>
<linearGradient id="paint4_linear" x1="64.5858" y1="0.566237" x2="64.5858" y2="83.0136" gradientUnits="userSpaceOnUse">
<stop stop-color="#00C6FF"/>
<stop offset="1" stop-color="#0072FF"/>
</linearGradient>
<linearGradient id="paint5_linear" x1="52.501" y1="24.5225" x2="52.501" y2="47.1588" gradientUnits="userSpaceOnUse">
<stop stop-color="#70DFFF"/>
<stop offset="1" stop-color="#70AFFF"/>
</linearGradient>
</defs>
</svg>
