<?xml version="1.0" encoding="utf-8"?>
<!-- Generator: Adobe Illustrator 24.1.3, SVG Export Plug-In . SVG Version: 6.00 Build 0)  -->
<svg version="1.1" id="Слой_1" xmlns="http://www.w3.org/2000/svg" xmlns:xlink="http://www.w3.org/1999/xlink" x="0px" y="0px"
	 viewBox="0 0 123 82.3" style="enable-background:new 0 0 123 82.3;" xml:space="preserve">
<style type="text/css">
	.st0{fill:#57ACFF;}
	.st1{fill:#182F52;}
</style>
<path class="st0" d="M38.5,57.1V43.5l-0.1-13.8v-14c0-0.5,0-1.1,0.1-1.6c-2.3-1.7-5.1-2.7-8.2-2.7H15.8c-7.7,0-13.9,6.2-13.9,13.8
	v51.6c0,1.9,1.6,3.4,3.5,3.4h6.5c1.9,0,3.5-1.5,3.5-3.4V59.4h15.4v17.5c0,1.9,1.6,3.4,3.5,3.4h6.5c1.9,0,3.5-1.5,3.5-3.4v-8.7
	C40.7,65.7,38.5,61.7,38.5,57.1z M27.3,46h-8.4c-1.9,0-3.5-1.5-3.5-3.4V28.3c0-1.9,1.6-3.4,3.5-3.4l8.4,0c1.9,0,3.5,1.5,3.5,3.4
	l0,14.1C30.7,44.4,29.2,46,27.3,46z"/>
<path class="st1" d="M40.7,82.3h-6.5c-3,0-5.4-2.4-5.4-5.4V61.2H17.3v15.7c0,3-2.4,5.4-5.4,5.4H5.4c-3,0-5.4-2.4-5.4-5.3V25.3
	C0,16.6,7.1,9.6,15.8,9.6h14.5c3.4,0,6.6,1,9.3,3c0.6,0.4,0.8,1.1,0.8,1.8c0,0.5-0.1,0.5-0.1,1v42.1c0,3.8,1.8,7,5,9.3
	c0.5,0.4,0.8,0.9,0.8,1.5v8.7C46.1,79.9,43.7,82.3,40.7,82.3z M15.4,57.5h15.4c1.1,0,1.9,0.9,1.9,1.9v17.5c0,0.8,0.7,1.5,1.6,1.5
	h6.5c0.8,0,1.5-0.7,1.5-1.5v-7.8c-3.6-3-5.7-7.4-5.7-12.1l-0.1-41.4c0-0.2,0-0.4,0-0.6c-1.9-1.1-4-1.7-6.2-1.7H15.8
	c-6.6,0-12,5.3-12,11.9v51.6c0,0.8,0.7,1.5,1.5,1.5h6.5c0.8,0,1.5-1.1,1.5-1.9V59.3c0-0.5,0.2-0.9,0.6-1.3
	C14.4,57.7,14.8,57.5,15.4,57.5z"/>
<path class="st0" d="M117.6,25c1.9,0,3.5-1.5,3.5-3.5V15c0-1.9-1.6-3.5-3.5-3.5H92.9c-7.8,0-14.1,6.2-14.1,13.8v5.3
	c4.2,2.4,7.7,7.7,7.7,12.9L86.4,57c0,5.3-2.9,10-7.2,12.3c1.5,6.1,7.1,11,13.7,11h24.7c1.9,0,3.5-1.5,3.5-3.5v-6.5
	c0-1.9-1.6-3.5-3.5-3.5l-25.3,0.1V25H117.6z"/>
<path class="st1" d="M117.6,82.3H92.9c-7.2,0-13.8-5.2-15.6-12.5c-0.1-0.3-0.1-0.7,0-1c0.1-0.5,0.5-1,1-1.2c3.8-2,6.3-6.1,6.3-10.6
	V43.5c0-4.3-2.9-9.1-6.7-11.2c-0.6-0.3-1-1-1-1.7v-5.3c0-8.7,7.2-15.7,16-15.7h24.7c3,0,5.4,2.4,5.4,5.4v6.5c0,3-2.4,5.3-5.4,5.3
	H94.2V65h23.4c3,0,5.4,2.4,5.4,5.4v6.5C123,79.9,120.6,82.3,117.6,82.3z M81.5,70.2c1.8,4.9,6.4,8.3,11.4,8.3h24.7
	c0.9,0,1.6-0.7,1.6-1.5v-6.6c0-0.8-0.7-1.5-1.6-1.5l-25.3,0c-0.5,0-1-0.2-1.4-0.6c-0.4-0.4-0.6-0.9-0.6-1.4l0-42
	c0-1.1,0.9-1.9,1.9-1.9h25.3c0.9,0,1.6-0.7,1.6-1.5l0-6.5c0-0.8-0.7-1.7-1.6-1.7l-24.8,0c-6.7,0-12.1,5.4-12.1,12v4.2
	c4.5,3,7.7,8.7,7.7,14L88.3,57C88.3,62.4,85.7,67.3,81.5,70.2z"/>
<path class="st1" d="M72.9,72.7H52.4c-8.7,0-15.8-7-15.8-15.7l-0.1-41.3C36.5,7.1,43.6,0,52.3,0l12.6,0c8.7,0,15.8,7,15.8,15.7v13.8
	c4.6,3,7.7,8.5,7.7,13.8L88.3,57C88.3,65.8,81.5,72.7,72.9,72.7z M64.9,3.8H52.4c-6.6,0-12,4.9-12,11.5v42c0,6.6,5.4,11.6,12,11.6
	h20.5c6.5,0,11.6-5.2,11.6-11.9l0.1-13.7c0-4.2-2.8-8.9-6.7-11.1c-0.6-0.3-1-1-1-1.7V15.7C76.9,9.1,71.5,3.8,64.9,3.8z"/>
<path class="st1" d="M69.2,59.3H55.7c-3.1,0-5.7-2.5-5.7-5.7v-5.7c0-3.1,2.6-5.7,5.7-5.7h13.4c3.1,0,5.7,2.5,5.7,5.7v5.7
	C74.9,56.7,72.3,59.3,69.2,59.3z M55.7,45.9c-1.1,0-2,0.9-2,2v5.7c0,1.1,0.9,2,2,2h13.4c1.1,0,2-0.9,2-2v-5.7c0-1.1-0.9-2-2-2H55.7z
	"/>
<path class="st1" d="M26.9,47.8h-7.7c-3.1,0-5.7-2.5-5.7-5.7V28.7c0-3.1,2.6-5.7,5.7-5.7h7.7c3.1,0,5.7,2.5,5.7,5.7v13.4
	C32.6,45.2,30.1,47.8,26.9,47.8z M19.2,26.7c-1.1,0-2,0.9-2,2v13.4c0,1.1,0.9,2,2,2h7.7c1.1,0,2-0.9,2-2V28.7c0-1.1-0.9-2-2-2H19.2z
	"/>
<path class="st1" d="M61.5,30.6h-5.8c-3.1,0-5.7-2.5-5.7-5.7v-5.7c0-3.1,2.6-5.7,5.7-5.7h5.8c3.1,0,5.7,2.5,5.7,5.7v5.7
	C67.2,28,64.7,30.6,61.5,30.6z M55.7,17.2c-1.1,0-2,0.9-2,2v5.7c0,1.1,0.9,2,2,2h5.8c1.1,0,2-0.9,2-2v-5.7c0-1.1-0.9-2-2-2H55.7z"/>
</svg>
