<?xml version="1.0" encoding="utf-8"?>
<!-- Generator: Adobe Illustrator 24.1.3, SVG Export Plug-In . SVG Version: 6.00 Build 0)  -->
<svg version="1.1" id="Слой_1" xmlns="http://www.w3.org/2000/svg" xmlns:xlink="http://www.w3.org/1999/xlink" x="0px" y="0px"
	 viewBox="0 0 100 100" style="enable-background:new 0 0 100 100;" xml:space="preserve">
<style type="text/css">
	.st0{fill:#57ACFF;}
	.st1{fill:#182F52;}
</style>
<path class="st0" d="M75,9.6c0-0.2,0.2-0.6,0.7-0.7l18.8-5c0.1,0,0.2,0,0.3,0c0.5,0,0.8,0.3,0.9,0.4c0.2,0.2,0.5,0.6,0.3,1.2
	l-5,18.8c-0.1,0.5-0.5,0.6-0.7,0.7c-0.2,0-0.6,0.1-0.9-0.3L75.3,10.5C74.9,10.2,75,9.8,75,9.6z"/>
<path class="st0" d="M25,90.4c0,0.2-0.2,0.6-0.7,0.7l-18.8,5c-0.6,0.2-1.1-0.2-1.2-0.3c-0.2-0.2-0.5-0.6-0.3-1.2l5-18.8
	c0.1-0.5,0.5-0.6,0.7-0.7c0.1,0,0.2,0,0.3,0c0.2,0,0.5,0.1,0.7,0.3l14.2,14.2C25.1,89.8,25,90.2,25,90.4z"/>
<path class="st0" d="M95.8,95.8c-0.2,0.2-0.6,0.5-1.2,0.3l-18.8-5c-0.5-0.1-0.6-0.5-0.7-0.7c0-0.2-0.1-0.6,0.3-0.9l14.2-14.2
	c0.4-0.4,0.8-0.3,0.9-0.3c0.2,0,0.6,0.2,0.7,0.7l5,18.8C96.3,95.2,95.9,95.6,95.8,95.8z"/>
<path class="st0" d="M10.5,24.7C10.2,25.1,9.8,25,9.6,25S9,24.8,8.9,24.3l-5-18.8C3.7,4.8,4.1,4.4,4.2,4.2c0.1-0.1,0.4-0.4,0.9-0.4
	c0.1,0,0.2,0,0.3,0l18.8,5c0.5,0.1,0.6,0.5,0.7,0.7c0,0.2,0.1,0.6-0.3,0.9L10.5,24.7z"/>
<path class="st0" d="M50,42.3c-4.3,0-7.7,3.5-7.7,7.7s3.5,7.7,7.7,7.7c4.2,0,7.7-3.5,7.7-7.7S54.3,42.3,50,42.3z"/>
<path class="st1" d="M68.7,34.1L81,21.7l5.7,5.7c0.9,0.9,2.1,1.4,3.4,1.4c0.4,0,0.8-0.1,1.3-0.2c1.7-0.5,3-1.7,3.4-3.4l5-18.8
	c0.5-1.8,0-3.6-1.3-4.9c-1.3-1.3-3.2-1.8-4.9-1.3l-18.8,5c-1.7,0.5-3,1.7-3.4,3.4c-0.5,1.7,0,3.4,1.3,4.7l5.7,5.7L66,31.4L68.7,34.1
	z M75,9.6c0-0.2,0.2-0.6,0.7-0.7l18.8-5c0.1,0,0.2,0,0.3,0c0.5,0,0.8,0.3,0.9,0.4c0.2,0.2,0.5,0.6,0.3,1.2l-5,18.8
	c-0.1,0.5-0.5,0.6-0.7,0.7c-0.2,0-0.6,0.1-0.9-0.3L75.3,10.5C74.9,10.2,75,9.8,75,9.6z M31.3,65.9L19,78.3l-5.7-5.7
	c-1.2-1.2-3-1.7-4.7-1.3c-1.7,0.5-3,1.7-3.4,3.4l-5,18.8c-0.5,1.8,0,3.6,1.3,4.9c1,1,2.3,1.5,3.6,1.5c0.5,0,0.9-0.1,1.3-0.2l18.8-5
	c1.7-0.5,3-1.7,3.4-3.4c0.5-1.7,0-3.4-1.3-4.7L21.7,81L34,68.7L31.3,65.9z M25,90.4c0,0.2-0.2,0.6-0.7,0.7l-18.8,5
	c-0.6,0.2-1.1-0.2-1.2-0.3c-0.2-0.2-0.5-0.6-0.3-1.2l5-18.8c0.1-0.5,0.5-0.6,0.7-0.7c0.1,0,0.2,0,0.3,0c0.2,0,0.5,0.1,0.7,0.3
	l14.2,14.2C25.1,89.8,25,90.2,25,90.4z M94.8,74.7c-0.5-1.7-1.7-3-3.4-3.4c-1.7-0.5-3.4,0-4.7,1.3L81,78.3L68.7,66l-2.7,2.7L78.3,81
	l-5.7,5.7c-1.2,1.2-1.7,3-1.3,4.7c0.5,1.7,1.7,3,3.4,3.4l18.8,5c0.5,0.1,0.9,0.1,1.4,0.1c1.3,0,2.6-0.5,3.6-1.5
	c1.3-1.3,1.8-3.2,1.3-4.9L94.8,74.7z M95.8,95.8c-0.2,0.2-0.6,0.5-1.2,0.3l-18.8-5c-0.5-0.1-0.6-0.5-0.7-0.7c0-0.2-0.1-0.6,0.3-0.9
	l14.2-14.2c0.4-0.4,0.8-0.3,0.9-0.3c0.2,0,0.6,0.2,0.7,0.7l5,18.8C96.3,95.2,95.9,95.6,95.8,95.8z M27.4,13.3c1.2-1.2,1.7-3,1.3-4.7
	c-0.5-1.7-1.7-3-3.4-3.4l-18.8-5c-1.8-0.5-3.6,0-4.9,1.3C0.2,2.8-0.3,4.6,0.2,6.4l5,18.8c0.5,1.7,1.7,3,3.4,3.4
	c0.4,0.1,0.8,0.2,1.3,0.2c1.3,0,2.5-0.5,3.4-1.4l5.7-5.7L31.3,34l2.7-2.7L21.7,19L27.4,13.3z M10.5,24.7C10.2,25.1,9.8,25,9.6,25
	c-0.2,0-0.6-0.2-0.7-0.7l-5-18.8C3.7,4.8,4.1,4.4,4.2,4.2c0.1-0.1,0.4-0.4,0.9-0.4c0.1,0,0.2,0,0.3,0l18.8,5
	c0.5,0.1,0.6,0.5,0.7,0.7c0,0.2,0.1,0.6-0.3,0.9L10.5,24.7z M62.7,34.6l2.7,2.7l-2.7,2.7l-2.7-2.7L62.7,34.6z M37.3,65.4l-2.7-2.7
	l2.7-2.7l2.7,2.7L37.3,65.4z M65.4,62.7l-2.7,2.7l-2.7-2.7l2.7-2.7L65.4,62.7z M34.6,37.3l2.7-2.7l2.7,2.7l-2.7,2.7L34.6,37.3z"/>
</svg>
