<svg width="100" height="100" viewBox="0 0 100 100" fill="none" xmlns="http://www.w3.org/2000/svg">
<path d="M75.0392 9.60789C75.0784 9.45103 75.2353 9.03926 75.7255 8.92162L94.549 3.90201C94.6667 3.86279 94.7843 3.86279 94.8824 3.86279C95.3333 3.86279 95.6471 4.1177 95.7647 4.23534C95.9216 4.3922 96.2549 4.82358 96.098 5.45103L91.0784 24.2746C90.9412 24.7648 90.549 24.9216 90.3922 24.9608C90.2353 25 89.8039 25.0589 89.451 24.7059L75.2941 10.5491C74.9216 10.1961 75 9.76475 75.0392 9.60789Z" fill="url(#paint0_linear)"/>
<path d="M24.9606 90.3924C24.9214 90.5493 24.7645 90.961 24.2743 91.0787L5.45081 96.0983C4.82336 96.2748 4.39199 95.9218 4.23513 95.765C4.07827 95.6081 3.74493 95.1767 3.90179 94.5493L8.9214 75.7257C9.05866 75.2355 9.45082 75.0787 9.60768 75.0395C9.6665 75.0199 9.76454 75.0002 9.88219 75.0002C10.0783 75.0002 10.3332 75.0591 10.5685 75.2944L24.7253 89.4512C25.0783 89.8042 24.9998 90.2355 24.9606 90.3924Z" fill="url(#paint1_linear)"/>
<path d="M95.7842 95.7844C95.6273 95.9413 95.196 96.2942 94.5685 96.1178L75.745 91.0982C75.2548 90.9609 75.0979 90.5687 75.0587 90.4119C75.0195 90.255 74.9607 89.8236 75.3136 89.4707L89.4705 75.3138C89.8234 74.9609 90.2548 75.0197 90.4116 75.0589C90.5685 75.0982 90.9803 75.255 91.0979 75.7452L96.1175 94.5687C96.2744 95.1962 95.9411 95.6276 95.7842 95.7844Z" fill="url(#paint2_linear)"/>
<path d="M10.5489 24.706C10.196 25.0589 9.76463 25.0001 9.60777 24.9609C9.45091 24.9217 9.03914 24.7648 8.9215 24.2746L3.90189 5.4511C3.72542 4.80405 4.07836 4.37267 4.21561 4.21581C4.35287 4.09816 4.64699 3.84326 5.09797 3.84326C5.19601 3.84326 5.31365 3.86287 5.4313 3.88248L24.2548 8.90208C24.745 9.03934 24.9019 9.4315 24.9411 9.58836C24.9803 9.74522 25.0391 10.1766 24.6862 10.5295L10.5489 24.706Z" fill="url(#paint3_linear)"/>
<path d="M49.9998 42.3137C45.7448 42.3137 42.3135 45.7647 42.3135 50C42.3135 54.2353 45.7645 57.6863 49.9998 57.6863C54.235 57.6863 57.686 54.2353 57.686 50C57.686 45.7647 54.2547 42.3137 49.9998 42.3137Z" fill="url(#paint4_linear)"/>
<path d="M68.6668 34.0592L81.0002 21.7259L86.7257 27.4514C87.6472 28.373 88.8629 28.8632 90.1178 28.8632C90.5492 28.8632 90.961 28.8043 91.3923 28.6867C93.0786 28.2357 94.3531 26.9612 94.8041 25.2749L99.8237 6.4514C100.294 4.66709 99.8041 2.82395 98.4904 1.51023C97.1767 0.196501 95.3335 -0.293695 93.5688 0.196501L74.7453 5.21611C73.059 5.66709 71.7845 6.9416 71.3335 8.62787C70.8825 10.3141 71.3531 12.0592 72.5884 13.2945L78.3139 19.02L65.9806 31.3534L68.6668 34.0592ZM75.0394 9.60827C75.0786 9.4514 75.2355 9.03964 75.7257 8.92199L94.5492 3.90238C94.6668 3.86317 94.7845 3.86317 94.8825 3.86317C95.3335 3.86317 95.6472 4.11807 95.7649 4.23572C95.9218 4.39258 96.2551 4.82395 96.0982 5.4514L91.0786 24.2749C90.9414 24.7651 90.5492 24.922 90.3923 24.9612C90.2355 25.0004 89.8041 25.0592 89.4512 24.7063L75.2943 10.5494C74.9218 10.1965 75.0002 9.76513 75.0394 9.60827ZM31.3335 65.9416L19.0002 78.2749L13.2747 72.5494C12.0394 71.3141 10.2943 70.8436 8.60802 71.2945C6.92175 71.7455 5.64724 73.02 5.19626 74.7063L0.176649 93.5298C-0.293939 95.3141 0.196257 97.1573 1.50998 98.471C2.49037 99.471 3.76488 100 5.09822 100C5.5492 100 6.00018 99.9416 6.43155 99.824L25.2551 94.8043C26.9414 94.3534 28.2159 93.0788 28.6668 91.3926C29.1178 89.7063 28.6472 87.9612 27.4119 86.7259L21.6865 81.0004L34.0198 68.6671L31.3335 65.9416ZM24.961 90.3926C24.9217 90.5494 24.7649 90.9612 24.2747 91.0788L5.45116 96.0985C4.82371 96.2749 4.39234 95.922 4.23547 95.7651C4.07861 95.6083 3.74528 95.1769 3.90214 94.5494L8.92175 75.7259C9.059 75.2357 9.45116 75.0788 9.60802 75.0396C9.66685 75.02 9.76488 75.0004 9.88253 75.0004C10.0786 75.0004 10.3335 75.0592 10.5688 75.2945L24.7257 89.4514C25.0786 89.8043 25.0002 90.2357 24.961 90.3926ZM94.8041 74.7455C94.3531 73.0592 93.0786 71.7847 91.3923 71.3338C89.7061 70.8828 87.961 71.3338 86.7257 72.5887L81.0002 78.3141L68.6668 65.9808L65.9414 68.7063L78.2747 81.0396L72.5492 86.7651C71.3139 88.0004 70.8433 89.7455 71.2943 91.4318C71.7453 93.1181 73.0198 94.3926 74.7061 94.8436L93.5296 99.8632C94.0002 99.9416 94.4512 100 94.9021 100C96.2355 100 97.51 99.471 98.4904 98.4906C99.8041 97.1769 100.294 95.3337 99.8237 93.5494L94.8041 74.7455ZM95.7845 95.7847C95.6276 95.9416 95.1963 96.2945 94.5688 96.1181L75.7453 91.0985C75.2551 90.9612 75.0982 90.569 75.059 90.4122C75.0198 90.2553 74.961 89.824 75.3139 89.471L89.4708 75.3141C89.8237 74.9612 90.2551 75.02 90.4119 75.0592C90.5688 75.0985 90.9806 75.2553 91.0982 75.7455L96.1178 94.569C96.2747 95.1965 95.9414 95.6279 95.7845 95.7847ZM27.4316 13.2749C28.6668 12.0396 29.1374 10.2945 28.6865 8.60827C28.2355 6.92199 26.961 5.64748 25.2747 5.1965L6.45116 0.176893C4.64724 -0.293695 2.8041 0.196501 1.50998 1.51023C0.196257 2.80434 -0.293939 4.64748 0.176649 6.4318L5.19626 25.2553C5.64724 26.9416 6.92175 28.2161 8.60802 28.6671C9.03939 28.7847 9.45116 28.8436 9.88253 28.8436C11.1374 28.8436 12.3531 28.3534 13.2747 27.4318L19.0002 21.7063L31.3335 34.0396L34.059 31.3141L21.7257 18.9808L27.4316 13.2749ZM10.5492 24.7063C10.1963 25.0592 9.76488 25.0004 9.60802 24.9612C9.45116 24.922 9.0394 24.7651 8.92175 24.2749L3.90214 5.4514C3.72567 4.80434 4.07861 4.37297 4.21587 4.21611C4.35312 4.09846 4.64724 3.84356 5.09822 3.84356C5.19626 3.84356 5.3139 3.86317 5.43155 3.88278L24.2551 8.90238C24.7453 9.03964 24.9021 9.4318 24.9414 9.58866C24.9806 9.74552 25.0394 10.1769 24.6865 10.5298L10.5492 24.7063ZM62.6668 34.6083L65.3923 37.3338L62.6668 40.0592L59.9414 37.3338L62.6668 34.6083ZM37.3335 65.3926L34.608 62.6671L37.3335 59.9416L40.059 62.6671L37.3335 65.3926ZM65.3923 62.6671L62.6668 65.3926L59.9414 62.6671L62.6668 59.9416L65.3923 62.6671ZM34.608 37.3338L37.3335 34.6083L40.059 37.3338L37.3335 40.0592L34.608 37.3338Z" fill="url(#paint5_linear)"/>
<defs>
<linearGradient id="paint0_linear" x1="85.5772" y1="3.84848" x2="85.5772" y2="25.1765" gradientUnits="userSpaceOnUse">
<stop stop-color="#70DFFF"/>
<stop offset="1" stop-color="#70AFFF"/>
</linearGradient>
<linearGradient id="paint1_linear" x1="14.4226" y1="74.9997" x2="14.4226" y2="96.3297" gradientUnits="userSpaceOnUse">
<stop stop-color="#70DFFF"/>
<stop offset="1" stop-color="#70AFFF"/>
</linearGradient>
<linearGradient id="paint2_linear" x1="85.5762" y1="75.0017" x2="85.5762" y2="96.3315" gradientUnits="userSpaceOnUse">
<stop stop-color="#70DFFF"/>
<stop offset="1" stop-color="#70AFFF"/>
</linearGradient>
<linearGradient id="paint3_linear" x1="14.4237" y1="3.84856" x2="14.4237" y2="25.1766" gradientUnits="userSpaceOnUse">
<stop stop-color="#70DFFF"/>
<stop offset="1" stop-color="#70AFFF"/>
</linearGradient>
<linearGradient id="paint4_linear" x1="49.9998" y1="42.4237" x2="49.9998" y2="57.602" gradientUnits="userSpaceOnUse">
<stop stop-color="#70DFFF"/>
<stop offset="1" stop-color="#70AFFF"/>
</linearGradient>
<linearGradient id="paint5_linear" x1="50" y1="0.000422478" x2="50" y2="100.833" gradientUnits="userSpaceOnUse">
<stop stop-color="#00C6FF"/>
<stop offset="1" stop-color="#0072FF"/>
</linearGradient>
</defs>
</svg>
