<svg width="28" height="18" viewBox="0 0 28 18" fill="none" xmlns="http://www.w3.org/2000/svg">
<path d="M27.9034 1.52648C27.9559 1.35399 27.9811 1.19407 27.9742 1.05128C27.9571 0.637765 27.6726 0.337341 27.0033 0.337341H24.0127C23.2576 0.337341 22.9092 0.794261 22.7059 1.25233C22.7059 1.25233 20.8417 5.08933 18.693 7.61953C17.9962 8.35175 17.6421 8.33347 17.2651 8.33347C17.0629 8.33347 16.5523 8.08902 16.5523 7.41848V1.49564C16.5523 0.702879 16.3547 0.337341 15.7162 0.337341H10.4056C9.94066 0.337341 9.69849 0.702879 9.69849 1.06956C9.69849 1.83147 10.7243 2.01425 10.8408 4.14921V8.28778C10.8408 9.29301 10.666 9.47578 10.2891 9.47578C9.27241 9.47578 7.2711 6.04887 5.93117 1.55733C5.64103 0.673182 5.35088 0.337344 4.59582 0.337344H1.57671C0.705134 0.337344 0.560059 0.764567 0.560059 1.22149C0.560059 2.04509 1.24544 6.49779 4.98649 11.6176C7.69946 15.3301 11.2737 17.4719 14.4379 17.4719C16.3547 17.4719 16.5512 16.9841 16.5512 16.2222V12.8273C16.5523 11.9123 16.7614 11.7604 17.3713 11.7604C17.8066 11.7604 18.6941 12.046 20.4076 14.045C22.3838 16.3502 22.7425 17.4719 23.8756 17.4719H26.8662C27.5607 17.4719 27.9594 17.1806 27.9754 16.6152C27.9788 16.4712 27.9582 16.3102 27.9114 16.1308C27.6898 15.4729 26.6731 13.8645 25.4052 12.3315C24.7027 11.4828 24.0093 10.6421 23.6906 10.1852C23.477 9.88701 23.3959 9.67683 23.4061 9.47578C23.4164 9.26445 23.5261 9.06341 23.6906 8.7824C23.6609 8.7824 27.5264 3.35531 27.9034 1.52649V1.52648Z" fill="white"/>
</svg>
