<svg width="29" height="25" viewBox="0 0 29 25" fill="none" xmlns="http://www.w3.org/2000/svg">
<path d="M28.2388 1.17908L23.822 23.73C23.822 23.73 23.6321 24.7605 22.354 24.7605C21.6749 24.7605 21.3247 24.4375 21.3247 24.4375L11.7577 16.4988L7.07679 14.1394L1.06942 12.5418C1.06942 12.5418 0 12.2329 0 11.3486C0 10.6117 1.10007 10.2603 1.10007 10.2603L26.2332 0.275907C26.232 0.274729 27.0007 -0.00117421 27.5608 3.76133e-06C27.9051 3.76133e-06 28.2977 0.147388 28.2977 0.58954C28.2977 0.884307 28.2388 1.17908 28.2388 1.17908H28.2388Z" fill="white"/>
<path d="M15.3278 19.4606L11.2883 23.4388C11.2883 23.4388 11.1127 23.5744 10.878 23.5803C10.7967 23.5827 10.7094 23.5697 10.6198 23.5296L11.7564 16.4965L15.3278 19.4606Z" fill="#B0BEC5"/>
<path d="M23.4599 4.9474C23.2607 4.68801 22.8928 4.64084 22.6334 4.83775L7.07437 14.1489C7.07437 14.1489 9.5575 21.096 9.93598 22.2986C10.3156 23.5025 10.6198 23.5308 10.6198 23.5308L11.7565 16.4976L23.3491 5.77275C23.6085 5.57585 23.6568 5.2068 23.4599 4.9474H23.4599Z" fill="#CFD8DC"/>
</svg>
