<?xml version="1.0" encoding="utf-8"?>
<!-- Generator: Adobe Illustrator 24.1.3, SVG Export Plug-In . SVG Version: 6.00 Build 0)  -->
<svg version="1.1" id="Слой_1" xmlns="http://www.w3.org/2000/svg" xmlns:xlink="http://www.w3.org/1999/xlink" x="0px" y="0px"
	 viewBox="0 0 760.5 143.5" style="enable-background:new 0 0 760.5 143.5;" xml:space="preserve">
<style type="text/css">
	.st0{fill:#FFFFFF;}
	.st1{enable-background:new    ;}
	.st2{fill:#FFFFFF;stroke:#57ACFF;stroke-miterlimit:10;}
</style>
<g id="Слой_2_1_">
	<g id="Слой_1-2">
		<path class="st0" d="M57.2,0C25.6,0-0.1,25.7,0,57.4c0,18.1,8.6,35,23,45.9c5.7-10.6,17.5-15.9,27.5-22.2
			c-13.1-3.7-20.7-17.4-17-30.5s17.4-20.7,30.5-17C74.7,36.6,82,46.3,82,57.3c0,0.3,0,0.6,0,0.9l0,0v33.3c0,20.1,9.9,36.3,26.5,47.7
			l6.1,4.2V57.8C114.7,26.2,88.8,0,57.2,0z"/>
		<path class="st0" d="M81,80.3c-20.6-0.1-22.4,1.2-35.9-1.4c-10.6-2.1-25.3-15.6-23-38C25.7,6.1,55.1,0,55.1,0s-21-1.1-39.2,17.9
			C4.5,29.8-0.1,41.5,0,57.3C0.2,75.7,8.6,88,13.8,94.7c5,5.9,11.2,10.7,18.1,14c12.7,8.2,53.3,4.9,90.7,4.9h5.1V80.1h-6
			C111.9,80.6,97.9,80.4,81,80.3z"/>
		<polyline class="st0" points="126,70.8 126,122.1 165.2,96.6 		"/>
		<path class="st0" d="M587.1,65.4H572v66.2h-17.5V65.4h-9.7V57l9.7-4.7V33.4c0-7.3,1.8-12.7,5.4-16c3.6-3.3,9.3-5,17.3-5.1
			c5.5-0.1,11,0.8,16.1,2.7l-4.5,12.9c-3.1-1.1-6.4-1.6-9.8-1.7c-2.5,0-4.3,0.7-5.4,2.2c-1.1,1.7-1.7,3.6-1.6,5.7v18.2h15.1V65.4z"
			/>
		<g class="st1">
			<path class="st0" d="M232.8,105.3l-3.4-8.9h-0.5c-3,3.8-6.1,6.4-9.2,7.8c-3.2,1.5-7.3,2.2-12.4,2.2c-6.3,0-11.2-1.8-14.8-5.4
				c-3.6-3.6-5.4-8.7-5.4-15.3c0-6.9,2.4-12,7.3-15.3c4.8-3.3,12.1-5.1,21.9-5.5l11.3-0.3v-2.9c0-6.6-3.4-9.9-10.2-9.9
				c-5.2,0-11.3,1.6-18.4,4.7l-5.9-12c7.5-3.9,15.8-5.9,25-5.9c8.8,0,15.5,1.9,20.1,5.7c4.7,3.8,7,9.6,7,17.4v43.5H232.8z
				 M227.6,75.1l-6.9,0.2c-5.2,0.2-9,1.1-11.6,2.8c-2.5,1.7-3.8,4.3-3.8,7.8c0,5,2.9,7.5,8.6,7.5c4.1,0,7.4-1.2,9.9-3.6
				c2.5-2.4,3.7-5.5,3.7-9.5V75.1z"/>
			<path class="st0" d="M330.8,105.3H313V67.2c0-4.7-0.8-8.2-2.5-10.6c-1.7-2.4-4.3-3.5-8-3.5c-5,0-8.6,1.7-10.8,5
				c-2.2,3.3-3.3,8.8-3.3,16.5v30.7h-17.8V40.1h13.6l2.4,8.3h1c2-3.2,4.7-5.5,8.2-7.1c3.5-1.6,7.4-2.4,11.9-2.4
				c7.6,0,13.3,2.1,17.3,6.2c3.9,4.1,5.9,10,5.9,17.8V105.3z"/>
			<path class="st0" d="M413.2,105.4c0,9.4-2.7,16.5-8.2,21.3c-5.5,4.8-13.6,7.3-24.4,7.3c-9.5,0-17.7-1.3-24.4-3.9v-14.2
				c7.9,3.3,16.4,5,25.4,5c9.1,0,13.7-4.9,13.7-14.8v-1.3l0.5-8h-0.5c-4.2,6.4-10.3,9.6-18.5,9.6c-7.8,0-13.9-3-18.2-9
				c-4.3-6-6.4-14.2-6.4-24.6c0-10.7,2.2-19,6.7-25c4.5-6,10.6-9,18.4-9c8,0,14.3,3.2,18.9,9.6h0.5l1.5-8.3h15.1V105.4z M383.2,92.5
				c4.8,0,8.2-1.4,10.3-4.1c2.1-2.7,3.1-7.2,3.1-13.3v-2.2c0-7-1.1-12-3.2-15c-2.2-3.1-5.6-4.6-10.4-4.6c-8.4,0-12.5,6.6-12.5,19.7
				c0,6.5,1,11.4,3.1,14.6C375.6,90.9,378.8,92.5,383.2,92.5z"/>
			<path class="st0" d="M536.2,72.6c0,10.6-2.8,18.9-8.4,24.9s-13.4,9-23.4,9c-6.3,0-11.8-1.4-16.6-4.1c-4.8-2.7-8.5-6.7-11-11.8
				c-2.6-5.1-3.9-11.1-3.9-18c0-10.7,2.8-18.9,8.3-24.9c5.6-5.9,13.4-8.9,23.5-8.9c6.3,0,11.8,1.4,16.6,4.1c4.8,2.7,8.5,6.6,11,11.7
				C534.9,59.7,536.2,65.7,536.2,72.6z M491.1,72.6c0,6.5,1.1,11.3,3.2,14.6c2.1,3.3,5.6,5,10.4,5c4.7,0,8.2-1.6,10.2-4.9
				c2.1-3.3,3.1-8.2,3.1-14.7c0-6.5-1-11.3-3.2-14.5c-2.1-3.2-5.5-4.8-10.3-4.8c-4.7,0-8.2,1.6-10.3,4.8
				C492.2,61.2,491.1,66.1,491.1,72.6z"/>
		</g>
		<g class="st1">
			<path class="st2" d="M232.8,105.3l-3.4-8.9h-0.5c-3,3.8-6.1,6.4-9.2,7.8c-3.2,1.5-7.3,2.2-12.4,2.2c-6.3,0-11.2-1.8-14.8-5.4
				c-3.6-3.6-5.4-8.7-5.4-15.3c0-6.9,2.4-12,7.3-15.3c4.8-3.3,12.1-5.1,21.9-5.5l11.3-0.3v-2.9c0-6.6-3.4-9.9-10.2-9.9
				c-5.2,0-11.3,1.6-18.4,4.7l-5.9-12c7.5-3.9,15.8-5.9,25-5.9c8.8,0,15.5,1.9,20.1,5.7c4.7,3.8,7,9.6,7,17.4v43.5H232.8z
				 M227.6,75.1l-6.9,0.2c-5.2,0.2-9,1.1-11.6,2.8c-2.5,1.7-3.8,4.3-3.8,7.8c0,5,2.9,7.5,8.6,7.5c4.1,0,7.4-1.2,9.9-3.6
				c2.5-2.4,3.7-5.5,3.7-9.5V75.1z"/>
			<path class="st2" d="M330.8,105.3H313V67.2c0-4.7-0.8-8.2-2.5-10.6c-1.7-2.4-4.3-3.5-8-3.5c-5,0-8.6,1.7-10.8,5
				c-2.2,3.3-3.3,8.8-3.3,16.5v30.7h-17.8V40.1h13.6l2.4,8.3h1c2-3.2,4.7-5.5,8.2-7.1c3.5-1.6,7.4-2.4,11.9-2.4
				c7.6,0,13.3,2.1,17.3,6.2c3.9,4.1,5.9,10,5.9,17.8V105.3z"/>
			<path class="st2" d="M413.2,105.4c0,9.4-2.7,16.5-8.2,21.3c-5.5,4.8-13.6,7.3-24.4,7.3c-9.5,0-17.7-1.3-24.4-3.9v-14.2
				c7.9,3.3,16.4,5,25.4,5c9.1,0,13.7-4.9,13.7-14.8v-1.3l0.5-8h-0.5c-4.2,6.4-10.3,9.6-18.5,9.6c-7.8,0-13.9-3-18.2-9
				c-4.3-6-6.4-14.2-6.4-24.6c0-10.7,2.2-19,6.7-25c4.5-6,10.6-9,18.4-9c8,0,14.3,3.2,18.9,9.6h0.5l1.5-8.3h15.1V105.4z M383.2,92.5
				c4.8,0,8.2-1.4,10.3-4.1c2.1-2.7,3.1-7.2,3.1-13.3v-2.2c0-7-1.1-12-3.2-15c-2.2-3.1-5.6-4.6-10.4-4.6c-8.4,0-12.5,6.6-12.5,19.7
				c0,6.5,1,11.4,3.1,14.6C375.6,90.9,378.8,92.5,383.2,92.5z"/>
			<path class="st2" d="M536.2,72.6c0,10.6-2.8,18.9-8.4,24.9s-13.4,9-23.4,9c-6.3,0-11.8-1.4-16.6-4.1c-4.8-2.7-8.5-6.7-11-11.8
				c-2.6-5.1-3.9-11.1-3.9-18c0-10.7,2.8-18.9,8.3-24.9c5.6-5.9,13.4-8.9,23.5-8.9c6.3,0,11.8,1.4,16.6,4.1c4.8,2.7,8.5,6.6,11,11.7
				C534.9,59.7,536.2,65.7,536.2,72.6z M491.1,72.6c0,6.5,1.1,11.3,3.2,14.6c2.1,3.3,5.6,5,10.4,5c4.7,0,8.2-1.6,10.2-4.9
				c2.1-3.3,3.1-8.2,3.1-14.7c0-6.5-1-11.3-3.2-14.5c-2.1-3.2-5.5-4.8-10.3-4.8c-4.7,0-8.2,1.6-10.3,4.8
				C492.2,61.2,491.1,66.1,491.1,72.6z"/>
		</g>
		<g class="st1">
			<path class="st0" d="M453.7,104.9h-17.8V14.1h17.8V104.9z"/>
		</g>
		<g class="st1">
			<path class="st2" d="M453.7,104.9h-17.8V14.1h17.8V104.9z"/>
		</g>
		<g class="st1">
			<path class="st0" d="M646.7,105.4l-3.4-8.9h-0.5c-3,3.8-6.1,6.4-9.2,7.8c-3.2,1.5-7.3,2.2-12.4,2.2c-6.3,0-11.2-1.8-14.8-5.4
				c-3.6-3.6-5.4-8.7-5.4-15.3c0-6.9,2.4-12,7.3-15.3c4.8-3.3,12.1-5.1,21.9-5.5l11.3-0.3v-2.9c0-6.6-3.4-9.9-10.2-9.9
				c-5.2,0-11.3,1.6-18.4,4.7l-5.9-12c7.5-3.9,15.8-5.9,25-5.9c8.8,0,15.5,1.9,20.1,5.7c4.7,3.8,7,9.6,7,17.4v43.5H646.7z
				 M641.4,75.2l-6.9,0.2c-5.2,0.2-9,1.1-11.6,2.8c-2.5,1.7-3.8,4.3-3.8,7.8c0,5,2.9,7.5,8.6,7.5c4.1,0,7.4-1.2,9.9-3.6
				c2.5-2.4,3.7-5.5,3.7-9.5V75.2z"/>
			<path class="st0" d="M744.7,105.4h-17.8V67.3c0-4.7-0.8-8.2-2.5-10.6c-1.7-2.4-4.3-3.5-8-3.5c-5,0-8.6,1.7-10.8,5
				c-2.2,3.3-3.3,8.8-3.3,16.5v30.7h-17.8V40.2h13.6l2.4,8.3h1c2-3.2,4.7-5.5,8.2-7.1c3.5-1.6,7.4-2.4,11.9-2.4
				c7.6,0,13.3,2.1,17.3,6.2c3.9,4.1,5.9,10,5.9,17.8V105.4z"/>
		</g>
		<g class="st1">
			<path class="st2" d="M646.7,105.4l-3.4-8.9h-0.5c-3,3.8-6.1,6.4-9.2,7.8c-3.2,1.5-7.3,2.2-12.4,2.2c-6.3,0-11.2-1.8-14.8-5.4
				c-3.6-3.6-5.4-8.7-5.4-15.3c0-6.9,2.4-12,7.3-15.3c4.8-3.3,12.1-5.1,21.9-5.5l11.3-0.3v-2.9c0-6.6-3.4-9.9-10.2-9.9
				c-5.2,0-11.3,1.6-18.4,4.7l-5.9-12c7.5-3.9,15.8-5.9,25-5.9c8.8,0,15.5,1.9,20.1,5.7c4.7,3.8,7,9.6,7,17.4v43.5H646.7z
				 M641.4,75.2l-6.9,0.2c-5.2,0.2-9,1.1-11.6,2.8c-2.5,1.7-3.8,4.3-3.8,7.8c0,5,2.9,7.5,8.6,7.5c4.1,0,7.4-1.2,9.9-3.6
				c2.5-2.4,3.7-5.5,3.7-9.5V75.2z"/>
			<path class="st2" d="M744.7,105.4h-17.8V67.3c0-4.7-0.8-8.2-2.5-10.6c-1.7-2.4-4.3-3.5-8-3.5c-5,0-8.6,1.7-10.8,5
				c-2.2,3.3-3.3,8.8-3.3,16.5v30.7h-17.8V40.2h13.6l2.4,8.3h1c2-3.2,4.7-5.5,8.2-7.1c3.5-1.6,7.4-2.4,11.9-2.4
				c7.6,0,13.3,2.1,17.3,6.2c3.9,4.1,5.9,10,5.9,17.8V105.4z"/>
		</g>
	</g>
</g>
</svg>
