<svg id="Слой_1" data-name="Слой 1" xmlns="http://www.w3.org/2000/svg" xmlns:xlink="http://www.w3.org/1999/xlink" viewBox="0 0 746 144"><defs><linearGradient id="Безымянный_градиент_10" x1="-82.21" y1="22.64" x2="185.11" y2="91.39" gradientUnits="userSpaceOnUse"><stop offset="0.24" stop-color="#59ef67"/><stop offset="0.3" stop-color="#4ce486"/><stop offset="0.38" stop-color="#3ad5b1"/><stop offset="0.46" stop-color="#2cc9d3"/><stop offset="0.54" stop-color="#22c0eb"/><stop offset="0.61" stop-color="#1cbbfa"/><stop offset="0.67" stop-color="#1ab9ff"/></linearGradient><linearGradient id="Безымянный_градиент_12" x1="528.2" y1="60.43" x2="632" y2="89.81" gradientUnits="userSpaceOnUse"><stop offset="0" stop-color="#59ef67"/><stop offset="0.07" stop-color="#54ea74"/><stop offset="0.21" stop-color="#46de96"/><stop offset="0.39" stop-color="#2fcbcc"/><stop offset="0.55" stop-color="#1ab9ff"/></linearGradient></defs><path d="M58.23.35A57.33,57.33,0,0,0,24,103.6C29.68,93,41.49,87.7,51.56,81.43A24.69,24.69,0,1,1,83,57.68c0,.3,0,.61,0,.9h0V91.93c0,20.14,9.93,36.28,26.53,47.68l6.11,4.2V58.17C115.66,26.58,89.82.3,58.23.35Z" style="fill:#59ef67"/><path d="M82,80.64c-20.62-.12-22.43,1.24-35.9-1.39-10.61-2.07-25.26-15.61-23-38C26.66,6.44,56.06.35,56.06.35S35.06-.78,16.9,18.23C5.52,30.15.87,41.79,1,57.68,1.16,76,9.55,88.34,14.75,95a54.35,54.35,0,0,0,18.12,14c12.68,8.15,53.28,4.88,90.74,4.88h5.11V80.45h-6C112.93,80.89,98.92,80.74,82,80.64Z" style="fill:url(#Безымянный_градиент_10)"/><polyline points="127.01 71.09 127.01 122.46 166.18 96.91" style="fill:#1ab9ff"/><path d="M588.1,65.79H573V132h-17.5V65.79H545.8V57.35l9.65-4.7V33.76q0-11,5.39-16t17.27-5.05a44.93,44.93,0,0,1,16.13,2.7l-4.48,12.85A32.58,32.58,0,0,0,580,26.59c-2.49,0-4.29.73-5.4,2.21A9.11,9.11,0,0,0,573,34.45v18.2H588.1Z" style="fill:url(#Безымянный_градиент_12)"/><path d="M233.82,105.63l-3.44-8.87h-.46a26.28,26.28,0,0,1-9.25,7.85q-4.75,2.19-12.4,2.19-9.39,0-14.79-5.37t-5.39-15.28q0-10.4,7.26-15.32t21.91-5.45L228.57,65V62.17q0-9.91-10.15-9.92-7.81,0-18.37,4.73l-5.9-12a53,53,0,0,1,25-5.89q13.13,0,20.13,5.71t7,17.39v43.46Zm-5.25-30.22-6.88.24q-7.75.22-11.55,2.8t-3.79,7.81q0,7.53,8.63,7.53,6.18,0,9.89-3.56a12.49,12.49,0,0,0,3.7-9.45Z" style="fill:#57acff;stroke:#57acff;stroke-miterlimit:10"/><path d="M331.47,105.63h-17.8V67.54q0-7.07-2.5-10.59c-1.68-2.36-4.34-3.53-8-3.53q-7.47,0-10.79,5T289.06,75v30.68h-17.8V40.41h13.59l2.4,8.34h1a18.79,18.79,0,0,1,8.2-7.15,27.94,27.94,0,0,1,11.87-2.42q11.37,0,17.27,6.16t5.89,17.76Z" style="fill:#57acff;stroke:#57acff;stroke-miterlimit:10"/><path d="M413.48,105.75q0,14.06-8.2,21.32t-24.41,7.27q-14.3,0-24.39-3.85V116.25a64.41,64.41,0,0,0,25.44,5q13.69,0,13.71-14.82v-1.28l.52-8h-.52q-6.25,9.63-18.5,9.63-11.73,0-18.17-9t-6.45-24.62q0-16.05,6.68-25t18.41-9q12,0,18.9,9.57H397l1.46-8.34h15.05Zm-30-12.89q7.17,0,10.27-4.12t3.09-13.33V73.25q0-10.44-3.24-15T383.2,53.65q-12.54,0-12.54,19.72c0,6.53,1,11.42,3.12,14.64S379.1,92.86,383.49,92.86Z" style="fill:#57acff;stroke:#57acff;stroke-miterlimit:10"/><path d="M535.78,72.9q0,15.93-8.4,24.92t-23.39,9a32.72,32.72,0,0,1-16.57-4.11,27.38,27.38,0,0,1-11-11.82,39.64,39.64,0,0,1-3.85-18q0-16,8.34-24.85t23.46-8.87a32.86,32.86,0,0,1,16.57,4.09,27.22,27.22,0,0,1,11,11.72A39.32,39.32,0,0,1,535.78,72.9Zm-45.09,0q0,9.69,3.17,14.65t10.36,5q7.11,0,10.24-4.93t3.12-14.68q0-9.68-3.15-14.52T504.1,53.53q-7.11,0-10.26,4.82T490.69,72.9Z" style="fill:#57acff;stroke:#57acff;stroke-miterlimit:10"/><path d="M454.65,105.25H436.86V14.47h17.79Z" style="fill:#57acff;stroke:#57acff;stroke-miterlimit:10"/><path d="M647.68,105.74l-3.44-8.87h-.47a26.2,26.2,0,0,1-9.25,7.85q-4.75,2.19-12.39,2.19-9.4,0-14.79-5.37t-5.4-15.29q0-10.38,7.26-15.31t21.91-5.45l11.32-.36V62.28q0-9.91-10.15-9.92-7.81,0-18.38,4.72l-5.89-12a53,53,0,0,1,25-5.9q13.13,0,20.13,5.72t7,17.39v43.46Zm-5.25-30.22-6.88.23q-7.77.24-11.56,2.8c-2.53,1.72-3.79,4.32-3.79,7.82q0,7.53,8.64,7.53,6.18,0,9.88-3.56a12.49,12.49,0,0,0,3.71-9.45Z" style="fill:#57acff;stroke:#57acff;stroke-miterlimit:10"/><path d="M745.33,105.74h-17.8V67.64q0-7.05-2.51-10.59t-8-3.52q-7.47,0-10.79,5t-3.33,16.54v30.69H685.12V40.52h13.59l2.39,8.34h1a18.9,18.9,0,0,1,8.2-7.15,28,28,0,0,1,11.87-2.42q11.39,0,17.27,6.16t5.9,17.76Z" style="fill:#57acff;stroke:#57acff;stroke-miterlimit:10"/></svg>