<svg id="Слой_1" data-name="Слой 1" xmlns="http://www.w3.org/2000/svg" viewBox="0 0 789.69 399"><g id="Polosa_full" data-name="Polosa full"><rect x="1.5" y="8.5" width="356.69" height="29" rx="10.82" style="fill:#fff"/><path d="M410.68,146.94A10.33,10.33,0,0,1,421,157.26v7.37a10.32,10.32,0,0,1-10.32,10.31h-335a10.32,10.32,0,0,1-10.32-10.31v-7.37a10.33,10.33,0,0,1,10.32-10.32H410.68m0-1h-335a11.32,11.32,0,0,0-11.32,11.32v7.37a11.31,11.31,0,0,0,11.32,11.31H410.68A11.31,11.31,0,0,0,422,164.63v-7.37a11.32,11.32,0,0,0-11.32-11.32Z" transform="translate(-63.31 -137.94)" style="fill:#515151"/><path d="M149.9,148.83v24.23H76.5a8.51,8.51,0,0,1-8.5-8.51v-7.21a8.51,8.51,0,0,1,8.5-8.51Z" transform="translate(-63.31 -137.94)" style="fill:#06c100"/></g><text transform="translate(24.53 26.17)" style="font-size:10px;fill:#f7f7f7;font-family:GolosText-DemiBold, Golos;font-weight:300">Sta<tspan x="16.35" y="0" style="letter-spacing:0.02001953125em">r</tspan><tspan x="20.45" y="0" style="letter-spacing:-0.00498046875em">t</tspan><tspan x="24.4" y="0">er</tspan></text><g id="Polosa_full-2" data-name="Polosa full"><rect x="1.5" y="54.5" width="356.69" height="29" rx="10.82" style="fill:#fff"/><path d="M410.68,192.94A10.33,10.33,0,0,1,421,203.26v7.37a10.32,10.32,0,0,1-10.32,10.31h-335a10.32,10.32,0,0,1-10.32-10.31v-7.37a10.33,10.33,0,0,1,10.32-10.32H410.68m0-1h-335a11.32,11.32,0,0,0-11.32,11.32v7.37a11.31,11.31,0,0,0,11.32,11.31H410.68A11.31,11.31,0,0,0,422,210.63v-7.37a11.32,11.32,0,0,0-11.32-11.32Z" transform="translate(-63.31 -137.94)" style="fill:#515151"/><path d="M149.9,194.83v24.23H76.5a8.51,8.51,0,0,1-8.5-8.51v-7.21a8.51,8.51,0,0,1,8.5-8.51Z" transform="translate(-63.31 -137.94)" style="fill:#06c100"/><rect x="86.55" y="56.89" width="92.67" height="24.23" style="fill:#646f87"/></g><text transform="translate(99.85 73.17)" style="font-size:10px;fill:#f7f7f7;font-family:GolosText-DemiBold, Golos;font-weight:300">E<tspan x="6.2" y="0" style="letter-spacing:-0.010009765625em">l</tspan><tspan x="9.4" y="0">ementa</tspan><tspan x="45.55" y="0" style="letter-spacing:0.02001953125em">r</tspan><tspan x="49.65" y="0">y</tspan></text><g id="Polosa_full-3" data-name="Polosa full"><rect x="0.5" y="100.5" width="356.69" height="29" rx="10.82" style="fill:#fff"/><path d="M409.68,238.94A10.33,10.33,0,0,1,420,249.26v7.37a10.32,10.32,0,0,1-10.32,10.31h-335a10.32,10.32,0,0,1-10.32-10.31v-7.37a10.33,10.33,0,0,1,10.32-10.32H409.68m0-1h-335a11.32,11.32,0,0,0-11.32,11.32v7.37a11.31,11.31,0,0,0,11.32,11.31H409.68A11.31,11.31,0,0,0,421,256.63v-7.37a11.32,11.32,0,0,0-11.32-11.32Z" transform="translate(-63.31 -137.94)" style="fill:#515151"/><path d="M148.9,240.83v24.23H75.5a8.51,8.51,0,0,1-8.5-8.51v-7.21a8.51,8.51,0,0,1,8.5-8.51Z" transform="translate(-63.31 -137.94)" style="fill:#06c100"/><rect x="85.55" y="102.89" width="92.67" height="24.23" style="fill:#646f87"/><rect x="178.18" y="102.89" width="94.67" height="24.23" style="fill:#c484ff"/></g><text transform="translate(185.44 119.17)" style="font-size:10px;fill:#f7f7f7;font-family:GolosText-DemiBold, Golos;font-weight:300">P<tspan x="6.65" y="0" style="letter-spacing:-0.0099609375em">r</tspan><tspan x="10.45" y="0">e-In</tspan><tspan x="29.4" y="0" style="letter-spacing:-0.00498046875em">t</tspan><tspan x="33.35" y="0">ermedia</tspan><tspan x="72.22" y="0" style="letter-spacing:-0.005029296875em">t</tspan><tspan x="76.17" y="0" style="letter-spacing:0.000048828125em">e </tspan></text><g id="Polosa_full-4" data-name="Polosa full"><rect x="0.5" y="146.5" width="356.69" height="29" rx="10.82" style="fill:#fff"/><path d="M409.68,284.94A10.33,10.33,0,0,1,420,295.26v7.37a10.32,10.32,0,0,1-10.32,10.31h-335a10.32,10.32,0,0,1-10.32-10.31v-7.37a10.33,10.33,0,0,1,10.32-10.32H409.68m0-1h-335a11.32,11.32,0,0,0-11.32,11.32v7.37a11.31,11.31,0,0,0,11.32,11.31H409.68A11.31,11.31,0,0,0,421,302.63v-7.37a11.32,11.32,0,0,0-11.32-11.32Z" transform="translate(-63.31 -137.94)" style="fill:#515151"/><path d="M148.9,286.83v24.23H75.5a8.51,8.51,0,0,1-8.5-8.51v-7.21a8.51,8.51,0,0,1,8.5-8.51Z" transform="translate(-63.31 -137.94)" style="fill:#06c100"/><rect x="85.55" y="148.89" width="92.67" height="24.23" style="fill:#646f87"/><rect x="178.18" y="148.89" width="94.67" height="24.23" style="fill:#c484ff"/><path d="M417.7,295.34v7.21a8.51,8.51,0,0,1-8.51,8.51H336.13V286.83h73.06A8.51,8.51,0,0,1,417.7,295.34Z" transform="translate(-63.31 -137.94)" style="fill:#57acff"/></g><text transform="translate(281.47 164.17)" style="font-size:10px;fill:#f7f7f7;font-family:GolosText-DemiBold, Golos;font-weight:300">In<tspan x="9.35" y="0" style="letter-spacing:-0.00498046875em">t</tspan><tspan x="13.3" y="0">ermedia</tspan><tspan x="52.17" y="0" style="letter-spacing:-0.005029296875em">t</tspan><tspan x="56.12" y="0" style="letter-spacing:0.000048828125em">e </tspan></text><g id="Polosa_full-5" data-name="Polosa full"><rect x="2.5" y="231.5" width="356.69" height="29" rx="10.82" style="fill:#fff"/><path d="M411.68,369.94A10.33,10.33,0,0,1,422,380.26v7.37a10.32,10.32,0,0,1-10.32,10.31h-335a10.32,10.32,0,0,1-10.32-10.31v-7.37a10.33,10.33,0,0,1,10.32-10.32H411.68m0-1h-335a11.32,11.32,0,0,0-11.32,11.32v7.37a11.31,11.31,0,0,0,11.32,11.31H411.68A11.31,11.31,0,0,0,423,387.63v-7.37a11.32,11.32,0,0,0-11.32-11.32Z" transform="translate(-63.31 -137.94)" style="fill:#515151"/><path d="M150.9,371.83v24.23H77.5a8.51,8.51,0,0,1-8.5-8.51v-7.21a8.51,8.51,0,0,1,8.5-8.51Z" transform="translate(-63.31 -137.94)" style="fill:#646f87"/></g><text transform="translate(25.53 249.17)" style="font-size:10px;fill:#f7f7f7;font-family:GolosText-DemiBold, Golos;font-weight:300">Sta<tspan x="16.35" y="0" style="letter-spacing:0.02001953125em">r</tspan><tspan x="20.45" y="0" style="letter-spacing:-0.00498046875em">t</tspan><tspan x="24.4" y="0">er</tspan></text><g id="Polosa_full-6" data-name="Polosa full"><rect x="2.5" y="277.5" width="356.69" height="29" rx="10.82" style="fill:#fff"/><path d="M411.68,415.94A10.33,10.33,0,0,1,422,426.26v7.37a10.32,10.32,0,0,1-10.32,10.31h-335a10.32,10.32,0,0,1-10.32-10.31v-7.37a10.33,10.33,0,0,1,10.32-10.32H411.68m0-1h-335a11.32,11.32,0,0,0-11.32,11.32v7.37a11.31,11.31,0,0,0,11.32,11.31H411.68A11.31,11.31,0,0,0,423,433.63v-7.37a11.32,11.32,0,0,0-11.32-11.32Z" transform="translate(-63.31 -137.94)" style="fill:#515151"/><path d="M150.9,417.83v24.23H77.5a8.51,8.51,0,0,1-8.5-8.51v-7.21a8.51,8.51,0,0,1,8.5-8.51Z" transform="translate(-63.31 -137.94)" style="fill:#646f87"/><rect x="87.55" y="279.89" width="92.67" height="24.23" style="fill:#06c100"/></g><text transform="translate(100.85 296.17)" style="font-size:10px;fill:#f7f7f7;font-family:GolosText-DemiBold, Golos;font-weight:300">E<tspan x="6.2" y="0" style="letter-spacing:-0.010009765625em">l</tspan><tspan x="9.4" y="0">ementa</tspan><tspan x="45.55" y="0" style="letter-spacing:0.02001953125em">r</tspan><tspan x="49.65" y="0">y</tspan></text><g id="Polosa_full-7" data-name="Polosa full"><rect x="1.5" y="323.5" width="356.69" height="29" rx="10.82" style="fill:#fff"/><path d="M410.68,461.94A10.33,10.33,0,0,1,421,472.26v7.37a10.32,10.32,0,0,1-10.32,10.31h-335a10.32,10.32,0,0,1-10.32-10.31v-7.37a10.33,10.33,0,0,1,10.32-10.32H410.68m0-1h-335a11.32,11.32,0,0,0-11.32,11.32v7.37a11.31,11.31,0,0,0,11.32,11.31H410.68A11.31,11.31,0,0,0,422,479.63v-7.37a11.32,11.32,0,0,0-11.32-11.32Z" transform="translate(-63.31 -137.94)" style="fill:#515151"/><path d="M149.9,463.83v24.23H76.5a8.51,8.51,0,0,1-8.5-8.51v-7.21a8.51,8.51,0,0,1,8.5-8.51Z" transform="translate(-63.31 -137.94)" style="fill:#646f87"/><rect x="86.55" y="325.89" width="92.67" height="24.23" style="fill:#646f87"/><rect x="179.18" y="325.89" width="94.67" height="24.23" style="fill:#c484ff"/></g><text transform="translate(186.44 342.17)" style="font-size:10px;fill:#f7f7f7;font-family:GolosText-DemiBold, Golos;font-weight:300">P<tspan x="6.65" y="0" style="letter-spacing:-0.0099609375em">r</tspan><tspan x="10.45" y="0">e-In</tspan><tspan x="29.4" y="0" style="letter-spacing:-0.00498046875em">t</tspan><tspan x="33.35" y="0">ermedia</tspan><tspan x="72.22" y="0" style="letter-spacing:-0.005029296875em">t</tspan><tspan x="76.17" y="0" style="letter-spacing:0.000048828125em">e </tspan></text><g id="Polosa_full-8" data-name="Polosa full"><rect x="1.5" y="369.5" width="356.69" height="29" rx="10.82" style="fill:#fff"/><path d="M410.68,507.94A10.33,10.33,0,0,1,421,518.26v7.37a10.32,10.32,0,0,1-10.32,10.31h-335a10.32,10.32,0,0,1-10.32-10.31v-7.37a10.33,10.33,0,0,1,10.32-10.32H410.68m0-1h-335a11.32,11.32,0,0,0-11.32,11.32v7.37a11.31,11.31,0,0,0,11.32,11.31H410.68A11.31,11.31,0,0,0,422,525.63v-7.37a11.32,11.32,0,0,0-11.32-11.32Z" transform="translate(-63.31 -137.94)" style="fill:#515151"/><path d="M149.9,509.83v24.23H76.5a8.51,8.51,0,0,1-8.5-8.51v-7.21a8.51,8.51,0,0,1,8.5-8.51Z" transform="translate(-63.31 -137.94)" style="fill:#646f87"/><rect x="86.55" y="371.89" width="92.67" height="24.23" style="fill:#646f87"/><rect x="179.18" y="371.89" width="94.67" height="24.23" style="fill:#646f87"/><path d="M418.7,518.34v7.21a8.51,8.51,0,0,1-8.51,8.51H337.13V509.83h73.06A8.51,8.51,0,0,1,418.7,518.34Z" transform="translate(-63.31 -137.94)" style="fill:#57acff"/></g><text transform="translate(282.47 387.17)" style="font-size:10px;fill:#f7f7f7;font-family:GolosText-DemiBold, Golos;font-weight:300">In<tspan x="9.35" y="0" style="letter-spacing:-0.00498046875em">t</tspan><tspan x="13.3" y="0">ermedia</tspan><tspan x="52.17" y="0" style="letter-spacing:-0.005029296875em">t</tspan><tspan x="56.12" y="0" style="letter-spacing:0.000048828125em">e </tspan></text><g id="Polosa_full-9" data-name="Polosa full"><rect x="432.5" y="0.5" width="356.69" height="29" rx="10.82" style="fill:#fff"/><path d="M841.68,138.94A10.33,10.33,0,0,1,852,149.26v7.37a10.32,10.32,0,0,1-10.32,10.31h-335a10.32,10.32,0,0,1-10.32-10.31v-7.37a10.33,10.33,0,0,1,10.32-10.32h335m0-1h-335a11.32,11.32,0,0,0-11.32,11.32v7.37a11.31,11.31,0,0,0,11.32,11.31h335A11.31,11.31,0,0,0,853,156.63v-7.37a11.32,11.32,0,0,0-11.32-11.32Z" transform="translate(-63.31 -137.94)" style="fill:#515151"/><path d="M580.9,140.83v24.23H507.5a8.51,8.51,0,0,1-8.5-8.51v-7.21a8.51,8.51,0,0,1,8.5-8.51Z" transform="translate(-63.31 -137.94)" style="fill:#06c100"/></g><text transform="translate(453.82 18.17)" style="font-size:11px;fill:#f7f7f7;font-family:GolosText-DemiBold, Golos;font-weight:300">Sta<tspan x="17.98" y="0" style="letter-spacing:0.019975142045454544em">r</tspan><tspan x="22.49" y="0" style="letter-spacing:-0.004971590909090909em">t</tspan><tspan x="26.84" y="0">er</tspan></text><g id="Polosa_full-10" data-name="Polosa full"><rect x="432.5" y="46.5" width="356.69" height="29" rx="10.82" style="fill:#fff"/><path d="M841.68,184.94A10.33,10.33,0,0,1,852,195.26v7.37a10.32,10.32,0,0,1-10.32,10.31h-335a10.32,10.32,0,0,1-10.32-10.31v-7.37a10.33,10.33,0,0,1,10.32-10.32h335m0-1h-335a11.32,11.32,0,0,0-11.32,11.32v7.37a11.31,11.31,0,0,0,11.32,11.31h335A11.31,11.31,0,0,0,853,202.63v-7.37a11.32,11.32,0,0,0-11.32-11.32Z" transform="translate(-63.31 -137.94)" style="fill:#515151"/><path d="M580.9,186.83v24.23H507.5a8.51,8.51,0,0,1-8.5-8.51v-7.21a8.51,8.51,0,0,1,8.5-8.51Z" transform="translate(-63.31 -137.94)" style="fill:#646f87"/><rect x="517.55" y="48.89" width="92.67" height="24.23" style="fill:#06c100"/></g><text transform="translate(528.08 65.17)" style="font-size:11px;fill:#f7f7f7;font-family:GolosText-DemiBold, Golos;font-weight:300">E<tspan x="6.82" y="0" style="letter-spacing:-0.009987571022727272em">l</tspan><tspan x="10.34" y="0">ementa</tspan><tspan x="50.1" y="0" style="letter-spacing:0.019975142045454544em">r</tspan><tspan x="54.61" y="0">y</tspan></text><g id="Polosa_full-11" data-name="Polosa full"><rect x="431.5" y="92.5" width="356.69" height="29" rx="10.82" style="fill:#fff"/><path d="M840.68,230.94A10.33,10.33,0,0,1,851,241.26v7.37a10.32,10.32,0,0,1-10.32,10.31h-335a10.32,10.32,0,0,1-10.32-10.31v-7.37a10.33,10.33,0,0,1,10.32-10.32h335m0-1h-335a11.32,11.32,0,0,0-11.32,11.32v7.37a11.31,11.31,0,0,0,11.32,11.31h335A11.31,11.31,0,0,0,852,248.63v-7.37a11.32,11.32,0,0,0-11.32-11.32Z" transform="translate(-63.31 -137.94)" style="fill:#515151"/><path d="M579.9,232.83v24.23H506.5a8.51,8.51,0,0,1-8.5-8.51v-7.21a8.51,8.51,0,0,1,8.5-8.51Z" transform="translate(-63.31 -137.94)" style="fill:#646f87"/><rect x="516.55" y="94.89" width="92.67" height="24.23" style="fill:#646f87"/><rect x="609.18" y="94.89" width="94.67" height="24.23" style="fill:#06c100"/></g><text transform="translate(612.23 111.17)" style="font-size:11px;fill:#f7f7f7;font-family:GolosText-DemiBold, Golos;font-weight:300">P<tspan x="7.31" y="0" style="letter-spacing:-0.009987571022727272em">r</tspan><tspan x="11.5" y="0">e-In</tspan><tspan x="32.34" y="0" style="letter-spacing:-0.004971590909090909em">t</tspan><tspan x="36.68" y="0">ermedia</tspan><tspan x="79.44" y="0" style="letter-spacing:-0.004971590909090909em">t</tspan><tspan x="83.79" y="0">e </tspan></text><g id="Polosa_full-12" data-name="Polosa full"><rect x="431.5" y="138.5" width="356.69" height="29" rx="10.82" style="fill:#fff"/><path d="M840.68,276.94A10.33,10.33,0,0,1,851,287.26v7.37a10.32,10.32,0,0,1-10.32,10.31h-335a10.32,10.32,0,0,1-10.32-10.31v-7.37a10.33,10.33,0,0,1,10.32-10.32h335m0-1h-335a11.32,11.32,0,0,0-11.32,11.32v7.37a11.31,11.31,0,0,0,11.32,11.31h335A11.31,11.31,0,0,0,852,294.63v-7.37a11.32,11.32,0,0,0-11.32-11.32Z" transform="translate(-63.31 -137.94)" style="fill:#515151"/><path d="M579.9,278.83v24.23H506.5a8.51,8.51,0,0,1-8.5-8.51v-7.21a8.51,8.51,0,0,1,8.5-8.51Z" transform="translate(-63.31 -137.94)" style="fill:#646f87"/><rect x="516.55" y="140.89" width="92.67" height="24.23" style="fill:#646f87"/><rect x="609.18" y="140.89" width="94.67" height="24.23" style="fill:#646f87"/><path d="M848.7,287.34v7.21a8.51,8.51,0,0,1-8.51,8.51H767.13V278.83h73.06A8.51,8.51,0,0,1,848.7,287.34Z" transform="translate(-63.31 -137.94)" style="fill:#06c100"/></g><text transform="translate(709.26 156.17)" style="font-size:11px;fill:#f7f7f7;font-family:GolosText-DemiBold, Golos;font-weight:300">In<tspan x="10.28" y="0" style="letter-spacing:-0.004971590909090909em">t</tspan><tspan x="14.63" y="0">ermedia</tspan><tspan x="57.39" y="0" style="letter-spacing:-0.004971590909090909em">t</tspan><tspan x="61.73" y="0">e </tspan></text></svg>