<?xml version="1.0" encoding="utf-8"?>
<!-- Generator: Adobe Illustrator 24.1.3, SVG Export Plug-In . SVG Version: 6.00 Build 0)  -->
<svg version="1.1" id="Слой_1" xmlns="http://www.w3.org/2000/svg" xmlns:xlink="http://www.w3.org/1999/xlink" x="0px" y="0px"
	 viewBox="0 0 153.3 153.3" style="enable-background:new 0 0 153.3 153.3;" xml:space="preserve">
<style type="text/css">
	.st0{fill:#57ACFF;}
	.st1{fill:#375C72;}
</style>
<g>
	<g>
		<rect x="30" y="58.7" class="st0" width="96.7" height="10.7"/>
		<path class="st0" d="M105.3,80.2c0,13.8-11.3,25.1-25.1,25.1H73C59.3,105.3,48,94,48,80.2V26.5C48,12.7,59.3,1.4,73,1.4h7.2
			c13.8,0,25.1,11.3,25.1,25.1V80.2z"/>
		<path class="st0" d="M101.7,137.5H83.8v-17.9H69.5v17.9H51.5c-2,0-3.6,1.6-3.6,3.6v7.2c0,2,1.6,3.6,3.6,3.6h50.2
			c2,0,3.6-1.6,3.6-3.6v-7.2C105.3,139.2,103.7,137.5,101.7,137.5z"/>
		<path class="st1" d="M64.1,37.2H48V26.5h16.1c3,0,5.4,2.4,5.4,5.4l0,0C69.5,34.8,67.1,37.2,64.1,37.2z"/>
		<path class="st1" d="M64.1,58.7H48V48h16.1c3,0,5.4,2.4,5.4,5.4l0,0C69.5,56.3,67.1,58.7,64.1,58.7z"/>
		<path class="st1" d="M64.1,80.2H48V69.5h16.1c3,0,5.4,2.4,5.4,5.4l0,0C69.5,77.8,67.1,80.2,64.1,80.2z"/>
		<path class="st1" d="M89.2,69.5h16.1v10.8H89.2c-3,0-5.4-2.4-5.4-5.4l0,0C83.8,71.9,86.2,69.5,89.2,69.5z"/>
		<path class="st1" d="M89.2,48h16.1v10.8H89.2c-3,0-5.4-2.4-5.4-5.4l0,0C83.8,50.4,86.2,48,89.2,48z"/>
		<path class="st1" d="M89.2,26.5h16.1v10.8H89.2c-3,0-5.4-2.4-5.4-5.4l0,0C83.8,28.9,86.2,26.5,89.2,26.5z"/>
		<path class="st0" d="M74.1,126.7c-27-1.3-47.6-24.6-47.6-51.6V51.5c0-2,1.6-3.6,3.6-3.6h3.6c2,0,3.6,1.6,3.6,3.6v23.9
			c0,20.5,15.2,38.5,35.6,40.4c23.4,2.2,43.2-16.3,43.2-39.2V51.5c0-2,1.6-3.6,3.6-3.6h3.6c2,0,3.6,1.6,3.6,3.6v25.1
			C126.8,105.1,102.9,128.2,74.1,126.7L74.1,126.7z"/>
	</g>
</g>
</svg>
