<svg version="1.1" xmlns="http://www.w3.org/2000/svg" xmlns:xlink="http://www.w3.org/1999/xlink" viewBox="0 0 226 226"><defs><linearGradient x1="181.85938" y1="97.40247" x2="181.85938" y2="129.23316" gradientUnits="userSpaceOnUse" id="color-1"><stop offset="0" stop-color="#70dfff"></stop><stop offset="1" stop-color="#70afff"></stop></linearGradient><linearGradient x1="113" y1="20.59778" x2="113" y2="209.55497" gradientUnits="userSpaceOnUse" id="color-2"><stop offset="0" stop-color="#00c6ff"></stop><stop offset="1" stop-color="#0072ff"></stop></linearGradient><linearGradient x1="91.8125" y1="20.59778" x2="91.8125" y2="209.55497" gradientUnits="userSpaceOnUse" id="color-3"><stop offset="0" stop-color="#00c6ff"></stop><stop offset="1" stop-color="#0072ff"></stop></linearGradient></defs><g fill="none" fill-rule="nonzero" stroke="none" stroke-width="1" stroke-linecap="butt" stroke-linejoin="miter" stroke-miterlimit="10" stroke-dasharray="" stroke-dashoffset="0" font-family="none" font-weight="none" font-size="none" text-anchor="none" style="mix-blend-mode: normal"><path d="M0,226v-226h226v226z" fill="none"></path><g><path d="M176.5625,127.125c7.80053,0 14.125,-6.32447 14.125,-14.125c0,-7.80053 -6.32447,-14.125 -14.125,-14.125h-3.53125v28.25z" fill="url(#color-1)"></path><path d="M194.21875,183.625c0,5.84069 -4.75306,10.59375 -10.59375,10.59375c-5.84069,0 -10.59375,-4.75306 -10.59375,-10.59375v-42.375h3.53125c15.57634,0 28.25,-12.67366 28.25,-28.25c0,-15.57634 -12.67366,-28.25 -28.25,-28.25h-3.53125v-42.375c0,-5.84069 4.75306,-10.59375 10.59375,-10.59375c5.84069,0 10.59375,4.75306 10.59375,10.59375v38.84375h7.0625v-38.84375c0,-9.73566 -7.92059,-17.65625 -17.65625,-17.65625c-10.05347,0 -19.49956,3.91263 -26.60797,11.02103l-31.78831,31.78831c-1.97044,1.97044 -4.69303,3.09691 -7.47919,3.09691h-58.36803c-1.46194,-4.10331 -5.34631,-7.0625 -9.944,-7.0625c-5.84069,0 -10.59375,4.75306 -10.59375,10.59375v21.1875h-7.0625c-5.84069,0 -10.59375,4.75306 -10.59375,10.59375v14.125c0,5.84069 4.75306,10.59375 10.59375,10.59375h7.0625v21.1875c0,5.84069 4.75306,10.59375 10.59375,10.59375c4.59769,0 8.48206,-2.95919 9.944,-7.0625h4.181c1.94925,0 3.53125,1.582 3.53125,3.53125v31.78125c0,5.84069 4.75306,10.59375 10.59375,10.59375h10.59375c5.84069,0 10.59375,-4.75306 10.59375,-10.59375v-31.78125c0,-1.94925 1.582,-3.53125 3.53125,-3.53125h7.0625h8.28078c2.78616,0 5.51228,1.12647 7.47919,3.09691l31.78831,31.78478c7.10487,7.11194 16.5545,11.02456 26.60797,11.02456c9.73566,0 17.65625,-7.92059 17.65625,-17.65625v-38.84375h-7.0625zM176.5625,91.8125c11.68491,0 21.1875,9.50259 21.1875,21.1875c0,11.68491 -9.50259,21.1875 -21.1875,21.1875h-3.53125v-42.375zM31.78125,123.59375c-1.94925,0 -3.53125,-1.582 -3.53125,-3.53125v-14.125c0,-1.94925 1.582,-3.53125 3.53125,-3.53125h7.0625v21.1875zM52.96875,151.84375c0,1.94925 -1.582,3.53125 -3.53125,3.53125c-1.94925,0 -3.53125,-1.582 -3.53125,-3.53125v-77.6875c0,-1.94925 1.582,-3.53125 3.53125,-3.53125c1.94925,0 3.53125,1.582 3.53125,3.53125zM88.28125,194.21875h-10.59375c-1.94925,0 -3.53125,-1.582 -3.53125,-3.53125v-21.1875h17.65625v21.1875c0,1.94925 -1.582,3.53125 -3.53125,3.53125zM91.8125,158.90625v3.53125h-17.65625v-3.53125c0,-1.24653 -0.25425,-2.42244 -0.64975,-3.53125h18.95928c-0.39903,1.10881 -0.65328,2.28472 -0.65328,3.53125zM130.22191,153.47872c-3.32997,-3.32997 -7.75816,-5.16622 -12.47238,-5.16622h-8.28078h-7.0625h-38.84375h-3.53125v-70.625h57.71828c4.71422,0 9.14241,-1.83625 12.47238,-5.16622l31.78831,-31.78831c1.52903,-1.53256 3.20284,-2.86738 4.97553,-4.01856c-0.61091,1.78681 -1.017,3.66897 -1.017,5.66059v141.25c0,1.98809 0.40609,3.87378 1.01347,5.66059c-1.77269,-1.15472 -3.44297,-2.48953 -4.972,-4.02209z" fill="url(#color-2)"></path><path d="M102.34975,102.40625h-21.07803c-3.92322,0 -7.11547,3.19225 -7.11547,7.119v6.95303c0,3.92322 3.19225,7.11547 7.119,7.11547h21.07803c3.92322,0 7.11547,-3.19225 7.11547,-7.119v-6.95303c0,-3.92322 -3.19225,-7.11547 -7.119,-7.11547zM81.21875,116.47475l0.0565,-7.006l7.006,0.01766v7.006zM102.40625,116.47475l-0.0565,0.0565l-7.006,-0.01766v-7.00953l7.0625,0.01766z" fill="url(#color-3)"></path></g></g></svg>