<?xml version="1.0" encoding="utf-8"?>
<!-- Generator: Adobe Illustrator 24.1.3, SVG Export Plug-In . SVG Version: 6.00 Build 0)  -->
<svg version="1.1" id="Слой_1" xmlns="http://www.w3.org/2000/svg" xmlns:xlink="http://www.w3.org/1999/xlink" x="0px" y="0px"
	 viewBox="0 0 190 287" style="enable-background:new 0 0 190 287;" xml:space="preserve">
<style type="text/css">
	.st0{fill:#FFFFFF;}
	.st1{fill:url(#SVGID_1_);}
	.st2{fill:url(#SVGID_2_);}
	.st3{fill:url(#SVGID_3_);}
</style>
<rect x="1.5" class="st0" width="188" height="288"/>
<g>
	<g>
		
			<linearGradient id="SVGID_1_" gradientUnits="userSpaceOnUse" x1="163.85" y1="703.9025" x2="163.85" y2="735.7332" gradientTransform="matrix(1 0 0 1 0 -576)">
			<stop  offset="0" style="stop-color:#70DFFF"/>
			<stop  offset="1" style="stop-color:#70AFFF"/>
		</linearGradient>
		<path class="st1" d="M158.6,157.6c7.8,0,14.1-6.3,14.1-14.1s-6.3-14.1-14.1-14.1H155v28.3L158.6,157.6L158.6,157.6z"/>
		
			<linearGradient id="SVGID_2_" gradientUnits="userSpaceOnUse" x1="95" y1="627.0978" x2="95" y2="816.055" gradientTransform="matrix(1 0 0 1 0 -576)">
			<stop  offset="0" style="stop-color:#00C6FF"/>
			<stop  offset="1" style="stop-color:#0072FF"/>
		</linearGradient>
		<path class="st2" d="M176.2,214.1c0,5.8-4.8,10.6-10.6,10.6s-10.6-4.8-10.6-10.6v-42.4h3.5c15.6,0,28.3-12.7,28.3-28.3
			s-12.7-28.3-28.3-28.3H155V72.9c0-5.8,4.8-10.6,10.6-10.6s10.6,4.8,10.6,10.6v38.8h7.1V72.9c0-9.7-7.9-17.7-17.7-17.7
			c-10.1,0-19.5,3.9-26.6,11L107.2,98c-2,2-4.7,3.1-7.5,3.1H41.4C39.9,97,36.1,94,31.5,94c-5.8,0-10.6,4.8-10.6,10.6v21.2h-7.1
			c-5.8,0-10.6,4.8-10.6,10.6v14.1c0,5.8,4.8,10.6,10.6,10.6h7.1v21.2c0,5.8,4.8,10.6,10.6,10.6c4.6,0,8.5-3,9.9-7.1h4.2
			c1.9,0,3.5,1.6,3.5,3.5v31.8c0,5.8,4.8,10.6,10.6,10.6h10.6c5.8,0,10.6-4.8,10.6-10.6v-31.8c0-1.9,1.6-3.5,3.5-3.5h7.1h8.3
			c2.8,0,5.5,1.1,7.5,3.1l31.8,31.8c7.1,7.1,16.6,11,26.6,11c9.7,0,17.7-7.9,17.7-17.7v-38.8h-7.1v38.9H176.2z M158.6,122.3
			c11.7,0,21.2,9.5,21.2,21.2s-9.5,21.2-21.2,21.2H155v-42.4H158.6z M13.8,154.1c-1.9,0-3.5-1.6-3.5-3.5v-14.2
			c0-1.9,1.6-3.5,3.5-3.5h7.1v21.2C20.9,154.1,13.8,154.1,13.8,154.1z M35,182.3c0,1.9-1.6,3.5-3.5,3.5s-3.5-1.6-3.5-3.5v-77.6
			c0-1.9,1.6-3.5,3.5-3.5c1.9,0,3.5,1.6,3.5,3.5V182.3z M70.3,224.7H59.7c-1.9,0-3.5-1.6-3.5-3.5V200h17.7v21.2
			C73.8,223.1,72.2,224.7,70.3,224.7z M73.8,189.4v3.5H56.2v-3.5c0-1.2-0.3-2.4-0.6-3.5h19C74.1,187,73.8,188.2,73.8,189.4z
			 M112.2,184c-3.3-3.3-7.8-5.2-12.5-5.2h-8.3h-7.1H45.6H42v-70.6h57.7c4.7,0,9.1-1.8,12.5-5.2L144,71.2c1.5-1.5,3.2-2.9,5-4
			c-0.6,1.8-1,3.7-1,5.7v141.3c0,2,0.4,3.9,1,5.7c-1.8-1.2-3.4-2.5-5-4L112.2,184z"/>
		
			<linearGradient id="SVGID_3_" gradientUnits="userSpaceOnUse" x1="73.85" y1="627.0978" x2="73.85" y2="816.055" gradientTransform="matrix(1 0 0 1 0 -576)">
			<stop  offset="0" style="stop-color:#00C6FF"/>
			<stop  offset="1" style="stop-color:#0072FF"/>
		</linearGradient>
		<path class="st3" d="M84.3,132.9h-21c-3.9,0-7.1,3.2-7.1,7.1v7c0,3.9,3.2,7.1,7.1,7.1h21.1c3.9,0,7.1-3.2,7.1-7.1v-7
			C91.5,136.1,88.3,132.9,84.3,132.9z M63.2,147l0.1-7h7v7H63.2z M84.4,147L84.4,147h-7.1v-7h7.1V147z"/>
	</g>
</g>
</svg>
