<svg width="26" height="26" viewBox="0 0 26 26" fill="none" xmlns="http://www.w3.org/2000/svg">
<path d="M3.81378 19.6118C3.78591 19.5078 3.78591 19.5078 3.86312 19.3799C3.93926 19.248 4.16075 18.8586 4.36877 18.8028C4.57279 18.7482 5.08483 18.6109 5.46607 18.4016C5.92345 18.0604 7.19983 17.4954 7.83443 16.9995C8.46795 16.4996 8.85212 16.2852 9.34269 16.4839C9.93727 16.6547 12.4064 18.0769 12.4064 18.0769C12.4064 18.0769 13.2933 17.2905 13.7413 16.5144C14.3202 15.8105 15.1245 14.716 15.6702 13.4722C16.3199 12.2005 16.8337 10.8537 17.0445 9.59243C15.6181 8.76553 14.4475 8.09306 14.161 7.8397C13.8744 7.58634 13.7704 7.61421 13.8412 7.04642C13.908 6.47971 14.0242 5.68112 13.9045 4.83425C13.8166 4.09032 13.6969 3.24345 13.6637 2.70353C13.6305 2.16362 13.6305 2.16362 13.8067 2.00494C13.956 1.74626 14.2372 1.56372 14.3372 1.53692C14.4413 1.50905 14.7493 1.42651 15.7734 1.15211C16.7975 0.877706 18.2296 0.49397 18.5376 0.411434C18.8456 0.328899 18.8456 0.328898 19.0764 0.374242C19.3083 0.423584 19.8472 0.386392 19.8472 0.386392C19.9512 0.358523 20.2924 0.8159 20.3749 1.12393C20.4575 1.43195 20.7598 2.56005 20.8476 3.30398C20.9395 4.04684 21.0484 6.10142 20.9373 6.90294C20.9211 7.67474 20.7364 10.2496 19.3517 13.6905C18.0174 16.9036 15.7741 19.5884 13.8242 21.32C11.8702 23.0526 9.57803 24.3228 8.3778 24.7559C7.20436 25.289 6.69231 25.4262 6.38428 25.5087C6.04839 25.4873 5.6589 25.2658 5.50315 25.0846C5.34448 24.9084 5.15793 24.6282 5.07647 24.3242C4.99393 24.0162 4.7742 23.1961 4.47192 22.068C4.17072 20.9439 3.81378 19.6118 3.81378 19.6118L3.81378 19.6118Z" fill="#767676"/>
</svg>
