<svg width="25" height="27" viewBox="0 0 25 27" fill="none" xmlns="http://www.w3.org/2000/svg">
<path d="M12.5 0C7.47958 0 3.40909 4.02978 3.40909 9C3.40909 13.9702 7.47958 18 12.5 18C17.5204 18 21.5909 13.9702 21.5909 9C21.5909 4.02978 17.5204 0 12.5 0ZM6.42756 11.9883H18.5724C17.4538 14.2031 15.1722 15.75 12.5 15.75C9.82777 15.75 7.54616 14.2031 6.42756 11.9883H6.42756ZM7.24432 19.5469C3.86186 20.4258 1.21627 22.5176 0 27H25C23.7837 22.5176 21.1381 20.4258 17.7557 19.5469C16.1887 20.3774 14.3999 20.8477 12.5 20.8477C10.6001 20.8477 8.81126 20.3774 7.24432 19.5469H7.24432Z" fill="#767676"/>
</svg>
