<svg width="26" height="26" viewBox="0 0 26 26" fill="none" xmlns="http://www.w3.org/2000/svg">
<path d="M3.81378 19.6121C3.78591 19.508 3.78591 19.508 3.86312 19.3802C3.93926 19.2483 4.16075 18.8588 4.36877 18.8031C4.57279 18.7484 5.08483 18.6112 5.46607 18.4019C5.92345 18.0606 7.19983 17.4957 7.83443 16.9998C8.46795 16.4999 8.85212 16.2855 9.34269 16.4842C9.93727 16.655 12.4064 18.0771 12.4064 18.0771C12.4064 18.0771 13.2933 17.2907 13.7413 16.5146C14.3202 15.8107 15.1245 14.7163 15.6702 13.4724C16.3199 12.2007 16.8337 10.854 17.0445 9.59267C15.6181 8.76578 14.4475 8.0933 14.161 7.83994C13.8744 7.58658 13.7704 7.61445 13.8412 7.04667C13.908 6.47996 14.0242 5.68136 13.9045 4.83449C13.8166 4.09056 13.6969 3.24369 13.6637 2.70378C13.6305 2.16386 13.6305 2.16386 13.8067 2.00519C13.956 1.7465 14.2372 1.56396 14.3372 1.53716C14.4413 1.50929 14.7493 1.42676 15.7734 1.15235C16.7975 0.877949 18.2296 0.494213 18.5376 0.411677C18.8456 0.329142 18.8456 0.329142 19.0764 0.374487C19.3083 0.423828 19.8472 0.386636 19.8472 0.386636C19.9512 0.358767 20.2924 0.816144 20.3749 1.12417C20.4575 1.4322 20.7598 2.5603 20.8476 3.30423C20.9395 4.04709 21.0484 6.10166 20.9373 6.90319C20.9211 7.67499 20.7364 10.2499 19.3517 13.6908C18.0174 16.9038 15.7741 19.5887 13.8242 21.3202C11.8702 23.0529 9.57803 24.3231 8.3778 24.7562C7.20436 25.2892 6.69231 25.4264 6.38428 25.509C6.04839 25.4875 5.6589 25.266 5.50315 25.0848C5.34448 24.9087 5.15793 24.6285 5.07647 24.3245C4.99393 24.0164 4.7742 23.1964 4.47192 22.0683C4.17072 20.9442 3.81378 19.6121 3.81378 19.6121L3.81378 19.6121Z" fill="#A5A5A5"/>
</svg>
