<?xml version="1.0" encoding="utf-8"?>
<!-- Generator: Adobe Illustrator 24.1.3, SVG Export Plug-In . SVG Version: 6.00 Build 0)  -->
<svg version="1.1" id="Слой_1" xmlns="http://www.w3.org/2000/svg" xmlns:xlink="http://www.w3.org/1999/xlink" x="0px" y="0px"
	 viewBox="0 0 300 300" style="enable-background:new 0 0 300 300;" xml:space="preserve">
<style type="text/css">
	.st0{fill:#FFFFFF;}
	.st1{fill:#57ACFF;}

</style>

<g class="so1">
	<path class="st1 so1" d="M25.5,231.6L25.5,231.6c-4.7,0-8.5-3.8-8.5-8.5v-147c0-4.7,3.8-8.5,8.5-8.5h0c4.7,0,8.5,3.8,8.5,8.5v147
		C34,227.8,30.2,231.6,25.5,231.6z"/>
</g>
<g>
	<path class="st1 so2" d="M52.5,231.6L52.5,231.6c-4.7,0-8.5-3.8-8.5-8.5v-147c0-4.7,3.8-8.5,8.5-8.5h0c4.7,0,8.5,3.8,8.5,8.5v147
		C61,227.8,57.2,231.6,52.5,231.6z"/>
</g>
<g>
	<path class="st1 so3" d="M79.5,231.6L79.5,231.6c-4.7,0-8.5-3.8-8.5-8.5v-147c0-4.7,3.8-8.5,8.5-8.5h0c4.7,0,8.5,3.8,8.5,8.5v147
		C88,227.8,84.2,231.6,79.5,231.6z"/>
</g>
<g>
	<path class="st1 so4" d="M107.5,231.6L107.5,231.6c-4.7,0-8.5-3.8-8.5-8.5v-147c0-4.7,3.8-8.5,8.5-8.5h0c4.7,0,8.5,3.8,8.5,8.5v147
		C116,227.8,112.2,231.6,107.5,231.6z"/>
</g>
<g>
	<path class="st1 so5" d="M134.5,231.6L134.5,231.6c-4.7,0-8.5-3.8-8.5-8.5v-147c0-4.7,3.8-8.5,8.5-8.5h0c4.7,0,8.5,3.8,8.5,8.5v147
		C143,227.8,139.2,231.6,134.5,231.6z"/>
</g>
<g>
	<path class="st1 so6" d="M163.5,231.6L163.5,231.6c-4.7,0-8.5-3.8-8.5-8.5v-147c0-4.7,3.8-8.5,8.5-8.5h0c4.7,0,8.5,3.8,8.5,8.5v147
		C172,227.8,168.2,231.6,163.5,231.6z"/>
</g>
<g>
	<path class="st1 so7" d="M191.5,231.6L191.5,231.6c-4.7,0-8.5-3.8-8.5-8.5v-147c0-4.7,3.8-8.5,8.5-8.5h0c4.7,0,8.5,3.8,8.5,8.5v147
		C200,227.8,196.2,231.6,191.5,231.6z"/>
</g>
<g>
	<path class="st1 so8" d="M218.5,231.6L218.5,231.6c-4.7,0-8.5-3.8-8.5-8.5v-147c0-4.7,3.8-8.5,8.5-8.5h0c4.7,0,8.5,3.8,8.5,8.5v147
		C227,227.8,223.2,231.6,218.5,231.6z"/>
</g>
<g>
	<path class="st1 so9" d="M246.5,231.6L246.5,231.6c-4.7,0-8.5-3.8-8.5-8.5v-147c0-4.7,3.8-8.5,8.5-8.5h0c4.7,0,8.5,3.8,8.5,8.5v147
		C255,227.8,251.2,231.6,246.5,231.6z"/>
</g>
<g>
	<path class="st1 so10" d="M275.5,231.6L275.5,231.6c-4.7,0-8.5-3.8-8.5-8.5v-147c0-4.7,3.8-8.5,8.5-8.5l0,0c4.7,0,8.5,3.8,8.5,8.5v147
		C284,227.8,280.2,231.6,275.5,231.6z"/>
</g>
</svg>
