<svg version="1.1" xmlns="http://www.w3.org/2000/svg" xmlns:xlink="http://www.w3.org/1999/xlink" viewBox="0 0 172 172"><defs><radialGradient cx="141.54167" cy="121.83333" r="14.33333" gradientUnits="userSpaceOnUse" id="color-1"><stop offset="0" stop-color="#000000"></stop><stop offset="0.1" stop-color="#000000" stop-opacity="0.9"></stop><stop offset="1" stop-color="#000000" stop-opacity="0"></stop></radialGradient><radialGradient cx="141.54167" cy="53.75" r="10.75" gradientUnits="userSpaceOnUse" id="color-2"><stop offset="0" stop-color="#000000"></stop><stop offset="0.1" stop-color="#000000" stop-opacity="0.9"></stop><stop offset="1" stop-color="#000000" stop-opacity="0"></stop></radialGradient><radialGradient cx="141.54167" cy="75.25" r="10.75" gradientUnits="userSpaceOnUse" id="color-3"><stop offset="0" stop-color="#000000"></stop><stop offset="0.1" stop-color="#000000" stop-opacity="0.9"></stop><stop offset="1" stop-color="#000000" stop-opacity="0"></stop></radialGradient></defs><g fill="none" fill-rule="nonzero" stroke="none" stroke-width="none" stroke-linecap="none" stroke-linejoin="none" stroke-miterlimit="10" stroke-dasharray="" stroke-dashoffset="0" font-family="none" font-weight="none" font-size="none" text-anchor="none" style="mix-blend-mode: normal"><path d="M0,172v-172h172v172z" fill="none" stroke="none" stroke-width="1" stroke-linecap="butt" stroke-linejoin="miter"></path><g><path d="M150.5,32.25h-25.08333v107.5h25.08333c3.95958,0 7.16667,-3.20708 7.16667,-7.16667v-93.16667c0,-3.95958 -3.20708,-7.16667 -7.16667,-7.16667z" fill="#0078d4" stroke="none" stroke-width="1" stroke-linecap="butt" stroke-linejoin="miter"></path><path d="M125.41667,32.25h-103.91667c-3.95958,0 -7.16667,3.20708 -7.16667,7.16667v93.16667c0,3.95958 3.20708,7.16667 7.16667,7.16667h103.91667z" fill="#199be2" stroke="none" stroke-width="1" stroke-linecap="butt" stroke-linejoin="miter"></path><circle cx="39.5" cy="34" transform="scale(3.58333,3.58333)" r="4" fill="url(#color-1)" stroke="none" stroke-width="1" stroke-linecap="butt" stroke-linejoin="miter"></circle><circle cx="39.5" cy="33.5" transform="scale(3.58333,3.58333)" r="2.5" fill="#ffffff" stroke="none" stroke-width="1" stroke-linecap="butt" stroke-linejoin="miter"></circle><circle cx="39.5" cy="15" transform="scale(3.58333,3.58333)" r="3" fill="url(#color-2)" stroke="none" stroke-width="1" stroke-linecap="butt" stroke-linejoin="miter"></circle><circle cx="39.5" cy="14.5" transform="scale(3.58333,3.58333)" r="1.5" fill="#50e6ff" stroke="none" stroke-width="1" stroke-linecap="butt" stroke-linejoin="miter"></circle><circle cx="39.5" cy="21" transform="scale(3.58333,3.58333)" r="3" fill="url(#color-3)" stroke="none" stroke-width="1" stroke-linecap="butt" stroke-linejoin="miter"></circle><circle cx="39.5" cy="20.5" transform="scale(3.58333,3.58333)" r="1.5" fill="#50e6ff" stroke="none" stroke-width="1" stroke-linecap="butt" stroke-linejoin="miter"></circle><circle cx="19" cy="22" transform="scale(3.58333,3.58333)" r="1" fill="#184f85" stroke="none" stroke-width="1" stroke-linecap="butt" stroke-linejoin="miter"></circle><circle cx="22" cy="16" transform="scale(3.58333,3.58333)" r="1" fill="#184f85" stroke="none" stroke-width="1" stroke-linecap="butt" stroke-linejoin="miter"></circle><circle cx="22" cy="28" transform="scale(3.58333,3.58333)" r="1" fill="#184f85" stroke="none" stroke-width="1" stroke-linecap="butt" stroke-linejoin="miter"></circle><circle cx="19" cy="18" transform="scale(3.58333,3.58333)" r="1" fill="#184f85" stroke="none" stroke-width="1" stroke-linecap="butt" stroke-linejoin="miter"></circle><circle cx="19" cy="30" transform="scale(3.58333,3.58333)" r="1" fill="#184f85" stroke="none" stroke-width="1" stroke-linecap="butt" stroke-linejoin="miter"></circle><circle cx="19" cy="26" transform="scale(3.58333,3.58333)" r="1" fill="#184f85" stroke="none" stroke-width="1" stroke-linecap="butt" stroke-linejoin="miter"></circle><circle cx="25" cy="22" transform="scale(3.58333,3.58333)" r="1" fill="#184f85" stroke="none" stroke-width="1" stroke-linecap="butt" stroke-linejoin="miter"></circle><circle cx="25" cy="18" transform="scale(3.58333,3.58333)" r="1" fill="#184f85" stroke="none" stroke-width="1" stroke-linecap="butt" stroke-linejoin="miter"></circle><circle cx="25" cy="26" transform="scale(3.58333,3.58333)" r="1" fill="#184f85" stroke="none" stroke-width="1" stroke-linecap="butt" stroke-linejoin="miter"></circle><circle cx="22" cy="20" transform="scale(3.58333,3.58333)" r="1" fill="#184f85" stroke="none" stroke-width="1" stroke-linecap="butt" stroke-linejoin="miter"></circle><circle cx="22" cy="24" transform="scale(3.58333,3.58333)" r="1" fill="#184f85" stroke="none" stroke-width="1" stroke-linecap="butt" stroke-linejoin="miter"></circle><circle cx="28" cy="20" transform="scale(3.58333,3.58333)" r="1" fill="#184f85" stroke="none" stroke-width="1" stroke-linecap="butt" stroke-linejoin="miter"></circle><circle cx="28" cy="24" transform="scale(3.58333,3.58333)" r="1" fill="#184f85" stroke="none" stroke-width="1" stroke-linecap="butt" stroke-linejoin="miter"></circle><circle cx="16" cy="28" transform="scale(3.58333,3.58333)" r="1" fill="#184f85" stroke="none" stroke-width="1" stroke-linecap="butt" stroke-linejoin="miter"></circle><circle cx="16" cy="16" transform="scale(3.58333,3.58333)" r="1" fill="#184f85" stroke="none" stroke-width="1" stroke-linecap="butt" stroke-linejoin="miter"></circle><circle cx="13" cy="22" transform="scale(3.58333,3.58333)" r="1" fill="#184f85" stroke="none" stroke-width="1" stroke-linecap="butt" stroke-linejoin="miter"></circle><circle cx="13" cy="26" transform="scale(3.58333,3.58333)" r="1" fill="#184f85" stroke="none" stroke-width="1" stroke-linecap="butt" stroke-linejoin="miter"></circle><circle cx="13" cy="18" transform="scale(3.58333,3.58333)" r="1" fill="#184f85" stroke="none" stroke-width="1" stroke-linecap="butt" stroke-linejoin="miter"></circle><circle cx="16" cy="24" transform="scale(3.58333,3.58333)" r="1" fill="#184f85" stroke="none" stroke-width="1" stroke-linecap="butt" stroke-linejoin="miter"></circle><circle cx="16" cy="20" transform="scale(3.58333,3.58333)" r="1" fill="#184f85" stroke="none" stroke-width="1" stroke-linecap="butt" stroke-linejoin="miter"></circle><circle cx="10" cy="24" transform="scale(3.58333,3.58333)" r="1" fill="#184f85" stroke="none" stroke-width="1" stroke-linecap="butt" stroke-linejoin="miter"></circle><circle cx="22" cy="32" transform="scale(3.58333,3.58333)" r="1" fill="#184f85" stroke="none" stroke-width="1" stroke-linecap="butt" stroke-linejoin="miter"></circle><circle cx="25" cy="30" transform="scale(3.58333,3.58333)" r="1" fill="#184f85" stroke="none" stroke-width="1" stroke-linecap="butt" stroke-linejoin="miter"></circle><circle cx="28" cy="28" transform="scale(3.58333,3.58333)" r="1" fill="#184f85" stroke="none" stroke-width="1" stroke-linecap="butt" stroke-linejoin="miter"></circle><circle cx="16" cy="32" transform="scale(3.58333,3.58333)" r="1" fill="#184f85" stroke="none" stroke-width="1" stroke-linecap="butt" stroke-linejoin="miter"></circle><circle cx="13" cy="30" transform="scale(3.58333,3.58333)" r="1" fill="#184f85" stroke="none" stroke-width="1" stroke-linecap="butt" stroke-linejoin="miter"></circle><circle cx="10" cy="28" transform="scale(3.58333,3.58333)" r="1" fill="#184f85" stroke="none" stroke-width="1" stroke-linecap="butt" stroke-linejoin="miter"></circle><circle cx="10" cy="20" transform="scale(3.58333,3.58333)" r="1" fill="#184f85" stroke="none" stroke-width="1" stroke-linecap="butt" stroke-linejoin="miter"></circle><path d="M68.08333,14.33333v-10.75" fill="none" stroke="#50e6ff" stroke-width="7.16667" stroke-linecap="round" stroke-linejoin="round"></path><path d="M44.77017,18.97017l-4.11367,-9.933" fill="none" stroke="#50e6ff" stroke-width="7.16667" stroke-linecap="round" stroke-linejoin="round"></path><path d="M91.3965,18.97017l4.11367,-9.933" fill="none" stroke="#50e6ff" stroke-width="7.16667" stroke-linecap="round" stroke-linejoin="round"></path></g></g></svg>