<svg version="1.1" xmlns="http://www.w3.org/2000/svg" xmlns:xlink="http://www.w3.org/1999/xlink" viewBox="0 0 172 172"><defs><linearGradient x1="74.03525" y1="71.60933" x2="102.68042" y2="115.72375" gradientUnits="userSpaceOnUse" id="color-1"><stop offset="0.002" stop-color="#f44f78"></stop><stop offset="0.397" stop-color="#e4305d"></stop><stop offset="0.763" stop-color="#d81b4a"></stop><stop offset="1" stop-color="#d41343"></stop></linearGradient></defs><g fill="none" fill-rule="nonzero" stroke="none" stroke-width="1" stroke-linecap="butt" stroke-linejoin="miter" stroke-miterlimit="10" stroke-dasharray="" stroke-dashoffset="0" font-family="none" font-weight="none" font-size="none" text-anchor="none" style="mix-blend-mode: normal"><path d="M0,172v-172h172v172z" fill="none"></path><g><path d="M143.33333,154.08333h-114.66667c-1.978,0 -3.58333,-1.60533 -3.58333,-3.58333v-10.75h121.83333v10.75c0,1.978 -1.60533,3.58333 -3.58333,3.58333z" fill="#6191bf"></path><path d="M146.91667,143.33333h-121.83333v-107.5c0,-3.95958 3.20708,-7.16667 7.16667,-7.16667h107.5c3.95958,0 7.16667,3.20708 7.16667,7.16667z" fill="#57acff"></path><circle cx="31" cy="12" transform="scale(3.58333,3.58333)" r="2" fill="#0c5079"></circle><circle cx="17" cy="12" transform="scale(3.58333,3.58333)" r="2" fill="#0c5079"></circle><path d="M111.08333,46.58333c-1.978,0 -3.58333,-1.60175 -3.58333,-3.58333v-14.33333c0,-11.85725 -9.64275,-21.5 -21.5,-21.5c-11.85725,0 -21.5,9.64275 -21.5,21.5v14.33333c0,1.98158 -1.60533,3.58333 -3.58333,3.58333c-1.978,0 -3.58333,-1.60175 -3.58333,-3.58333v-14.33333c0,-15.80608 12.86058,-28.66667 28.66667,-28.66667c15.80608,0 28.66667,12.86058 28.66667,28.66667v14.33333c0,1.98158 -1.60533,3.58333 -3.58333,3.58333z" fill="#002c4f"></path><path d="M86,82.95775c0,0 6.99108,-7.77583 15.61617,-7.77583c8.62508,0 15.61617,7.05558 15.61617,15.55167c0,5.26392 -5.20658,10.36658 -5.20658,10.36658l-23.392,23.29883c-1.45483,1.44767 -3.81625,1.44767 -5.27108,0l-23.392,-23.29883c0,0 -5.20658,-5.10267 -5.20658,-10.36658c0,-8.4925 6.99108,-15.55167 15.61617,-15.55167c8.62508,0 15.61975,7.77583 15.61975,7.77583z" fill="url(#color-1)"></path></g></g></svg>