<svg version="1.1" xmlns="http://www.w3.org/2000/svg" xmlns:xlink="http://www.w3.org/1999/xlink" viewBox="0 0 226 226"><defs><linearGradient x1="59.72992" y1="21.62067" x2="167.5225" y2="197.00138" gradientUnits="userSpaceOnUse" id="color-1"><stop offset="0" stop-color="#33bef0"></stop><stop offset="1" stop-color="#0a85d9"></stop></linearGradient></defs><g fill="none" fill-rule="nonzero" stroke="none" stroke-width="1" stroke-linecap="butt" stroke-linejoin="miter" stroke-miterlimit="10" stroke-dasharray="" stroke-dashoffset="0" font-family="none" font-weight="none" font-size="none" text-anchor="none" style="mix-blend-mode: normal"><path d="M0,226v-226h226v226z" fill="none"></path><g><path d="M197.75,37.66667h-169.5c-5.20271,0 -9.41667,4.21396 -9.41667,9.41667v122.41667c0,5.20271 4.21396,9.41667 9.41667,9.41667h37.66667v37.65725c0,4.19512 5.07088,6.29504 8.03713,3.32879l40.98604,-40.98604h82.81017c5.20271,0 9.41667,-4.21396 9.41667,-9.41667v-122.41667c0,-5.20271 -4.21396,-9.41667 -9.41667,-9.41667z" fill="url(#color-1)"></path><path d="M110.41983,56.5c-8.701,0 -19.52546,4.40229 -24.32796,6.56812c-1.53492,0.69212 -2.49542,2.20821 -2.49542,3.88908v21.42762c0,2.70258 3.15929,4.14804 5.198,2.37771c4.50588,-3.91262 11.53542,-8.57388 19.45013,-8.57388c2.33062,0 5.10854,0.7345 5.10854,4.23279c0,9.23304 -18.57438,12.52417 -18.57438,32.11554c0,2.58017 1.21946,7.09075 2.04342,9.83571c0.41433,1.37954 1.67617,2.33062 3.12163,2.32592l20.26467,-0.05179c2.33062,-0.00471 3.94558,-2.486 2.81558,-4.52471c-1.28537,-2.3165 -1.77504,-4.79308 -1.77504,-5.71592c0,-3.729 1.82683,-6.28563 6.64346,-10.36775c6.12554,-5.19329 14.51579,-12.30287 14.51579,-26.35254c-0.00471,-17.02062 -11.95917,-27.18592 -31.98842,-27.18592z" fill="#000000" opacity="0.05"></path><path d="M87.79158,64.65483c4.22337,-2.08579 13.09387,-5.80067 22.62825,-5.80067c23.48046,0 29.62954,14.34158 29.62954,24.84117c0,12.87258 -7.50037,19.31358 -13.55529,24.44567c-3.99267,3.38529 -6.70467,5.91838 -7.72167,9.28012c-0.37196,1.22888 -0.2825,3.36646 0.51321,5.38633c0.9605,2.4295 3.50771,5.52288 -2.49071,5.52288l-15.45746,0.02354c-1.56317,0 -2.46717,-0.88046 -2.71671,-1.74208c-0.48496,-1.66204 -1.08763,-4.15746 -1.30892,-6.4975c-0.10358,-1.10646 -0.14125,-2.147 -0.08946,-3.051c1.04054,-17.39258 18.48492,-19.71379 18.48492,-30.63712c0,-3.25817 -1.94454,-4.56708 -3.80904,-5.29217c-2.80146,-1.09704 -6.0455,-0.89458 -7.8535,-0.46613c-4.39288,1.04525 -8.34788,2.82029 -11.40829,4.83546c-2.12346,1.39838 -4.64713,1.27596 -5.40988,0.47554c-0.53675,0.39079 -1.28067,-2.39654 -1.28067,-3.06042v-14.72296c0,-0.2825 0.07533,-1.15354 0.15538,-1.4125c0.27779,-0.88988 0.81454,-1.695 1.69029,-2.12817z" fill="#000000" opacity="0.07"></path><path d="M109.85483,131.95575c-7.39208,0 -15.255,4.91079 -15.255,14.00729c0,9.17183 7.86292,14.12029 15.255,14.12029c8.88463,0 15.0855,-5.80537 15.0855,-14.12029c0,-9.19538 -7.58983,-14.00729 -15.0855,-14.00729z" fill="#000000" opacity="0.05"></path><path d="M109.85483,157.72917c-6.26208,0 -12.90083,-4.07271 -12.90083,-11.76612c0,-7.65575 6.74704,-11.65313 12.90083,-11.65313c6.20558,0 12.73133,3.78079 12.73133,11.65313c0,7.42975 -5.72533,11.76612 -12.73133,11.76612z" fill="#000000" opacity="0.07"></path><path d="M100.79129,125.99971c-0.41433,-1.07821 -1.30421,-4.28458 -1.30421,-7.45329c0,-18.04233 18.57438,-18.73446 18.57438,-32.11554c0,-8.42321 -8.32433,-8.94583 -9.81687,-8.94583c-9.45433,0 -16.837,5.40517 -19.93979,8.136v-18.69679c3.19225,-1.90688 10.48546,-5.71592 22.11504,-5.71592c26.93167,0 27.27067,18.51317 27.27067,22.487c0,21.37112 -22.05383,22.95313 -22.05383,36.64967c0,2.85796 1.03583,4.94846 1.49254,5.65471zM109.85483,155.375c-5.12738,0 -10.54667,-3.19696 -10.54667,-9.41196c0,-6.215 5.63117,-9.29896 10.54667,-9.29896c4.9155,0 10.37717,2.75437 10.37717,9.29896c0,6.54458 -5.24979,9.41196 -10.37717,9.41196z" fill="#ffffff"></path></g></g></svg>