<?xml version="1.0" encoding="utf-8"?>
<!-- Generator: Adobe Illustrator 24.1.3, SVG Export Plug-In . SVG Version: 6.00 Build 0)  -->
<svg version="1.1" id="Слой_1" xmlns="http://www.w3.org/2000/svg" xmlns:xlink="http://www.w3.org/1999/xlink" x="0px" y="0px"
	 viewBox="0 0 82 80" style="enable-background:new 0 0 82 80;" xml:space="preserve">
<style type="text/css">
	.st0{fill:#57ACFF;}
	.st1{fill:#182F52;}
</style>
<path class="st0" d="M66.6,32.8c1.4,3.8,2.2,7.8,2.2,11.8C68.8,62.4,54.4,77,36.4,77C18.6,77,4,62.5,4,44.6s14.6-32.4,32.4-32.4
	c4.1,0,7.9,0.8,11.8,2.2l1.1-2.9c-4.1-1.6-8.4-2.4-12.9-2.4C16.9,9.2,1,25.1,1,44.6S16.9,80,36.4,80c19.5,0,35.4-15.9,35.4-35.4
	c0-4.4-0.8-8.7-2.4-12.9L66.6,32.8z"/>
<path class="st1" d="M36.4,72.2c-15.2,0-27.8-12.4-27.8-27.8C8.6,29,21,16.6,36.4,16.6c15.2,0,27.8,12.4,27.8,27.8
	C64.2,59.8,51.7,72.2,36.4,72.2z M36.4,20c-13.7,0-24.6,11.1-24.6,24.6s11.1,24.6,24.6,24.6C50.1,69.2,61,58.1,61,44.6
	S50.1,20,36.4,20z"/>
<path class="st1" d="M81,13.2c-0.3-1.1-1.3-1.9-2.4-2.2l-7.3-1.3l-1.4-7.1c-0.2-1.1-1.1-2.1-2.2-2.4c-1.1-0.3-2.2,0-3.2,0.8l-10,10
	c-1.1,1.1-1.6,2.7-1.3,4.3l1.7,8.7l-1.4,1.6l-4,3.8l0,0L47,31.8l-7.6,7.6c-1-0.5-1.9-0.8-3.2-0.8c-3.3,0-6.2,2.7-6.2,6.2
	c0,3.5,2.7,6.2,6.2,6.2c3.5,0,6.2-2.7,6.2-6.2c0-1.1-0.3-2.2-0.8-3.2l7.8-7.8c0,0,0,0,0,0l2.1-2.1c0,0,0,0,0,0l5.7-5.7l8.6,1.7
	c0.3,0,0.6,0.2,1,0.2c1.3,0,2.4-0.5,3.3-1.4l10-10C81,15.4,81.3,14.3,81,13.2z M36.5,47.7c-1.6,0-3-1.4-3-3c0-1.6,1.4-3,3-3
	c1.6,0,3,1.3,3,3C39.5,46.4,38.1,47.7,36.5,47.7z M66.8,3l1.4,7.3l-2.4,2.4l-1.6,1.6l-1.4-7.5L66.8,3z M56.4,14.5
	c-0.2-0.5,0-1.1,0.5-1.4l3.5-3.3l1.4,7.5l-4,4L56.4,14.5z M68,24.2c-0.3,0.3-1,0.5-1.4,0.5L60,23.4l4-4l7.5,1.4L68,24.2z M74,18.1
	l-7.5-1.4l4-4l0.2-0.2l7.5,1.6L74,18.1z"/>
<path class="st0" d="M49.4,33.9c2.4,2.9,4,6.7,4,10.8c0,9.4-7.6,17-17,17s-17-7.6-17-17c0-9.4,7.6-17,17-17c4.1,0,7.9,1.4,10.8,4
	l2.1-1.9c-3.5-3-8.1-4.9-13-4.9c-11.1,0-20,8.9-20,20c0,11.1,9.1,20,20,20c11.1,0,20-9.1,20-20c0-4.9-1.9-9.5-4.8-13L49.4,33.9z"/>
</svg>
