<?xml version="1.0" encoding="utf-8"?>
<!-- Generator: Adobe Illustrator 24.1.3, SVG Export Plug-In . SVG Version: 6.00 Build 0)  -->
<svg version="1.1" id="Слой_1" xmlns="http://www.w3.org/2000/svg" xmlns:xlink="http://www.w3.org/1999/xlink" x="0px" y="0px"
	 viewBox="0 0 81 83" style="enable-background:new 0 0 81 83;" xml:space="preserve">
<style type="text/css">
	.st0{fill:#57ACFF;}
	.st1{fill:#182F52;}
</style>
<path class="st0" d="M40.4,48.2c3.4,0,6.2-2.8,6.2-6.3s-2.8-6.3-6.2-6.3c-3.4,0-6.2,2.8-6.2,6.3S37,48.2,40.4,48.2z"/>
<path class="st0" d="M65.8,34.1H69c-2.7-10.2-10.7-18.3-20.8-21v3.2C56.6,18.9,63.3,25.5,65.8,34.1z"/>
<path class="st0" d="M48.2,67.5v3.2C58.3,68,66.3,60,69,49.8h-3.2C63.3,58.2,56.6,65,48.2,67.5z"/>
<path class="st0" d="M15.2,49.8H12C14.7,60,22.7,68,32.8,70.8v-3.2C24.3,65,17.7,58.2,15.2,49.8z"/>
<path class="st0" d="M12,34.1h3.2c2.6-8.4,9.1-15.2,17.6-17.8v-3.2C22.7,15.8,14.7,23.9,12,34.1z"/>
<path class="st1" d="M40.4,34.1c-4.3,0-7.8,3.6-7.8,7.9s3.5,7.9,7.8,7.9s7.8-3.6,7.8-7.9S44.7,34.1,40.4,34.1z M40.4,46.7
	c-2.6,0-4.6-2.1-4.6-4.7c0-2.6,2.1-4.7,4.6-4.7c2.6,0,4.6,2.1,4.6,4.7C45.2,44.6,43.1,46.7,40.4,46.7z"/>
<path class="st1" d="M40.4,29.2c2.6,0,4.6-2.1,4.6-4.7V5.6C45.2,3.1,43.1,1,40.4,1c-2.6,0-4.6,2.1-4.6,4.7v18.9
	C35.8,27.1,37.9,29.2,40.4,29.2z M39,5.6C39,4.8,39.6,4,40.6,4c1,0,1.6,0.6,1.6,1.6v18.9c0,0.8-0.6,1.6-1.6,1.6
	c-1,0-1.6-0.6-1.6-1.6V5.6z"/>
<path class="st1" d="M40.4,54.5c-2.6,0-4.6,2.1-4.6,4.7v18.9c0,2.6,2.1,4.7,4.6,4.7c2.6,0,4.6-2.1,4.6-4.7V59.3
	C45.2,56.7,43.1,54.5,40.4,54.5z M42,78.2c0,0.8-0.6,1.6-1.6,1.6c-1,0-1.6-0.6-1.6-1.6V59.3c0-0.8,0.6-1.6,1.6-1.6
	c1,0,1.6,0.6,1.6,1.6V78.2z"/>
<path class="st1" d="M76.4,37.2H57.7c-2.6,0-4.6,2.1-4.6,4.7c0,2.6,2.1,4.7,4.6,4.7h18.7c2.6,0,4.6-2.1,4.6-4.7
	C81,39.3,78.9,37.2,76.4,37.2z M76.4,43.5H57.7c-0.8,0-1.6-0.6-1.6-1.6c0-1,0.6-1.6,1.6-1.6h18.7c0.8,0,1.6,0.6,1.6,1.6
	C78,42.8,77.2,43.5,76.4,43.5z"/>
<path class="st1" d="M72.2,34.1h3.2c-3-13.7-13.7-24.4-27.2-27.5v3.2C60.1,12.8,69.3,22.1,72.2,34.1z"/>
<path class="st1" d="M8.8,49.8H5.6c3,13.7,13.7,24.4,27.2,27.5V74C20.9,71.1,11.7,61.7,8.8,49.8z"/>
<path class="st1" d="M32.8,9.8V6.6C19.2,9.5,8.5,20.4,5.6,34.1h3.2C11.7,22.1,20.9,12.8,32.8,9.8z"/>
<path class="st1" d="M48.2,74v3.2c13.6-3.1,24.1-13.9,27.2-27.5h-3.2C69.3,61.7,60.1,71.1,48.2,74z"/>
<path class="st1" d="M28,41.9c0-2.6-2.1-4.7-4.6-4.7H4.6c-2.6,0-4.6,2.1-4.6,4.7c0,2.6,2.1,4.7,4.6,4.7h18.7
	C25.9,46.7,28,44.6,28,41.9z M3,41.9c0-0.8,0.6-1.6,1.6-1.6h18.7c0.8,0,1.6,0.6,1.6,1.6c0,1-0.6,1.6-1.6,1.6H4.6
	C3.8,43.5,3,42.8,3,41.9z"/>
<path class="st1" d="M59.1,34.1h3.4c-2.4-6.6-7.7-12-14.2-14.4v3.4C53.2,25,57.2,29.1,59.1,34.1z"/>
<path class="st1" d="M21.9,49.8h-3.4c2.4,6.6,7.7,12,14.2,14.4v-3.4C27.8,58.8,23.8,54.8,21.9,49.8z"/>
<path class="st1" d="M48.2,64.2c6.6-2.4,11.8-7.8,14.2-14.4h-3.4c-2.1,5-5.9,8.9-10.9,11V64.2z"/>
<path class="st1" d="M21.9,34.1c2.1-5,5.9-8.9,10.9-11v-3.4c-6.6,2.4-11.8,7.8-14.2,14.4H21.9z"/>
</svg>
