<?xml version="1.0" encoding="utf-8"?>
<!-- Generator: Adobe Illustrator 24.1.3, SVG Export Plug-In . SVG Version: 6.00 Build 0)  -->
<svg version="1.1" id="Слой_1" xmlns="http://www.w3.org/2000/svg" xmlns:xlink="http://www.w3.org/1999/xlink" x="0px" y="0px"
	 viewBox="0 0 74 80" style="enable-background:new 0 0 74 80;" xml:space="preserve">
<style type="text/css">
	.st0{fill:#182F52;}
	.st1{fill:#57ACFF;}
</style>
<path class="st0" d="M64.5,10.7h3.1v6.1h-3.1V10.7z"/>
<path class="st1" d="M46,15.3c4.2,0,7.7-3.4,7.7-7.7C53.7,3.4,50.3,0,46,0s-7.7,3.4-7.7,7.7C38.4,11.9,41.8,15.3,46,15.3z M46,3.1
	c2.5,0,4.6,2.1,4.6,4.6c0,2.5-2.1,4.6-4.6,4.6c-2.5,0-4.6-2.1-4.6-4.6C41.4,5.1,43.5,3.1,46,3.1z"/>
<path class="st0" d="M46.4,67.5h27.3v-3.1h-6.1V35.3h-3.1v29.2h-9.1l-11.2,0.6c-0.8,0.4-1.4,1.1-1.8,1.9l-4.9,9.7H22.5l0,0h-11
	c0,0,0,0,0,0H0v3.1h56.8v-3.1H40.8l1.5-3.1h20.5v-3.1h-19l1.1-2.2C45.3,67.9,45.8,67.5,46.4,67.5z"/>
<path class="st1" d="M73.5,24.9C73,22,70.4,20,67.4,20H55.9l-14.8-3c-1.4-0.3-2.8,0-4,0.6L24.7,41.1c0,0,0,0,0,0l-1.1,2.4
	c-0.3,0.6-0.5,1.3-0.6,2l-1.2,13c-0.1,1.1-0.6,2.1-1.3,2.8l-7.8,7.8c-2.1,2.1-2.5,5.2-1.2,7.5h5.1c-0.8-0.1-1.6-0.4-2.1-1
	c-1-1.2-0.9-3.1,0.3-4.3l7.8-7.8c1.3-1.3,2.1-2.9,2.2-4.7l1.2-13c0-0.4,0.1-0.7,0.3-1l10.7-23c0.5-1.1,1.6-1.8,2.8-1.8
	c0.2,0,0.4,0,0.6,0.1l14.9,3l12,0c1.5,0,2.9,1.1,3.2,2.4c0.2,0.9,0,1.9-0.6,2.6c-0.6,0.7-1.4,1.1-2.4,1.1H55.2c-0.2,0-0.4,0-0.6-0.1
	l-13-2.6l-9.5,20.4l-1.4,15.8c-0.1,1.1-0.6,2.1-1.3,2.8L19,75.9c-0.6,0.6-1.3,0.8-2.1,0.8h5.6l9-9c1.3-1.3,2.1-2.9,2.2-4.7l0.9-9.8
	l8.3,1.3v7c0,1.3,0.5,2.6,1.2,3.6l10.3-0.6c0.5-0.9,0.8-1.9,0.8-3V49.1c0-3-2.2-5.6-5.2-6.1l-11.9-1.8L43.4,30L54,32.1
	c0.4,0.1,0.8,0.1,1.2,0.1h12.3c1.8,0,3.6-0.8,4.7-2.2C73.4,28.6,73.9,26.7,73.5,24.9z M49.6,46.1c1.5,0.2,2.6,1.5,2.6,3v12.3
	c0,1.7-1.4,3.1-3.1,3.1c-1.7,0-3.1-1.4-3.1-3.1v-9.6L35,50.1l0.2-2.4l1.7-3.6L49.6,46.1z"/>
<path class="st0" d="M16.1,30.3L15.3,32c-0.5,1.1-0.6,2.4-0.2,3.5c0.4,1.2,1.3,2.1,2.4,2.6l5.6,2.6c0.5,0.2,0.9,0.3,1.4,0.4
	l12.4-23.4c-0.5-0.9-1.2-1.6-2.1-2l-5.6-2.6c-1.1-0.5-2.4-0.6-3.5-0.2c-1.2,0.4-2.1,1.3-2.6,2.4l-0.8,1.6c-1.9-0.2-3.8,0.8-4.6,2.6
	l-2.6,5.6c-0.5,1.1-0.6,2.4-0.2,3.5C15.2,29.3,15.6,29.9,16.1,30.3z M31.9,17.7l1.6,0.8c0.4,0.2,0.7,0.5,0.8,0.9
	c0.1,0.4,0.1,0.8-0.1,1.2l-1.9,4.2l-3-1.4L31.9,17.7z M25.9,16.6c0.2-0.4,0.5-0.7,0.9-0.8c0.2-0.1,0.3-0.1,0.5-0.1
	c0.2,0,0.4,0,0.6,0.1l1.2,0.5l-2.6,5.6L24,20.8L25.9,16.6z M22.7,23.5l8.3,3.9L28.4,33l-8.3-3.9L22.7,23.5z M18.1,33.3l0.6-1.4
	l8.3,3.9l-0.6,1.4c-0.2,0.4-0.5,0.7-0.9,0.8c-0.4,0.1-0.8,0.1-1.2-0.1l-5.6-2.6c-0.4-0.2-0.7-0.5-0.8-0.9
	C17.9,34.1,17.9,33.6,18.1,33.3z"/>
</svg>
