<?xml version="1.0" encoding="utf-8"?>
<!-- Generator: Adobe Illustrator 24.1.3, SVG Export Plug-In . SVG Version: 6.00 Build 0)  -->
<svg version="1.1" id="Слой_1" xmlns="http://www.w3.org/2000/svg" xmlns:xlink="http://www.w3.org/1999/xlink" x="0px" y="0px"
	 viewBox="0 0 73 83" style="enable-background:new 0 0 73 83;" xml:space="preserve">
<style type="text/css">
	.st0{fill:#57ACFF;}
	.st1{fill:#182F52;}
</style>
<path class="st0" d="M6.9,73.4h59.2v3.2H6.9V73.4z"/>
<path class="st0" d="M6.9,7.2h59.2v3.2H6.9V7.2z"/>
<path class="st1" d="M65.9,16.7h1.7c2.5,0,4.6-2.1,4.6-4.7V5.6C72.3,3,70.2,1,67.7,1H5.3C2.7,1,0.7,3,0.7,5.6v6.3
	c0,2.6,2.1,4.7,4.6,4.7H7c1.3,11.7,9.2,21.5,20,25.2C16.4,45.6,8.3,55.4,7,67.2H5.3c-2.5,0-4.6,2.1-4.6,4.7v6.3
	c0,2.7,2.1,4.8,4.6,4.8h62.3c2.5,0,4.6-2.1,4.6-4.7V72c0-2.6-2.1-4.7-4.6-4.7h-1.7c-1.3-11.7-9.2-21.5-20-25.2
	C56.7,38.2,64.7,28.4,65.9,16.7z M5.3,13.5c-0.8,0-1.6-0.6-1.6-1.6V5.6C3.7,4.8,4.3,4,5.3,4h62.3c0.8,0,1.6,0.6,1.6,1.6v6.3
	c0,0.8-0.6,1.6-1.6,1.6h-1.6h-3.2H10H6.9H5.3z M67.7,70.4c0.8,0,1.6,0.6,1.6,1.6v6.3c0,0.8-0.6,1.6-1.6,1.6H5.3
	c-0.8,0-1.6-0.6-1.6-1.6V72c0-0.8,0.6-1.6,1.6-1.6h1.6H10h52.9h3.2H67.7z M62.8,67.2H10.2c1.6-13.3,12.7-23.6,26.2-23.6
	S61.2,53.8,62.8,67.2z M38,40.3v-6.3h-3.2v6.3c-8.1-0.5-15.2-4.7-19.9-10.9h7.3v-3.2h-9.1c-0.5-1-1-2.1-1.4-3.2h17v-3.2H10.8
	c-0.3-1-0.5-2.1-0.6-3.2h52.6C61.3,29.6,50.9,39.5,38,40.3z"/>
<path class="st0" d="M54.5,60.9c-3.3-6.6-10.2-11.1-17.9-11.1c-7.8,0-14.6,4.5-17.9,11.1H54.5z"/>
</svg>
