<?xml version="1.0" encoding="utf-8"?>
<!-- Generator: Adobe Illustrator 24.1.3, SVG Export Plug-In . SVG Version: 6.00 Build 0)  -->
<svg version="1.1" id="Слой_1" xmlns="http://www.w3.org/2000/svg" xmlns:xlink="http://www.w3.org/1999/xlink" x="0px" y="0px"
	 viewBox="0 0 142 142" style="enable-background:new 0 0 142 142;" xml:space="preserve">
<style type="text/css">
	.st0{fill:#57ACFF;}
	.st1{fill:#182F52;}
</style>
<g>
	<path class="st0" d="M57.7,84.4c-1.7,0-3,1.5-2.7,3.1c1.5,7.4,8,13,16,13s14.5-5.6,16-13c0.3-1.6-1-3.1-2.7-3.1L57.7,84.4z"/>
	<path class="st1" d="M71,17.3c-29.6,0-53.8,24.1-53.8,53.8s24.1,53.8,53.8,53.8s53.8-24.1,53.8-53.8S100.6,17.3,71,17.3z M71,119.4
		c-26.7,0-48.4-21.7-48.4-48.4S44.3,22.6,71,22.6s48.4,21.7,48.4,48.4S97.7,119.4,71,119.4z"/>
	<path class="st0" d="M140.9,71c0-5.1-3.2-10.1-9-13.9c0.6-3.5,0.2-7-1.1-10.3c-1.4-3.5-3.9-6.5-7-8.6c1.5-6.8,0.3-13-3.4-16.6
		c-3.7-3.7-9.8-4.9-16.6-3.4c-2.1-3.2-5.1-5.6-8.6-7c-3.3-1.3-6.8-1.7-10.3-1.1c-3.8-5.7-8.8-9-13.9-9s-10.1,3.2-13.9,9
		c-3.5-0.6-7-0.3-10.3,1.1c-3.5,1.4-6.5,3.9-8.6,7c-6.8-1.5-13-0.3-16.6,3.4c-3.7,3.7-4.9,9.8-3.4,16.6c-3.2,2.1-5.6,5.1-7,8.6
		c-1.3,3.3-1.7,6.8-1.1,10.3c-5.7,3.8-9,8.8-9,13.9s3.2,10.1,9,13.9c-0.6,3.5-0.2,7,1.1,10.3c1.4,3.5,3.9,6.5,7,8.6
		c-1.5,6.8-0.3,13,3.4,16.6c3.7,3.7,9.8,4.9,16.6,3.4c2.1,3.2,5.1,5.6,8.6,7c3.3,1.3,6.8,1.7,10.3,1.1c3.8,5.7,8.8,9,13.9,9
		s10.1-3.2,13.9-9c3.5,0.6,7,0.3,10.3-1.1c3.5-1.4,6.5-3.9,8.6-7c6.8,1.5,13,0.3,16.6-3.4c3.7-3.7,4.9-9.8,3.4-16.6
		c3.2-2.1,5.6-5.1,7-8.6c1.3-3.3,1.7-6.8,1.1-10.3C137.6,81.1,140.9,76.1,140.9,71L140.9,71z M127.5,81.3c-1.1,0.6-1.6,1.9-1.3,3.1
		c0.9,2.9,0.7,6-0.4,8.8c-1.2,3-3.5,5.5-6.4,6.9c-1.2,0.6-1.7,1.9-1.4,3.2c1.7,5.7,1.2,10.7-1.5,13.4c-2.6,2.6-7.6,3.2-13.4,1.5
		c-1.2-0.4-2.6,0.2-3.2,1.4c-1.5,2.9-3.9,5.2-6.9,6.4c-2.8,1.1-5.9,1.3-8.8,0.4c-1.2-0.4-2.5,0.2-3.1,1.3c-2.8,5-6.7,8-10.3,8
		s-7.4-3-10.3-8c-0.5-0.9-1.4-1.4-2.3-1.4c-0.2,0-0.5,0-0.8,0.1c-2.9,0.9-6,0.7-8.8-0.4c-3-1.2-5.5-3.5-6.9-6.4
		c-0.6-1.2-1.9-1.7-3.2-1.4c-5.8,1.7-10.7,1.2-13.4-1.5c-2.6-2.6-3.2-7.6-1.5-13.4c0.4-1.2-0.2-2.6-1.4-3.2
		c-2.9-1.5-5.2-3.9-6.4-6.9c-1.1-2.8-1.3-5.9-0.4-8.8c0.3-1.2-0.2-2.5-1.3-3.1c-5-2.8-8-6.7-8-10.3s3-7.4,8-10.3
		c1.1-0.6,1.6-1.9,1.3-3.1c-0.9-2.9-0.7-6,0.4-8.8c1.2-3,3.5-5.5,6.4-6.9c1.2-0.6,1.7-1.9,1.4-3.2C22.2,33,22.8,28,25.4,25.4
		c2.6-2.6,7.6-3.2,13.4-1.5c1.3,0.4,2.6-0.2,3.2-1.4l0.2-0.3c1.5-2.7,3.9-4.9,6.8-6c2.8-1.1,5.9-1.3,8.8-0.4
		c1.2,0.4,2.5-0.2,3.1-1.3c2.8-5,6.7-8,10.3-8s7.4,3,10.3,8c0.6,1.1,1.9,1.6,3.1,1.3c2.9-0.9,6-0.7,8.8,0.4c3,1.2,5.5,3.5,6.9,6.4
		c0.6,1.2,1.9,1.7,3.2,1.4c5.7-1.7,10.7-1.2,13.4,1.5c2.6,2.6,3.2,7.6,1.5,13.4c-0.4,1.2,0.2,2.6,1.4,3.2c2.9,1.5,5.2,3.9,6.4,6.9
		c1.1,2.8,1.3,5.9,0.4,8.8c-0.3,1.2,0.2,2.5,1.3,3.1c5,2.8,8,6.7,8,10.3S132.5,78.4,127.5,81.3L127.5,81.3z"/>
	<path class="st1" d="M37.8,43.7l4.1,3.4c7.2-8.7,17.8-13.7,29-13.7V28C58.1,28,46,33.7,37.8,43.7z"/>
	<g>
		<circle class="st0" cx="49.5" cy="68.3" r="8.1"/>
		<circle class="st0" cx="92.5" cy="68.3" r="8.1"/>
	</g>
</g>
</svg>
