<?xml version="1.0" encoding="utf-8"?>
<!-- Generator: Adobe Illustrator 24.1.3, SVG Export Plug-In . SVG Version: 6.00 Build 0)  -->
<svg version="1.1" id="Слой_1" xmlns="http://www.w3.org/2000/svg" xmlns:xlink="http://www.w3.org/1999/xlink" x="0px" y="0px"
	 viewBox="0 0 147.3 147.3" style="enable-background:new 0 0 147.3 147.3;" xml:space="preserve">
<style type="text/css">
	.st0{fill:url(#SVGID_1_);}
	.st1{fill:#57ACFF;}
	.st2{fill:url(#SVGID_2_);}
	.st3{fill:url(#SVGID_3_);}
	.st4{fill:#182F52;}
</style>
<g>
	<g>
		
			<linearGradient id="SVGID_1_" gradientUnits="userSpaceOnUse" x1="124.6754" y1="63.546" x2="124.6754" y2="62.2292" gradientTransform="matrix(1 0 0 -1 0 149.3333)">
			<stop  offset="0" style="stop-color:#00C6FF"/>
			<stop  offset="1" style="stop-color:#0072FF"/>
		</linearGradient>
		<path class="st0" d="M124.6,87.1h0.1v-1.3C124.7,86.2,124.7,86.7,124.6,87.1z"/>
		<path class="st1" d="M28.7,123.9c-3.1,0-5.6,2.5-5.6,5.6c0,3.1,2.5,5.6,5.6,5.6c3.1,0,5.6-2.5,5.6-5.6
			C34.3,126.4,31.8,123.9,28.7,123.9z"/>
		<path class="st1" d="M118.5,118.3v8.4v8.4c4.7,0,8.4-3.7,8.4-8.4C126.9,122,123.2,118.3,118.5,118.3z"/>
		<g>
			
				<linearGradient id="SVGID_2_" gradientUnits="userSpaceOnUse" x1="76.4079" y1="100.1229" x2="76.4079" y2="99.8542" gradientTransform="matrix(1 0 0 -1 0 149.3333)">
				<stop  offset="0" style="stop-color:#00C6FF"/>
				<stop  offset="1" style="stop-color:#0072FF"/>
			</linearGradient>
			<path class="st2" d="M76.4,49.2v0.3h0.1L76.4,49.2z"/>
		</g>
		<g>
			
				<linearGradient id="SVGID_3_" gradientUnits="userSpaceOnUse" x1="76.4079" y1="100.1229" x2="76.4079" y2="99.8542" gradientTransform="matrix(1 0 0 -1 0 149.3333)">
				<stop  offset="0" style="stop-color:#00C6FF"/>
				<stop  offset="1" style="stop-color:#0072FF"/>
			</linearGradient>
			<path class="st3" d="M76.5,49.5h-0.1v-0.3L76.5,49.5z"/>
		</g>
	</g>
	<g>
		<path class="st4" d="M99,126.7c0,10.1,7.7,18.4,17.5,19.4c0.7,0.1,1.3,0.1,2,0.1c0.1,0,0.2,0,0.3,0c0.5,0,1.1,0,1.6-0.1
			c0.2,0,0.3,0,0.5-0.1c0.5-0.1,1-0.1,1.5-0.2c0.1,0,0.2,0,0.3-0.1c0.6-0.1,1.1-0.3,1.7-0.4c0,0,0,0,0,0c7.9-2.5,13.7-9.9,13.7-18.7
			c0-10.8-8.8-19.6-19.6-19.6c-0.6,0-1.2,0-1.8,0.1c-0.1,0-0.3,0-0.4,0C106.6,108.3,99,116.6,99,126.7z M116.7,112.6
			c0.6-0.1,1.2-0.1,1.8-0.1c7.9,0,14.3,6.4,14.3,14.2c0,0.6,0,1.2-0.1,1.8c-0.9,7.1-7,12.4-14.2,12.4c-7.9,0-14.3-6.4-14.3-14.2
			C104.3,119.5,109.6,113.5,116.7,112.6z"/>
		<path class="st4" d="M28.7,112.6c-0.9,0-1.8,0.1-2.7,0.2v0.1c-4.4,0.7-8.2,3-10.7,6.4c-0.1,0.2-0.3,0.4-0.4,0.5
			c-0.1,0.1-0.2,0.3-0.3,0.4c-1.7,2.6-2.7,5.8-2.7,9.2c0,3.5,1.1,6.7,2.9,9.4c3,4.4,8.1,7.4,13.9,7.4c5.8,0,10.9-2.9,13.9-7.4
			c1.8-2.7,2.8-5.9,2.8-9.4c0-2.9-0.7-5.6-2-8c0,0,0,0,0-0.1c-0.2-0.4-0.4-0.8-0.7-1.1c-0.1-0.1-0.2-0.3-0.3-0.4
			c-0.1-0.2-0.3-0.4-0.4-0.6c-2.6-3.3-6.3-5.7-10.7-6.4v-0.1C30.5,112.7,29.6,112.6,28.7,112.6z M40.2,129.5
			c0,6.3-5.1,11.4-11.4,11.4c-6.3,0-11.5-5.1-11.5-11.4c0-6.3,5.1-11.4,11.5-11.4C35,118.1,40.2,123.2,40.2,129.5z"/>
	</g>
	<g>
		<path class="st4" d="M22.3,65.6h0.8h5.4h53.3V39.7h0V1.1H54.5L29.2,15.9L14.5,41.4v17.3C14.5,62.5,18,65.6,22.3,65.6z M76.4,6.5
			v42.7l0.1,0.3h-0.1v-0.3L58.9,6.5H76.4z M53.6,7.9l18.2,44.6L35.7,18.3L53.6,7.9z M31.8,22L68,56.3L21.5,40.1L31.8,22z M19.9,45.2
			l43.2,15H22.3c-1.3,0-2.4-0.8-2.4-1.5V45.2z"/>
		<path class="st1" d="M140.3,27.4c-0.9-1.2-2.5-1.5-3.7-0.6l-28,20H81.7v5.4h19.4l-11.3,8.1h-8.1v5.4h0.6L41.1,95.2h-3.3
			c-5.2,0-9.4-4.2-9.4-9.4V65.6h-5.4v20.1c0,6.9,4.8,12.7,11.2,14.3l-3.3,2.3c-3.1,2-4.9,5.5-4.9,9.3v0.8c0.9-0.1,1.8-0.2,2.7-0.2
			c0.9,0,1.8,0.1,2.7,0.2v-0.8c0-2,1-3.8,2.6-4.9l8.8-6.3h54.9l10.6,9.1c1.7-1,3.6-1.8,5.6-2.3l-8-6.8h9.3c8.1,0,14.8-6.6,14.8-14.8
			V65.6h0.3c4.3,0,7.8-3.1,7.8-6.8v-5.2c0-3.8-3.5-6.8-7.8-6.8h-12.6l21.9-15.7C140.9,30.2,141.2,28.6,140.3,27.4z M50.3,95.2
			l22.4-16.1l18.7,16.1H50.3z M124.7,71h-16.1v5.4h16.1v5.4h-16.1v5.4h16c-0.6,4.5-4.6,8.1-9.3,8.1H99.8L77.2,75.9l14.4-10.3h33.1
			V71z M130.4,52.2c1.3,0,2.4,0.8,2.4,1.5v5.2c0,0.7-1,1.5-2.4,1.5H99.1l11.3-8.1H130.4z"/>
	</g>
</g>
</svg>
