<?xml version="1.0" encoding="utf-8"?>
<!-- Generator: Adobe Illustrator 24.1.3, SVG Export Plug-In . SVG Version: 6.00 Build 0)  -->
<svg version="1.1" id="Слой_1" xmlns="http://www.w3.org/2000/svg" xmlns:xlink="http://www.w3.org/1999/xlink" x="0px" y="0px"
	 viewBox="0 0 54 84" style="enable-background:new 0 0 54 84;" xml:space="preserve">
<style type="text/css">
	.st0{fill:#182F52;}
	.st1{fill:#57ACFF;}
</style>
<path class="st0" d="M25.9,69.1h3.2v4.8h-3.2V69.1z"/>
<path class="st0" d="M40,42.1h-1.6v-3.2H40c0.8,0,1.6,0.6,1.6,1.6S41,42.1,40,42.1z"/>
<path class="st0" d="M16.6,42.1H15c-0.8,0-1.6-0.6-1.6-1.6c0-0.8,0.6-1.6,1.6-1.6h1.6V42.1z"/>
<path class="st1" d="M26.7,1C12.1,1,0.1,13,0.1,27.8h3.2c0-13,10.5-23.6,23.4-23.6S50.2,14.8,50.2,28h3.2C53.4,13,41.4,1,26.7,1z"/>
<path class="st1" d="M26.7,12c8.6,0,15.7,7.1,15.7,15.9h3.2c0-10.4-8.4-19-18.7-19s-19,8.5-19,18.9h3.2C11.1,19.1,18.1,12,26.7,12z"
	/>
<g>
	<path class="st1" d="M42.7,80l-1.9-3.7c-0.8-1.6-2.4-2.6-4.1-2.6h-4.3v-3.9C39.5,67.7,45,61,45,53.1V40.5c0-2.6-2.1-4.8-4.8-4.8
		h-1.5v3.2H40c0.8,0,1.6,0.6,1.6,1.6c0,0.8-0.6,1.6-1.6,1.6h-1.3v3.2h1.6c0.5,0,1.1-0.2,1.6-0.3v8.2c0,7.9-6.4,14.3-14.1,14.3
		s-14.3-6.4-14.3-14.3V45c0.5,0.2,1,0.3,1.6,0.3h1.5v-3.2H15c-0.8,0-1.6-0.6-1.6-1.6c0-0.8,0.6-1.6,1.6-1.6h1.5v-3.2H15
		c-2.5,0-4.8,2.1-4.8,4.8v12.7c0,7.9,5.2,14.6,12.6,16.7v3.9h-4.3c-1.7,0-3.3,1-4.1,2.6L12.5,80H5.7v3.2h43.8V80H42.7z M26,70.6
		c0.5,0,1.1,0.2,1.6,0.2s1.1,0,1.6-0.2v3.2H26V70.6z M16,80.1l1.1-2.3c0.3-0.5,0.8-0.8,1.4-0.8h18.1c0.6,0,1.1,0.3,1.4,0.8l1.1,2.3
		H16z"/>
	<path class="st0" d="M38.3,42.1v-3.2h0.3v-3.2h-0.1v-7.9c0-6.1-4.9-11.1-11-11.1c-6.1,0-11,5-11,11.1v7.9h0v3.2h0.1v3.2h-0.1v3.2
		h0.1v7.9c0,6.1,4.9,11.1,11,11.1c6.1,0,11-5,11-11.1v-7.9h0v-3.2H38.3z M35.3,32.6h-4.8v3.2h4.8V39h-4.8v3.2h4.8v3.2h-4.8v3.2h4.8
		v4.8c0,4.3-3.5,7.9-7.8,7.9s-7.8-3.5-7.8-7.9v-4.8h4.8v-3.2h-4.8v-3.2h4.8V39h-4.8v-3.2h4.8v-3.2h-4.8v-4.8c0-4.3,3.5-7.9,7.8-7.9
		s7.8,3.5,7.8,7.9V32.6z"/>
</g>
</svg>
