<?xml version="1.0" encoding="utf-8"?>
<!-- Generator: Adobe Illustrator 24.1.3, SVG Export Plug-In . SVG Version: 6.00 Build 0)  -->
<svg version="1.1" id="Слой_1" xmlns="http://www.w3.org/2000/svg" xmlns:xlink="http://www.w3.org/1999/xlink" x="0px" y="0px"
	 viewBox="0 0 75 82" style="enable-background:new 0 0 75 82;" xml:space="preserve">
<style type="text/css">
	.st0{fill:#182F52;}
	.st1{fill:#57ACFF;}
</style>
<path class="st0" d="M14.6,5c0.3-0.5,0.8-0.8,1.4-0.8h43c0.6,0,1.1,0.3,1.4,0.8l1.1,2.2h3.5l-1.8-3.7C62.4,2,60.8,1,59,1H16
	c-1.8,0-3.4,1-4.2,2.5L9.9,7.2h3.7L14.6,5z"/>
<path class="st0" d="M37.4,33.6c-6.9,0-12.5,5.6-12.5,12.4c0,6.9,5.6,12.4,12.5,12.4c6.9,0,12.5-5.6,12.5-12.4
	C49.9,39.2,44.3,33.6,37.4,33.6z M37.4,55.4c-5.1,0-9.4-4.1-9.4-9.4c0-5.3,4.2-9.4,9.4-9.4s9.4,4.1,9.4,9.4
	C46.9,51.3,42.7,55.4,37.4,55.4z"/>
<path class="st1" d="M37.4,39.8c-3.5,0-6.2,2.7-6.2,6.2c0,3.5,2.7,6.2,6.2,6.2c3.5,0,6.2-2.7,6.2-6.2C43.7,42.5,40.9,39.8,37.4,39.8
	z"/>
<g>
	<path class="st1" d="M65.2,19.6l-0.8,6.2H10.6l-1-6.2H6.4l8.3,55.6c0.6,3.8,3.8,6.7,7.7,6.7h29.9c3.8,0,7.2-2.7,7.7-6.7l8.3-55.6
		H65.2z M11,29h3.2L20,63.3h-3.8L11,29z M57.1,74.8c-0.3,2.2-2.2,4-4.6,4h-2.7c-0.6-1.8-2.4-3.2-4.5-3.2H29.6
		c-2.1,0-3.7,1.3-4.5,3.2h-2.7c-2.4,0-4.3-1.6-4.6-4l-1.1-8.4h41.7L57.1,74.8z M58.8,63.3H23.2L17.4,29H64L58.8,63.3z"/>
	<path class="st0" d="M5,19.6h65.1c2.5,0,4.6-2.1,4.6-4.6c0.3-4.3-3.2-7.8-7.5-7.8h-2.1l0,0h-3.5l0,0h-48l0,0H9.9l0,0H7.8
		C3.5,7.2,0,10.7,0,15c0,2.5,2.1,4.6,4.6,4.6L5,19.6L5,19.6z M3,15c0-2.5,2.1-4.6,4.6-4.6h59.5c2.6,0,4.6,2.1,4.6,4.6
		c0,0.8-0.6,1.6-1.6,1.6H4.6C3.8,16.6,3,16,3,15z"/>
</g>
</svg>
