<?xml version="1.0" encoding="utf-8"?>
<!-- Generator: Adobe Illustrator 24.1.3, SVG Export Plug-In . SVG Version: 6.00 Build 0)  -->
<svg version="1.1" id="Слой_1" xmlns="http://www.w3.org/2000/svg" xmlns:xlink="http://www.w3.org/1999/xlink" x="0px" y="0px"
	 viewBox="0 0 96 77" style="enable-background:new 0 0 96 77;" xml:space="preserve">
<style type="text/css">
	.st0{fill:#57ACFF;}
	.st1{fill:#182F52;}
</style>
<path class="st0" d="M75.2,44H58.7c-1,0-1.8-0.8-1.8-1.8v-3.7c0-1,0.8-1.8,1.8-1.8h16.5c1,0,1.8,0.8,1.8,1.8v3.7
	C77,43.2,76.2,44,75.2,44z"/>
<path class="st0" d="M36.7,44H20.2c-1,0-1.8-0.8-1.8-1.8v-3.7c0-1,0.8-1.8,1.8-1.8h16.5c1,0,1.8,0.8,1.8,1.8v3.7
	C38.5,43.2,37.7,44,36.7,44z"/>
<path class="st1" d="M89.8,7.3H88V3.7c0-2-1.6-3.7-3.7-3.7H55c-3,0-5.7,1.5-7.3,3.7C46,1.5,43.3,0,40.3,0H11C9,0,7.3,1.6,7.3,3.7
	v3.7H5.5c-3,0-5.5,2.5-5.5,5.5v51.3c0,5.1,4.1,9.2,9.2,9.2H37c0.8,2.1,2.8,3.7,5.2,3.7h11c2.4,0,4.4-1.5,5.2-3.7h27.8
	c5.1,0,9.2-4.1,9.2-9.2V12.8C95.3,9.8,92.9,7.3,89.8,7.3z M11,58.7h29.3c2.4,0,4.4,1.5,5.2,3.7H11V58.7z M55,3.7h29.3v49.5V55H55
	c-2.1,0-4,0.7-5.5,1.9v-9.2V9.2C49.5,6.1,52,3.7,55,3.7z M84.3,58.7v3.7H49.8c0.8-2.1,2.8-3.7,5.2-3.7H84.3z M11,3.7h29.3
	c3,0,5.5,2.5,5.5,5.5v38.5v9.2c-1.5-1.2-3.4-1.8-5.5-1.8H11v-5.5V3.7z M91.7,64.2c0,3-2.5,5.5-5.5,5.5H55v1.8c0,1-0.8,1.8-1.8,1.8
	h-11c-1,0-1.8-0.8-1.8-1.8v-1.8H9.2c-3,0-5.5-2.5-5.5-5.5V12.8c0-1,0.8-1.8,1.8-1.8h1.8v38.5V55v7.3c0,2,1.6,3.7,3.7,3.7h73.3
	c2,0,3.7-1.6,3.7-3.7V55v-1.8V11h1.8c1,0,1.8,0.8,1.8,1.8V64.2z"/>
<path class="st0" d="M56.8,14.7H77v3.7H56.8V14.7z"/>
<path class="st0" d="M56.8,22H77v3.7H56.8V22z"/>
<path class="st0" d="M56.8,29.3h11V33h-11V29.3z"/>
<path class="st0" d="M71.5,29.3H77V33h-5.5V29.3z"/>
<path class="st0" d="M18.3,14.7h20.2v3.7H18.3V14.7z"/>
<path class="st0" d="M18.3,22h20.2v3.7H18.3V22z"/>
<path class="st0" d="M18.3,29.3h11V33h-11V29.3z"/>
<path class="st0" d="M33,29.3h5.5V33H33V29.3z"/>
</svg>
