<?xml version="1.0" encoding="utf-8"?>
<!-- Generator: Adobe Illustrator 24.1.3, SVG Export Plug-In . SVG Version: 6.00 Build 0)  -->
<svg version="1.1" id="Слой_1" xmlns="http://www.w3.org/2000/svg" xmlns:xlink="http://www.w3.org/1999/xlink" x="0px" y="0px"
	 viewBox="0 0 100 80" style="enable-background:new 0 0 100 80;" xml:space="preserve">
<style type="text/css">
	.st0{fill:#57ACFF;}
	.st1{fill:#182F52;}
</style>
<path class="st0" d="M3.8,70.5h91.4v5.7H3.8V70.5z"/>
<path class="st1" d="M93.3,0H5.7C2.6,0,0,2.6,0,5.7v61v7.6C0,77.4,2.6,80,5.7,80h87.6c3.2,0,5.7-2.6,5.7-5.7v-7.6v-61
	C99,2.6,96.5,0,93.3,0z M93.3,76.2H5.7c-1.1,0-1.9-0.9-1.9-1.9V72c0.6,0.2,1.2,0.4,1.9,0.4h87.6c0.7,0,1.3-0.1,1.9-0.4v2.3
	C95.2,75.3,94.4,76.2,93.3,76.2z M93.3,68.6H5.7c-1.1,0-1.9-0.9-1.9-1.9v-61c0-1.1,0.9-1.9,1.9-1.9h87.6c1.1,0,1.9,0.9,1.9,1.9v61
	C95.2,67.7,94.4,68.6,93.3,68.6z"/>
<path class="st1" d="M11.4,17.1h38.1V21H11.4V17.1z"/>
<path class="st1" d="M11.4,24.8h30.5v3.8H11.4V24.8z"/>
<path class="st0" d="M80,14.4c-2-1.8-4.7-3-7.7-3c-6.3,0-11.4,5.1-11.4,11.4c0,6.3,5.1,11.4,11.4,11.4c6.3,0,11.4-5.1,11.4-11.4
	c0-2-0.5-3.8-1.4-5.4l2.7-2.7L82.5,12L80,14.4z M80,22.9c0,4.2-3.4,7.6-7.6,7.6c-4.2,0-7.6-3.4-7.6-7.6s3.4-7.6,7.6-7.6
	c1.9,0,3.6,0.7,5,1.9l-5,5l-2.5-2.5l-2.7,2.7l5.2,5.2l7.1-7.1C79.8,21.1,80,22,80,22.9L80,22.9z"/>
<path class="st1" d="M11.4,43.8h38.1v3.8H11.4V43.8z"/>
<path class="st1" d="M11.4,51.4h30.5v3.8H11.4V51.4z"/>
<path class="st0" d="M82.5,38.7L80,41.1c-2-1.8-4.7-3-7.7-3c-6.3,0-11.4,5.1-11.4,11.4C61,55.8,66.1,61,72.4,61
	c6.3,0,11.4-5.1,11.4-11.4c0-2-0.5-3.8-1.4-5.4l2.7-2.7L82.5,38.7z M80,49.5c0,4.2-3.4,7.6-7.6,7.6c-4.2,0-7.6-3.4-7.6-7.6
	s3.4-7.6,7.6-7.6c1.9,0,3.6,0.7,5,1.9l-5,5l-2.5-2.5L67.2,49l5.2,5.2l7.1-7.1C79.8,47.8,80,48.6,80,49.5L80,49.5z"/>
</svg>
