<?xml version="1.0" encoding="utf-8"?>
<!-- Generator: Adobe Illustrator 24.1.3, SVG Export Plug-In . SVG Version: 6.00 Build 0)  -->
<svg version="1.1" id="Слой_1" xmlns="http://www.w3.org/2000/svg" xmlns:xlink="http://www.w3.org/1999/xlink" x="0px" y="0px"
	 viewBox="0 0 146.6 146.6" style="enable-background:new 0 0 146.6 146.6;" xml:space="preserve">
<style type="text/css">
	.st0{fill:url(#SVGID_1_);}
	.st1{fill:#64717C;}
	.st2{fill:url(#SVGID_2_);}
	.st3{fill:url(#SVGID_3_);}
	.st4{fill:url(#SVGID_4_);}
	.st5{fill:url(#SVGID_5_);}
	.st6{fill:url(#SVGID_6_);}
	.st7{fill:url(#SVGID_7_);}
	.st8{fill:url(#SVGID_8_);}
	.st9{fill:url(#SVGID_9_);}
</style>
<g>
	<g>
		
			<linearGradient id="SVGID_1_" gradientUnits="userSpaceOnUse" x1="73.35" y1="36.5461" x2="73.35" y2="-0.6739" gradientTransform="matrix(1 0 0 -1 0 148.5926)">
			<stop  offset="0" style="stop-color:#FFD869"/>
			<stop  offset="1" style="stop-color:#FEC52B"/>
		</linearGradient>
		<path class="st0" d="M145,128.8c0,8.9-32.1,16.2-71.7,16.2c-39.6,0-71.7-7.1-71.7-16.1c0-8.9,32.1-16.2,71.7-16.2
			C112.9,112.7,145,119.9,145,128.8z"/>
		<rect x="69.7" y="-2" class="st1" width="7.2" height="130.8"/>
		
			<linearGradient id="SVGID_2_" gradientUnits="userSpaceOnUse" x1="91.8582" y1="155.7361" x2="129.2789" y2="82.9227" gradientTransform="matrix(1 0 0 -1 0 148.5926)">
			<stop  offset="0" style="stop-color:#42A3F2"/>
			<stop  offset="1" style="stop-color:#42A4EB"/>
		</linearGradient>
		<path class="st2" d="M145,55.3L127,55.4c0,0-32.3-53.8-53.8-53.8C134.2,1.6,145,55.3,145,55.3L145,55.3z"/>
		
			<linearGradient id="SVGID_3_" gradientUnits="userSpaceOnUse" x1="100.9987" y1="86.2971" x2="100.9987" y2="143.9171" gradientTransform="matrix(1 0 0 -1 0 148.5926)">
			<stop  offset="0" style="stop-color:#3079D6"/>
			<stop  offset="1" style="stop-color:#297CD2"/>
		</linearGradient>
		<path class="st3" d="M130.6,55.4c0,0-8,7.2-17.9,7.2s-17.9-7.2-17.9-7.2S63.4,1.6,73.3,1.6C112.7,1.6,130.6,44.6,130.6,55.4
			L130.6,55.4z"/>
		
			<linearGradient id="SVGID_4_" gradientUnits="userSpaceOnUse" x1="54.8025" y1="155.7986" x2="17.3083" y2="83.0248" gradientTransform="matrix(1 0 0 -1 0 148.5926)">
			<stop  offset="0" style="stop-color:#42A3F2"/>
			<stop  offset="1" style="stop-color:#42A4EB"/>
		</linearGradient>
		<path class="st4" d="M1.6,55.3l17.9,0.1c0,0,32.3-53.8,53.8-53.8C12.4,1.6,1.6,55.3,1.6,55.3z"/>
		
			<linearGradient id="SVGID_5_" gradientUnits="userSpaceOnUse" x1="45.5939" y1="86.2971" x2="45.5939" y2="143.9171" gradientTransform="matrix(1 0 0 -1 0 148.5926)">
			<stop  offset="0" style="stop-color:#3079D6"/>
			<stop  offset="1" style="stop-color:#297CD2"/>
		</linearGradient>
		<path class="st5" d="M16,55.4c0,0,8,7.2,17.9,7.2s17.9-7.2,17.9-7.2S83.2,1.6,73.3,1.6C33.9,1.6,16,44.6,16,55.4z"/>
		
			<linearGradient id="SVGID_6_" gradientUnits="userSpaceOnUse" x1="33.8796" y1="86.1072" x2="33.8796" y2="99.663" gradientTransform="matrix(1 0 0 -1 0 148.5926)">
			<stop  offset="0" style="stop-color:#3079D6"/>
			<stop  offset="1" style="stop-color:#297CD2"/>
		</linearGradient>
		<path class="st6" d="M51.8,55.4c0,0-8,7.2-17.9,7.2C24,62.5,16,55.4,16,55.4s8-7.2,17.9-7.2S51.8,55.4,51.8,55.4z"/>
		
			<linearGradient id="SVGID_7_" gradientUnits="userSpaceOnUse" x1="137.7963" y1="89.6583" x2="137.7963" y2="96.438" gradientTransform="matrix(1 0 0 -1 0 148.5926)">
			<stop  offset="0" style="stop-color:#42A3F2"/>
			<stop  offset="1" style="stop-color:#42A4EB"/>
		</linearGradient>
		<path class="st7" d="M130.6,55.4c0,0,3.2,3.6,7.2,3.6c4,0,7.2-3.6,7.2-3.6s-3.2-3.6-7.2-3.6C133.8,51.8,130.6,55.4,130.6,55.4z"/>
		
			<linearGradient id="SVGID_8_" gradientUnits="userSpaceOnUse" x1="8.7963" y1="89.6583" x2="8.7963" y2="96.438" gradientTransform="matrix(1 0 0 -1 0 148.5926)">
			<stop  offset="0" style="stop-color:#42A3F2"/>
			<stop  offset="1" style="stop-color:#42A4EB"/>
		</linearGradient>
		<path class="st8" d="M1.6,55.4c0,0,3.2,3.6,7.2,3.6c4,0,7.2-3.6,7.2-3.6s-3.2-3.6-7.2-3.6C4.8,51.8,1.6,55.4,1.6,55.4z"/>
		
			<linearGradient id="SVGID_9_" gradientUnits="userSpaceOnUse" x1="73.2963" y1="86.2971" x2="73.2963" y2="143.9171" gradientTransform="matrix(1 0 0 -1 0 148.5926)">
			<stop  offset="0" style="stop-color:#42A3F2"/>
			<stop  offset="1" style="stop-color:#42A4EB"/>
		</linearGradient>
		<path class="st9" d="M94.8,55.4c0,0-9.6,7.2-21.5,7.2s-21.5-7.2-21.5-7.2c0-50.2,21.5-53.8,21.5-53.8S94.8,5.2,94.8,55.4z"/>
		<ellipse class="st1" cx="73.3" cy="128.8" rx="3.6" ry="1.8"/>
	</g>
</g>
</svg>
