<?xml version="1.0" encoding="utf-8"?>
<!-- Generator: Adobe Illustrator 24.1.3, SVG Export Plug-In . SVG Version: 6.00 Build 0)  -->
<svg version="1.1" id="Слой_1" xmlns="http://www.w3.org/2000/svg" xmlns:xlink="http://www.w3.org/1999/xlink" x="0px" y="0px"
	 viewBox="0 0 141.7 141.7" style="enable-background:new 0 0 141.7 141.7;" xml:space="preserve">
<style type="text/css">
	.st1{fill:#57ACFF;}
	.st2{fill:#182F52;}
</style>
<g>
	<g>
		<path class="st1" d="M43.8,79.2l46.1-27.7L57.4,85.2l28.5,22.4c5.1,2.2,7-2.5,7-2.5l13-66.3c0,0,0.2-1.7,0.2-2
			c-0.9-3.1-6.1-0.8-6.1-0.8L25.4,65.5c0,0-3.5,1.2-3.2,3.4s3.1,3.3,3.1,3.3L43.8,79.2"/>
		<path class="st2" d="M108.7,36.1c-0.6-2.1-2.3-3.4-4.7-3.6c-0.5,0-3.1,0.1-4.9,1l0,0L24.5,62.9c-2.4,0.8-5.1,2.8-5.1,5.7
			c0,0.2,0,0.5,0,0.7c0.5,3.8,4.4,5.3,4.9,5.4l17.2,6.5c1.3,4.3,5.7,18.3,6.7,21.3c0.6,2,1.7,4.6,3.6,5.4c0.5,0.2,1.1,0.4,1.8,0.4
			c1.7,0,2.8-0.8,3.1-1.2l10.6-10.5l16.9,13.3c0.2,0.2,0.4,0.2,0.6,0.4c1.4,0.6,2.6,0.8,3.7,0.8c1.1,0,2-0.2,2.7-0.5
			c2.9-1.1,4.1-3.9,4.1-4.2c0.1-0.2,0.1-0.3,0.2-0.5l13.1-66.5C108.9,37,108.7,36.5,108.7,36.1L108.7,36.1z M47,80.4l26.8-16.1
			L55.4,83.4c-0.3,0.3-0.5,0.8-0.6,1.2l-2.8,12L47,80.4z M103.2,38.4l-13,66c-0.2,0.2-0.5,0.8-1.1,1.1c-0.5,0.2-1.1,0.2-1.9-0.2
			L61.3,85l30.4-31.7c0.9-1,1-2.5,0.2-3.5c-0.8-1.1-2.4-1.3-3.5-0.6L43.4,76.3l-17.3-6.5c-0.5-0.2-1.1-0.6-1.3-0.8
			c0.3-0.2,0.9-0.6,1.5-0.8l74.6-29.5c0.1,0,0.1,0,0.2-0.1c0.7-0.3,1.6-0.5,2.1-0.5C103.3,38.2,103.2,38.4,103.2,38.4L103.2,38.4z"
			/>
		<path class="st2" d="M70.9,140.7c-38.8,0-70.4-31.6-70.4-70.4S32.1,0,70.9,0s70.4,31.6,70.4,70.4S109.7,140.7,70.9,140.7z
			 M70.9,5.4c-35.8,0-65,29.1-65,65s29.1,65,65,65s65-29.1,65-65S106.7,5.4,70.9,5.4z"/>
	</g>
</g>
</svg>
