<svg version="1.1" xmlns="http://www.w3.org/2000/svg" xmlns:xlink="http://www.w3.org/1999/xlink" viewBox="0 0 226 226">
  <g>
    <linearGradient x1="104.17188" y1="67.11494" x2="104.17188" y2="162.4375" gradientUnits="userSpaceOnUse"
      id="color-1">
      <stop offset="0" stop-color="#70dfff"></stop>
      <stop offset="1" stop-color="#70afff"></stop>
    </linearGradient>
    <linearGradient x1="104.17188" y1="20.59778" x2="104.17188" y2="205.73769" gradientUnits="userSpaceOnUse"
      id="color-2">
      <stop offset="0" stop-color="#00c6ff"></stop>
      <stop offset="1" stop-color="#0072ff"></stop>
    </linearGradient>
    <linearGradient x1="113" y1="20.59778" x2="113" y2="205.73769" gradientUnits="userSpaceOnUse" id="color-3">
      <stop offset="0" stop-color="#00c6ff"></stop>
      <stop offset="1" stop-color="#0072ff"></stop>
    </linearGradient>
  </g>
  <g fill="none" fill-rule="nonzero" stroke="none" stroke-width="1" stroke-linecap="butt" stroke-linejoin="miter"
    stroke-miterlimit="10" stroke-dasharray="" stroke-dashoffset="0" font-family="none" font-weight="none"
    font-size="none" text-anchor="none" style="mix-blend-mode: normal">
    <path d="M0,226v-226h226v226z" fill="none"></path>
    <g>
      <path
        d="M77.71222,124.47656l60.08422,-36.19531l-42.41384,44.14063l37.20172,29.22109c6.66347,2.93094 9.08944,-3.17459 9.08944,-3.17459l17.03828,-86.51916c0,0 0.28956,-2.20703 0.15891,-2.64844c-1.21475,-4.1245 -7.86763,-1.14766 -7.86409,-1.14413l-97.31066,38.44472c0,0 -4.60475,1.58553 -4.24103,4.51294c0.36372,2.93094 4.12097,4.26928 4.12097,4.26928l24.14316,9.09297"
        fill="url(#color-1)"></path>
      <path
        d="M162.25741,68.30497c-0.81219,-2.7685 -3.03334,-4.48116 -6.09847,-4.69656c-0.61797,-0.04591 -4.09272,0.09534 -6.43747,1.28891l-0.01059,-0.02472l-97.16234,38.39175c-3.12516,1.0735 -6.57166,3.61247 -6.64228,7.36972c-0.00706,0.29662 0.01059,0.60384 0.04944,0.91813c0.61091,4.94375 5.84069,6.9495 6.38097,7.13666l22.51878,8.48206c1.73031,5.56172 7.44387,23.92069 8.67275,27.84744c0.82631,2.62725 2.18937,6.03491 4.68597,6.96716c0.72037,0.29663 1.48666,0.452 2.28472,0.452c2.16819,0 3.58069,-1.10175 4.10684,-1.57847l13.78247,-13.73656l22.01734,17.29253c0.22953,0.18362 0.48731,0.339 0.75922,0.45553c1.82566,0.80513 3.4465,1.09469 4.82722,1.09469c1.44428,0 2.63078,-0.31428 3.52419,-0.68153c3.76784,-1.54669 5.27569,-5.10972 5.43813,-5.51228c0.07769,-0.20128 0.14125,-0.40963 0.18362,-0.6215l17.07359,-86.74162c0.39197,-2.95212 0.18009,-3.64778 0.04591,-4.10331zM81.90734,126.06916l34.8605,-21.00034l-23.92422,24.90591c-0.42375,0.43788 -0.66387,0.98522 -0.80866,1.56081c-0.01059,0.04237 -3.55244,15.64344 -3.55244,15.64344zM155.24434,71.28887l-16.94647,86.05656c-0.20128,0.34606 -0.70625,1.09822 -1.45841,1.40544c-0.63209,0.25778 -1.45487,0.19422 -2.45069,-0.18716l-33.75522,-26.50909l39.70891,-41.32975c1.22888,-1.27478 1.32069,-3.26641 0.21541,-4.64713c-1.10175,-1.38072 -3.06159,-1.73384 -4.58003,-0.81925l-58.62228,35.3125l-22.56116,-8.49619c-0.69212,-0.26484 -1.40544,-0.78041 -1.69853,-1.14059c0.38491,-0.339 1.16178,-0.78041 1.89628,-1.04525l97.31419,-38.45178c0.06003,-0.02119 0.11653,-0.04944 0.17656,-0.07416c0.88634,-0.38844 2.08344,-0.678 2.83559,-0.72391c-0.03531,0.35312 -0.07416,0.64622 -0.07416,0.64975z"
        fill="url(#color-2)"></path>
      <path
        d="M113,204.8125c-50.62753,0 -91.8125,-41.1885 -91.8125,-91.8125c0,-50.624 41.18497,-91.8125 91.8125,-91.8125c50.62753,0 91.8125,41.1885 91.8125,91.8125c0,50.624 -41.18497,91.8125 -91.8125,91.8125zM113,28.25c-46.72903,0 -84.75,38.02097 -84.75,84.75c0,46.72903 38.02097,84.75 84.75,84.75c46.72903,0 84.75,-38.02097 84.75,-84.75c0,-46.72903 -38.02097,-84.75 -84.75,-84.75z"
        fill="url(#color-3)"></path>
    </g>
  </g>
</svg>
