<?xml version="1.0" encoding="utf-8"?>
<!-- Generator: Adobe Illustrator 24.1.3, SVG Export Plug-In . SVG Version: 6.00 Build 0)  -->
<svg version="1.1" id="Слой_1" xmlns="http://www.w3.org/2000/svg" xmlns:xlink="http://www.w3.org/1999/xlink" x="0px" y="0px"
	 viewBox="0 0 194 288" style="enable-background:new 0 0 194 288;" xml:space="preserve">
<style type="text/css">
	.st0{fill:#FFFFFF;}
	.st1{fill:url(#SVGID_1_);}
	.st2{fill:url(#SVGID_2_);}
	.st3{fill:url(#SVGID_3_);}
</style>
<rect x="3.5" class="st0" width="188" height="288"/>
<g>
	<g>
		
			<linearGradient id="SVGID_1_" gradientUnits="userSpaceOnUse" x1="88.1979" y1="669.6413" x2="88.1979" y2="764.882" gradientTransform="matrix(1 0 0 1 0 -572)">
			<stop  offset="0" style="stop-color:#70DFFF"/>
			<stop  offset="1" style="stop-color:#70AFFF"/>
		</linearGradient>
		<path class="st1" d="M61.7,155l60.1-36.2l-42.4,44.1l37.2,29.2c6.7,2.9,9.1-3.2,9.1-3.2l17-86.5c0,0,0.3-2.2,0.2-2.6
			c-1.2-4.1-7.9-1.1-7.9-1.1l-97.3,38.4c0,0-4.6,1.6-4.2,4.5c0.4,2.9,4.1,4.3,4.1,4.3L61.7,155"/>
		
			<linearGradient id="SVGID_2_" gradientUnits="userSpaceOnUse" x1="88.1696" y1="623.0978" x2="88.1696" y2="808.2377" gradientTransform="matrix(1 0 0 1 0 -572)">
			<stop  offset="0" style="stop-color:#00C6FF"/>
			<stop  offset="1" style="stop-color:#0072FF"/>
		</linearGradient>
		<path class="st2" d="M146.3,98.8c-0.8-2.8-3-4.5-6.1-4.7c-0.6,0-4.1,0.1-6.4,1.3l0,0l-97.3,38.4c-3.1,1.1-6.6,3.6-6.6,7.4
			c0,0.3,0,0.6,0,0.9c0.6,4.9,5.8,6.9,6.4,7.1l22.5,8.5c1.7,5.6,7.4,23.9,8.7,27.8c0.8,2.6,2.2,6,4.7,7c0.7,0.3,1.5,0.5,2.3,0.5
			c2.2,0,3.6-1.1,4.1-1.6l13.8-13.7l22,17.3c0.2,0.2,0.5,0.3,0.8,0.5c1.8,0.8,3.4,1.1,4.8,1.1s2.6-0.3,3.5-0.7
			c3.8-1.5,5.3-5.1,5.4-5.5c0.1-0.2,0.1-0.4,0.2-0.6l17.1-86.7C146.6,100,146.4,99.3,146.3,98.8L146.3,98.8z M65.9,156.6l34.9-21
			l-24,24.9c-0.4,0.4-0.7,1-0.8,1.6l-3.6,15.6L65.9,156.6z M139.2,101.8l-16.9,86.1c-0.2,0.3-0.7,1.1-1.5,1.4
			c-0.6,0.3-1.5,0.2-2.5-0.2l-33.8-26.5l39.7-41.3c1.2-1.3,1.3-3.3,0.2-4.6c-1.1-1.4-3.1-1.7-4.6-0.8l-58.6,35.3l-22.6-8.5
			c-0.7-0.3-1.4-0.8-1.7-1.1c0.4-0.3,1.2-0.8,1.9-1l97.3-38.5c0.1,0,0.1,0,0.2-0.1c0.9-0.4,2.1-0.7,2.8-0.7
			C139.3,101.5,139.2,101.8,139.2,101.8L139.2,101.8z"/>
		
			<linearGradient id="SVGID_3_" gradientUnits="userSpaceOnUse" x1="97" y1="623.0978" x2="97" y2="808.2377" gradientTransform="matrix(1 0 0 1 0 -572)">
			<stop  offset="0" style="stop-color:#00C6FF"/>
			<stop  offset="1" style="stop-color:#0072FF"/>
		</linearGradient>
		<path class="st3" d="M97,235.3c-50.6,0-91.8-41.2-91.8-91.8S46.4,51.7,97,51.7s91.8,41.2,91.8,91.8S147.6,235.3,97,235.3z
			 M97,58.8c-46.7,0-84.8,38-84.8,84.8s38,84.8,84.8,84.8s84.8-38,84.8-84.8S143.7,58.8,97,58.8z"/>
	</g>
</g>
</svg>
