<svg version="1.1" xmlns="http://www.w3.org/2000/svg" xmlns:xlink="http://www.w3.org/1999/xlink" viewBox="0 0 226 226">
  <g fill="none" fill-rule="nonzero" stroke="none" stroke-width="none" stroke-linecap="none" stroke-linejoin="none"
    stroke-miterlimit="10" stroke-dasharray="" stroke-dashoffset="0" font-family="none" font-weight="none"
    font-size="none" text-anchor="none" style="mix-blend-mode: normal">
    <path d="M0,226v-226h226v226z" fill="none" stroke="none" stroke-width="1" stroke-linecap="butt"
      stroke-linejoin="miter"></path>
    <g>
      <path
        d="M108.48,167.24c-2.48826,0 -4.86352,-1.02378 -6.57208,-2.83404l-38.42,-40.68c-3.42842,-3.6273 -3.26344,-9.35188 0.36612,-12.77804c3.6273,-3.42616 9.34962,-3.2657 12.77804,0.36612l31.80272,33.67174l86.09018,-92.3888c3.40582,-3.65216 9.12588,-3.8533 12.77578,-0.452c3.65216,3.40582 3.85556,9.12362 0.452,12.77578l-92.66,99.44c-1.70404,1.82834 -4.08834,2.8702 -6.58338,2.87698c-0.00904,0.00226 -0.01808,0.00226 -0.02938,0.00226z"
        fill="#4383C4" stroke="none" stroke-width="1" stroke-linecap="butt" stroke-linejoin="miter"></path>
      <path d="M24.86,117.52l38.42,40.68l92.66,-99.44" fill="none" stroke="#57ACFF" stroke-width="18.08"
        stroke-linecap="round" stroke-linejoin="round"></path>
      <path
        d="M184.79342,79.1c-0.27572,0 -0.55144,-0.09944 -0.77066,-0.30284c-0.45652,-0.42488 -0.48138,-1.1413 -0.0565,-1.59782l6.17658,-6.63084c0.42488,-0.45426 1.1413,-0.48364 1.59782,-0.0565c0.45652,0.42714 0.48138,1.1413 0.0565,1.59782l-6.17658,6.63084c-0.22374,0.2373 -0.52658,0.35934 -0.82716,0.35934zM195.49,67.6192c-0.27572,0 -0.55144,-0.09944 -0.77066,-0.30284c-0.45652,-0.42488 -0.48138,-1.1413 -0.0565,-1.59782l1.93682,-2.0792c0.42488,-0.45652 1.1413,-0.48364 1.59782,-0.0565c0.45652,0.42714 0.48138,1.1413 0.0565,1.59782l-1.93682,2.0792c-0.22148,0.2373 -0.52432,0.35934 -0.82716,0.35934zM179.97284,81.4843l-71.48606,76.70666l-11.6164,-12.29892c-0.42488,-0.44974 -1.14582,-0.4746 -1.59782,-0.0452c-0.452,0.42714 -0.47234,1.14356 -0.0452,1.59782l11.59832,12.28084c0.42262,0.46782 1.02604,0.7345 1.67692,0.7345c0.58534,0 1.1752,-0.25086 1.64302,-0.72094l71.4838,-76.71344c0.42488,-0.45652 0.40002,-1.17294 -0.0565,-1.59782c-0.45878,-0.42488 -1.17294,-0.39776 -1.60008,0.0565z"
        fill="#182F52" stroke="none" stroke-width="1" stroke-linecap="butt" stroke-linejoin="miter"></path>
      <path
        d="M208.84208,50.49292c-4.56068,-4.25106 -11.72262,-3.99342 -15.96916,0.565l-84.44716,90.626l-7.20488,-7.62524l62.9862,-67.59434c4.24654,-4.55842 3.99342,-11.72262 -0.565,-15.96916c-4.56068,-4.25106 -11.72262,-3.99342 -15.96916,0.565l-62.00084,66.5344l-7.39472,-7.8309c-4.2827,-4.5313 -11.44464,-4.73244 -15.97368,-0.45878c-2.19446,2.07242 -3.45102,4.87482 -3.5369,7.89418c-0.08588,3.0171 1.00796,5.88504 3.08038,8.0795l8.38912,8.8818l-7.01052,7.52354l-30.1484,-31.92024c-4.28044,-4.5313 -11.44238,-4.73244 -15.97368,-0.45878c-2.19446,2.07242 -3.45102,4.87482 -3.5369,7.89418c-0.08588,3.0171 1.00796,5.88504 3.08038,8.0795l38.41774,40.68c2.1244,2.25096 5.1189,3.54142 8.2151,3.54142c0.00226,0 0.03616,0 0.04068,0c3.1075,-0.0113 6.10652,-1.3221 8.22866,-3.59792l14.23574,-15.2776l14.47982,15.3341c2.1244,2.25096 5.1189,3.54142 8.25578,3.54142c3.1075,-0.0113 6.10652,-1.3221 8.22866,-3.59792l92.66,-99.44c4.24428,-4.55616 3.99116,-11.72036 -0.56726,-15.96916zM65.12868,122.1756c-1.243,-1.31532 -1.8984,-3.0397 -1.84642,-4.84996c0.05198,-1.81026 0.80456,-3.4917 2.12214,-4.7347c2.7233,-2.56736 7.0173,-2.4408 9.58466,0.27346l7.5936,8.04108l-9.26374,9.94174zM68.2407,162.8217c-1.27238,1.36504 -3.07134,2.15152 -4.93132,2.1583h-0.02938c-1.85772,0 -3.65442,-0.77518 -4.93132,-2.1244l-38.42,-40.68c-1.243,-1.31532 -1.8984,-3.0397 -1.84642,-4.84996c0.05198,-1.81026 0.80456,-3.4917 2.12214,-4.7347c1.30854,-1.23622 2.98094,-1.84642 4.65334,-1.84642c1.80348,0 3.60018,0.70964 4.93358,2.11988l31.80272,33.674c0.42488,0.452 1.01926,0.70738 1.64302,0.70738c0.00226,0 0.00452,0 0.00678,0c0.62376,-0.00226 1.2204,-0.26216 1.64754,-0.71868l86.09018,-92.3888c2.55154,-2.73912 6.84554,-2.88602 9.5824,-0.339c2.7346,2.54928 2.88602,6.8478 0.339,9.5824zM206.1007,63.3817l-92.66,99.44c-1.27238,1.36278 -3.07134,2.15152 -4.9607,2.1583c-1.85772,0 -3.65442,-0.77518 -4.93132,-2.1244l-14.6787,-15.54202l9.26374,-9.94174l8.66032,9.16882c0.42488,0.452 1.01926,0.70738 1.64302,0.70738c0.00226,0 0.00452,0 0.00678,0c0.62376,-0.00226 1.2204,-0.26216 1.64754,-0.71868l86.09018,-92.3888c2.55154,-2.73912 6.84554,-2.88602 9.5824,-0.339c2.73234,2.54702 2.88376,6.84554 0.33674,9.58014z"
        fill="#182F52" stroke="none" stroke-width="1" stroke-linecap="butt" stroke-linejoin="miter"></path>
      <path
        d="M71.49284,149.39504l-2.22158,2.38656c-0.42488,0.45652 -0.40002,1.17294 0.0565,1.59782c0.21696,0.20114 0.49494,0.30058 0.77066,0.30058c0.30284,0 0.60568,-0.12204 0.82716,-0.35934l2.22158,-2.38656c0.42488,-0.45652 0.40002,-1.17294 -0.0565,-1.59782c-0.45652,-0.42262 -1.17294,-0.39776 -1.59782,0.05876zM127.99284,88.75924l-52.40714,56.2401c-0.42488,0.45652 -0.40002,1.17294 0.0565,1.59782c0.21922,0.2034 0.49494,0.30284 0.77292,0.30284c0.30284,0 0.60568,-0.12204 0.82716,-0.35934l52.40488,-56.2401c0.42488,-0.45652 0.40002,-1.17294 -0.0565,-1.59782c-0.45652,-0.42262 -1.17068,-0.39776 -1.59782,0.0565z"
        fill="#182F52" stroke="none" stroke-width="1" stroke-linecap="butt" stroke-linejoin="miter"></path>
    </g>
  </g>
</svg>
