<?xml version="1.0" encoding="utf-8"?>
<!-- Generator: Adobe Illustrator 24.1.3, SVG Export Plug-In . SVG Version: 6.00 Build 0)  -->
<svg version="1.1" id="Слой_1" xmlns="http://www.w3.org/2000/svg" xmlns:xlink="http://www.w3.org/1999/xlink" x="0px" y="0px"
	 viewBox="0 0 164.9 164.9" style="enable-background:new 0 0 164.9 164.9;" xml:space="preserve">
<style type="text/css">
	.st0{fill:url(#SVGID_1_);}
	.st1{fill:url(#SVGID_2_);}
	.st2{fill:#375C72;}
	.st3{fill:url(#SVGID_3_);}
	.st4{fill:#57ACFF;}
	.st5{fill:#45494D;}
	.st6{fill:#1E2021;}
</style>
<g>
	<g>
		
			<linearGradient id="SVGID_1_" gradientUnits="userSpaceOnUse" x1="-306.1368" y1="785.5152" x2="-306.1368" y2="771.121" gradientTransform="matrix(3.5833 0 0 -3.5833 1179.4336 2862.4502)">
			<stop  offset="0" style="stop-color:#484B4F"/>
			<stop  offset="1" style="stop-color:#5D646A"/>
		</linearGradient>
		<rect x="75.3" y="10.8" class="st0" width="14.3" height="14.3"/>
		
			<linearGradient id="SVGID_2_" gradientUnits="userSpaceOnUse" x1="135.3116" y1="130.1449" x2="128.8757" y2="123.7091" gradientTransform="matrix(1 0 0 -1 0 166.8889)">
			<stop  offset="0" style="stop-color:#484B4F"/>
			<stop  offset="1" style="stop-color:#5D646A"/>
		</linearGradient>
		<path class="st1" d="M133.4,47.6l-9-9l6.4-6.4l9,9L133.4,47.6z"/>
		<path class="st2" d="M93.2,14.4H71.7c-2,0-3.6-1.6-3.6-3.6V3.6c0-2,1.6-3.6,3.6-3.6h21.5c2,0,3.6,1.6,3.6,3.6v7.2
			C96.8,12.8,95.2,14.4,93.2,14.4z"/>
		<path class="st2" d="M139.8,42l-9.7-9.7c-1.3-1.3-1.3-3.5,0-4.9l4.9-4.9c1.3-1.3,3.5-1.3,4.9,0l9.7,9.7c1.3,1.3,1.3,3.5,0,4.9
			l-4.9,4.9C143.3,43.4,141.1,43.4,139.8,42z"/>
		<circle class="st2" cx="82.4" cy="89.6" r="68.1"/>
		
			<radialGradient id="SVGID_3_" cx="-244.1418" cy="706.6554" r="62.7053" gradientTransform="matrix(3.5833 0 0 -3.5833 1179.4336 2862.4502)" gradientUnits="userSpaceOnUse">
			<stop  offset="0.842" style="stop-color:#000000;stop-opacity:0.2"/>
			<stop  offset="1" style="stop-color:#000000;stop-opacity:0"/>
		</radialGradient>
		<circle class="st3" cx="82.4" cy="89.6" r="62.7"/>
		<circle class="st4" cx="82.4" cy="89.6" r="57.3"/>
		<path class="st5" d="M82.4,93.2c-0.9,0-1.8-0.4-2.5-1L49.5,61.7c-1.4-1.4-1.4-3.7,0-5.1s3.7-1.4,5.1,0L85,87.1
			c1.4,1.4,1.4,3.7,0,5.1C84.3,92.8,83.4,93.2,82.4,93.2z"/>
		<circle class="st6" cx="82.4" cy="89.6" r="7.2"/>
	</g>
</g>
</svg>
