<?xml version="1.0" encoding="utf-8"?>
<!-- Generator: Adobe Illustrator 24.1.3, SVG Export Plug-In . SVG Version: 6.00 Build 0)  -->
<svg version="1.1" id="Слой_1" opacity="0.6" xmlns="http://www.w3.org/2000/svg" xmlns:xlink="http://www.w3.org/1999/xlink"
	 x="0px" y="0px" viewBox="0 0 356.8 1217" style="enable-background:new 0 0 356.8 1217;" xml:space="preserve">
<style type="text/css">
	.st0{clip-path:url(#SVGID_2_);}
	.st1{fill:url(#SVGID_3_);}
	.st2{fill:url(#SVGID_4_);}
	.st3{fill:url(#SVGID_5_);}
	.st4{fill:#1F72FF;}
	.st5{fill:url(#SVGID_6_);}
	.st6{fill:url(#SVGID_7_);}
	.st7{fill:url(#SVGID_8_);}
	.st8{fill:#5FD9FF;}
	.st9{fill:url(#SVGID_9_);}
	.st10{fill:url(#SVGID_10_);}
	.st11{fill:url(#SVGID_11_);}
	.st12{fill:url(#SVGID_12_);}
	.st13{fill:url(#SVGID_13_);}
	.st14{fill:url(#SVGID_14_);}
	.st15{fill:url(#SVGID_15_);}
</style>
<g>
	<defs>
		<rect id="SVGID_1_" y="4.2" width="356.8" height="1212.8"/>
	</defs>
	<use xlink:href="#SVGID_1_"  style="overflow:visible;fill:#FFFFFF;"/>
	<clipPath id="SVGID_2_">
		<use xlink:href="#SVGID_1_"  style="overflow:visible;"/>
	</clipPath>
	<g class="st0">
		
			<radialGradient id="SVGID_3_" cx="106.2227" cy="-399.8521" r="408.138" gradientTransform="matrix(-0.2425 1.2381 -0.7086 -0.2046 146.502 426.0584)" gradientUnits="userSpaceOnUse">
			<stop  offset="0" style="stop-color:#FFFFFF"/>
			<stop  offset="0" style="stop-color:#F5FEFF"/>
			<stop  offset="0" style="stop-color:#D9FAFF"/>
			<stop  offset="0" style="stop-color:#ACF4FF"/>
			<stop  offset="0" style="stop-color:#6EECFF"/>
			<stop  offset="0" style="stop-color:#5FEAFF"/>
			<stop  offset="4.756895e-02" style="stop-color:#59E7FF"/>
			<stop  offset="0.1098" style="stop-color:#49DFFF"/>
			<stop  offset="0.1799" style="stop-color:#2ED1FF"/>
			<stop  offset="0.2121" style="stop-color:#1FCAFF"/>
			<stop  offset="0.5421" style="stop-color:#38BDFF"/>
			<stop  offset="1" style="stop-color:#57ACFF"/>
		</radialGradient>
		<path class="st1" d="M193.8,1257.4c295.1-51.9,373.6-325.8,278.6-606C405,369.9,163.8,82.2,454.7-24.7c0.1,0.1,0.2,0,0.2,0
			c-286.6,105.8-24.5,395.8,45.5,678.1c100.2,281.2,8.4,554.7-287.9,599.4C206.9,1254.3,200.7,1255.8,193.8,1257.4z"/>
		
			<radialGradient id="SVGID_4_" cx="741.6041" cy="-383.2949" r="1576.9656" gradientTransform="matrix(-0.2425 1.2381 -0.7086 -0.2046 146.502 426.0584)" gradientUnits="userSpaceOnUse">
			<stop  offset="0" style="stop-color:#57ACFF"/>
			<stop  offset="0.204" style="stop-color:#4EB1FF"/>
			<stop  offset="0.5356" style="stop-color:#36BEFF"/>
			<stop  offset="0.7879" style="stop-color:#1FCAFF"/>
			<stop  offset="0.8201" style="stop-color:#2ED1FF"/>
			<stop  offset="0.8902" style="stop-color:#49DFFF"/>
			<stop  offset="0.9524" style="stop-color:#59E7FF"/>
			<stop  offset="1" style="stop-color:#5FEAFF"/>
			<stop  offset="1" style="stop-color:#6EECFF"/>
			<stop  offset="1" style="stop-color:#ACF4FF"/>
			<stop  offset="1" style="stop-color:#D9FAFF"/>
			<stop  offset="1" style="stop-color:#F5FEFF"/>
			<stop  offset="1" style="stop-color:#FFFFFF"/>
		</radialGradient>
		<path class="st2" d="M176.2,1261.1c295.1-57.8,363.9-331.8,273.4-611.4c-65-280.6-289.4-566.8,5-674.4c0-0.1,0.1,0,0.1-0.1
			C163,82.4,400.3,369.8,467.3,651c94,280.1,17.7,554-277.3,607.2C185.6,1259.2,181,1260.3,176.2,1261.1z"/>
		
			<radialGradient id="SVGID_5_" cx="113.4781" cy="-339.1253" r="405.5386" gradientTransform="matrix(-0.2425 1.2381 -0.7086 -0.2046 146.502 426.0584)" gradientUnits="userSpaceOnUse">
			<stop  offset="0" style="stop-color:#FFFFFF"/>
			<stop  offset="5.679835e-04" style="stop-color:#FFF5FF"/>
			<stop  offset="1.545044e-03" style="stop-color:#FDD9FF"/>
			<stop  offset="2.813222e-03" style="stop-color:#FBACFF"/>
			<stop  offset="4.307820e-03" style="stop-color:#F86EFF"/>
			<stop  offset="5.025126e-03" style="stop-color:#F74EFF"/>
			<stop  offset="0.1314" style="stop-color:#F151FF"/>
			<stop  offset="0.2967" style="stop-color:#E15BFF"/>
			<stop  offset="0.4837" style="stop-color:#C66BFF"/>
			<stop  offset="0.6867" style="stop-color:#A081FF"/>
			<stop  offset="0.9002" style="stop-color:#709DFF"/>
			<stop  offset="1" style="stop-color:#57ACFF"/>
		</radialGradient>
		<path class="st3" d="M139.1,1266.1c298.2-70.8,341.5-349.5,260.5-627.3C338.8,359.2,153.7,80.6,460.9-28.5l0,0
			c-302.7,108-97.8,388.8-33,669.3c87.3,278.7,34.5,557.1-262.1,620.9C157.4,1263.2,148.5,1264.6,139.1,1266.1z"/>
		<path class="st4" d="M115.1,1269.9c300.4-76.4,336.9-355.5,261.4-632.7C319.3,358.4,150.1,81.5,460.9-28.5l0,0
			C152.9,80.8,334.2,359,394.2,638.4C474,916,432.3,1195,133.7,1267C127.7,1267.9,121.5,1268.8,115.1,1269.9z"/>
		
			<radialGradient id="SVGID_6_" cx="131.9218" cy="-265.9398" r="405.3961" gradientTransform="matrix(-0.2425 1.2381 -0.7086 -0.2046 146.502 426.0584)" gradientUnits="userSpaceOnUse">
			<stop  offset="0" style="stop-color:#FFFFFF"/>
			<stop  offset="0" style="stop-color:#F5FEFF"/>
			<stop  offset="0" style="stop-color:#D9FAFF"/>
			<stop  offset="0" style="stop-color:#ACF4FF"/>
			<stop  offset="0" style="stop-color:#6EECFF"/>
			<stop  offset="0" style="stop-color:#5FEAFF"/>
			<stop  offset="4.756895e-02" style="stop-color:#59E7FF"/>
			<stop  offset="0.1098" style="stop-color:#49DFFF"/>
			<stop  offset="0.1799" style="stop-color:#2ED1FF"/>
			<stop  offset="0.2121" style="stop-color:#1FCAFF"/>
			<stop  offset="0.2614" style="stop-color:#31BFFF"/>
			<stop  offset="0.4634" style="stop-color:#7793FF"/>
			<stop  offset="0.6454" style="stop-color:#AE71FF"/>
			<stop  offset="0.8011" style="stop-color:#D658FF"/>
			<stop  offset="0.9244" style="stop-color:#EE49FF"/>
			<stop  offset="1" style="stop-color:#F743FF"/>
		</radialGradient>
		<path class="st5" d="M46,1281.5C356,1193.4,386.7,917,325.1,641.2C278.4,364.3,139.4,87.9,453.5-24.6c0,0,0.1,0,0.3,0
			C144.5,86.7,302.4,365.3,354.1,643.1c68.8,276.7,31.4,552.5-273,633.8C69.9,1278.5,58.2,1280,46,1281.5z"/>
		
			<radialGradient id="SVGID_7_" cx="136.783" cy="-221.9565" r="764.0233" gradientTransform="matrix(-0.2425 1.2381 -0.7086 -0.2046 146.502 426.0584)" gradientUnits="userSpaceOnUse">
			<stop  offset="0" style="stop-color:#FFFFFF"/>
			<stop  offset="0" style="stop-color:#F5FEFF"/>
			<stop  offset="0" style="stop-color:#D9FAFF"/>
			<stop  offset="0" style="stop-color:#ACF4FF"/>
			<stop  offset="0" style="stop-color:#6EECFF"/>
			<stop  offset="0" style="stop-color:#5FEAFF"/>
			<stop  offset="4.756895e-02" style="stop-color:#59E7FF"/>
			<stop  offset="0.1098" style="stop-color:#49DFFF"/>
			<stop  offset="0.1799" style="stop-color:#2ED1FF"/>
			<stop  offset="0.2121" style="stop-color:#1FCAFF"/>
			<stop  offset="0.2615" style="stop-color:#3AAFFF"/>
			<stop  offset="0.3573" style="stop-color:#6A82FF"/>
			<stop  offset="0.4562" style="stop-color:#925BFF"/>
			<stop  offset="0.5568" style="stop-color:#B43AFF"/>
			<stop  offset="0.6596" style="stop-color:#CD22FF"/>
			<stop  offset="0.7654" style="stop-color:#E010FF"/>
			<stop  offset="0.8762" style="stop-color:#EA05FF"/>
			<stop  offset="1" style="stop-color:#EE02FF"/>
		</radialGradient>
		<path class="st6" d="M15.7,1285.3c315.2-93.6,341.4-370.5,285.9-645.8c-42.3-276.2-166.2-550.7,151.6-664c0.1,0,0.1,0,0.1,0
			C138.5,88.2,274,364,319.8,640.7c60.2,275.7,30.6,552.3-280.5,641.6C31.6,1283.3,23.8,1284.3,15.7,1285.3z"/>
		
			<radialGradient id="SVGID_8_" cx="-181.3646" cy="-307.6326" r="1285.7271" gradientTransform="matrix(-0.2425 1.2381 -0.7086 -0.2046 146.502 426.0584)" gradientUnits="userSpaceOnUse">
			<stop  offset="0" style="stop-color:#FFFFFF"/>
			<stop  offset="0" style="stop-color:#F5F9FF"/>
			<stop  offset="0" style="stop-color:#D9E8FF"/>
			<stop  offset="0" style="stop-color:#ACCDFF"/>
			<stop  offset="0" style="stop-color:#6EA8FF"/>
			<stop  offset="0" style="stop-color:#5F9FFF"/>
			<stop  offset="4.756895e-02" style="stop-color:#59A3FF"/>
			<stop  offset="0.1098" style="stop-color:#49AEFF"/>
			<stop  offset="0.1799" style="stop-color:#2EC0FF"/>
			<stop  offset="0.2121" style="stop-color:#1FCAFF"/>
			<stop  offset="0.2504" style="stop-color:#33BCFF"/>
			<stop  offset="0.3915" style="stop-color:#798CFF"/>
			<stop  offset="0.5186" style="stop-color:#B066FF"/>
			<stop  offset="0.6274" style="stop-color:#D84BFF"/>
			<stop  offset="0.7135" style="stop-color:#F03AFF"/>
			<stop  offset="0.7663" style="stop-color:#F934FF"/>
		</radialGradient>
		<path class="st7" d="M-44.8,1289.3C663.8,1068-144.3,191,460.9-28.5l0,0c-326.6,113.9-220,383.3-180.6,659.2
			c50.5,274.3,33.8,555.3-284.1,654.1C-17,1286.3-30.7,1287.8-44.8,1289.3z"/>
		<path class="st8" d="M-80,1292.7C632.5,1061.1-161.9,192.8,460.9-28.5l0,0c-609.3,220,195.6,1095-513.7,1318.4
			C-61.7,1290.9-70.8,1291.8-80,1292.7z"/>
		
			<radialGradient id="SVGID_9_" cx="-371.1377" cy="-434.6119" r="1353.7887" gradientTransform="matrix(-0.2425 1.2381 -0.7086 -0.2046 146.502 426.0584)" gradientUnits="userSpaceOnUse">
			<stop  offset="0" style="stop-color:#FFFFFF"/>
			<stop  offset="0" style="stop-color:#F5FEFF"/>
			<stop  offset="0" style="stop-color:#D9FAFF"/>
			<stop  offset="0" style="stop-color:#ACF4FF"/>
			<stop  offset="0" style="stop-color:#6EECFF"/>
			<stop  offset="0" style="stop-color:#5FEAFF"/>
			<stop  offset="4.756895e-02" style="stop-color:#59E7FF"/>
			<stop  offset="0.1098" style="stop-color:#49DFFF"/>
			<stop  offset="0.1799" style="stop-color:#2ED1FF"/>
			<stop  offset="0.2121" style="stop-color:#1FCAFF"/>
			<stop  offset="0.4167" style="stop-color:#36BEFF"/>
			<stop  offset="0.6856" style="stop-color:#4EB1FF"/>
			<stop  offset="0.8511" style="stop-color:#57ACFF"/>
		</radialGradient>
		<path class="st9" d="M203.9,1255.6c294.2-45.6,389.2-316.2,291.3-597.1C427.5,376.7,166.9,84.5,450.8-22c0.1,0,0.3-0.1,0.4-0.1
			C172.6,83.2,460.2,378.1,530.1,661c104,282.1-9.7,552.3-306.5,588.6C217.9,1251.7,211.3,1253.6,203.9,1255.6z"/>
		
			<radialGradient id="SVGID_10_" cx="110.0292" cy="-389.1693" r="1415.9387" gradientTransform="matrix(-0.2425 1.2381 -0.7086 -0.2046 146.502 426.0584)" gradientUnits="userSpaceOnUse">
			<stop  offset="0" style="stop-color:#FFFFFF"/>
			<stop  offset="0" style="stop-color:#F5FEFF"/>
			<stop  offset="0" style="stop-color:#D9FAFF"/>
			<stop  offset="0" style="stop-color:#ACF4FF"/>
			<stop  offset="0" style="stop-color:#6EECFF"/>
			<stop  offset="0" style="stop-color:#5FEAFF"/>
			<stop  offset="4.756895e-02" style="stop-color:#59E7FF"/>
			<stop  offset="0.1098" style="stop-color:#49DFFF"/>
			<stop  offset="0.1799" style="stop-color:#2ED1FF"/>
			<stop  offset="0.2121" style="stop-color:#1FCAFF"/>
			<stop  offset="0.3856" style="stop-color:#5CA4FF"/>
			<stop  offset="0.5593" style="stop-color:#9382FF"/>
			<stop  offset="0.7095" style="stop-color:#BB6AFF"/>
			<stop  offset="0.8285" style="stop-color:#D35BFF"/>
			<stop  offset="0.9014" style="stop-color:#DC55FF"/>
		</radialGradient>
		<path class="st10" d="M183.8,1260.5c293.8-53.1,375.4-324.1,282.8-604.3C401.4,375.5,162.2,85.6,450.4-22c0,0,0.1,0.1,0.2,0
			c-284.8,106.7-29.1,398.3,37.9,679.9c96.8,280.8,5,551.5-289,598.9C194.7,1257.9,189.4,1259.2,183.8,1260.5z"/>
		
			<radialGradient id="SVGID_11_" cx="-135.6417" cy="-344.6578" r="1600.6978" gradientTransform="matrix(-0.2425 1.2381 -0.7086 -0.2046 146.502 426.0584)" gradientUnits="userSpaceOnUse">
			<stop  offset="0" style="stop-color:#FFFFFF"/>
			<stop  offset="0" style="stop-color:#F5FEFF"/>
			<stop  offset="0" style="stop-color:#D9FAFF"/>
			<stop  offset="0" style="stop-color:#ACF4FF"/>
			<stop  offset="0" style="stop-color:#6EECFF"/>
			<stop  offset="0" style="stop-color:#5FEAFF"/>
			<stop  offset="4.756895e-02" style="stop-color:#59E7FF"/>
			<stop  offset="0.1098" style="stop-color:#49DFFF"/>
			<stop  offset="0.1799" style="stop-color:#2ED1FF"/>
			<stop  offset="0.2121" style="stop-color:#1FCAFF"/>
			<stop  offset="0.3021" style="stop-color:#38A8F9"/>
			<stop  offset="0.4214" style="stop-color:#5580F1"/>
			<stop  offset="0.5164" style="stop-color:#6768ED"/>
			<stop  offset="0.5747" style="stop-color:#6E5FEB"/>
			<stop  offset="0.7763" style="stop-color:#6D61EB"/>
			<stop  offset="0.8489" style="stop-color:#6B68ED"/>
			<stop  offset="0.9007" style="stop-color:#6873F0"/>
			<stop  offset="0.9425" style="stop-color:#6384F5"/>
			<stop  offset="0.9779" style="stop-color:#5C9AFA"/>
			<stop  offset="1" style="stop-color:#57ACFF"/>
		</radialGradient>
		<path class="st11" d="M137.6,1267.8c297.7-69.3,347.8-345.2,266.7-623.4c-59.9-279.3-251-560.9,51.8-670.1c0.1-0.1,0.1,0,0.2,0.1
			c-297.3,107.9-81,392.2-16.4,672.7c88.9,279.2,26.1,554.6-269.5,614.9C160.2,1263.9,149.3,1265.8,137.6,1267.8z"/>
		
			<radialGradient id="SVGID_12_" cx="-341.6438" cy="-312.4438" r="1624.8451" gradientTransform="matrix(-0.2425 1.2381 -0.7086 -0.2046 146.502 426.0584)" gradientUnits="userSpaceOnUse">
			<stop  offset="0" style="stop-color:#FFFFFF"/>
			<stop  offset="0" style="stop-color:#F5FEFF"/>
			<stop  offset="0" style="stop-color:#D9FAFF"/>
			<stop  offset="0" style="stop-color:#ACF4FF"/>
			<stop  offset="0" style="stop-color:#6EECFF"/>
			<stop  offset="0" style="stop-color:#5FEAFF"/>
			<stop  offset="4.756895e-02" style="stop-color:#59E7FF"/>
			<stop  offset="0.1098" style="stop-color:#49DFFF"/>
			<stop  offset="0.1799" style="stop-color:#2ED1FF"/>
			<stop  offset="0.2121" style="stop-color:#1FCAFF"/>
			<stop  offset="0.3282" style="stop-color:#36BEFF"/>
			<stop  offset="0.4808" style="stop-color:#4EB1FF"/>
			<stop  offset="0.5747" style="stop-color:#57ACFF"/>
			<stop  offset="0.8081" style="stop-color:#57AAFF"/>
			<stop  offset="0.8922" style="stop-color:#57A3FF"/>
			<stop  offset="0.9519" style="stop-color:#5798FF"/>
			<stop  offset="0.995" style="stop-color:#5789FF"/>
		</radialGradient>
		<path class="st12" d="M107.4,1272.5c301-76.3,342.1-352.8,267.8-630.1C319.6,364,148.5,84.7,455.9-25.7c0,0,0.1,0,0.1,0.1
			C152.1,83.9,338.6,364.8,397.6,644.1c79.6,277.8,31.6,553.9-266.7,624.7C123.4,1270.1,115.6,1271.3,107.4,1272.5z"/>
		
			<radialGradient id="SVGID_13_" cx="138.4154" cy="-244.2623" r="409.2943" gradientTransform="matrix(-0.2425 1.2381 -0.7086 -0.2046 146.502 426.0584)" gradientUnits="userSpaceOnUse">
			<stop  offset="0" style="stop-color:#FFFFFF"/>
			<stop  offset="0" style="stop-color:#F5FEFF"/>
			<stop  offset="0" style="stop-color:#D9FAFF"/>
			<stop  offset="0" style="stop-color:#ACF4FF"/>
			<stop  offset="0" style="stop-color:#6EECFF"/>
			<stop  offset="0" style="stop-color:#5FEAFF"/>
			<stop  offset="8.874210e-02" style="stop-color:#5EE4FF"/>
			<stop  offset="0.2048" style="stop-color:#5CD4FF"/>
			<stop  offset="0.3356" style="stop-color:#59B9FF"/>
			<stop  offset="0.388" style="stop-color:#57ACFF"/>
			<stop  offset="0.457" style="stop-color:#6D9CFF"/>
			<stop  offset="0.64" style="stop-color:#A475FF"/>
			<stop  offset="0.798" style="stop-color:#CC59FF"/>
			<stop  offset="0.9232" style="stop-color:#E447FF"/>
			<stop  offset="1" style="stop-color:#ED41FF"/>
		</radialGradient>
		<path class="st13" d="M20,1286.6c314.7-91.4,346.9-365.7,290-641.3c-42.8-276.2-174.7-553.8,138.2-667c0.1-0.1,0.3,0,0.5-0.1
			c-307,111.9-151.5,392.4-102.3,669.6c66.1,276.5,25.9,549.9-280.8,632.8C51,1282.6,35.9,1284.6,20,1286.6z"/>
		
			<linearGradient id="SVGID_14_" gradientUnits="userSpaceOnUse" x1="-413.0666" y1="-246.369" x2="908.9511" y2="-246.369" gradientTransform="matrix(-0.2425 1.0198 -0.7086 -0.1685 146.502 351.6863)">
			<stop  offset="0" style="stop-color:#FFFFFF"/>
			<stop  offset="0" style="stop-color:#F5FEFF"/>
			<stop  offset="0" style="stop-color:#D9FAFF"/>
			<stop  offset="0" style="stop-color:#ACF4FF"/>
			<stop  offset="0" style="stop-color:#6EECFF"/>
			<stop  offset="0" style="stop-color:#5FEAFF"/>
			<stop  offset="4.756895e-02" style="stop-color:#59E7FF"/>
			<stop  offset="0.1098" style="stop-color:#49DFFF"/>
			<stop  offset="0.1799" style="stop-color:#2ED1FF"/>
			<stop  offset="0.2121" style="stop-color:#1FCAFF"/>
			<stop  offset="0.217" style="stop-color:#20CAFF"/>
			<stop  offset="0.3736" style="stop-color:#48C7FF"/>
			<stop  offset="0.4982" style="stop-color:#60C6FF"/>
			<stop  offset="0.5747" style="stop-color:#69C5FF"/>
			<stop  offset="0.8727" style="stop-color:#67C4FF"/>
			<stop  offset="0.98" style="stop-color:#60C2FF"/>
			<stop  offset="1" style="stop-color:#5EC1FF"/>
		</linearGradient>
		<path class="st14" d="M-20,1291.5c322.5-98.4,349.4-373.3,300.2-648.1C243,367.9,129.9,92.7,447.7-21.7c0.1,0,0.2,0,0.2,0
			C134,91.8,261.6,368.9,303.2,644.9c55.1,275.4,24.3,549.8-292.2,642.8C1,1289-9.4,1290.1-20,1291.5z"/>
		
			<linearGradient id="SVGID_15_" gradientUnits="userSpaceOnUse" x1="-418.2516" y1="-159.019" x2="932.7646" y2="-159.019" gradientTransform="matrix(-0.2425 1.0198 -0.7086 -0.1685 146.502 351.6863)">
			<stop  offset="0" style="stop-color:#3BA6E3"/>
			<stop  offset="0.9829" style="stop-color:#57ACFF"/>
		</linearGradient>
		<path class="st15" d="M-103.2,1297.3C619,1064-166.3,199.3,455-25.6c0,0,0.1,0,0.1,0C-138.6,196.7,666.7,1074.7-48.1,1291.7
			C-65.8,1293.6-84.2,1295.5-103.2,1297.3z"/>
	</g>
</g>
</svg>
