<?xml version="1.0" encoding="utf-8"?>
<!-- Generator: Adobe Illustrator 24.1.3, SVG Export Plug-In . SVG Version: 6.00 Build 0)  -->
<svg version="1.1" id="Слой_1" xmlns="http://www.w3.org/2000/svg" xmlns:xlink="http://www.w3.org/1999/xlink" x="0px" y="0px"
	 viewBox="0 0 172 172" style="enable-background:new 0 0 172 172;" xml:space="preserve">
<style type="text/css">
	.st0{fill:#182F52;}
	.st1{fill:#57ACFF;}
</style>
<g>
	<g>
		<path class="st0" d="M97.7,38.7L80.6,55.8L73,48.2C73,48.2,82.5,38.7,97.7,38.7z"/>
		<path class="st0" d="M52.1,84.3l17.1-17.1l-7.6-7.6C61.6,59.6,52.1,69.1,52.1,84.3z"/>
		<path class="st1" d="M80.6,118.3c13.6,0,26.5-5.3,36.1-15s15-22.5,15-36.1s-5.3-26.5-15-36.1s-22.5-15-36.1-15s-26.5,5.3-36.1,15
			s-15,22.5-15,36.1s5.3,26.5,15,36.1S67,118.3,80.6,118.3z M61.7,52l15.1,15.1L47.9,96.1C45.3,82.2,50.9,64.1,61.7,52L61.7,52z
			 M99.6,82.3L84.4,67.2l28.9-28.9C115.9,52.2,110.4,70.3,99.6,82.3z M95.8,86.1c-12.1,10.8-30.1,16.4-44.1,13.8L80.6,71L95.8,86.1z
			 M80.6,63.4L65.5,48.2c12.1-10.8,30.1-16.4,44.1-13.8L80.6,63.4z M56.4,105.9c0.8,0,1.6,0.1,2.4,0.1c14,0,29.6-5.9,40.8-16
			l11.4,11.4c-8.4,7.5-19,11.6-30.3,11.6C71.9,112.9,63.6,110.4,56.4,105.9z M114.8,97.5l-11.4-11.4c10.7-11.8,16.7-28.5,16-43.2
			c4.5,7.2,7,15.5,7,24.2C126.3,78.5,122.2,89.1,114.8,97.5L114.8,97.5z M104.9,28.5c-14.6-0.7-31.3,5.3-43.2,16L50.3,33.1
			c8.4-7.5,19-11.6,30.3-11.6C89.3,21.5,97.7,24,104.9,28.5z M46.5,36.9l11.4,11.4c-10.7,11.8-16.7,28.5-16,43.2
			c-4.5-7.2-7-15.5-7-24.2C35,55.9,39.1,45.2,46.5,36.9L46.5,36.9z"/>
		<path class="st0" d="M88.4,128.4c13.2-1.7,25.9-7.5,36-17.5c24.1-24.1,24.1-63.3,0-87.4l-3.8,3.8c22,22,22,57.8,0,79.8
			s-57.8,22-79.8,0l-3.8,3.8c10.1,10.1,22.8,15.9,36,17.5c0.7,2.5,2.4,4.6,5,5.5v8.6h-5.3c-4.5,0-8.1,3.6-8.1,8.1H51.1v5.4h59.1
			v-5.4H96.8c0-4.5-3.6-8.1-8.1-8.1h-5.4v-8.6C86,133,87.7,131,88.4,128.4z M91.4,150.5H69.9c0-1.5,1.2-2.7,2.7-2.7h16
			C90.1,147.8,91.4,149,91.4,150.5L91.4,150.5z"/>
	</g>
</g>
</svg>
