<?xml version="1.0" encoding="utf-8"?>
<!-- Generator: Adobe Illustrator 24.1.3, SVG Export Plug-In . SVG Version: 6.00 Build 0)  -->
<svg version="1.1" id="Слой_1" xmlns="http://www.w3.org/2000/svg" xmlns:xlink="http://www.w3.org/1999/xlink" x="0px" y="0px"
	 viewBox="0 0 172 172" style="enable-background:new 0 0 172 172;" xml:space="preserve">
<style type="text/css">
	.st0{fill:#182F52;}
	.st1{fill:#57ACFF;}
</style>
<g>
	<g id="original-icon">
		<path class="st0" d="M142.4,43H129v-5.4c0-3-2.4-5.4-5.4-5.4h-10.8c-3,0-5.4,2.4-5.4,5.4V43H86V29.6c0-7.4-6-13.4-13.4-13.4h-43
			c-7.4,0-13.4,6-13.4,13.4v37.6c0,7.4,6,13.4,13.4,13.4H43v61.8c0,7.4,6,13.4,13.4,13.4h86c7.4,0,13.4-6,13.4-13.4v-86
			C155.9,49,149.8,43,142.4,43z M112.9,37.6h10.8v16.1h-10.8V37.6z M107.5,48.4v5.4c0,3,2.4,5.4,5.4,5.4h10.8c3,0,5.4-2.4,5.4-5.4
			v-5.4h13.4c4.4,0,8.1,3.6,8.1,8.1v13.4H85.7c0.2-0.9,0.3-1.8,0.3-2.7V48.4H107.5z M110.2,137.1H88.7v-18.8h21.5V137.1z M61.8,91.4
			h21.5v21.5H61.8V91.4z M61.8,118.3h21.5v18.8H61.8V118.3z M88.7,112.9V91.4h21.5v21.5H88.7z M115.6,91.4h21.5v21.5h-21.5V91.4z
			 M83.3,75.2L83.3,75.2l53.8,0.1V86H61.8v-5.4h10.8C77,80.6,80.9,78.5,83.3,75.2z M21.5,67.2V29.6c0-4.4,3.6-8.1,8.1-8.1h43
			c4.4,0,8.1,3.6,8.1,8.1v37.6c0,4.4-3.6,8.1-8.1,8.1h-43C25.1,75.3,21.5,71.6,21.5,67.2z M142.4,150.5h-86c-4.4,0-8.1-3.6-8.1-8.1
			V80.6h8.1v61.8h53.8h2.7h2.7v-24.2h26.9v-43h8.1v67.2C150.5,146.9,146.9,150.5,142.4,150.5z"/>
		<path class="st1" d="M115.6,40.3h5.4v10.8h-5.4V40.3z"/>
		<path class="st1" d="M59.1,32.3h5.4v32.3h-5.4V32.3z"/>
		<path class="st1" d="M48.4,64.5H37.1c-3.6,0-6.5-2.9-6.5-6.5v-3.9c0-3,2-5.5,4.9-6.3l8-2v-7.2H32.2c-0.9,0-1.6-0.7-1.6-1.6v-3.2
			c0-0.9,0.7-1.6,1.6-1.6h11.3c3.6,0,6.5,2.9,6.5,6.5v7.2c0,3-2,5.5-4.9,6.3l-8,2v3.9h11.3c0.9,0,1.6,0.7,1.6,1.6v3.2
			C50,63.8,49.3,64.5,48.4,64.5L48.4,64.5z"/>
		<path class="st1" d="M120.9,142.4v-16.1c0-1.5,1.2-2.7,2.7-2.7h16.1L120.9,142.4z"/>
	</g>
</g>
</svg>
