<?xml version="1.0" encoding="utf-8"?>
<!-- Generator: Adobe Illustrator 24.1.3, SVG Export Plug-In . SVG Version: 6.00 Build 0)  -->
<svg version="1.1" id="Слой_1" xmlns="http://www.w3.org/2000/svg" xmlns:xlink="http://www.w3.org/1999/xlink" x="0px" y="0px"
	 viewBox="0 0 172 172" style="enable-background:new 0 0 172 172;" xml:space="preserve">
<style type="text/css">
	.st0{fill:#57ACFF;}
	.st1{fill:url(#SVGID_1_);}
	.st2{fill:#182F52;}
</style>
<g>
	<g>
		<path class="st0" d="M81.6,83.1c-1.4,0-2.8-0.6-3.8-1.6l-7.5-7.5l3.8-3.8l7.5,7.5L97.9,62l3.7,3.9L85.4,81.6
			C84.4,82.6,83.1,83.1,81.6,83.1L81.6,83.1z"/>
		<rect x="99.4" y="29.6" class="st0" width="16.1" height="2.7"/>
		
			<linearGradient id="SVGID_1_" gradientUnits="userSpaceOnUse" x1="-170.5233" y1="283.6288" x2="-170.5233" y2="277.5712" gradientTransform="matrix(2.6875 0 0 -2.6875 521.4375 837.1875)">
			<stop  offset="0" style="stop-color:#70DFFF"/>
			<stop  offset="1" style="stop-color:#70AFFF"/>
		</linearGradient>
		<rect x="53.8" y="29.6" class="st1" width="18.8" height="2.7"/>
		<path class="st2" d="M129,32.3h-8.1v-2.7c0-3-2.4-5.4-5.4-5.4H98.3c-2.1-4.7-6.8-8.1-12.3-8.1s-10.2,3.3-12.3,8.1h-20
			c-3,0-5.4,2.4-5.4,5.4v2.7H43c-5.9,0-10.8,4.8-10.8,10.8v102.1c0,5.9,4.8,10.8,10.8,10.8h86c5.9,0,10.8-4.8,10.8-10.8V43
			C139.8,37.1,134.9,32.3,129,32.3z M99.4,29.6h16.1v2.7H99.4V29.6z M77.9,29.6c0-4.4,3.6-8.1,8.1-8.1c4.4,0,8.1,3.6,8.1,8.1l0,18.8
			H77.9L77.9,29.6z M77.9,53.8h16.1c3,0,5.4-2.4,5.4-5.4h24.2v75.3v5.4H48.4v-5.4V48.4h24.2C72.6,51.3,75,53.8,77.9,53.8z
			 M123.6,134.4v5.4H48.4v-5.4H123.6z M53.8,29.6h18.8v2.7H53.8V29.6z M134.4,145.1c0,3-2.4,5.4-5.4,5.4H43c-3,0-5.4-2.4-5.4-5.4V43
			c0-3,2.4-5.4,5.4-5.4h29.6V43H48.4c-3,0-5.4,2.4-5.4,5.4v75.3v5.4v10.8c0,3,2.4,5.4,5.4,5.4h75.3c3,0,5.4-2.4,5.4-5.4V129v-5.4
			V48.4c0-3-2.4-5.4-5.4-5.4H99.4v-5.4H129c3,0,5.4,2.4,5.4,5.4V145.1z"/>
		<rect x="56.4" y="94.1" class="st0" width="59.1" height="5.4"/>
		<rect x="72.6" y="115.6" class="st0" width="26.9" height="5.4"/>
		<rect x="64.5" y="104.8" class="st0" width="43" height="5.4"/>
	</g>
</g>
</svg>
