<?xml version="1.0" encoding="utf-8"?>
<!-- Generator: Adobe Illustrator 24.1.3, SVG Export Plug-In . SVG Version: 6.00 Build 0)  -->
<svg version="1.1"
	 id="Слой_1" xmlns:cc="http://creativecommons.org/ns#" xmlns:dc="http://purl.org/dc/elements/1.1/" xmlns:inkscape="http://www.inkscape.org/namespaces/inkscape" xmlns:rdf="http://www.w3.org/1999/02/22-rdf-syntax-ns#" xmlns:sodipodi="http://sodipodi.sourceforge.net/DTD/sodipodi-0.dtd" xmlns:svg="http://www.w3.org/2000/svg"
	 xmlns="http://www.w3.org/2000/svg" xmlns:xlink="http://www.w3.org/1999/xlink" x="0px" y="0px" viewBox="0 0 264 263.9"
	 style="enable-background:new 0 0 264 263.9;" xml:space="preserve">
<style type="text/css">
	.st0{fill-rule:evenodd;clip-rule:evenodd;fill:#00E676;}
	.st1{fill-rule:evenodd;clip-rule:evenodd;fill:#FFFFFF;}
</style>
<path class="st0" d="M132,12L132,12C65.7,12,12,65.6,12,132c0,25,7.6,48.2,21.2,68.1c1,1.5,1.3,3.4,0.8,5.1l-12.2,40.7l39.9-13.8
	c1.7-0.6,3.7-0.4,5.2,0.6c18.7,12.1,41.1,19.2,65.1,19.2c66.4,0,120-53.6,120-120C252,65.7,198.4,12,132,12z"/>
<path class="st1" d="M85,45.6c-0.4,0-0.9,0.1-1.3,0.3C70.3,50,60.9,57.3,55.8,66.7c-5.1,9.5-5.8,20.5-3.6,31.8
	c4.4,22.5,20,46.7,39.7,66.8s43.4,36.3,66.1,41c11.3,2.3,22.6,1.7,32.3-3.4c9.7-5.1,17.5-14.6,22.3-28.2c0.9-2.6-0.1-5.5-2.4-7
	l-42.8-26.8l-0.1-0.1c-0.2-0.1-0.4-0.3-0.7-0.4c-0.6-0.4-1.3-0.7-2.1-0.8c-0.1,0-0.1,0-0.2,0c-0.2,0-0.3-0.1-0.5-0.1h-0.1
	c-1-0.1-2,0.1-2.9,0.6c-0.3,0.2-0.6,0.3-0.9,0.6c-0.2,0.1-0.4,0.2-0.6,0.4c-0.1,0.1-0.1,0.2-0.2,0.3c-0.2,0.2-0.5,0.4-0.7,0.7
	l-9.4,9.5c-17-8.6-30.1-22.9-41.8-42.3l8.6-8.5c0.2-0.1,0.3-0.3,0.5-0.5c0.1-0.1,0.3-0.2,0.4-0.4v-0.1c0.1-0.1,0.3-0.2,0.4-0.4v-0.1
	c0.1-0.1,0.1-0.2,0.2-0.3c0.1-0.1,0.1-0.1,0.2-0.2c0.1-0.2,0.1-0.3,0.2-0.5v-0.1c0-0.1,0.1-0.1,0.1-0.2c0.1-0.1,0.1-0.2,0.2-0.4
	c0-0.2,0.1-0.3,0.1-0.5V97c0-0.2,0.1-0.4,0.1-0.6v-0.1c0-0.2,0-0.3,0-0.5v-0.1c0-0.2,0-0.3,0-0.5c0-0.1,0-0.1,0-0.2
	c0-0.2-0.1-0.3-0.1-0.5v-0.1c-0.1-0.4-0.2-0.7-0.4-1v-0.1c-0.1-0.3-0.2-0.5-0.4-0.8l-0.1-0.2l-0.1-0.1L90.6,48.5
	c-1.1-1.8-2.9-2.8-5-2.9C85.4,45.6,85.2,45.6,85,45.6L85,45.6z M82.9,58.8l21.8,36.1l-9.1,9c-1.9,1.9-2.3,4.9-0.9,7.2
	c13.9,24,30.3,42.7,53.3,52.9c2.3,1,4.9,0.5,6.7-1.2l9.7-9.7l35.3,22c-3.9,8.8-9,14-14.8,17.1c-6.7,3.5-15,4.2-24.4,2.3
	c-18.8-3.9-41.5-18.7-60-37.6S67.7,115,64,96.2c-1.8-9.4-1-17.4,2.4-23.8C69.4,66.9,74.4,62.2,82.9,58.8L82.9,58.8z"/>
<path class="st1" d="M132,0C59.2,0,0,59.2,0,132c0,26.5,7.8,51.2,21.7,72.4L6.9,253.7c-1,3.2,0.9,6.5,4,7.5c1.2,0.4,2.5,0.3,3.7-0.1
	l48.2-16.6C82.9,256.9,106.6,264,132,264c72.8,0,132-59.2,132-132S204.8,0,132,0L132,0z M132,12c66.4,0,120,53.6,120,120
	s-53.6,120-120,120c-24.1,0-46.4-7.1-65.1-19.2c-1.5-1-3.5-1.2-5.2-0.6L21.8,246L34,205.3c0.5-1.7,0.2-3.6-0.8-5.1
	C19.6,180.3,12,157.1,12,132.1C12,65.7,65.7,12,132,12L132,12z"/>
</svg>
