<?xml version="1.0" encoding="utf-8"?>
<!-- Generator: Adobe Illustrator 24.1.3, SVG Export Plug-In . SVG Version: 6.00 Build 0)  -->
<svg version="1.1" id="Слой_1" xmlns="http://www.w3.org/2000/svg" xmlns:xlink="http://www.w3.org/1999/xlink" x="0px" y="0px"
	 viewBox="0 0 172 148" style="enable-background:new 0 0 172 148;" xml:space="preserve">
<style type="text/css">
	.st0{fill:#57ACFF;}
	.st1{fill:#182F52;}
	.st2{fill:url(#SVGID_1_);}
</style>
<g>
	<g>
		<path class="st0" d="M21.5,117h129v8.1h-129V117z"/>
		<path class="st1" d="M147.8,17.6H24.2c-4.4,0-8.1,3.6-8.1,8.1v86v10.8c0,4.4,3.6,8.1,8.1,8.1h123.6c4.4,0,8.1-3.6,8.1-8.1v-10.8
			v-86C155.9,21.2,152.3,17.6,147.8,17.6z M147.8,125.1H24.2c-1.5,0-2.7-1.2-2.7-2.7v-3.2c0.8,0.3,1.7,0.5,2.7,0.5h123.6
			c0.9,0,1.8-0.2,2.7-0.5v3.2C150.5,123.9,149.3,125.1,147.8,125.1z M147.8,114.3H24.2c-1.5,0-2.7-1.2-2.7-2.7v-86
			c0-1.5,1.2-2.7,2.7-2.7h123.6c1.5,0,2.7,1.2,2.7,2.7v86C150.5,113.1,149.3,114.3,147.8,114.3z"/>
		<path class="st0" d="M32.3,41.8H86v5.4H32.3V41.8z"/>
		<path class="st0" d="M32.3,52.5h43v5.4h-43C32.3,57.9,32.3,52.5,32.3,52.5z"/>
		<path class="st1" d="M129.1,37.9c-2.9-2.6-6.7-4.2-10.8-4.2c-8.9,0-16.1,7.2-16.1,16.1s7.2,16.1,16.1,16.1s16.1-7.2,16.1-16.1
			c0-2.8-0.7-5.4-2-7.7l3.9-3.9l-3.8-3.8L129.1,37.9z M129,49.8c0,5.9-4.8,10.8-10.8,10.8s-10.8-4.8-10.8-10.8S112.2,39,118.2,39
			c2.7,0,5.1,1,7,2.6l-7,7l-3.5-3.5L111,49l7.3,7.3l10.1-10.1C128.7,47.3,129,48.5,129,49.8L129,49.8z"/>
		
			<linearGradient id="SVGID_1_" gradientUnits="userSpaceOnUse" x1="59.15" y1="923.5625" x2="59.15" y2="1035.5748" gradientTransform="matrix(1 0 0 1 0 -906)">
			<stop  offset="0" style="stop-color:#00C6FF"/>
			<stop  offset="1" style="stop-color:#0072FF"/>
		</linearGradient>
		<path class="st2" d="M32.3,79.4H86v5.4H32.3V79.4z"/>
		<path class="st0" d="M32.3,90.1h43v5.4h-43C32.3,95.5,32.3,90.1,32.3,90.1z"/>
		<path class="st1" d="M132.5,72.1l-3.4,3.4c-2.9-2.6-6.7-4.2-10.8-4.2c-8.9,0-16.1,7.2-16.1,16.1s7.2,16.1,16.1,16.1
			s16.1-7.2,16.1-16.1c0-2.8-0.7-5.4-2-7.7l3.9-3.9L132.5,72.1z M129,87.4c0,5.9-4.8,10.8-10.8,10.8s-10.8-4.8-10.8-10.8
			s4.8-10.8,10.8-10.8c2.7,0,5.1,1,7,2.6l-7,7l-3.5-3.5l-3.8,3.8l7.3,7.3l10.1-10.1C128.7,85,129,86.2,129,87.4L129,87.4z"/>
	</g>
</g>
</svg>
