<?xml version="1.0" encoding="utf-8"?>
<!-- Generator: Adobe Illustrator 24.1.3, SVG Export Plug-In . SVG Version: 6.00 Build 0)  -->
<svg version="1.1" id="Слой_1" xmlns="http://www.w3.org/2000/svg" xmlns:xlink="http://www.w3.org/1999/xlink" x="0px" y="0px"
	 viewBox="0 0 172 172" style="enable-background:new 0 0 172 172;" xml:space="preserve">
<style type="text/css">
	.st0{fill:#57ACFF;}
	.st1{fill:#182F52;}
</style>
<g>
	<g>
		<path class="st0" d="M115.6,88.7c0,1.5-1.2,2.7-2.7,2.7H86c-1.5,0-2.7-1.2-2.7-2.7v-5.4c0-1.5,1.2-2.7,2.7-2.7h26.9
			c1.5,0,2.7,1.2,2.7,2.7V88.7z"/>
		<path class="st1" d="M126.3,16.1c-13,0-23.8,9.2-26.3,21.5H26.9c-4.4,0-8.1,3.6-8.1,8.1c0,3.5,2.3,6.5,5.4,7.6v65
			c0,4.4,3.6,8.1,8.1,8.1h26.2c-0.1,0.2-0.2,0.5-0.2,0.7l-7,28.2l2.6,0.6h2.8l3.3-13.4h40.8l3.3,13.4h2.6l2.5-0.6l-6.7-28.2
			c-0.1-0.2-0.2-0.5-0.2-0.7h21.4c4.4,0,8.1-3.6,8.1-8.1V69.3c12.3-2.5,21.5-13.4,21.5-26.3C153.2,28.2,141.1,16.1,126.3,16.1
			L126.3,16.1z M24.2,45.7c0-1.5,1.2-2.7,2.7-2.7h72.6c0,1.8,0.2,3.6,0.5,5.4H26.9C25.4,48.4,24.2,47.2,24.2,45.7z M61.2,137.1
			l2.2-8.7c0.3-1.2,1.4-2,2.6-2h28.1c2.7,0,2.9,0.8,3.2,2l2.2,8.8L61.2,137.1z M69.9,120.9v-2.7h21.5v2.7H69.9z M126.3,118.3
			c0,1.5-1.2,2.7-2.7,2.7H96.8v-2.7c0-3-2.4-5.4-5.4-5.4H69.9c-3,0-5.4,2.4-5.4,5.4v2.7H32.3c-1.5,0-2.7-1.2-2.7-2.7V53.8h72.1
			c4.2,9.5,13.6,16.1,24.6,16.1V118.3z M126.3,64.5c-11.9,0-21.5-9.6-21.5-21.5s9.6-21.5,21.5-21.5s21.5,9.6,21.5,21.5
			S138.2,64.5,126.3,64.5z"/>
		<path class="st0" d="M123.6,43h5.4v16.1h-5.4V43z"/>
		<path class="st0" d="M126.3,26.9c-3,0-5.4,2.4-5.4,5.4s2.4,5.4,5.4,5.4c3,0,5.4-2.4,5.4-5.4S129.3,26.9,126.3,26.9z"/>
		<path class="st0" d="M40.3,64.5h32.3v5.4H40.3V64.5z"/>
		<path class="st0" d="M40.3,75.3h32.3v5.4H40.3V75.3z"/>
		<path class="st0" d="M40.3,86h32.3v5.4H40.3V86z"/>
		<path class="st0" d="M40.3,96.8h32.3v5.4H40.3V96.8z"/>
		<path class="st0" d="M83.3,96.8h32.3v5.4H83.3V96.8z"/>
	</g>
</g>
</svg>
