<?xml version="1.0" encoding="utf-8"?>
<!-- Generator: Adobe Illustrator 24.1.3, SVG Export Plug-In . SVG Version: 6.00 Build 0)  -->
<svg version="1.1" id="Слой_1" xmlns="http://www.w3.org/2000/svg" xmlns:xlink="http://www.w3.org/1999/xlink" x="0px" y="0px"
	 viewBox="0 0 172 172" style="enable-background:new 0 0 172 172;" xml:space="preserve">
<style type="text/css">
	.st0{fill:#182F52;}
	.st1{fill:#57ACFF;}
</style>
<g>
	<g>
		<path class="st0" d="M139.4,29.6H32.6c-6.1,0-11.1,5-11.1,11.2v90.5c0,6.2,5,11.2,11.1,11.2h106.8c6.1,0,11.1-5,11.1-11.2V40.7
			C150.5,34.6,145.5,29.6,139.4,29.6L139.4,29.6z M145.1,131.3c0,3.2-2.6,5.8-5.7,5.8H32.6c-3.2,0-5.7-2.6-5.7-5.8V40.7
			c0-3.2,2.6-5.8,5.7-5.8h106.8c3.2,0,5.7,2.6,5.7,5.8L145.1,131.3z"/>
		<path class="st0" d="M137.1,40.3H34.9c-1.5,0-2.7,1.2-2.7,2.7v86c0,1.5,1.2,2.7,2.7,2.7h102.1c1.5,0,2.7-1.2,2.7-2.7V43
			C139.8,41.5,138.5,40.3,137.1,40.3z M134.4,126.3h-10.8v-5.4H96.8v5.4H37.6V45.7h96.8V126.3z"/>
		<path class="st1" d="M86,86c5.9,0,10.8-4.8,10.8-10.8S91.9,64.5,86,64.5s-10.8,4.8-10.8,10.8S80.1,86,86,86z M86,69.9
			c3,0,5.4,2.4,5.4,5.4S89,80.6,86,80.6s-5.4-2.4-5.4-5.4S83,69.9,86,69.9z"/>
		<path class="st1" d="M106.2,97.6l-0.8-0.8c-0.3-0.3-8.5-8.1-19.3-8.1s-19,7.8-19.3,8.1l-0.8,0.8v12.6h40.3V97.6z M100.8,104.8
			H71.2V100c2.1-1.7,7.9-5.9,14.8-5.9s12.7,4.2,14.8,5.9V104.8z"/>
	</g>
</g>
</svg>
