<svg version="1.1" xmlns="http://www.w3.org/2000/svg" xmlns:xlink="http://www.w3.org/1999/xlink" viewBox="0 0 172 172"><g fill="none" fill-rule="none" stroke="none" stroke-width="1" stroke-linecap="butt" stroke-linejoin="miter" stroke-miterlimit="10" stroke-dasharray="" stroke-dashoffset="0" font-family="none" font-weight="none" font-size="none" text-anchor="none" style="mix-blend-mode: normal"><path d="M0,172v-172h172v172z" fill="none" fill-rule="nonzero"></path><g><path d="M17.44367,155.16908l9.6535,-35.24208c-5.9555,-10.31283 -9.08733,-22.016 -9.08375,-34.00225c0.01792,-37.49958 30.53358,-68.00808 68.03675,-68.00808c18.19975,0.00717 35.27792,7.09142 48.12417,19.94483c12.84267,12.857 19.91617,29.94233 19.909,48.117c-0.01433,37.49958 -30.53717,68.01167 -68.03317,68.01167c-0.00358,0 0,0 0,0h-0.02867c-11.38425,-0.00358 -22.575,-2.8595 -32.51158,-8.28108z" fill="#ffffff" fill-rule="nonzero"></path><path d="M17.44367,156.96075c-0.473,0 -0.93167,-0.18633 -1.27208,-0.53033c-0.44792,-0.45508 -0.6235,-1.118 -0.45508,-1.73075l9.45642,-34.529c-5.86233,-10.41317 -8.95475,-22.23817 -8.94758,-34.24233c0.01433,-38.49217 31.33625,-69.80333 69.82483,-69.80333c18.66917,0.00717 36.20958,7.27775 49.39267,20.47158c13.18308,13.19742 20.43933,30.73425 20.43217,49.38192c-0.01433,38.48858 -31.33983,69.80333 -69.82483,69.80333c-11.42725,-0.00358 -22.73267,-2.82367 -32.766,-8.15925l-35.38542,9.27725c-0.1505,0.043 -0.301,0.06092 -0.45508,0.06092z" fill="#ffffff" fill-rule="nonzero"></path><path d="M86.05017,17.91667c18.19975,0.00717 35.27792,7.09142 48.12417,19.94483c12.84267,12.857 19.91617,29.94233 19.909,48.117c-0.01433,37.49958 -30.53717,68.01167 -68.03317,68.01167h-0.02867c-11.38425,-0.00358 -22.575,-2.8595 -32.51158,-8.28108l-36.06625,9.46l9.6535,-35.24208c-5.9555,-10.31283 -9.08733,-22.016 -9.08375,-34.00225c0.01792,-37.49958 30.53358,-68.00808 68.03675,-68.00808M86.05017,153.99017v0v0M86.05017,153.99017v0v0M86.05017,14.33333v0c-39.474,0 -71.60217,32.11383 -71.62008,71.59142c-0.00358,12.06508 3.04225,23.95458 8.81858,34.47883l-9.26292,33.82308c-0.33683,1.23625 0.00717,2.55492 0.91017,3.46508c0.68083,0.688 1.60175,1.06425 2.54775,1.06425c0.30458,0 0.60917,-0.03942 0.91017,-0.11825l34.71175,-9.10167c10.13367,5.26033 21.49283,8.03742 32.95592,8.041c39.50267,0 71.63083,-32.11742 71.64875,-71.595c0.00717,-19.13142 -7.43542,-37.11975 -20.95533,-50.65042c-13.52708,-13.53425 -31.519,-20.99117 -50.66475,-20.99833z" fill="#cfd8dc" fill-rule="nonzero"></path><path d="M126.04733,45.98133c-10.67833,-10.6855 -24.87192,-16.57292 -39.97925,-16.5765c-31.18933,0 -56.55575,25.35567 -56.57008,56.5235c-0.00358,10.68192 2.98492,21.08075 8.64658,30.08567l1.34733,2.13925l-5.71542,20.85858l21.40325,-5.6115l2.06758,1.2255c8.67883,5.15283 18.63333,7.87617 28.78133,7.87975h0.0215c31.16783,0 56.53425,-25.35925 56.545,-56.53067c0.00358,-15.10375 -5.8695,-29.30808 -16.54783,-39.99358z" fill="#40c351" fill-rule="nonzero"></path><path d="M69.04367,57.49458c-1.27208,-2.83083 -2.61225,-2.88817 -3.827,-2.93833c-0.99258,-0.043 -2.12492,-0.03942 -3.25725,-0.03942c-1.13233,0 -2.97417,0.42642 -4.53292,2.1285c-1.55875,1.70208 -5.95192,5.81217 -5.95192,14.17567c0,8.3635 6.09167,16.4475 6.94092,17.57983c0.84925,1.13233 11.7605,18.84475 29.03933,25.66025c14.35842,5.66167 17.28242,4.5365 20.39992,4.25342c3.1175,-0.28308 10.05842,-4.11008 11.47383,-8.08042c1.41542,-3.97033 1.41542,-7.37092 0.99258,-8.08042c-0.42642,-0.7095 -1.55875,-1.13233 -3.25725,-1.98517c-1.6985,-0.85283 -10.05842,-4.96292 -11.61717,-5.52908c-1.55875,-0.56617 -2.69108,-0.84925 -3.827,0.85283c-1.13233,1.6985 -4.38958,5.52908 -5.38217,6.66142c-0.99258,1.13592 -1.98517,1.27925 -3.68367,0.42642c-1.6985,-0.85283 -7.17383,-2.6445 -13.67042,-8.43517c-5.0525,-4.50425 -8.46383,-10.06917 -9.45642,-11.77125c-0.99258,-1.6985 -0.1075,-2.61942 0.74533,-3.46867c0.76325,-0.76325 1.6985,-1.98517 2.55133,-2.97775c0.84925,-0.99258 1.13233,-1.70208 1.6985,-2.83442c0.56617,-1.13592 0.28308,-2.1285 -0.14333,-2.97775c-0.41925,-0.85283 -3.72308,-9.25933 -5.23525,-12.6205z" fill="#ffffff" fill-rule="evenodd"></path></g></g></svg>