<?xml version="1.0" encoding="utf-8"?>
<!-- Generator: Adobe Illustrator 24.1.3, SVG Export Plug-In . SVG Version: 6.00 Build 0)  -->
<svg version="1.1" id="Слой_1" xmlns="http://www.w3.org/2000/svg" xmlns:xlink="http://www.w3.org/1999/xlink" x="0px" y="0px"
	 viewBox="0 0 172 172" style="enable-background:new 0 0 172 172;" xml:space="preserve">
<style type="text/css">
	.st0{fill:#182F52;}
	.st1{fill:#57ACFF;}
</style>
<g>
	<g>
		<path class="st0" d="M85.1,75.3c-5.9,0-10.8,4.8-10.8,10.8s4.8,10.8,10.8,10.8s10.8-5,10.8-10.9S91,75.3,85.1,75.3z"/>
		<path class="st0" d="M85.1,18.8c-14.2,0-27.6,4.4-39,12.5l-8.2-8.2c-1.4-1.4-3.4-2-5.3-1.5c-1.9,0.5-3.5,1.9-4.1,3.7l-7.4,22.2
			c-1.1,3.1-0.2,6.6,2.1,8.9c1.7,1.7,3.9,2.6,6.1,2.6c0.9,0,1.9-0.2,2.8-0.5l22.2-7.4c1.9-0.6,3.3-2.2,3.7-4.1
			c0.5-1.9-0.1-3.9-1.5-5.3L50,35.2c10.4-7.2,22.4-11,35.1-11c34.1,0,61.8,27.7,61.8,61.8s-27.7,61.8-61.8,61.8S23.3,120.1,23.3,86
			h-5.4c0,37,30.1,67.2,67.2,67.2S152.3,123,152.3,86S122.2,18.8,85.1,18.8z M52.8,45.9c0,0.2-0.2,0.2-0.2,0.2l-22.2,7.4
			c-1.2,0.4-2.5,0.1-3.4-0.8c-0.9-0.9-1.2-2.2-0.8-3.4l7.4-22.2c0,0,0.1-0.2,0.2-0.2h0.1c0.1,0,0.2,0.1,0.2,0.1l18.6,18.6
			C52.8,45.6,52.9,45.7,52.8,45.9L52.8,45.9z"/>
		<path class="st1" d="M60.1,114.8l17.6-17.6c2.1,1.4,4.7,2.2,7.4,2.2c7.4,0,13.4-6,13.4-13.4c0-6.5-4.6-11.9-10.8-13.2V51.1h-5.4
			v21.8c-6.1,1.2-10.8,6.7-10.8,13.2c0,2.7,0.8,5.3,2.2,7.4L56.3,111L60.1,114.8z M85.1,77.9c4.4,0,8.1,3.6,8.1,8.1
			c0,4.4-3.6,8.1-8.1,8.1S77,90.4,77,86S80.7,77.9,85.1,77.9z"/>
		<path class="st1" d="M85.1,142.4c31.1,0,56.4-25.3,56.4-56.4h-5.4c0,28.2-22.9,51.1-51.1,51.1L85.1,142.4L85.1,142.4z"/>
	</g>
</g>
</svg>
