<?xml version="1.0" encoding="utf-8"?>
<!-- Generator: Adobe Illustrator 24.1.3, SVG Export Plug-In . SVG Version: 6.00 Build 0)  -->
<svg version="1.1" id="Слой_1" xmlns="http://www.w3.org/2000/svg" xmlns:xlink="http://www.w3.org/1999/xlink" x="0px" y="0px"
	 viewBox="0 0 172 172" style="enable-background:new 0 0 172 172;" xml:space="preserve">
<style type="text/css">
	.st0{fill:#57ACFF;}
	.st1{fill:#182F52;}
</style>
<g>
	<g id="original-icon">
		<path class="st0" d="M80.6,86c-8.9,0-16.1,7.2-16.1,16.1c0,6,3.3,11.2,8.1,13.9v4.9c0,4.4,3.6,8.1,8.1,8.1s8.1-3.6,8.1-8.1v-4.9
			c4.8-2.8,8.1-8,8.1-13.9C96.8,93.2,89.5,86,80.6,86z M83.3,118.3v2.7c0,1.5-1.2,2.7-2.7,2.7s-2.7-1.2-2.7-2.7v-2.7H83.3z
			 M80.6,112.9c-5.9,0-10.8-4.8-10.8-10.8s4.8-10.8,10.8-10.8c5.9,0,10.8,4.8,10.8,10.8S86.6,112.9,80.6,112.9z"/>
		<path class="st1" d="M134.4,94.6V75.3c0-7.4-6-13.4-13.4-13.4h-10.8v-5.4c0-3-2.4-5.4-5.4-5.4h-2.7V29.6
			c0-11.9-9.6-21.5-21.5-21.5s-21.5,9.6-21.5,21.5v21.5h-2.7c-3,0-5.4,2.4-5.4,5.4v5.4H40.3c-7.4,0-13.4,6-13.4,13.4v64.5
			c0,7.4,6,13.4,13.4,13.4h75.4c0.7,6,5.7,10.8,12,10.8c6.7,0,12.1-5.4,12.1-12.1v-6.3c9.7-4.2,16.1-13.9,16.1-24.6
			C155.9,108,146.6,97.1,134.4,94.6z M104.8,61.8H94.1v-5.4h10.8V61.8z M64.5,29.6c0-8.9,7.2-16.1,16.1-16.1s16.1,7.2,16.1,16.1
			v21.5h-2.7c-3,0-5.4,2.4-5.4,5.4v5.4H72.6v-5.4c0-3-2.4-5.4-5.4-5.4h-2.7V29.6z M56.4,56.4h10.8v5.4H56.4V56.4z M96.8,142.4H64.5
			c-3,0-5.4,2.4-5.4,5.4H40.3c-4.4,0-8.1-3.6-8.1-8.1V75.3c0-4.4,3.6-8.1,8.1-8.1h10.8h21.5h16.1h21.5h10.8c4.4,0,8.1,3.6,8.1,8.1
			v18.8c-14.8,0-26.9,12.1-26.9,26.9c0,9.7,5.1,18.4,13.4,23.2v3.6h-13.4C102.1,144.8,99.7,142.4,96.8,142.4z M136.2,141.2l-1.8,0.6
			v10c0,3.7-3,6.7-6.7,6.7s-6.7-3-6.7-6.7v-10.9l-1.5-0.7c-7.4-3.7-11.9-11-11.9-19.2c0-11.9,9.6-21.5,21.5-21.5s21.5,9.6,21.5,21.5
			C150.5,130,144.7,138.2,136.2,141.2L136.2,141.2z"/>
		<path class="st0" d="M129,107.5c-7.4,0-13.4,6-13.4,13.4c0,7.4,6,13.4,13.4,13.4c7.4,0,13.4-6,13.4-13.4
			C142.4,113.5,136.4,107.5,129,107.5z"/>
	</g>
</g>
</svg>
