<?xml version="1.0" encoding="utf-8"?>
<!-- Generator: Adobe Illustrator 24.1.3, SVG Export Plug-In . SVG Version: 6.00 Build 0)  -->
<svg version="1.1" id="Слой_1" xmlns="http://www.w3.org/2000/svg" xmlns:xlink="http://www.w3.org/1999/xlink" x="0px" y="0px"
	 viewBox="0 0 172 172" style="enable-background:new 0 0 172 172;" xml:space="preserve">
<style type="text/css">
	.st0{fill:#57ACFF;}
	.st1{fill:#182F52;}
</style>
<g>
	<g>
		<path class="st0" d="M127.6,86c1.7-2.3,2.7-5,2.7-8.1c0-7.4-6-13.4-13.4-13.4s-13.4,6-13.4,13.4c0,3,1,5.8,2.7,8.1H86v21.5
			c2.2-1.7,5-2.7,8.1-2.7c7.4,0,13.4,6,13.4,13.4s-6,13.4-13.4,13.4c-3,0-5.8-1-8.1-2.7v18.8h49.6c6.7,0,12.2-5.5,12.2-12.2V86
			H127.6z"/>
		<path class="st1" d="M137.1,21.5H88.7h-5.4H34.9c-7.4,0-13.4,6-13.4,13.4v48.4v5.4v48.4c0,7.4,6,13.4,13.4,13.4h48.4h5.4h48.4
			c7.4,0,13.4-6,13.4-13.4V88.7v-5.4V34.9C150.5,27.5,144.5,21.5,137.1,21.5z M26.9,34.9c0-4.4,3.6-8.1,8.1-8.1h48.4v13
			c-1.7-0.6-3.5-0.9-5.4-0.9c-4.8,0-9.4,2.2-12.5,5.9c-3.1,3.7-4.3,8.7-3.3,13.5c1.2,6.1,6.1,11.1,12.2,12.5
			c3.1,0.7,6.1,0.5,8.9-0.5v13H67.2h-6.8l3.3,4.3c1.4,1.9,2.2,4.1,2.2,6.4c0,3.2-1.4,6.3-3.9,8.3c-2.5,2.1-5.7,2.9-9,2.2
			c-4-0.8-7.4-4.1-8.3-8.1c-0.7-3.1,0-6.3,1.9-8.8l3.3-4.3H43H26.9L26.9,34.9z M83.3,145.1H34.9c-4.4,0-8.1-3.6-8.1-8.1V88.7h13
			c-1,2.8-1.2,5.9-0.5,8.9c1.4,6.1,6.4,11,12.5,12.2c1.1,0.2,2.2,0.3,3.3,0.3c3.7,0,7.3-1.3,10.3-3.7c3.8-3.1,5.9-7.6,5.9-12.5
			c0-1.8-0.3-3.7-0.9-5.4h13v18.8v4.1l4.3-3.3c2.6-1.9,5.7-2.6,8.8-1.9c4.1,0.9,7.3,4.2,8.1,8.3c0.7,3.3-0.1,6.5-2.2,9
			c-3.5,4.3-10.2,5.2-14.8,1.7l-4.3-3.3v4.1L83.3,145.1z M145.1,137.1c0,4.4-3.6,8.1-8.1,8.1H88.7v-13c1.7,0.6,3.5,0.9,5.4,0.9
			c4.8,0,9.4-2.1,12.5-5.9c3.1-3.7,4.3-8.7,3.3-13.5c-1.2-6.1-6.1-11.1-12.2-12.5c-3.1-0.7-6.1-0.5-8.9,0.5v-13h16.1h6.8l-3.3-4.3
			c-1.9-2.6-2.6-5.7-1.9-8.8c0.9-4.1,4.2-7.3,8.3-8.1c3.3-0.7,6.5,0.1,9,2.2c2.5,2.1,3.9,5.1,3.9,8.3c0,2.3-0.8,4.5-2.2,6.4
			l-3.3,4.3h6.8h16.1V137.1z M132.1,83.3c0.6-1.7,0.9-3.5,0.9-5.4c0-4.8-2.1-9.4-5.9-12.5c-3.7-3.1-8.7-4.3-13.5-3.3
			c-6.1,1.2-11.1,6.1-12.5,12.2c-0.7,3.1-0.5,6.1,0.5,8.9h-13V64.5v-4.1l-4.3,3.3c-2.6,1.9-5.7,2.6-8.8,1.9
			c-4.1-0.9-7.3-4.2-8.1-8.3c-0.7-3.3,0.1-6.5,2.2-9c3.5-4.3,10.2-5.2,14.8-1.7l4.3,3.3V43V26.9h48.4c4.4,0,8.1,3.6,8.1,8.1v48.4
			H132.1z"/>
	</g>
</g>
</svg>
