<svg xmlns="http://www.w3.org/2000/svg" viewBox="0 0 100 100" width="100" height="100"
  preserveAspectRatio="xMidYMid meet" style="width: 100%; height: 100%; transform: translate3d(0px, 0px, 0px);">
  <defs>
    <clipPath id="__lottie_element_22">
      <rect width="100" height="100" x="0" y="0"></rect>
    </clipPath>
  </defs>
  <g clip-path="url(#__lottie_element_22)">
    <g transform="matrix(1,0,0,1,10,10)" opacity="1" style="display: block;">
      <g opacity="1" transform="matrix(1,0,0,1,40,40)">
        <path fill="#57ACFF" fill-opacity="1"
          d=" M0,-35 C-19.329999923706055,-35 -35,-19.329999923706055 -35,0 C-35,19.329999923706055 -19.329999923706055,35 0,35 C19.329999923706055,35 35,19.329999923706055 35,0 C35,-19.329999923706055 19.329999923706055,-35 0,-35z">
        </path>
        <path stroke-linecap="butt" stroke-linejoin="miter" fill-opacity="0" stroke-miterlimit="10"
          stroke="#182F52" stroke-opacity="1" stroke-width="2"
          d=" M0,-35 C-19.329999923706055,-35 -35,-19.329999923706055 -35,0 C-35,19.329999923706055 -19.329999923706055,35 0,35 C19.329999923706055,35 35,19.329999923706055 35,0 C35,-19.329999923706055 19.329999923706055,-35 0,-35z">
        </path>
      </g>
      <g opacity="1" transform="matrix(1,0,0,1,40,40)">
        <path stroke-linecap="round" stroke-linejoin="round" fill-opacity="0" stroke="#182F52" stroke-opacity="1"
          stroke-width="1"
          d=" M15.5,-26.273000717163086 C14.847999572753906,-26.658000946044922 14.180999755859375,-27.020000457763672 13.5,-27.35700035095215 M18.5,-24.250999450683594 C18.172000885009766,-24.50200080871582 17.83799934387207,-24.746000289916992 17.5,-24.982999801635742 M10.5,-28.643999099731445 C7.22599983215332,-29.8439998626709 3.690000057220459,-30.5 0,-30.5 C-16.844999313354492,-30.5 -30.5,-16.844999313354492 -30.5,0 C-30.5,16.844999313354492 -16.844999313354492,30.5 0,30.5 C16.844999313354492,30.5 30.5,16.844999313354492 30.5,0 C30.5,-8.95199966430664 26.64299964904785,-17.003999710083008 20.5,-22.58300018310547">
        </path>
      </g>
    </g>
    <g style="display: block;" transform="matrix(1,0,0,1,30.777999877929688,35.788002014160156)" opacity="1">
      <path fill="rgb(254,253,239)" fill-opacity="1"
        d=" M16.72,25.71 C16.24,25.71 15.76,25.54 15.38,25.19 C15.38,25.19 3.38,13.19 3.38,13.19 C2.56,12.45 2.5,11.18 3.24,10.37 C3.98,9.55 5.25,9.49 6.07,10.23 C6.07,10.23 16.7,20.99 16.7,20.99 C16.7,20.99 34.35,3.26 34.35,3.26 C35.15,2.5 36.41,2.53 37.17,3.34 C37.93,4.14 37.9,5.41 37.09,6.16 C37.09,6.16 18.09,25.17 18.09,25.17 C17.71,25.53 17.22,25.71 16.72,25.71z">
      </path>
      <g opacity="1" transform="matrix(1,0,0,1,20.216999053955078,14.105999946594238)">
        <path stroke-linecap="butt" stroke-linejoin="round" fill-opacity="0" stroke="#182F52" stroke-opacity="1"
          stroke-width="1"
          d=" M-3.494999885559082,11.607000350952148 C-3.9760000705718994,11.607000350952148 -4.458000183105469,11.432999610900879 -4.840000152587891,11.085000038146973 C-4.840000152587891,11.085000038146973 -16.84000015258789,-0.9150000214576721 -16.84000015258789,-0.9150000214576721 C-17.656999588012695,-1.656999945640564 -17.718000411987305,-2.9230000972747803 -16.975000381469727,-3.740000009536743 C-16.23200035095215,-4.554999828338623 -14.968000411987305,-4.618000030517578 -14.149999618530273,-3.874000072479248 C-14.149999618530273,-3.874000072479248 -3.5209999084472656,6.880000114440918 -3.5209999084472656,6.880000114440918 C-3.5209999084472656,6.880000114440918 14.131999969482422,-10.847999572753906 14.131999969482422,-10.847999572753906 C14.934000015258789,-11.605999946594238 16.197999954223633,-11.572999954223633 16.95800018310547,-10.767999649047852 C17.716999053955078,-9.96500015258789 17.68199920654297,-8.699999809265137 16.878000259399414,-7.940999984741211 C16.878000259399414,-7.940999984741211 -2.121999979019165,11.0600004196167 -2.121999979019165,11.0600004196167 C-2.50600004196167,11.423999786376953 -3.000999927520752,11.607000350952148 -3.494999885559082,11.607000350952148z">
        </path>
      </g>
    </g>
  </g>
</svg>
