<?xml version="1.0" encoding="utf-8"?>
<!-- Generator: Adobe Illustrator 24.1.3, SVG Export Plug-In . SVG Version: 6.00 Build 0)  -->
<svg version="1.1" id="Слой_1" xmlns="http://www.w3.org/2000/svg" xmlns:xlink="http://www.w3.org/1999/xlink" x="0px" y="0px"
	 viewBox="0 0 172 172" style="enable-background:new 0 0 172 172;" xml:space="preserve">
<style type="text/css">
	.st0{fill:#57ACFF;}
	.st1{fill:#182F52;}
</style>
<g>
	<g>
		<path class="st0" d="M75.3,123.6c-1.7,2.3-2.7,5-2.7,8.1c0,7.4,6,13.4,13.4,13.4s13.4-6,13.4-13.4c0-3-1-5.8-2.7-8.1H75.3z"/>
		<path class="st0" d="M61.8,72.6h-5.4C56.4,56.3,69.7,43,86,43v5.4C72.7,48.4,61.8,59.2,61.8,72.6z"/>
		<g>
			<path class="st1" d="M33.5,98.4c-2.6-3.6-4-7.9-4-12.4c0-5.1,1.8-10.1,5.1-14l-4.1-3.5c-4.1,4.9-6.4,11.1-6.4,17.5
				c0,5.6,1.7,11,4.9,15.5l-3.9,3.8C21,99.7,18.8,93,18.8,86c0-7.2,2.3-14.1,6.8-19.8c1.7-2.2,1.5-5.3-0.4-7.2l-3.8-3.8
				c-1.1-1.1-2.6-1.7-4.1-1.6c-1.5,0.1-3,0.8-4,2C6.5,64.2,2.7,75,2.7,86c0,12.2,4.5,23.8,12.8,32.8l4-3.6
				c-7.3-8-11.4-18.3-11.4-29.1c0-9.9,3.3-19.2,9.5-27l3.8,3.9c-5.2,6.7-7.9,14.6-7.9,23.1c0,8.2,2.6,16,7.5,22.5
				c0.9,1.3,2.4,2.1,4,2.2c1.5,0.1,3.1-0.5,4.2-1.6l3.8-3.8C34.8,103.4,35,100.5,33.5,98.4L33.5,98.4z"/>
			<path class="st1" d="M129.4,120.9c-1.7,0-3.1-1.4-3.1-3.1V73.6c0-19-12.4-35.1-29.6-39.9V22.4c0-3.5-2.8-6.3-6.3-6.3h-8.9
				c-3.5,0-6.3,2.8-6.3,6.3v11.3c-6.3,1.7-12.2,5-17.1,9.7c-8.1,7.7-12.5,18-12.5,29.2v45.3c0,1.7-1.4,3.1-3.1,3.1
				c-5.7,0-10.4,4.6-10.4,10.4v0.8c0,5.7,4.6,10.4,10.4,10.4h21.8c4,7.9,12.2,13.4,21.6,13.4s17.7-5.5,21.6-13.4h21.8
				c5.7,0,10.4-4.6,10.4-10.4v-0.8C139.7,125.6,135.1,120.9,129.4,120.9L129.4,120.9z M80.6,22.4c0-0.5,0.4-0.9,0.9-0.9h8.9
				c0.5,0,0.9,0.4,0.9,0.9v10.2c-0.9-0.1-1.8-0.2-2.7-0.3v-5.5c0-1.5-1.2-2.7-2.7-2.7s-2.7,1.2-2.7,2.7v5.5
				c-0.9,0.1-1.8,0.2-2.7,0.3L80.6,22.4z M62.4,137.1H42.6c-2.7,0-5-2.2-5-5v-0.8c0-2.7,2.2-5,5-5c0.1,0,0.3,0,0.4,0v0h19.4
				c-0.4,1.8-0.6,3.5-0.6,5.4C61.8,133.5,62,135.3,62.4,137.1z M86,150.5c-10.4,0-18.8-8.4-18.8-18.8c0-1.8,0.3-3.6,0.8-5.4H104
				c0.5,1.7,0.8,3.5,0.8,5.4C104.8,142.1,96.4,150.5,86,150.5z M50.5,120.9c0.4-1,0.6-2,0.6-3.1v-2.3h26.9v-5.4H51.1v-5.4h16.1v-5.4
				H51.1V72.6c0-9.6,3.8-18.6,10.8-25.3c7-6.7,16.1-10.1,25.8-9.6c18.6,0.9,33.2,16.7,33.2,36v44.2c0,1.1,0.2,2.1,0.6,3.1
				L50.5,120.9z M134.4,132.1c0,2.7-2.2,5-5,5h-19.8c0.4-1.7,0.6-3.5,0.6-5.4c0-1.8-0.2-3.6-0.6-5.4H129v0c0.1,0,0.3,0,0.4,0
				c2.7,0,5,2.2,5,5L134.4,132.1z"/>
			<path class="st1" d="M158.6,55.7c-1-1.2-2.4-2-4-2c-1.5-0.1-3,0.5-4.1,1.6l-3.8,3.8c-1.9,1.9-2.1,5-0.4,7.2
				c4.4,5.7,6.8,12.5,6.8,19.8c0,7-2.2,13.7-6.4,19.3l-3.9-3.8c3.2-4.6,4.9-9.9,4.9-15.5c0-6.4-2.3-12.6-6.4-17.5l-4.1,3.5
				c3.3,3.9,5.1,8.8,5.1,14c0,4.5-1.4,8.8-4,12.4c-1.5,2.1-1.2,5,0.6,6.9l3.8,3.8c1.1,1.1,2.6,1.7,4.2,1.6c1.6-0.1,3-0.9,4-2.2
				c4.9-6.5,7.5-14.3,7.5-22.5c0-8.4-2.7-16.4-8-23.2l3.9-3.8c6.2,7.7,9.5,17,9.5,26.9c0,10.8-4,21.2-11.4,29.1l4,3.6
				c8.2-8.9,12.8-20.6,12.8-32.8C169.2,75,165.5,64.2,158.6,55.7L158.6,55.7z"/>
		</g>
	</g>
</g>
</svg>
