<?xml version="1.0" encoding="utf-8"?>
<!-- Generator: Adobe Illustrator 24.1.3, SVG Export Plug-In . SVG Version: 6.00 Build 0)  -->
<svg version="1.1" id="Слой_1" xmlns="http://www.w3.org/2000/svg" xmlns:xlink="http://www.w3.org/1999/xlink" x="0px" y="0px"
	 viewBox="0 0 172 172" style="enable-background:new 0 0 172 172;" xml:space="preserve">
<style type="text/css">
	.st0{fill:#57ACFF;}
	.st1{fill:#182F52;}
</style>
<g>
	<g id="original-icon">
		<path class="st0" d="M104.8,115.6c0,1.5-1.2,2.7-2.7,2.7H80.6c-1.5,0-2.7-1.2-2.7-2.7v-5.4c0-1.5,1.2-2.7,2.7-2.7h21.5
			c1.5,0,2.7,1.2,2.7,2.7C104.8,110.2,104.8,115.6,104.8,115.6z"/>
		<path class="st1" d="M139.8,16.1h-37.6c-7.4,0-13.4,6-13.4,13.4v10.8H26.9c-4.4,0-8.1,3.6-8.1,8.1v77.9c0,4.4,3.6,8.1,8.1,8.1
			h29.6c1.5,0,2.7,1.2,2.7,2.7v11.3c0,2.8,1.5,5.2,4.1,6.6c1.2,0.6,2.6,1,3.9,1c1.7,0,3.4-0.5,4.9-1.5L99.7,135
			c0.5-0.3,1-0.5,1.5-0.5h22.5c4.4,0,8.1-3.6,8.1-8.1V80.6h8.1c7.4,0,13.4-6,13.4-13.4V29.6C153.2,22.2,147.2,16.1,139.8,16.1z
			 M26.9,45.7h61.8v16.1H24.2V48.4C24.2,46.9,25.4,45.7,26.9,45.7z M126.3,126.3c0,1.5-1.2,2.7-2.7,2.7h-22.5
			c-1.7,0-3.3,0.5-4.7,1.5L68.9,150c-1.1,0.8-2.4,0.6-3.2,0.2c-0.5-0.2-1.2-0.8-1.2-1.8v-11.3c0-4.4-3.6-8.1-8.1-8.1H26.9
			c-1.5,0-2.7-1.2-2.7-2.7V67.2h64.5c0,8.1,6,13.4,13.4,13.4h24.2V126.3z M147.8,67.2c0,4.5-3.6,8.1-8.1,8.1h-37.6
			c-4.5,0-8.1-3.6-8.1-8.1V29.6c0-4.5,3.6-8.1,8.1-8.1h37.6c4.5,0,8.1,3.6,8.1,8.1V67.2z"/>
		<path class="st0" d="M34.9,51.1h10.8v5.4H34.9V51.1z"/>
		<path class="st0" d="M53.8,80.6H43c-4.4,0-8.1,3.6-8.1,8.1v29.6h5.4v-10.8h16.1v10.8h5.4V88.7C61.8,84.2,58.2,80.6,53.8,80.6z
			 M40.3,102.1V88.7c0-1.5,1.2-2.7,2.7-2.7h10.8c1.5,0,2.7,1.2,2.7,2.7v13.4H40.3z"/>
		<path class="st0" d="M77.9,96.8h26.9v5.4H77.9V96.8z"/>
		<path class="st0" d="M77.9,86h37.6v5.4H77.9V86z"/>
		<path class="st0" d="M133.5,60c0.5-1.1,0.9-2.3,0.9-3.5V40.3c0-4.4-3.6-8.1-8.1-8.1h-10.8c-4.4,0-8.1,3.6-8.1,8.1v16.1
			c0,4.4,3.6,8.1,8.1,8.1h10.8c1.3,0,2.5-0.3,3.5-0.9l-0.1,0.1l5.4,5.4l3.8-3.8L133.5,60L133.5,60z M129,56.4c0,1.5-1.2,2.7-2.7,2.7
			h-10.8c-1.5,0-2.7-1.2-2.7-2.7V40.3c0-1.5,1.2-2.7,2.7-2.7h10.8c1.5,0,2.7,1.2,2.7,2.7V56.4z"/>
		<path class="st0" d="M51.1,51.1h10.8v5.4H51.1V51.1z"/>
	</g>
</g>
</svg>
