<?xml version="1.0" encoding="utf-8"?>
<!-- Generator: Adobe Illustrator 24.1.3, SVG Export Plug-In . SVG Version: 6.00 Build 0)  -->
<svg version="1.1" id="Слой_1" xmlns="http://www.w3.org/2000/svg" xmlns:xlink="http://www.w3.org/1999/xlink" x="0px" y="0px"
	 viewBox="0 0 90 108" style="enable-background:new 0 0 90 108;" xml:space="preserve">
<style type="text/css">
	.st0{fill:#57ACFF;}
	.st1{fill:#182F52;}
</style>
<path class="st0" d="M6.1,37.6c-2.3,0-4.2-1.9-4.2-4.2V6.6c0-2.3,1.9-4.2,4.2-4.2c2.3,0,4.2,1.9,4.2,4.2v26.8
	C10.2,35.9,8.4,37.6,6.1,37.6z"/>
<path class="st1" d="M36.8,19c-0.4-10.3-9-18.5-19.4-18.5H6.1C2.7,0.5,0,3.2,0,6.6v26.8c0,3.4,2.7,6.1,6.1,6.1h11.3
	c1,0,2.1-0.2,3.1-0.2v35.4c0,3.8,2.7,7,6.1,8V108h4.2V82.9c3.5-0.8,6.1-4.2,6.1-8V19z M4.2,33.6v-27c0-1.1,0.8-2.1,2.1-2.1
	c1.3,0,2.1,0.8,2.1,2.1v26.8c0,1.1-0.8,2.1-2.1,2.1C5,35.5,4.2,34.6,4.2,33.6z M11.9,35.7c0.2-0.6,0.4-1.3,0.4-2.1v-27
	c0-0.6-0.2-1.5-0.4-2.1h5.4c8.6,0,15.5,7,15.5,15.6c0,8.6-6.9,15.6-15.5,15.6H11.9z M28.6,79.1c-2.3,0-4.2-1.9-4.2-4.2v-2.1h8.1v2.1
	C32.8,77.2,30.9,79.1,28.6,79.1z M32.8,52.1h-4.2v4.2h4.2v4.2h-4.2v4.2h4.2V69h-8.1V38.4c3.3-1.3,6.1-3.4,8.1-6.3V52.1z"/>
<path class="st0" d="M26.9,23.3h-4.6c-1,0-1.9-0.8-1.9-1.9v-2.5c0-1.1,0.8-1.9,1.9-1.9h4.6c1,0,1.9,0.8,1.9,1.9v2.5
	C28.6,22.4,27.8,23.3,26.9,23.3z"/>
<path class="st0" d="M83.9,37.6c2.3,0,4.2-1.9,4.2-4.2V6.6c0-2.3-1.9-4.2-4.2-4.2c-2.3,0-4.2,1.9-4.2,4.2v26.8
	C79.8,35.9,81.6,37.6,83.9,37.6z"/>
<path class="st1" d="M53.2,74.9c0,3.8,2.7,7,6.1,8V108h4.2V82.9c3.5-0.8,6.1-4.2,6.1-8V39.5c1,0.2,2.1,0.2,3.1,0.2h11.3
	c3.3,0,6.1-2.7,6.1-6.1v-27c0-3.4-2.7-6.1-6.1-6.1H72.7C62.2,0.5,53.9,8.7,53.2,19V74.9z M83.9,35.7c-1,0-2.1-0.8-2.1-2.1v-27
	c0-1.1,0.8-2.1,2.1-2.1c1,0,2.1,0.8,2.1,2.1v26.8C86,34.6,85,35.7,83.9,35.7z M72.7,35.7c-8.6,0-15.5-7-15.5-15.6
	c0-8.6,7.1-15.4,15.5-15.4h5.4c-0.2,0.6-0.4,1.3-0.4,2.1v26.8c0,0.6,0.2,1.5,0.4,2.1H72.7z M57.4,74.9v-2.1h8.1v2.1
	c0,2.3-1.9,4.2-4.2,4.2S57.4,77.2,57.4,74.9z M57.4,32.1c2.1,2.7,5,4.8,8.1,6.3v30.3h-8.1v-4.2h4.2v-4.2h-4.2v-4.2h4.2v-4.2h-4.2
	V32.1z"/>
<path class="st0" d="M63.3,23.3h4.6c1,0,1.9-0.8,1.9-1.9v-2.5c0-1.1-0.8-1.9-1.9-1.9h-4.6c-1,0-1.9,0.8-1.9,1.9v2.5
	C61.4,22.4,62.2,23.3,63.3,23.3z"/>
</svg>
