<?xml version="1.0" encoding="utf-8"?>
<!-- Generator: Adobe Illustrator 24.1.3, SVG Export Plug-In . SVG Version: 6.00 Build 0)  -->
<svg version="1.1" id="Слой_1" xmlns="http://www.w3.org/2000/svg" xmlns:xlink="http://www.w3.org/1999/xlink" x="0px" y="0px"
	 viewBox="0 0 101 94" style="enable-background:new 0 0 101 94;" xml:space="preserve">
<style type="text/css">
	.st0{fill:#57ACFF;}
	.st1{fill:#182F52;}
</style>
<path class="st0" d="M3.9,40.9h11.7v36.9H3.9V40.9z"/>
<path class="st1" d="M97.9,56.1c-1.8-1.3-4.2-1.7-6.7-1.1l-29.7,8.2c0.4-0.9,0.6-1.9,0.6-2.9c0-4.3-3.5-7.8-7.8-7.8H36.2
	c-1.3-1.9-4.6-7.8-9-7.8h-7.8v-1.9c0-3.2-2.6-5.8-5.8-5.8H5.8C2.6,37,0,39.6,0,42.8v33c0,3.2,2.6,5.8,5.8,5.8h7.8
	c3.2,0,5.8-2.6,5.8-5.8v-1.5L43,90.3c3,2,6.4,3,9.9,3c3.2,0,6.4-0.9,9.2-2.6l35.3-21.6c2.2-1.4,3.6-3.8,3.6-6.5v-0.6
	C101,59.7,99.9,57.5,97.9,56.1z M15.5,75.8c0,1.1-0.9,1.9-1.9,1.9h-1.9V70H7.8v7.8H5.8c-1.1,0-1.9-0.9-1.9-1.9v-33
	c0-1.1,0.9-1.9,1.9-1.9h7.8c1.1,0,1.9,0.9,1.9,1.9V75.8z M97.1,62.7c0,1.3-0.7,2.5-1.8,3.2L60,87.4c-4.6,2.8-10.4,2.7-14.9-0.3
	L19.4,69.7v-21h7.8c2.1,0,4.8,4,6,6.6l0.5,1.1h20.7c2.1,0,3.9,1.7,3.9,3.9c0,2.2-1.7,3.9-3.9,3.9H35v3.9h19.4h3.9l34-9.3
	c1.2-0.3,2.5-0.2,3.3,0.4c0.9,0.7,1.5,1.8,1.5,2.9V62.7z"/>
<path class="st0" d="M64.1,42.8c5.1,0,25.3-12.7,25.3-29.1c0-7.5-6.1-13.6-13.6-13.6c-4.9,0-9.3,2.6-11.7,6.6
	c-2.4-4-6.7-6.6-11.7-6.6c-7.5,0-13.6,6.1-13.6,13.6C38.8,30.1,59,42.8,64.1,42.8z M52.4,4c5.4,0,9.7,3.9,9.7,9.7H66
	C66,7.9,70.4,4,75.8,4c5.4,0,9.7,4.4,9.7,9.7c0,14.7-18.8,25.3-21.4,25.3c-2.6,0-21.4-10.6-21.4-25.3C42.7,8.3,47.1,4,52.4,4z"/>
</svg>
