<?xml version="1.0" encoding="utf-8"?>
<!-- Generator: Adobe Illustrator 24.1.3, SVG Export Plug-In . SVG Version: 6.00 Build 0)  -->
<svg version="1.1" id="Слой_1" xmlns="http://www.w3.org/2000/svg" xmlns:xlink="http://www.w3.org/1999/xlink" x="0px" y="0px"
	 viewBox="0 0 81 101" style="enable-background:new 0 0 81 101;" xml:space="preserve">
<style type="text/css">
	.st0{fill:#57ACFF;}
	.st1{fill:#182F52;}
</style>
<path class="st0" d="M11.9,60.1H6.6c-1.4,0-1.8-1-1.8-2.4V43.4C4.8,42,5.2,41,6.6,41h5.4V60.1z"/>
<path class="st0" d="M64.1,57.8c4.8,0,7.2-3.2,7.2-7.2c0-4-2.4-7.2-7.2-7.2V57.8z"/>
<path class="st1" d="M63.5,34h-6.6c1.4-17.7,4.6-27.7,6.4-28.5c1.4,0.6,4.6,7.2,6.4,23.9l4.8-0.4C72.6,10.7,68.9,1.4,64.1,0.8h-1.8
	c-3,0-5.8,1-8,3.2L31.8,24.5H18.3c-3.8,0-6.6,3-6.6,7.2v4.8H6.6c-3.8,0-6.6,3-6.6,7.2V58c0,4,2.6,7.2,6.6,7.2h5.4v4.8
	c0,4,2.6,7.2,6.6,7.2h13.3l22.7,20.7c2.2,2,5,3.2,8,3.2h1.8c4.8-0.6,8.6-10,10.3-28.3l-5-0.8c-1.8,16.9-5,23.5-6,24.1
	c-2-0.8-5.4-10.8-6.6-28.5h6.6c9.2,0,16.7-7.4,16.7-16.7S72.6,34,63.5,34z M6.6,60.1c-1.4,0-1.8-1.2-1.8-2.4V43.4
	c0-1,0.2-2.4,1.8-2.4h5.4v18.9H6.6V60.1z M30.8,72.1H18.3c-1.4,0-1.8-1.2-1.8-2.4V31.7c0-1,0.2-2.4,1.8-2.4h3v21.3h4.8V29.3h4.8
	V72.1z M35.6,73.7V27.9L56.7,8.5c-5,13.6-5.2,40.9-5.2,42.2c0,1.4,0.2,28.7,5.2,42.2L35.6,73.7z M63.5,62.5h-6.8
	c-0.2-3.8-0.4-7.6-0.4-12s0.2-8.2,0.4-12h6.8c6.6,0,11.9,5.4,11.9,12S70,62.5,63.5,62.5z"/>
</svg>
