<?xml version="1.0" encoding="utf-8"?>
<!-- Generator: Adobe Illustrator 24.1.3, SVG Export Plug-In . SVG Version: 6.00 Build 0)  -->
<svg version="1.1" id="Слой_1" xmlns="http://www.w3.org/2000/svg" xmlns:xlink="http://www.w3.org/1999/xlink" x="0px" y="0px"
	 viewBox="0 0 118.1 117" style="enable-background:new 0 0 118.1 117;" xml:space="preserve">
<style type="text/css">
	.st0{fill:#57ACFF;}
	.st1{fill:#182F52;}
</style>
<path class="st0" d="M54.6,25.1c-18.2,0-33,14.8-33,33s14.8,33,33,33s33-14.8,33-33S72.7,25.1,54.6,25.1z M54.6,86.6
	c-15.7,0-28.5-12.8-28.5-28.5s12.8-28.5,28.5-28.5c15.7,0,28.5,12.8,28.5,28.5S70.3,86.6,54.6,86.6z"/>
<path class="st1" d="M56.8,49.5V35.8h-4.5v13.7c-3.8,1-6.7,4.5-6.7,8.6c0,4.9,4,8.9,8.9,8.9c4.2,0,7.6-2.9,8.6-6.7h9.3v-4.5h-9.3
	C62.4,52.7,59.9,50.3,56.8,49.5L56.8,49.5z M54.6,62.6c-2.5,0-4.5-2-4.5-4.5s2-4.5,4.5-4.5s4.5,2,4.5,4.5C59,60.6,57,62.6,54.6,62.6
	z"/>
<path class="st1" d="M99.2,51.4h-2.8c-1.2-7.2-4.1-13.8-8.4-19.3v-6.6c0-5.1-3.9-9.3-8.9-9.8v-4.6C79.1,5,74.1,0,68,0h-2.2h-4.5
	h-4.5h-4.5H41.1c-6.2,0-11.2,5-11.2,11.2v4.6c-5,0.5-8.9,4.6-8.9,9.8v6.6c-5.6,7.1-8.9,16.1-8.9,25.9s3.4,18.8,8.9,26v6.6
	c0,5.1,3.9,9.3,8.9,9.8v4.6c0,6.2,5,11.2,11.2,11.2h20.1h4.5h2.2c6.2,0,11.2-5,11.2-11.2v-4.6c5-0.5,8.9-4.6,8.9-9.8v-6.6
	c4.3-5.5,7.2-12.1,8.4-19.3h2.8c3.7,0,6.7-3,6.7-6.7S102.9,51.4,99.2,51.4z M79.1,23.5v-3.3c2.5,0.4,4.5,2.6,4.5,5.3v1.7
	C82.2,25.9,80.7,24.7,79.1,23.5L79.1,23.5z M34.4,11.2c0-3.7,3-6.7,6.7-6.7h2.2V9h4.5V4.5h4.5V9h4.5V4.5h4.5V9h4.5V4.5H68
	c3.7,0,6.7,3,6.7,6.7v9.5c-6-3.2-12.8-5.1-20.1-5.1s-14.1,1.8-20.1,5.1L34.4,11.2L34.4,11.2z M25.5,25.5c0-2.7,1.9-4.9,4.5-5.3v3.3
	c-1.6,1.1-3.1,2.4-4.5,3.7V25.5z M30,96c-2.5-0.4-4.5-2.6-4.5-5.3V89c1.4,1.3,2.9,2.6,4.5,3.7V96z M74.7,105c0,3.7-3,6.7-6.7,6.7
	h-2.2v-4.5h-4.5v4.5h-4.5v-4.5h-4.5v4.5h-4.5v-4.5h-4.5v4.5h-2.2c-3.7,0-6.7-3-6.7-6.7v-9.5c6,3.2,12.8,5.1,20.1,5.1
	s14.1-1.9,20.1-5.1L74.7,105L74.7,105z M83.6,90.7c0,2.7-1.9,4.9-4.5,5.3v-3.4c1.6-1.1,3.1-2.3,4.5-3.6V90.7z M54.6,96.1
	c-20.9,0-38-17-38-38c0-20.9,17-38,38-38c20.9,0,38,17,38,38C92.5,79,75.5,96.1,54.6,96.1z M99.2,60.3h-2.3c0-0.7,0.1-1.5,0.1-2.2
	c0-0.8,0-1.5-0.1-2.2h2.3c1.2,0,2.2,1,2.2,2.2C101.5,59.3,100.5,60.3,99.2,60.3z"/>
</svg>
