<?xml version="1.0" encoding="utf-8"?>
<!-- Generator: Adobe Illustrator 24.1.3, SVG Export Plug-In . SVG Version: 6.00 Build 0)  -->
<svg version="1.1" id="Слой_1" xmlns="http://www.w3.org/2000/svg" xmlns:xlink="http://www.w3.org/1999/xlink" x="0px" y="0px"
	 viewBox="0 0 91 81" style="enable-background:new 0 0 91 81;" xml:space="preserve">
<style type="text/css">
	.st0{fill:#57ACFF;}
	.st1{fill:#182F52;}
</style>
<g>
	<path class="st0" d="M45.3,77.3C36.9,77.1,3.6,55.8,3.6,23.9c0-11.1,9.1-20.3,20-20.3c11.1,0,20,9.2,20.2,20.3h1.5v-9.5
		C41.6,6,33.3,0,23.6,0C10.6,0,0,10.8,0,23.9C0,57.1,34.2,80.8,45.3,81V77.3z"/>
	<path class="st1" d="M67.1,0c-9.7,0-18,5.8-21.7,14.3v9.6H47c0-11.1,8.9-20.3,20-20.3c11.1,0,20,9,20,20.3
		c0,31.9-33.3,53.2-41.7,53.5V81c11.1-0.2,45.3-23.7,45.3-57.1C90.7,10.8,80,0,67.1,0z"/>
</g>
</svg>
