<?xml version="1.0" encoding="utf-8"?>
<!-- Generator: Adobe Illustrator 24.1.3, SVG Export Plug-In . SVG Version: 6.00 Build 0)  -->
<svg version="1.1" id="Слой_1" xmlns="http://www.w3.org/2000/svg" xmlns:xlink="http://www.w3.org/1999/xlink" x="0px" y="0px"
	 viewBox="0 0 100 92" style="enable-background:new 0 0 100 92;" xml:space="preserve">
<style type="text/css">
	.st0{fill:#57ACFF;}
	.st1{fill:#182F52;}
</style>
<path class="st0" d="M63.2,31.1c-4.3,0-7.7,3.4-7.7,7.7s3.4,7.7,7.7,7.7s7.7-3.4,7.7-7.7S67.5,31.1,63.2,31.1z"/>
<path class="st1" d="M99.6,10.2c0-5.2-4.1-9.5-9.5-9.5H24.8c-5.2,0-9.5,4.3-9.5,9.5V73H0v9.5c0,5.2,4.3,9.5,9.5,9.5h65.2
	c5.2,0,9.5-4.3,9.5-9.5V19.7h15.3V10.2z M9.5,88.3c-3.2,0-5.8-2.5-5.8-5.7v-5.7h61.4v5.7c0,2.1,0.7,4.1,2,5.7H9.5z M80.5,82.6
	c0,3.2-2.5,5.7-5.8,5.7c-3.2,0-5.8-2.5-5.8-5.7v-9.5H19.1V10.2c0-3.2,2.5-5.7,5.8-5.7h57.6c-1.3,1.6-2,3.6-2,5.7V82.6z M95.8,16
	H84.3v-5.7c0-3.2,2.5-5.7,5.8-5.7c3.2,0,5.8,2.5,5.8,5.7V16z"/>
<path class="st1" d="M63.2,29.4c-5.2,0-9.5,4.3-9.5,9.5s4.3,9.5,9.5,9.5s9.5-4.3,9.5-9.5S68.6,29.4,63.2,29.4z M63.2,44.5
	c-3.2,0-5.8-2.5-5.8-5.7s2.5-5.7,5.8-5.7c3.2,0,5.8,2.5,5.8,5.7C69,41.9,66.4,44.5,63.2,44.5z"/>
<path class="st0" d="M26.8,29.4h19.1v3.8H26.8V29.4z"/>
<path class="st0" d="M26.8,36.9h19.1v3.8H26.8V36.9z"/>
<path class="st0" d="M26.8,44.5h19.1v3.8H26.8V44.5z"/>
<path class="st0" d="M26.8,52h19.1v3.8H26.8V52z"/>
<path class="st1" d="M53.7,52h19.1v3.8H53.7V52z"/>
</svg>
