<?xml version="1.0" encoding="utf-8"?>
<!-- Generator: Adobe Illustrator 24.1.3, SVG Export Plug-In . SVG Version: 6.00 Build 0)  -->
<svg version="1.1" id="Слой_1" xmlns="http://www.w3.org/2000/svg" xmlns:xlink="http://www.w3.org/1999/xlink" x="0px" y="0px"
	 viewBox="0 0 119 87" style="enable-background:new 0 0 119 87;" xml:space="preserve">
<style type="text/css">
	.st0{fill:#182F52;}
	.st1{fill:#57ACFF;}
</style>
<path class="st0" d="M10.2,0.5h14.4v4H10.2C6.9,4.5,4,7.2,4,10.7v65.5c0,3.4,2.7,6.2,6.2,6.2h14.4v4H10.2C4.5,86.5,0,81.9,0,76.2
	V10.7C0,5,4.5,0.5,10.2,0.5z M108.6,0.5H94.2v4h14.4c3.4,0,6.2,2.7,6.2,6.2v65.5c0,3.4-2.7,6.2-6.2,6.2H94.2v4h14.4
	c5.7,0,10.2-4.5,10.2-10.2V10.7C119,5,114.3,0.5,108.6,0.5z"/>
<path class="st1" d="M22.6,25.1h73.7v4H22.6V25.1z"/>
<path class="st1" d="M22.6,41.6h57.5v4H22.6V41.6z"/>
<path class="st1" d="M22.6,58h73.7v4H22.6V58z"/>
</svg>
