<?xml version="1.0" encoding="utf-8"?>
<!-- Generator: Adobe Illustrator 24.1.3, SVG Export Plug-In . SVG Version: 6.00 Build 0)  -->
<svg version="1.1" id="Слой_1" xmlns="http://www.w3.org/2000/svg" xmlns:xlink="http://www.w3.org/1999/xlink" x="0px" y="0px"
	 viewBox="0 0 98 102" style="enable-background:new 0 0 98 102;" xml:space="preserve">
<style type="text/css">
	.st0{fill:#57ACFF;}
	.st1{fill:#182F52;}
</style>
<path class="st0" d="M50.4,35.3h-28c-1.4,0-2.6-1.2-2.6-2.6V20.3c0-1.4,1.2-2.6,2.6-2.6h28c1.4,0,2.6,1.2,2.6,2.6v12.5
	C53,34.2,51.9,35.3,50.4,35.3z"/>
<path class="st1" d="M86.2,0H11C5,0,0,5,0,11v61.9C0,79,5,84,11,84h33.1c1.2,0,2.2,1,2.2,2.2v9.1c0,2.5,1.4,4.7,3.8,5.8
	c0.9,0.4,1.9,0.6,2.9,0.6c1.6,0,3.2-0.6,4.4-1.7l17.8-15.5c0.4-0.3,0.9-0.5,1.4-0.5h9.4c6.1,0,11-5,11-11.1V11C97.2,5,92.3,0,86.2,0
	L86.2,0z M92.8,72.9c0,3.7-3,6.6-6.6,6.6h-9.4c-1.6,0-3.1,0.6-4.4,1.6L54.6,96.6c-0.8,0.7-1.9,0.6-2.6,0.3c-0.4-0.2-1.2-0.7-1.2-1.8
	v-9.1c0-3.6-3-6.6-6.6-6.6H11c-3.6,0-6.6-3-6.6-6.6V11c0-3.6,3-6.6,6.6-6.6h75.1c3.6,0,6.6,3,6.6,6.6V72.9z"/>
<path class="st0" d="M77.3,44.2H19.9v4.4h57.4V44.2z"/>
<path class="st0" d="M61.9,53h-42v4.4h42V53z"/>
<path class="st0" d="M77.3,61.9H19.9v4.4h57.4V61.9z"/>
</svg>
