<?xml version="1.0" encoding="utf-8"?>
<!-- Generator: Adobe Illustrator 24.1.3, SVG Export Plug-In . SVG Version: 6.00 Build 0)  -->
<svg version="1.1" id="Слой_1" xmlns="http://www.w3.org/2000/svg" xmlns:xlink="http://www.w3.org/1999/xlink" x="0px" y="0px"
	 viewBox="0 0 98 101" style="enable-background:new 0 0 98 101;" xml:space="preserve">
<style type="text/css">
	.st0{fill:#57ACFF;}
	.st1{fill:#182F52;}
</style>
<path class="st0" d="M73.6,11.7c-0.9-4.4-4.8-7.8-9.5-7.8c-2.5,0-4.7,1-6.4,2.5C56.3,2.7,52.7,0,48.6,0c-4.2,0-7.7,2.7-9.1,6.4
	c-1.7-1.5-4-2.5-6.4-2.5c-4.7,0-8.6,3.3-9.5,7.8"/>
<path class="st1" d="M91.3,25.2h-7.8v-3.9c1.9,0,5.8-2.6,5.8-5.8c0-3.2-2.6-5.8-5.8-5.8H13.6c-3.2,0-5.8,2.6-5.8,5.8
	c0,3.2,2.6,5.8,5.8,5.8v3.9H5.8c-3.2,0-5.8,2.6-5.8,5.8V35c0,3.2,2.6,5.8,5.8,5.8h1.9v1.9c0,5.4,4.4,9.7,9.7,9.7h3.5
	c4.9,5.8,12.1,10.9,19.8,12.7V66c0,3.6,1.9,6.6,5.8,7.5v8h-5.8c-3.2,0-5.8,2.6-5.8,5.8v1.9H33c-3.2,0-5.8,2.6-5.8,5.8v1.9h-5.8v3.9
	h54.4v-3.9h-5.8v-1.9c0-3.2-2.6-5.8-5.8-5.8h-1.9v-1.9c0-3.2-2.6-5.8-5.8-5.8h-5.8v-8c1.9-0.9,5.8-3.9,5.8-7.5v-0.9
	c7.8-1.8,15-6.9,19.8-12.7h3.5c5.4,0,9.7-4.4,9.7-9.7v-1.9h1.9c3.2,0,5.8-2.6,5.8-5.8v-3.9C97.1,27.9,94.5,25.2,91.3,25.2z M66,95.2
	v1.9h-35v-1.9c0-1.1,0.9-1.9,1.9-1.9h31.1C65.2,93.2,66,94.1,66,95.2z M56.3,85.5c1.1,0,1.9,0.9,1.9,1.9v1.9H38.8v-1.9
	c0-1.1,0.9-1.9,1.9-1.9h5.8h3.9H56.3z M11.7,15.5c0-1.1,0.9-1.9,1.9-1.9h69.9c1.1,0,1.9,0.9,1.9,1.9c0,1.1-0.9,1.9-1.9,1.9H13.6
	C12.5,17.5,11.7,16.6,11.7,15.5z M3.9,35v-3.9c0-1.1,0.9-1.9,1.9-1.9h7.8v1.9c0,2,0.2,3.9,0.5,5.8H5.8C4.8,36.9,3.9,36,3.9,35z
	 M17.5,48.6c-3.2,0-5.8-2.6-5.8-5.8v-1.9H15c0.8,2.9,1.9,5.8,3.3,7.8H17.5z M52.4,66c0,2.1-1.7,3.9-3.9,3.9c-2.1,0-3.9-1.7-3.9-3.9
	v-0.2c1.9,0.1,2.6,0.2,3.9,0.2c1.3,0,1.9-0.1,3.9-0.2V66z M48.6,62.2c-17.1,0-31.1-13.9-31.1-31.1v-9.7h62.2v9.7
	C79.6,48.2,65.7,62.2,48.6,62.2z M85.5,42.7c0,3.2-2.6,5.8-5.8,5.8h-0.8c1.4-1.9,2.5-4.9,3.3-7.8h3.3V42.7z M93.2,35
	c0,1.1-0.9,1.9-1.9,1.9H83c0.3-1.9,0.5-3.8,0.5-5.8v-1.9h7.8c1.1,0,1.9,0.9,1.9,1.9V35z"/>
<path class="st0" d="M48.6,33c-4.3,0-7.8,3.5-7.8,7.8c0,4.3,3.5,7.8,7.8,7.8s7.8-3.5,7.8-7.8C56.3,36.5,52.8,33,48.6,33z"/>
</svg>
