<?xml version="1.0" encoding="utf-8"?>
<!-- Generator: Adobe Illustrator 24.1.3, SVG Export Plug-In . SVG Version: 6.00 Build 0)  -->
<svg version="1.1" id="Слой_1" xmlns="http://www.w3.org/2000/svg" xmlns:xlink="http://www.w3.org/1999/xlink" x="0px" y="0px"
	 viewBox="0 0 102 97" style="enable-background:new 0 0 102 97;" xml:space="preserve">
<style type="text/css">
	.st0{fill:#182F52;}
	.st1{fill:url(#SVGID_1_);}
	.st2{fill:url(#SVGID_2_);}
	.st3{fill:url(#SVGID_3_);}
	.st4{fill:url(#SVGID_4_);}
</style>
<path class="st0" d="M95.2,0H6.9C3.4,0,0.5,2.8,0.5,6.3v84.2c0,3.5,2.8,6.3,6.3,6.3h88.4c3.5,0,6.3-2.8,6.3-6.3V6.3
	C101.5,2.8,98.7,0,95.2,0z M43.4,4.2l6.3,12.6h-10L33.4,4.2H43.4z M4.8,6.3c0-1.2,0.9-2.1,2.1-2.1h21.8L35,16.8H4.8V6.3z M97.3,90.5
	c0,1.2-0.9,2.1-2.1,2.1H6.9c-1.2,0-2.1-0.9-2.1-2.1V88c0.7,0.2,1.4,0.4,2.1,0.4h88.4c0.7,0,1.4-0.2,2.1-0.4V90.5z M97.3,82.1
	c0,1.2-0.9,2.1-2.1,2.1H6.9c-1.2,0-2.1-0.9-2.1-2.1V21h92.6V82.1z M97.3,16.8H54.4L48.1,4.2h47.1c1.2,0,2.1,0.9,2.1,2.1V16.8z"/>
<linearGradient id="SVGID_1_" gradientUnits="userSpaceOnUse" x1="51.0436" y1="99.1638" x2="51.0436" y2="4.9518" gradientTransform="matrix(1 0 0 -1 0 98)">
	<stop  offset="0" style="stop-color:#00C6FF"/>
	<stop  offset="1" style="stop-color:#0072FF"/>
</linearGradient>
<path class="st1" d="M13.2,46.3h75.8c1.2,0,2.1-0.9,2.1-2.1V29.5c0-1.2-0.9-2.1-2.1-2.1H13.2c-1.2,0-2.1,0.9-2.1,2.1v14.7
	C11.1,45.4,12,46.3,13.2,46.3z M15.3,31.6h71.5v10.5H15.3V31.6z"/>
<linearGradient id="SVGID_2_" gradientUnits="userSpaceOnUse" x1="32.1062" y1="99.1636" x2="32.1062" y2="4.9516" gradientTransform="matrix(1 0 0 -1 0 98)">
	<stop  offset="0" style="stop-color:#00C6FF"/>
	<stop  offset="1" style="stop-color:#0072FF"/>
</linearGradient>
<path class="st2" d="M13.2,77.9H51c1.2,0,2.1-0.9,2.1-2.1V52.6c0-1.2-0.9-2.1-2.1-2.1H13.2c-1.2,0-2.1,0.9-2.1,2.1v23.1
	C11.1,76.9,12,77.9,13.2,77.9z M15.3,54.7h33.7v18.9H15.3V54.7z"/>
<linearGradient id="SVGID_3_" gradientUnits="userSpaceOnUse" x1="74.1888" y1="99.1636" x2="74.1888" y2="4.9516" gradientTransform="matrix(1 0 0 -1 0 98)">
	<stop  offset="0" style="stop-color:#00C6FF"/>
	<stop  offset="1" style="stop-color:#0072FF"/>
</linearGradient>
<path class="st3" d="M88.9,50.5H59.5c-1.2,0-2.1,0.9-2.1,2.1v23.1c0,1.2,0.9,2.1,2.1,2.1h29.5c1.2,0,2.1-0.9,2.1-2.1V52.6
	C91,51.4,90.1,50.5,88.9,50.5z M86.8,73.6H61.6V54.7h25.2V73.6z"/>
<linearGradient id="SVGID_4_" gradientUnits="userSpaceOnUse" x1="34.2091" y1="-87.24" x2="34.2091" y2="-127.679" gradientTransform="matrix(1 0 0 -1 0 98)">
	<stop  offset="0" style="stop-color:#70DFFF"/>
	<stop  offset="1" style="stop-color:#70AFFF"/>
</linearGradient>
<path class="st4" d="M48.9,58.9H19.5v14.7h29.5V58.9z"/>
</svg>
