<svg viewBox="0 0 26 26" fill="none" xmlns="http://www.w3.org/2000/svg">
  <path
    d="M17.8651 25.2973V16.2971H20.6L21.0767 12.2969H17.8651V10.0684C17.8651 9.01986 17.7982 8.30484 19.3336 8.30484L20.9276 8.30384V5.06426C20.4172 5.02026 19.6582 4.92175 18.3061 4.92175C15.4829 4.92175 13.7816 6.6098 13.7816 9.70988V12.2969H10.2086V16.2971H13.7816V25.2973H17.8651Z"
     />
  <path
    d="M21.9485 25.7976H3.57301C1.60326 25.7976 0 24.2271 0 22.2975V4.29703C0 2.36748 1.60326 0.796936 3.57301 0.796936H21.9485C23.9182 0.796936 25.5215 2.36748 25.5215 4.29703V22.2975C25.5215 24.2271 23.9182 25.7976 21.9485 25.7976ZM3.57301 1.79696C2.16575 1.79696 1.02086 2.91849 1.02086 4.29703V22.2975C1.02086 23.676 2.16575 24.7976 3.57301 24.7976H21.9485C23.3558 24.7976 24.5006 23.676 24.5006 22.2975V4.29703C24.5006 2.91849 23.3558 1.79696 21.9485 1.79696H3.57301Z"
     />
</svg>
