<svg version="1.1" xmlns="http://www.w3.org/2000/svg" xmlns:xlink="http://www.w3.org/1999/xlink" viewBox="0 0 226 226">

      <path
        d="M148.3125,197.75v-63.5625h18.92044l3.29819,-28.25h-22.21862v-15.73878c0,-7.40503 -0.46259,-12.45472 10.15941,-12.45472l11.02809,-0.00706v-22.87897c-3.53125,-0.31075 -8.78222,-1.00641 -18.1365,-1.00641c-19.53134,0 -31.301,11.9215 -31.301,33.81525v18.27069h-24.71875v28.25h24.71875v63.5625z M176.5625,201.28125h-127.125c-13.62709,0 -24.71875,-11.09166 -24.71875,-24.71875v-127.125c0,-13.62709 11.09166,-24.71875 24.71875,-24.71875h127.125c13.62709,0 24.71875,11.09166 24.71875,24.71875v127.125c0,13.62709 -11.09166,24.71875 -24.71875,24.71875zM49.4375,31.78125c-9.73566,0 -17.65625,7.92059 -17.65625,17.65625v127.125c0,9.73566 7.92059,17.65625 17.65625,17.65625h127.125c9.73566,0 17.65625,-7.92059 17.65625,-17.65625v-127.125c0,-9.73566 -7.92059,-17.65625 -17.65625,-17.65625z"></path>


</svg>
