<svg  viewBox="0 0 226 226">


      <path  d="M155.375,201.28125h-84.75c-25.312,0 -45.90625,-20.59425 -45.90625,-45.90625v-84.75c0,-25.312 20.59425,-45.90625 45.90625,-45.90625h84.75c25.312,0 45.90625,20.59425 45.90625,45.90625v84.75c0,25.312 -20.59425,45.90625 -45.90625,45.90625zM70.625,31.78125c-21.41703,0 -38.84375,17.42672 -38.84375,38.84375v84.75c0,21.41703 17.42672,38.84375 38.84375,38.84375h84.75c21.41703,0 38.84375,-17.42672 38.84375,-38.84375v-84.75c0,-21.41703 -17.42672,-38.84375 -38.84375,-38.84375z"
></path>
      <path  d="M113,158.90625c-25.312,0 -45.90625,-20.59425 -45.90625,-45.90625c0,-25.312 20.59425,-45.90625 45.90625,-45.90625c25.312,0 45.90625,20.59425 45.90625,45.90625c0,25.312 -20.59425,45.90625 -45.90625,45.90625zM113,81.21875c-17.52206,0 -31.78125,14.25919 -31.78125,31.78125c0,17.52559 14.25919,31.78125 31.78125,31.78125c17.52559,0 31.78125,-14.25566 31.78125,-31.78125c0,-17.52206 -14.25566,-31.78125 -31.78125,-31.78125z"
></path>
      <path   d="M162.4375,52.96875c-5.85077,0 -10.59375,4.74298 -10.59375,10.59375c0,5.85077 4.74298,10.59375 10.59375,10.59375c5.85077,0 10.59375,-4.74298 10.59375,-10.59375c0,-5.85077 -4.74298,-10.59375 -10.59375,-10.59375z"
></path>


</svg>
