<svg  viewBox="0 0 172 172">
  <defs>
    <radialGradient cx="69.445" cy="150.62542" r="160.88808" gradientUnits="userSpaceOnUse" id="color-1">
      <stop offset="0" stop-color="#ffdd55"></stop>
      <stop offset="0.328" stop-color="#ff543f"></stop>
      <stop offset="0.348" stop-color="#fc5245"></stop>
      <stop offset="0.504" stop-color="#e64771"></stop>
      <stop offset="0.643" stop-color="#d53e91"></stop>
      <stop offset="0.761" stop-color="#cc39a4"></stop>
      <stop offset="0.841" stop-color="#c837ab"></stop>
    </radialGradient>
    <radialGradient cx="42.23317" cy="19.85275" r="106.82992" gradientUnits="userSpaceOnUse" id="color-2">
      <stop offset="0" stop-color="#4168c9"></stop>
      <stop offset="0.999" stop-color="#4168c9" stop-opacity="0"></stop>
    </radialGradient>
  </defs>
        <path
        d="M121.89425,150.46417l-71.66667,0.06808c-15.76667,0.01433 -28.67742,-12.87133 -28.69533,-28.638l-0.06808,-71.66667c-0.01433,-15.76667 12.87133,-28.67742 28.638,-28.69533l71.66667,-0.06808c15.76667,-0.01433 28.67742,12.87133 28.69533,28.638l0.06808,71.66667c0.01792,15.77025 -12.87133,28.681 -28.638,28.69533z"
        fill="url(#color-1)"></path>
      <path
        d="M121.89425,150.46417l-71.66667,0.06808c-15.76667,0.01433 -28.67742,-12.87133 -28.69533,-28.638l-0.06808,-71.66667c-0.01433,-15.76667 12.87133,-28.67742 28.638,-28.69533l71.66667,-0.06808c15.76667,-0.01433 28.67742,12.87133 28.69533,28.638l0.06808,71.66667c0.01792,15.77025 -12.87133,28.681 -28.638,28.69533z"
        fill="url(#color-2)"></path>
      <path
        d="M86,111.08333c-13.82808,0 -25.08333,-11.25167 -25.08333,-25.08333c0,-13.83167 11.25525,-25.08333 25.08333,-25.08333c13.82808,0 25.08333,11.25167 25.08333,25.08333c0,13.83167 -11.25525,25.08333 -25.08333,25.08333zM86,68.08333c-9.87925,0 -17.91667,8.03742 -17.91667,17.91667c0,9.87925 8.03742,17.91667 17.91667,17.91667c9.87925,0 17.91667,-8.03742 17.91667,-17.91667c0,-9.87925 -8.03742,-17.91667 -17.91667,-17.91667z"
        fill="#ffffff"></path>
      <circle cx="31.5" cy="16.5" transform="scale(3.58333,3.58333)" r="1.5" fill="#ffffff"></circle>
      <path
        d="M107.5,132.58333h-43c-13.82808,0 -25.08333,-11.25167 -25.08333,-25.08333v-43c0,-13.83167 11.25525,-25.08333 25.08333,-25.08333h43c13.82808,0 25.08333,11.25167 25.08333,25.08333v43c0,13.83167 -11.25525,25.08333 -25.08333,25.08333zM64.5,46.58333c-9.87925,0 -17.91667,8.03742 -17.91667,17.91667v43c0,9.87925 8.03742,17.91667 17.91667,17.91667h43c9.87925,0 17.91667,-8.03742 17.91667,-17.91667v-43c0,-9.87925 -8.03742,-17.91667 -17.91667,-17.91667z"
        fill="#ffffff"></path>

</svg>
