<svg viewBox="0 0 26 26" fill="none" xmlns="http://www.w3.org/2000/svg">
  <path
    d="M19.0897 25.7969H6.70721C3.00896 25.7969 0 22.788 0 19.0897V6.70721C0 3.00896 3.00896 0 6.70721 0H19.0897C22.788 0 25.7969 3.00896 25.7969 6.70721V19.0897C25.7969 22.788 22.788 25.7969 19.0897 25.7969ZM6.70721 1.03188C3.57804 1.03188 1.03188 3.57804 1.03188 6.70721V19.0897C1.03188 22.2189 3.57804 24.7651 6.70721 24.7651H19.0897C22.2189 24.7651 24.7651 22.2189 24.7651 19.0897V6.70721C24.7651 3.57804 22.2189 1.03188 19.0897 1.03188H6.70721Z"
     />
  <path
    d="M12.8985 19.6053C9.20024 19.6053 6.19128 16.5963 6.19128 12.8981C6.19128 9.19981 9.20024 6.19086 12.8985 6.19086C16.5967 6.19086 19.6057 9.19981 19.6057 12.8981C19.6057 16.5963 16.5967 19.6053 12.8985 19.6053ZM12.8985 8.25461C10.3384 8.25461 8.25504 10.338 8.25504 12.8981C8.25504 15.4587 10.3384 17.5415 12.8985 17.5415C15.4591 17.5415 17.5419 15.4587 17.5419 12.8981C17.5419 10.338 15.4591 8.25461 12.8985 8.25461Z"
     />
  <path
    d="M20.1215 4.12744C19.2667 4.12744 18.5737 4.82042 18.5737 5.67526C18.5737 6.53009 19.2667 7.22308 20.1215 7.22308C20.9764 7.22308 21.6694 6.53009 21.6694 5.67526C21.6694 4.82042 20.9764 4.12744 20.1215 4.12744Z"
     />
</svg>
