<?xml version="1.0" encoding="utf-8"?>
<!-- Generator: Adobe Illustrator 24.1.3, SVG Export Plug-In . SVG Version: 6.00 Build 0)  -->
<svg version="1.1" id="Слой_1" xmlns="http://www.w3.org/2000/svg" xmlns:xlink="http://www.w3.org/1999/xlink" x="0px" y="0px"
	 viewBox="0 0 48 48" style="enable-background:new 0 0 48 48;" xml:space="preserve">
<style type="text/css">
	.st0{fill:#29B6F6;}
	.st1{fill:#FFFFFF;}
	.st2{fill:#B0BEC5;}
	.st3{fill:#CFD8DC;}
</style>
<path class="st0" d="M24,4C13,4,4,13,4,24s9,20,20,20s20-9,20-20S35,4,24,4z"/>
<path class="st1" d="M33.9,15l-3.7,19.1c0,0-0.2,0.9-1.2,0.9c-0.6,0-0.9-0.3-0.9-0.3L20,28l-4-2l-5.1-1.4c0,0-0.9-0.3-0.9-1
	c0-0.6,0.9-0.9,0.9-0.9l21.3-8.5c0,0,0.7-0.2,1.1-0.2c0.3,0,0.6,0.1,0.6,0.5C34,14.7,33.9,15,33.9,15z"/>
<path class="st2" d="M23,30.5l-3.4,3.4c0,0-0.1,0.1-0.3,0.1c-0.1,0-0.1,0-0.2,0l1-6L23,30.5z"/>
<path class="st3" d="M29.9,18.2c-0.2-0.2-0.5-0.3-0.7-0.1L16,26c0,0,2.1,5.9,2.4,6.9c0.3,1,0.6,1,0.6,1l1-6l9.8-9.1
	C30,18.7,30,18.4,29.9,18.2z"/>
</svg>
