<svg viewBox="0 0 27 26" fill="none" xmlns="http://www.w3.org/2000/svg">
  <path
    d="M18.6018 13.1318C18.6018 13.1318 20.7776 10.128 20.9939 9.1776C21.0662 8.83811 20.908 8.53681 20.5329 8.53681C20.5329 8.53681 19.2791 8.53681 18.6451 8.53681C18.2125 8.53681 18.0543 8.8247 17.9245 9.08267C17.9245 9.08267 16.9039 11.1877 15.6622 12.4791C15.2636 12.8965 15.1617 13.0502 14.9416 13.0502C14.7642 13.0502 14.7828 12.9388 14.7828 12.5622V9.26221C14.7828 8.79993 14.5239 8.5368 14.1203 8.5368H11.0942C10.8637 8.5368 10.7558 8.72667 10.7558 8.89899C10.7558 9.33393 11.4983 9.49542 11.4983 10.6738V13.1044C11.4983 13.5935 11.4331 13.7834 11.1884 13.7834C10.5401 13.7834 8.97967 11.6149 8.11513 9.22455C7.94157 8.73647 7.73625 8.53681 7.24622 8.53681H5.35836C5.0846 8.53681 4.88257 8.77723 4.88257 9.0352C4.88257 9.51038 5.47334 11.7423 7.79374 14.6894C9.35034 16.6721 11.4681 17.7608 13.3127 17.7608C14.4368 17.7608 14.7823 17.6003 14.7823 17.152V15.631C14.7823 15.2507 14.8688 15.0877 15.0993 15.0877C15.3588 15.0877 15.7804 15.1898 16.8503 16.1841C18.1194 17.3248 18.1698 17.8237 18.8613 17.8237H20.9797C21.1959 17.8237 21.3974 17.705 21.3974 17.3655C21.3974 16.9172 20.7776 16.1046 19.8266 15.1537C19.4373 14.6651 18.8033 14.1296 18.6018 13.885C18.3138 13.5997 18.4003 13.4305 18.6018 13.1318Z"
     />
  <path
    d="M22.4484 25.5627H3.83265C1.71922 25.5627 0 23.9421 0 21.9511V4.40918C0 2.41817 1.71922 0.797607 3.83265 0.797607H22.4484C24.5618 0.797607 26.281 2.41817 26.281 4.40918V21.9511C26.281 23.9421 24.5618 25.5627 22.4484 25.5627ZM3.83265 1.82949C2.32313 1.82949 1.09504 2.98674 1.09504 4.40918V21.9511C1.09504 23.3736 2.32313 24.5308 3.83265 24.5308H22.4484C23.9579 24.5308 25.186 23.3736 25.186 21.9511V4.40918C25.186 2.98674 23.9579 1.82949 22.4484 1.82949H3.83265Z"
     />
</svg>
