<svg version="1.1" xmlns="http://www.w3.org/2000/svg" xmlns:xlink="http://www.w3.org/1999/xlink" viewBox="0 0 226 226">

    <g>
      <path
        d="M148.22422,112.66806c0,0 14.03319,-20.55894 15.42803,-27.0635c0.46612,-2.32356 -0.55441,-4.38581 -2.97331,-4.38581c0,0 -8.08656,0 -12.17575,0c-2.78969,0 -3.81022,1.97044 -4.64712,3.73606c0,0 -6.58225,14.4075 -14.59113,23.24622c-2.57075,2.85678 -3.22756,3.90909 -4.64713,3.90909c-1.14413,0 -1.02406,-0.76275 -1.02406,-3.34056v-22.58588c0,-3.164 -1.67028,-4.96494 -4.27281,-4.96494h-19.51722c-1.48666,0 -2.18231,1.2995 -2.18231,2.47894c0,2.97684 4.78838,4.08212 4.78838,12.1475v16.63572c0,3.34763 -0.42022,4.64713 -1.99869,4.64713c-4.181,0 -14.24506,-14.84184 -19.82091,-31.20212c-1.11941,-3.34056 -2.44363,-4.70716 -5.60409,-4.70716h-12.17575c-1.76562,0 -3.06866,1.64556 -3.06866,3.41119c0,3.25228 3.81022,18.52847 18.77566,38.69897c10.03934,13.57059 23.69822,21.02153 35.595,21.02153c7.24966,0 9.47787,-1.09822 9.47787,-4.16688v-10.41012c0,-2.60253 0.55794,-3.71841 2.04459,-3.71841c1.67381,0 4.39288,0.69919 11.29294,7.50391c8.18544,7.80759 8.51031,11.22231 12.97028,11.22231h13.66241c1.39484,0 2.69434,-0.81219 2.69434,-3.13575c0,-3.06866 -3.99737,-8.63038 -10.13116,-15.13847c-2.51072,-3.34409 -6.59991,-7.00953 -7.89941,-8.68334c-1.85744,-1.95278 -1.2995,-3.11103 0,-5.15563z"></path>
      <path
        d="M173.03125,197.75h-120.0625c-13.63062,0 -24.71875,-11.09166 -24.71875,-24.71875v-120.0625c0,-13.62709 11.08813,-24.71875 24.71875,-24.71875h120.0625c13.63063,0 24.71875,11.09166 24.71875,24.71875v120.0625c0,13.62709 -11.08812,24.71875 -24.71875,24.71875zM52.96875,35.3125c-9.73566,0 -17.65625,7.92059 -17.65625,17.65625v120.0625c0,9.73566 7.92059,17.65625 17.65625,17.65625h120.0625c9.73566,0 17.65625,-7.92059 17.65625,-17.65625v-120.0625c0,-9.73566 -7.92059,-17.65625 -17.65625,-17.65625z"></path>
    </g>

</svg>
