<svg version="1.1" xmlns="http://www.w3.org/2000/svg" xmlns:xlink="http://www.w3.org/1999/xlink" viewBox="0 0 226 226">
      <g>
      <path
        d="M150.07813,49.4375h-3.53125c-0.97463,0 -1.76562,0.791 -1.76562,1.76563v26.48438h-7.0625v-26.48437c0,-0.97462 -0.791,-1.76562 -1.76562,-1.76562h-3.53125c-0.97463,0 -1.76562,0.791 -1.76562,1.76563v26.48438c0,3.90203 3.16047,7.0625 7.0625,7.0625h7.0625c3.90203,0 7.0625,-3.16047 7.0625,-7.0625v-26.48437c0,-0.97462 -0.791,-1.76562 -1.76562,-1.76562z"
></path>
      <path
        d="M116.53125,49.4375h-7.0625c-3.90203,0 -7.0625,3.16047 -7.0625,7.0625v21.1875c0,3.90203 3.16047,7.0625 7.0625,7.0625h7.0625c3.90203,0 7.0625,-3.16047 7.0625,-7.0625v-21.1875c0,-3.90203 -3.16047,-7.0625 -7.0625,-7.0625zM116.53125,75.92188c0,0.97463 -0.791,1.76563 -1.76562,1.76563h-3.53125c-0.97463,0 -1.76562,-0.791 -1.76562,-1.76562v-17.65625c0,-0.97462 0.791,-1.76562 1.76563,-1.76562h3.53125c0.97463,0 1.76563,0.791 1.76563,1.76563z"
></path>
      <path
        d="M93.57813,31.78125h-3.53125c-0.97463,0 -1.76562,0.791 -1.76562,1.76563v22.95313h-17.65625v-22.95312c0,-0.97462 -0.791,-1.76562 -1.76562,-1.76562h-3.53125c-0.97463,0 -1.76562,0.791 -1.76562,1.76563v22.95313c0,3.90203 3.16047,7.0625 7.0625,7.0625h17.65625v14.125h-22.95312c-0.97463,0 -1.76562,0.791 -1.76562,1.76563v3.53125c0,0.97463 0.791,1.76563 1.76563,1.76563h22.95313c3.90203,0 7.0625,-3.16047 7.0625,-7.0625v-44.14062c0,-0.97462 -0.791,-1.76562 -1.76562,-1.76562z"
  ></path>
      <g>
        <path
          d="M132.42188,144.78125h-7.0625c-0.97463,0 -1.76562,0.791 -1.76562,1.76563v1.76563v7.0625v12.35938c0,0.97463 0.791,1.76563 1.76563,1.76563h7.0625c0.97463,0 1.76563,-0.791 1.76563,-1.76562v-21.1875c0,-0.97463 -0.791,-1.76562 -1.76562,-1.76562z"
  ></path>
        <rect x="44" y="42" transform="scale(3.53125,3.53125)" width="2" height="2" fill="url(#color-5)"></rect>
        <path
          d="M173.03125,105.9375h-120.0625c-11.70256,0 -21.1875,9.48494 -21.1875,21.1875v49.4375c0,11.70256 9.48494,21.1875 21.1875,21.1875h120.0625c11.70256,0 21.1875,-9.48494 21.1875,-21.1875v-49.4375c0,-11.70256 -9.48494,-21.1875 -21.1875,-21.1875zM77.6875,174.79688c0,0.97463 -0.791,1.76563 -1.76562,1.76563h-3.53125c-0.97463,0 -1.76562,-0.791 -1.76562,-1.76562v-44.14062h-12.35937c-0.97462,0 -1.76562,-0.791 -1.76562,-1.76562v-3.53125c0,-0.97463 0.791,-1.76562 1.76563,-1.76562h31.78125c0.97463,0 1.76563,0.791 1.76563,1.76563v3.53125c0,0.97463 -0.791,1.76563 -1.76562,1.76563h-12.35937zM109.46875,169.5c0,3.90203 -3.16047,7.0625 -7.0625,7.0625h-7.0625c-3.90203,0 -7.0625,-3.16047 -7.0625,-7.0625v-26.48437c0,-0.97463 0.791,-1.76562 1.76563,-1.76562h3.53125c0.97463,0 1.76563,0.791 1.76563,1.76563v26.48438h7.0625v-26.48437c0,-0.97463 0.791,-1.76562 1.76563,-1.76562h3.53125c0.97463,0 1.76563,0.791 1.76563,1.76563zM141.25,169.5c0,3.90203 -3.16047,7.0625 -7.0625,7.0625h-10.59375c-3.90203,0 -7.0625,-3.16047 -7.0625,-7.0625v-44.14062c0,-0.97463 0.791,-1.76562 1.76563,-1.76562h3.53125c0.97463,0 1.76563,0.791 1.76563,1.76563v5.29688v7.0625h10.59375c3.90203,0 7.0625,3.16047 7.0625,7.0625zM169.5,155.375c0,3.90203 -3.16047,7.0625 -7.0625,7.0625h-7.0625v7.0625h7.0625v-1.86097c0,-0.92166 0.74863,-1.67028 1.67028,-1.67028h3.71841c0.92519,0 1.67381,0.74863 1.67381,1.67028v1.86097c0,3.90203 -3.16047,7.0625 -7.0625,7.0625h-7.0625c-3.90203,0 -7.0625,-3.16047 -7.0625,-7.0625v-21.1875c0,-3.90203 3.16047,-7.0625 7.0625,-7.0625h7.0625c3.90203,0 7.0625,3.16047 7.0625,7.0625z"
   ></path>
      </g>
    </g>

</svg>
