<svg  viewBox="0 0 172 172">
      <path
        d="M154.8,121.475c-1.43333,7.525 -7.525,13.25833 -15.05,14.33333c-11.825,1.79167 -31.53333,3.94167 -53.75,3.94167c-21.85833,0 -41.56667,-2.15 -53.75,-3.94167c-7.525,-1.075 -13.61667,-6.80833 -15.05,-14.33333c-1.43333,-8.24167 -2.86667,-20.425 -2.86667,-35.475c0,-15.05 1.43333,-27.23333 2.86667,-35.475c1.43333,-7.525 7.525,-13.25833 15.05,-14.33333c11.825,-1.79167 31.53333,-3.94167 53.75,-3.94167c22.21667,0 41.56667,2.15 53.75,3.94167c7.525,1.075 13.61667,6.80833 15.05,14.33333c1.43333,8.24167 3.225,20.425 3.225,35.475c-0.35833,15.05 -1.79167,27.23333 -3.225,35.475z"
        fill="#ff3d00"></path>
      <path d="M71.66667,111.08333v-50.16667l43,25.08333z" fill="#ffffff">
      </path>
</svg>
