<svg viewBox="0 0 26 27" fill="none" xmlns="http://www.w3.org/2000/svg">
  <path
    d="M18.9273 3.27887H18.3623C18.2064 3.27887 18.0798 3.40056 18.0798 3.5505V7.62493H16.9498V3.5505C16.9498 3.40056 16.8233 3.27887 16.6673 3.27887H16.1023C15.9464 3.27887 15.8198 3.40056 15.8198 3.5505V7.62493C15.8198 8.22523 16.3255 8.71144 16.9498 8.71144H18.0798C18.7041 8.71144 19.2098 8.22523 19.2098 7.62493V3.5505C19.2098 3.40057 19.0832 3.27888 18.9273 3.27888L18.9273 3.27887Z"
     />
  <path
    d="M13.56 3.27887H12.43C11.8057 3.27887 11.3 3.76508 11.3 4.36538V7.62492C11.3 8.22522 11.8057 8.71144 12.43 8.71144H13.56C14.1844 8.71144 14.69 8.22522 14.69 7.62492V4.36538C14.69 3.76508 14.1844 3.27887 13.56 3.27887ZM13.56 7.3533C13.56 7.50324 13.4335 7.62493 13.2775 7.62493H12.7125C12.5566 7.62493 12.43 7.50324 12.43 7.3533V4.63701C12.43 4.48708 12.5566 4.36539 12.7125 4.36539H13.2775C13.4335 4.36539 13.56 4.48708 13.56 4.63702L13.56 7.3533Z"
    />
  <path
    d="M9.88754 0.562683H9.32255C9.16661 0.562683 9.04005 0.684372 9.04005 0.834312V4.36548H6.21507V0.834314C6.21507 0.684376 6.08851 0.562686 5.93258 0.562686H5.36758C5.21164 0.562686 5.08508 0.684376 5.08508 0.834316V4.36548C5.08508 4.96578 5.59075 5.452 6.21507 5.452H9.04005V7.62503H5.36758C5.21164 7.62503 5.08508 7.74672 5.08508 7.89665V8.43991C5.08508 8.58985 5.21164 8.71154 5.36758 8.71154H9.04006C9.66437 8.71154 10.17 8.22533 10.17 7.62503V0.834319C10.17 0.68438 10.0435 0.562691 9.88755 0.562691L9.88754 0.562683Z"
  />
  <path
    d="M16.1022 17.947H14.9722C14.8163 17.947 14.6897 18.0687 14.6897 18.2186V18.4903V19.5768V21.4782C14.6897 21.6281 14.8163 21.7498 14.9722 21.7498H16.1022C16.2581 21.7498 16.3847 21.6281 16.3847 21.4782V18.2187C16.3847 18.0687 16.2581 17.947 16.1022 17.947L16.1022 17.947Z"
    />
  <path d="M20.9048 18.4905H19.7748V19.577H20.9048V18.4905Z"  />
  <path
    d="M22.5998 11.9713H3.38998C1.51758 11.9713 0 13.4304 0 15.2308V22.8364C0 24.6367 1.51758 26.0959 3.38998 26.0959H22.5998C24.4722 26.0959 25.9898 24.6367 25.9898 22.8364V15.2308C25.9898 13.4304 24.4722 11.9713 22.5998 11.9713ZM7.34495 22.5648C7.34495 22.7147 7.21839 22.8364 7.06245 22.8364H6.49745C6.34151 22.8364 6.21496 22.7147 6.21496 22.5648V15.7741H4.23747C4.08153 15.7741 3.95497 15.6524 3.95497 15.5024V14.9592C3.95497 14.8092 4.08153 14.6875 4.23747 14.6875H9.32244C9.47838 14.6875 9.60493 14.8092 9.60493 14.9592V15.5024C9.60493 15.6524 9.47838 15.7741 9.32244 15.7741H7.34495L7.34495 22.5648ZM12.4299 21.7499C12.4299 22.3502 11.9242 22.8364 11.2999 22.8364H10.1699C9.54561 22.8364 9.03993 22.3502 9.03993 21.7499V17.6754C9.03993 17.5255 9.16649 17.4038 9.32243 17.4038H9.88743C10.0434 17.4038 10.1699 17.5255 10.1699 17.6755V21.7499H11.2999V17.6755C11.2999 17.5255 11.4265 17.4038 11.5824 17.4038H12.1474C12.3034 17.4038 12.4299 17.5255 12.4299 17.6755L12.4299 21.7499ZM17.5149 21.7499C17.5149 22.3502 17.0092 22.8364 16.3849 22.8364H14.6899C14.0656 22.8364 13.5599 22.3502 13.5599 21.7499V14.9592C13.5599 14.8092 13.6865 14.6875 13.8424 14.6875H14.4074C14.5633 14.6875 14.6899 14.8092 14.6899 14.9592V15.7741V16.8606H16.3849C17.0092 16.8606 17.5149 17.3468 17.5149 17.9471L17.5149 21.7499ZM22.0348 19.5768C22.0348 20.1771 21.5292 20.6634 20.9048 20.6634H19.7749V21.7499H20.9048V21.4636C20.9048 21.3218 21.0246 21.2066 21.1721 21.2066H21.767C21.9151 21.2066 22.0348 21.3218 22.0348 21.4636V21.7499C22.0348 22.3502 21.5292 22.8364 20.9048 22.8364H19.7749C19.1505 22.8364 18.6449 22.3502 18.6449 21.7499V18.4903C18.6449 17.89 19.1505 17.4038 19.7749 17.4038H20.9048C21.5292 17.4038 22.0348 17.89 22.0348 18.4903V19.5768Z"
   />
</svg>
