<?xml version="1.0" encoding="utf-8"?>
<!-- Generator: Adobe Illustrator 24.1.3, SVG Export Plug-In . SVG Version: 6.00 Build 0)  -->
<svg version="1.1" id="Слой_1" xmlns="http://www.w3.org/2000/svg" xmlns:xlink="http://www.w3.org/1999/xlink" x="0px" y="0px"
	 viewBox="0 0 912 912.7" style="enable-background:new 0 0 912 912.7;" xml:space="preserve">
<style type="text/css">
	.st0{fill:#59EF67;}
	.st1{fill:#1AB9FF;}
</style>
<path class="st0" d="M335.9,116.7C186.2,117,65,238.4,65,388.2c0,89,42.8,167.9,108.9,217.5c26.9-50.3,82.8-75.3,130.5-105
	c-48.5-13.8-84.1-58.1-84.8-110.8c-0.9-63.1,49.2-116.1,112.4-118.5c66.7-2.5,121.5,50.8,121.5,116.8c0,1.4,0,2.8-0.1,4.3h0.1v157.9
	c0,95.4,47,171.8,125.6,225.8l28.9,19.9V390.5C607.9,241,485.5,116.5,335.9,116.7z"/>
<path class="st1" d="M847.1,574L661.6,451.7V496h-20.2c-46.6,2.1-112.9,1.4-192.8,0.9c-97.7-0.6-106.3,5.9-170-6.6
	c-50.2-9.8-119.6-73.9-108.9-180.1c16.7-164.7,155.9-193.5,155.9-193.5s-99.4-5.4-185.4,84.7c-53.9,56.4-75.9,111.5-75.3,186.8
	c0.7,86.7,40.5,145.2,65.1,176.8c15,19.3,47,48,85.8,66.5c60.1,38.6,252.3,23.1,429.7,23.1h16.1v40.3L847.1,574z"/>
</svg>
